<svg xmlns="http://www.w3.org/2000/svg" xmlns:xlink="http://www.w3.org/1999/xlink" viewBox="0 0 178 184"><defs><style>.cls-1{fill:none;}.cls-2{fill:#d4dee1;}.cls-3{clip-path:url(#clip-path);}.cls-4{fill:#94b7bd;}.cls-5{fill:#263238;}.cls-6{fill:#1c5a68;}.cls-7{fill:#fff;}.cls-8{fill:#f5f5f6;}</style><clipPath id="clip-path"><rect class="cls-1" x="53.77" y="51.23" width="70.46" height="64.91" transform="translate(0.77 168.18) rotate(-87)"/></clipPath></defs><g id="Calque_2" data-name="Calque 2"><g id="Calque_1-2" data-name="Calque 1"><path id="bulle_fond" data-name="bulle fond" class="cls-2" d="M0,83.28C0,26.73,24.75,0,77.12,0H99c55.23,0,79,26.73,79,83.28v17.44C178,157.26,153.26,184,99,184H77.12C25.71,184,0,157.26,0,100.72Z"/><g id="Group_20" data-name="Group 20"><g id="Group_3" data-name="Group 3"><path id="Clip_2-2" data-name="Clip 2-2" class="cls-1" d="M58.43,46.8l64.82,3.4-3.68,70.37-64.82-3.4Z"/><g class="cls-3"><g id="Group_3-2" data-name="Group 3-2"><path id="Fill_1" data-name="Fill 1" class="cls-4" d="M121.61,80.37a32.46,32.46,0,1,0-45.92,29.76c0,3.82.1,8.14.1,8.14l28.45-.33s.11-4.58.12-8.66A32.25,32.25,0,0,0,121.6,80.36"/></g></g></g><path id="Fill_4-2" data-name="Fill 4-2" class="cls-5" d="M93.14,118.07l0-.41c0-.28.07-.68.12-1.19.12-1.06.28-2.61.55-4.6s.63-4.43,1.22-7.23a50,50,0,0,1,2.86-9.27,31,31,0,0,1,2.64-5,6,6,0,0,1,2.21-2.07,3.33,3.33,0,0,1,3.1.06,2.29,2.29,0,0,1,1,1.3,2.41,2.41,0,0,1-.12,1.71,4.69,4.69,0,0,1-2.5,2.24,8.82,8.82,0,0,1-6.8-.4,9.12,9.12,0,0,1-4.68-5.48,7.09,7.09,0,0,1-.24-3.82,3,3,0,0,1,3-2.34,2.09,2.09,0,0,1,1.68,1.15,3.07,3.07,0,0,1,.29,2,6.55,6.55,0,0,1-2.26,3.32,9.68,9.68,0,0,1-7.6,2.35,8.49,8.49,0,0,1-6.37-4.7,5,5,0,0,1-.27-4,2.52,2.52,0,0,1,1.42-1.49,2.44,2.44,0,0,1,2,.16,3.35,3.35,0,0,1,1.4,1.44,5.28,5.28,0,0,1,.52,1.9,9.63,9.63,0,0,1-.46,3.8A9.74,9.74,0,0,1,74.6,94.19a5.21,5.21,0,0,1-3-1.55,2.6,2.6,0,0,1-.21-3.19,2.07,2.07,0,0,1,1.45-.75,2.94,2.94,0,0,1,1.57.29,4.82,4.82,0,0,1,2,2.25c.84,1.79,1.51,3.52,2.2,5.19,2.69,6.65,4.61,12.13,5.89,15.93.65,1.9,1.12,3.39,1.44,4.39l.35,1.15c.08.26.11.4.11.4l-.15-.39-.39-1.13c-.34-1-.85-2.48-1.5-4.37-1.33-3.78-3.29-9.25-6-15.88-.69-1.64-1.39-3.4-2.22-5.15a4.48,4.48,0,0,0-1.89-2.1,2.2,2.2,0,0,0-2.63.38,2.26,2.26,0,0,0,.22,2.75,4.82,4.82,0,0,0,2.78,1.42,9.38,9.38,0,0,0,6.5-1,9.49,9.49,0,0,0,4.36-5.41A9.37,9.37,0,0,0,86,83.77a3.62,3.62,0,0,0-1.71-3,2,2,0,0,0-1.69-.14,2.16,2.16,0,0,0-1.19,1.27,4.66,4.66,0,0,0,.26,3.69A8.07,8.07,0,0,0,87.7,90,9.25,9.25,0,0,0,95,87.77a6.15,6.15,0,0,0,2.13-3.09,2.65,2.65,0,0,0-.24-1.77A1.75,1.75,0,0,0,95.5,82a2.33,2.33,0,0,0-1.62.55A3,3,0,0,0,93,84a6.78,6.78,0,0,0,.23,3.6,8.8,8.8,0,0,0,4.47,5.26,8.51,8.51,0,0,0,6.51.4,4.37,4.37,0,0,0,2.32-2.06,2,2,0,0,0-.79-2.56,3,3,0,0,0-2.8-.06,5.7,5.7,0,0,0-2.1,2,32.4,32.4,0,0,0-2.63,4.93,50.26,50.26,0,0,0-2.9,9.21c-.61,2.78-1,5.21-1.28,7.2s-.48,3.52-.63,4.58c-.06.51-.12.91-.16,1.2a2.43,2.43,0,0,1-.07.4"/><path id="Fill_6" data-name="Fill 6" class="cls-6" d="M101.74,124.21l-24.4.53a1.93,1.93,0,0,1-1.84-2v0a2,2,0,0,1,1.82-2.14l24.41-.53a1.94,1.94,0,0,1,1.84,2v0a2,2,0,0,1-1.82,2.13"/><path id="Fill_8" data-name="Fill 8" class="cls-6" d="M102.91,125l-24.39.34a1.87,1.87,0,0,0,0,3.74h0l2.68,0,3.62,6.87A2.37,2.37,0,0,0,87,137.2l8.72-.12a2.35,2.35,0,0,0,2.07-1.34l3.38-6.94,1.82,0a1.86,1.86,0,0,0,1.81-1.9,1.84,1.84,0,0,0-1.84-1.85h0"/><path id="Fill_10" data-name="Fill 10" class="cls-7" d="M68.05,59.88a23.84,23.84,0,0,1,6.46-4.42,17.47,17.47,0,0,1,5-1.52c1.23-.14,1.93,0,2,.23.15.59-2.3,1.5-5.6,3.76A26.81,26.81,0,0,0,64,84.4c.5,4,1.45,6.41.91,6.69-.23.12-.78-.33-1.49-1.35A17.21,17.21,0,0,1,61.26,85a24,24,0,0,1-1-7.77,25.45,25.45,0,0,1,2.16-9.45"/><path id="Fill_12" data-name="Fill 12" class="cls-7" d="M89.53,56.36c-2,0-3.78-.52-4-1.61-.09-.53.28-1.11,1-1.57a6.21,6.21,0,0,1,6,0c.73.44,1.1,1,1,1.55"/><path id="Fill_14" data-name="Fill 14" class="cls-8" d="M96.53,136.68s-.62-.2-1.61-.46a14.29,14.29,0,0,0-4-.44,14.08,14.08,0,0,0-3.91.73c-1,.34-1.53.63-1.56.58a4.9,4.9,0,0,1,1.46-.82,11.84,11.84,0,0,1,8-.29,4.93,4.93,0,0,1,1.53.7"/><path id="Fill_16" data-name="Fill 16" class="cls-8" d="M100.55,128.93c0,.08-4.48.13-10,.1s-10-.12-10-.2,4.48-.13,10-.1,10,.11,10,.2"/><path id="Fill_18" data-name="Fill 18" class="cls-8" d="M98.55,131.82a20.29,20.29,0,0,1-2.34.17c-1.44.06-3.45.12-5.66.13s-4.22,0-5.68-.06a18.51,18.51,0,0,1-2.35-.13,18.45,18.45,0,0,1,2.35-.07l5.67,0,5.66-.05a18.44,18.44,0,0,1,2.35,0"/></g></g></g></svg>