<svg xmlns="http://www.w3.org/2000/svg" viewBox="0 0 178 184"><defs><style>.cls-1{fill:#d4dee1;}.cls-2{fill:#f5f5f6;}.cls-3{fill:#1c5b68;}.cls-4{fill:#94b7bd;}</style></defs><g id="Calque_2" data-name="Calque 2"><g id="Calque_1-2" data-name="Calque 1"><path id="bulle_fond" data-name="bulle fond" class="cls-1" d="M0,83.28C0,26.73,24.75,0,77.12,0H99c55.23,0,79,26.73,79,83.28v17.44C178,157.26,153.26,184,99,184H77.12C25.71,184,0,157.26,0,100.72Z"/><g id="freepik--Document--inject-715"><rect class="cls-2" x="42.3" y="32.83" width="93.2" height="118.83"/><path class="cls-3" d="M135.49,151.66v-8.75c0-5.65,0-13.89-.06-24.34,0-20.88-.08-50.55-.12-85.82l.25.25H42.37l.29-.28c0,44.05,0,85-.06,118.83l-.23-.24,67.62.13,18.88.06h.1l-18.83.05-67.77.12h-.23V32.33h93.72v.53c0,35.32-.09,65.05-.12,86,0,10.43-.05,18.65-.07,24.28v8.05A.62.62,0,0,1,135.49,151.66Z"/><path class="cls-3" d="M123.48,52.53c0,.32-7.86.57-17.55.57s-17.57-.25-17.57-.57S96.22,52,105.93,52,123.48,52.22,123.48,52.53Z"/><path class="cls-3" d="M123.48,59.4c0,.31-7.86.58-17.55.58s-17.57-.27-17.57-.58,7.86-.57,17.57-.57S123.48,59.1,123.48,59.4Z"/><path class="cls-3" d="M123.48,67.3c0,.31-7.86.56-17.55.56s-17.57-.25-17.57-.56,7.86-.57,17.57-.57S123.48,67,123.48,67.3Z"/><path class="cls-3" d="M82.38,83.85c0,.32-6.94.57-15.51.57s-15.52-.25-15.52-.57,6.95-.56,15.52-.56S82.38,83.54,82.38,83.85Z"/><path class="cls-3" d="M82.38,90.73c0,.3-6.94.56-15.51.56S51.35,91,51.35,90.73s6.95-.57,15.52-.57S82.38,90.44,82.38,90.73Z"/><path class="cls-3" d="M82.38,98.62c0,.31-6.94.56-15.51.56s-15.52-.25-15.52-.56,6.95-.57,15.52-.57S82.38,98.3,82.38,98.62Z"/><path class="cls-3" d="M82.38,106.87c0,.32-6.94.57-15.51.57s-15.52-.25-15.52-.57,6.95-.56,15.52-.56S82.38,106.56,82.38,106.87Z"/><path class="cls-3" d="M82.38,113.75c0,.3-6.94.56-15.51.56s-15.52-.26-15.52-.56,6.95-.57,15.52-.57S82.38,113.43,82.38,113.75Z"/><path class="cls-3" d="M82.38,121.64c0,.31-6.94.56-15.51.56s-15.52-.25-15.52-.56,6.95-.57,15.52-.57S82.38,121.32,82.38,121.64Z"/><path class="cls-3" d="M82.38,129.89c0,.32-6.94.57-15.51.57s-15.52-.25-15.52-.57,6.95-.56,15.52-.56S82.38,129.54,82.38,129.89Z"/><path class="cls-3" d="M82.38,136.77c0,.3-6.94.56-15.51.56s-15.52-.26-15.52-.56,6.95-.57,15.52-.57S82.38,136.45,82.38,136.77Z"/><path class="cls-3" d="M125.26,136.77c0,.3-7.6.56-16.9.56s-16.9-.26-16.9-.56,7.6-.57,16.9-.57S125.26,136.45,125.26,136.77Z"/><path class="cls-3" d="M124.59,113.75c0,.3-7.61.56-16.91.56s-16.9-.26-16.9-.56,7.61-.57,16.9-.57S124.59,113.43,124.59,113.75Z"/><path class="cls-3" d="M124.59,120.61c0,.32-7.61.57-16.91.57s-16.9-.25-16.9-.57,7.61-.56,16.9-.56S124.59,120.3,124.59,120.61Z"/><path class="cls-3" d="M124.59,128.51c0,.31-7.61.57-16.91.57s-16.9-.26-16.9-.57,7.61-.56,16.9-.56S124.59,128.2,124.59,128.51Z"/><rect class="cls-4" x="92.53" y="79.32" width="29.79" height="22.4"/><polygon class="cls-3" points="92.53 94.91 100.19 89.82 108.36 94.91 117.14 88.44 122.33 91.67 122.33 101.72 92.53 101.72 92.53 94.91"/><path class="cls-3" d="M111.28,85.75a2.69,2.69,0,1,1-2.69-2.67h0A2.7,2.7,0,0,1,111.28,85.75Z"/><path class="cls-3" d="M73.78,51.63,74,56.19h-.55A5.7,5.7,0,0,0,73,54.47a2.89,2.89,0,0,0-1.18-1.22,4.12,4.12,0,0,0-2-.4H67.15V67.7a3.94,3.94,0,0,0,.4,2.24,2.14,2.14,0,0,0,1.67.59h.67v.54H61.65v-.54h.69a2,2,0,0,0,1.75-.73,4.59,4.59,0,0,0,.32-2.1V52.85H62a6.06,6.06,0,0,0-1.94.21,2.65,2.65,0,0,0-1.28,1.08,4.47,4.47,0,0,0-.63,2.1h-.5l.23-4.56Z"/></g></g></g></svg>