<svg xmlns="http://www.w3.org/2000/svg" xmlns:xlink="http://www.w3.org/1999/xlink" viewBox="0 0 178 184"><defs><style>.cls-1{fill:none;}.cls-2{fill:#d4dee1;}.cls-3{fill:#94b7bd;}.cls-4{fill:#fff;}.cls-5{fill:#1c5a68;}.cls-6{clip-path:url(#clip-path);}.cls-7{clip-path:url(#clip-path-2);}.cls-8{fill:#f5f5f6;}</style><clipPath id="clip-path"><rect class="cls-1" x="59.14" y="84.49" width="5.17" height="1.46"/></clipPath><clipPath id="clip-path-2"><rect class="cls-1" x="71.09" y="109.28" width="38.46" height="27.51"/></clipPath></defs><g id="Calque_2" data-name="Calque 2"><g id="Calque_1-2" data-name="Calque 1"><path id="bulle_fond" data-name="bulle fond" class="cls-2" d="M0,83.28C0,26.73,24.75,0,77.12,0H99c55.23,0,79,26.73,79,83.28v17.44C178,157.26,153.26,184,99,184H77.12C25.71,184,0,157.26,0,100.72Z"/><path id="Fill_1" data-name="Fill 1" class="cls-3" d="M76.91,105.63c-8.78-5-13.48-16.67-13.83-26.21s3.69-19.5,11.64-25a27,27,0,0,1,28.9-.24,29.47,29.47,0,0,1,13.26,25.71,33.94,33.94,0,0,1-14.19,25.62"/><path id="Fill_3" data-name="Fill 3" class="cls-4" d="M91.18,106.61a10.67,10.67,0,0,1-.16-2.19c-.06-1.56-.12-3.55-.19-6-.13-5-.35-12-.71-19.62S89.3,64.26,89,59.24c-.16-2.39-.29-4.39-.39-5.94a10.69,10.69,0,0,1,0-2.19,10.4,10.4,0,0,1,.37,2.15c.19,1.4.41,3.42.67,5.93.49,5,1,12,1.4,19.62s.48,14.62.46,19.65c0,2.52,0,4.55-.1,6a10.62,10.62,0,0,1-.16,2.18"/><path id="Fill_5" data-name="Fill 5" class="cls-5" d="M65,77.71c0,.28-1.35.37-3,.19s-2.93-.54-2.91-.81,1.35-.37,3-.2,2.92.54,2.91.82"/><path id="Fill_7" data-name="Fill 7" class="cls-5" d="M66,68.58a5.56,5.56,0,0,1-2.6-.61C62,67.46,61,66.91,61.1,66.74a5.39,5.39,0,0,1,2.61.61c1.35.51,2.37,1.06,2.28,1.23"/><path id="Fill_9" data-name="Fill 9" class="cls-5" d="M69.9,62.76c-.11.18-1.43-.42-2.8-1.5S64.87,59.05,65,58.91s1.25.71,2.58,1.76S70,62.58,69.9,62.76"/><path id="Fill_11" data-name="Fill 11" class="cls-5" d="M74.75,56.94c-.18.1-.74-.92-1.24-2.26s-.79-2.5-.61-2.6.74.93,1.25,2.27.78,2.5.6,2.6"/><path id="Fill_13" data-name="Fill 13" class="cls-5" d="M81.59,52.07c-.21.09-1-.9-1.45-2.27s-.54-2.55-.3-2.59.65,1,1.13,2.37.84,2.41.62,2.5"/><path id="Fill_15" data-name="Fill 15" class="cls-5" d="M94.25,47.21c.27.08.11,1-.36,2.08s-1.06,1.89-1.33,1.81-.1-1,.37-2.08,1.06-1.88,1.32-1.81"/><path id="Fill_17" data-name="Fill 17" class="cls-5" d="M102.19,51.14c.15.16-.38.94-1.18,1.73s-1.56,1.29-1.7,1.13.38-1,1.18-1.73,1.56-1.29,1.7-1.12"/><path id="Fill_19" data-name="Fill 19" class="cls-5" d="M110,56c.14.22-.61,1-1.68,1.81s-2,1.22-2.2,1,.61-1,1.69-1.81,2-1.22,2.19-1"/><path id="Fill_21" data-name="Fill 21" class="cls-5" d="M114.94,63.82c.09.17-.94.73-2.29,1.24s-2.51.77-2.6.6.94-.73,2.29-1.23,2.52-.79,2.6-.61"/><path id="Fill_23" data-name="Fill 23" class="cls-5" d="M117.88,71.17c0,.28-1,.68-2.4.89s-2.47.15-2.49-.12,1-.68,2.4-.89,2.46-.16,2.48.12"/><path id="Fill_25" data-name="Fill 25" class="cls-5" d="M118.85,81.24c-.09.18-1.25-.09-2.6-.6s-2.37-1.06-2.28-1.24,1.26.09,2.61.59,2.36,1.07,2.27,1.25"/><path id="Fill_27" data-name="Fill 27" class="cls-5" d="M117.88,90c-.08.23-1.68-.15-3.36-1.25s-2.67-2.4-2.49-2.56,1.39.79,3,1.82,3,1.76,2.87,2"/><path id="Fill_29" data-name="Fill 29" class="cls-5" d="M113,96.85c-.13.16-1.27-.47-2.36-1.56s-1.69-2.19-1.51-2.3,1,.75,2.09,1.8,1.92,1.89,1.78,2.06"/><path id="Fill_31" data-name="Fill 31" class="cls-5" d="M70.88,98.86c.11.19-1.12,1-2.74,1.76A7.41,7.41,0,0,1,65,101.7c-.1-.19,1.12-1,2.74-1.76a7.41,7.41,0,0,1,3.12-1.08"/><path id="Fill_33" data-name="Fill 33" class="cls-5" d="M68,92.06c.08.17-.92.73-2.27,1.23s-2.52.78-2.62.6.92-.73,2.27-1.23,2.52-.78,2.62-.6"/><g id="Group_37" data-name="Group 37"><path id="Clip_36-2" data-name="Clip 36-2" class="cls-1" d="M59.14,84.49h5.17V86H59.14Z"/><g class="cls-6"><g id="Group_37-2" data-name="Group 37-2"><path id="Fill_35" data-name="Fill 35" class="cls-5" d="M64.31,84.85c0,.21-1.1.54-2.53.74s-2.61.2-2.64,0,1.1-.54,2.53-.74,2.61-.2,2.64,0"/></g></g></g><path id="Fill_38" data-name="Fill 38" class="cls-5" d="M73.82,81.71c.07.26-1.18.94-2.86,1.16s-3-.11-3-.39,1.33-.4,2.91-.62,2.9-.42,3-.15"/><path id="Fill_40" data-name="Fill 40" class="cls-5" d="M81.66,74c.07.27-1,.86-2.39,1s-2.54-.2-2.51-.47,1.11-.39,2.42-.54,2.39-.27,2.48,0"/><path id="Fill_42" data-name="Fill 42" class="cls-5" d="M82.63,68.52c-.07.25-1,.07-2.07-.41S78.66,67,78.72,66.8s1-.07,2.08.41,1.9,1.06,1.83,1.31"/><path id="Fill_44" data-name="Fill 44" class="cls-5" d="M85.53,61.79c-.17.15-.91-.3-1.43-1.16s-.58-1.67-.36-1.73.64.57,1.11,1.32.86,1.4.68,1.56"/><path id="Fill_46" data-name="Fill 46" class="cls-5" d="M82.63,87.48c.06.28-.85.77-2,1.12a6.27,6.27,0,0,1-1.71.3l-.17-.59c.31-.06.5,0,.54.06s-.08.29-.33.52l-.17-.6a7.57,7.57,0,0,1,1.64-.68c1.18-.34,2.18-.4,2.23-.13"/><path id="Fill_48" data-name="Fill 48" class="cls-5" d="M83.61,97.9c.08.19-1,.75-2.3,1.25s-2.51.77-2.59.58,1-.74,2.31-1.24,2.5-.77,2.58-.59"/><path id="Fill_50" data-name="Fill 50" class="cls-5" d="M75.78,93.19c.08.27-.73.83-1.81,1.24s-2,.54-2.1.28.74-.82,1.81-1.24,2-.55,2.1-.28"/><path id="Fill_52" data-name="Fill 52" class="cls-5" d="M75.78,71.46c0,.2-1.23.08-2.6-.42s-2.37-1.19-2.29-1.38,1.2.17,2.53.65,2.41.94,2.36,1.15"/><path id="Fill_54" data-name="Fill 54" class="cls-5" d="M97.31,68.69c.13.21-.64,1-1.71,1.79s-2,1.24-2.18,1,.64-1,1.71-1.8,2.05-1.23,2.18-1"/><path id="Fill_56" data-name="Fill 56" class="cls-5" d="M98.3,79.85c0,.28-.79.71-1.87,1s-2,.24-2,0,.78-.7,1.86-1,2-.24,2,0"/><path id="Fill_58" data-name="Fill 58" class="cls-5" d="M99.27,92a5.42,5.42,0,0,1-2.62-.6c-1.35-.51-2.36-1.06-2.26-1.24a5.31,5.31,0,0,1,2.62.6c1.35.51,2.37,1.06,2.26,1.24"/><path id="Fill_60" data-name="Fill 60" class="cls-5" d="M97.28,103.67c-.19.13-1-.41-1.77-1.21s-1.28-1.54-1.08-1.67,1,.4,1.77,1.2,1.27,1.55,1.08,1.68"/><path id="Fill_62" data-name="Fill 62" class="cls-5" d="M96.32,60.91c.14.22-.35,1-1.2,1.45s-1.65.53-1.71.27.56-.71,1.32-1.16,1.44-.78,1.59-.56"/><path id="Fill_64" data-name="Fill 64" class="cls-5" d="M106.13,72c.08.26-.95.91-2.36,1.13s-2.55-.07-2.53-.35,1.1-.44,2.41-.66,2.4-.39,2.48-.12"/><path id="Fill_66" data-name="Fill 66" class="cls-5" d="M104.17,61.89c.1.22-.87,1-2.26,1.47s-2.59.49-2.63.24,1-.65,2.37-1.12,2.42-.83,2.52-.59"/><path id="Fill_68" data-name="Fill 68" class="cls-5" d="M109.07,86.84c0,.28-1.61.45-3.54,0s-3.38-1.29-3.31-1.55,1.59.14,3.46.56,3.4.7,3.39,1"/><path id="Fill_70" data-name="Fill 70" class="cls-5" d="M105.14,100.74c-.12.17-1.22-.48-2.31-1.56s-1.73-2.17-1.57-2.3,1,.72,2.11,1.77,1.9,1.93,1.77,2.09"/><path id="Fill_72" data-name="Fill 72" class="cls-4" d="M88.51,50.13a38.08,38.08,0,0,0-7.38,5.62A34.09,34.09,0,0,0,71.94,75.3a42.23,42.23,0,0,0,.55,12,90.44,90.44,0,0,0,2.33,9.62c.81,2.71,1.55,4.88,2.05,6.38a15.23,15.23,0,0,1,.71,2.36,13.13,13.13,0,0,1-1-2.26c-.59-1.47-1.42-3.62-2.31-6.31a80.66,80.66,0,0,1-2.52-9.66,41.63,41.63,0,0,1-.63-12.2,33.66,33.66,0,0,1,9.6-19.86,26.5,26.5,0,0,1,5.51-4.14,16.45,16.45,0,0,1,1.68-.84,2.22,2.22,0,0,1,.62-.24"/><path id="Fill_74" data-name="Fill 74" class="cls-4" d="M99.12,106.61a88.53,88.53,0,0,0,3.61-8.67,49.2,49.2,0,0,0,2.16-22.3,42.11,42.11,0,0,0-3.42-11.89,28.1,28.1,0,0,0-5.84-8.16A21.23,21.23,0,0,0,89.9,52c-1.49-.62-2.38-.77-2.37-.84a2.15,2.15,0,0,1,.67.05,12.55,12.55,0,0,1,1.82.5,19.9,19.9,0,0,1,6,3.49,27.61,27.61,0,0,1,6.14,8.28,41.45,41.45,0,0,1,3.55,12.09,47.6,47.6,0,0,1-2.42,22.6c-.45,1.39-1,2.59-1.48,3.66s-.94,1.95-1.33,2.66a16.22,16.22,0,0,1-1.35,2.16"/><path id="Fill_76" data-name="Fill 76" class="cls-5" d="M68,104.66h44.76l.27,8.76H68Z"/><g id="Group_80" data-name="Group 80"><path id="Clip_79-2" data-name="Clip 79-2" class="cls-1" d="M71.09,109.28h38.47v27.51H71.09Z"/><g class="cls-7"><g id="Group_80-2" data-name="Group 80-2"><path id="Fill_78" data-name="Fill 78" class="cls-5" d="M71.09,109.28l2.61,27.51h33.19l2.67-27.21Z"/></g></g></g><path id="Fill_81" data-name="Fill 81" class="cls-8" d="M113,113.42c0,.28-10.08.51-22.52.51S68,113.7,68,113.42s10.08-.5,22.52-.5,22.52.22,22.52.5"/><path id="Fill_83" data-name="Fill 83" class="cls-8" d="M108.09,122a6.66,6.66,0,0,1-1,1.72,25.33,25.33,0,0,1-3.54,4.12l-.21.2-.21-.21a65.09,65.09,0,0,0-9-7.72l.5,0-4,3.44-4.69,4-.26.22-.26-.21-7.63-6.32.44,0-3.94,4.73a11.16,11.16,0,0,1-1.55,1.67,10.88,10.88,0,0,1,1.27-1.88l3.73-4.9.19-.26.26.21L86,126.93h-.52l4.67-4.05,4-3.41.24-.2.26.18a57.63,57.63,0,0,1,8.91,8l-.42,0a45.84,45.84,0,0,0,4.92-5.41"/></g></g></svg>