<svg xmlns="http://www.w3.org/2000/svg" viewBox="0 0 178 184"><defs><style>.cls-1{fill:#d4dee1;}.cls-2{fill:#f5f5f6;}.cls-3{fill:#94b7bd;}.cls-4{fill:#3f3f3f;}.cls-5{opacity:0.6;}.cls-6{fill:#1c5a68;}</style></defs><g id="Calque_2" data-name="Calque 2"><g id="Calque_1-2" data-name="Calque 1"><path id="bulle_fond" data-name="bulle fond" class="cls-1" d="M0,83.28C0,26.73,24.75,0,77.12,0H99c55.23,0,79,26.73,79,83.28v17.44C178,157.26,153.26,184,99,184H77.12C25.71,184,0,157.26,0,100.72Z"/><g id="Calque_1-2-2" data-name="Calque 1-2"><polygon class="cls-2" points="145.08 53.98 152.66 135.49 145.08 135.49 145.08 53.98"/><rect class="cls-2" x="35.95" y="53.98" width="109.13" height="81.51"/><rect class="cls-3" x="35.95" y="53.98" width="109.13" height="20.06"/><path class="cls-4" d="M36,54l109.13-.07h0v81.61H35.89v-.05c0-49.35,0-81.08,0-81.51,0,.43,0,32.15.05,81.51l-.05-.05H145.07l-.06.06h0V54l.06.05Z"/><path class="cls-4" d="M145.18,73.73s-24.59.07-54.92.07-54.92,0-54.92-.07,24.59-.06,54.92-.06S145.18,73.7,145.18,73.73Z"/><path class="cls-3" d="M73.64,99.53h56.87a5.86,5.86,0,0,1,5.86,5.86h0a5.86,5.86,0,0,1-5.86,5.86H73.64a5.86,5.86,0,0,1-5.86-5.86h0A5.86,5.86,0,0,1,73.64,99.53Z"/><path class="cls-3" d="M46.39,112H61.92a5.85,5.85,0,0,1,5.86,5.85h0a5.86,5.86,0,0,1-5.86,5.86H46.39a5.86,5.86,0,0,1-5.86-5.86h0A5.85,5.85,0,0,1,46.39,112Z"/><circle class="cls-4" cx="53.35" cy="57.6" r="2.22"/><path class="cls-4" d="M53.35,60a2.36,2.36,0,1,1,2.33-2.38v0h0A2.34,2.34,0,0,1,53.35,60Zm0-4.46a2.12,2.12,0,1,0,2.11,2.12h0a2.12,2.12,0,0,0-2.1-2.12Z"/><circle class="cls-4" cx="71.73" cy="57.6" r="2.22"/><path class="cls-4" d="M71.73,60a2.36,2.36,0,1,1,2.35-2.35h0A2.35,2.35,0,0,1,71.73,60Zm0-4.46a2.12,2.12,0,1,0,2.1,2.12h0a2.11,2.11,0,0,0-2.1-2.12Z"/><circle class="cls-4" cx="90.1" cy="57.6" r="2.22"/><path class="cls-4" d="M90.1,60a2.36,2.36,0,0,1,0-4.71,2.37,2.37,0,0,1,2.37,2.35h0A2.35,2.35,0,0,1,90.11,60Zm0-4.46a2.12,2.12,0,1,0,2.1,2.12h0a2.1,2.1,0,0,0-2.09-2.12Z"/><circle class="cls-4" cx="108.47" cy="57.6" r="2.22"/><path class="cls-4" d="M108.47,60a2.36,2.36,0,1,1,2.35-2.36h0A2.35,2.35,0,0,1,108.48,60Zm0-4.46a2.12,2.12,0,1,0,2.11,2.12h0a2.12,2.12,0,0,0-2.1-2.12Z"/><circle class="cls-4" cx="126.85" cy="57.6" r="2.22"/><path class="cls-4" d="M126.88,60a2.36,2.36,0,1,1,2.35-2.35A2.35,2.35,0,0,1,126.88,60Zm0-4.46a2.12,2.12,0,1,0,2.1,2.12h0a2.1,2.1,0,0,0-2.09-2.12Z"/><path class="cls-4" d="M46.3,78.08V82.5h-.63V78.63h-1v-.55Z"/><path class="cls-4" d="M61.82,82v.55H58.64v-.43l1.8-1.74c.47-.45.56-.73.56-1,0-.46-.33-.73-1-.73a1.38,1.38,0,0,0-1.13.5l-.43-.38A2.11,2.11,0,0,1,60.11,78c.93,0,1.52.48,1.52,1.23a1.78,1.78,0,0,1-.74,1.4L59.54,82Z"/><path class="cls-4" d="M75.21,81.2c0,.75-.55,1.36-1.68,1.36A2.57,2.57,0,0,1,71.91,82l.29-.49a2,2,0,0,0,1.35.47c.66,0,1-.3,1-.81s-.34-.77-1.1-.77h-.36V80l1.12-1.37H72.11v-.56H75v.43l-1.15,1.43C74.75,80,75.21,80.52,75.21,81.2Z"/><path class="cls-4" d="M90.11,81.42H89.3V82.5h-.62V81.42H86.26V81l2.27-2.89h.68L87,80.87h1.7v-1h.6v1h.81Z"/><path class="cls-4" d="M103,81.18c0,.81-.54,1.39-1.67,1.39A2.5,2.5,0,0,1,99.71,82l.29-.48a2.07,2.07,0,0,0,1.33.48c.67,0,1-.32,1-.81s-.31-.81-1.34-.81h-1l.24-2.32h2.5v.55h-2l-.13,1.23h.49C102.49,79.84,103,80.39,103,81.18Z"/><path class="cls-4" d="M117.09,81.16a1.45,1.45,0,0,1-1.47,1.41h-.15c-1.19,0-1.86-.81-1.86-2.21A2.1,2.1,0,0,1,115.72,78a2,2,0,0,1,1.1.26l-.26.49a1.55,1.55,0,0,0-.84-.22c-.9,0-1.47.57-1.47,1.68a.43.43,0,0,0,0,.16,1.48,1.48,0,0,1,1.27-.59A1.39,1.39,0,0,1,117.08,81,1.09,1.09,0,0,1,117.09,81.16Zm-.61,0c0-.52-.4-.86-1-.86a.91.91,0,0,0-1,.8v.06c0,.49.37.86,1,.86a.88.88,0,0,0,1-.76s0-.07,0-.1Z"/><path class="cls-4" d="M130.59,78.08v.42l-1.8,4h-.67l1.75-3.87h-2v.8h-.6V78.08Z"/><path class="cls-4" d="M48.4,93c0,.81-.69,1.31-1.77,1.31s-1.76-.49-1.76-1.31a1.08,1.08,0,0,1,.81-1.06,1,1,0,0,1-.61-1c0-.73.64-1.19,1.62-1.19s1.61.46,1.61,1.19a1,1,0,0,1-.63,1A1.09,1.09,0,0,1,48.4,93Zm-.64,0c0-.49-.43-.81-1.13-.81s-1.12.3-1.12.81.42.81,1.12.81S47.76,93.44,47.76,93Zm-2.1-2c0,.44.36.71,1,.71s1-.27,1-.71-.39-.72-1-.72-1,.27-1,.71Z"/><path class="cls-4" d="M62,91.93a2,2,0,0,1-2.1,2.32,2.18,2.18,0,0,1-1.1-.26l.25-.49a1.6,1.6,0,0,0,.81.21c.9,0,1.47-.57,1.47-1.68v-.15a1.5,1.5,0,0,1-1.28.58,1.35,1.35,0,0,1-1.5-1.2.61.61,0,0,1,0-.14A1.45,1.45,0,0,1,60,89.71h.07C61.35,89.72,62,90.5,62,91.93Zm-.81-.81c0-.46-.36-.86-1.06-.86a.87.87,0,0,0-1,.76.34.34,0,0,0,0,.1c0,.52.39.86,1,.86a.92.92,0,0,0,1-.78.45.45,0,0,0,0-.11Z"/><path class="cls-4" d="M73.55,89.77V94.2h-.63V90.32h-1v-.55Z"/><path class="cls-4" d="M74.53,92c0-1.45.76-2.27,1.81-2.27s1.8.81,1.8,2.27-.81,2.26-1.8,2.26S74.53,93.42,74.53,92Zm3,0c0-1.14-.48-1.71-1.16-1.71s-1.18.57-1.18,1.71.49,1.71,1.18,1.71S77.5,93.12,77.5,92Z"/><path class="cls-4" d="M87.62,89.77V94.2H87V90.32H86v-.55Z"/><path class="cls-4" d="M90,89.77V94.2h-.62V90.32h-1v-.55Z"/><path class="cls-4" d="M101.27,89.77V94.2h-.63V90.32h-1v-.55Z"/><path class="cls-4" d="M105.36,93.65v.55h-3.19v-.43L104,92c.46-.45.55-.73.55-1,0-.45-.32-.73-.94-.73a1.38,1.38,0,0,0-1.14.49l-.42-.38a2,2,0,0,1,1.61-.66c.93,0,1.53.47,1.53,1.22a1.82,1.82,0,0,1-.74,1.4l-1.35,1.3Z"/><path class="cls-4" d="M115,89.77V94.2h-.63V90.32h-1v-.55Z"/><path class="cls-4" d="M119,92.89c0,.75-.55,1.36-1.67,1.36a2.55,2.55,0,0,1-1.62-.54l.29-.49a2,2,0,0,0,1.34.48c.67,0,1-.31,1-.81s-.34-.81-1.1-.81H117v-.44l1.12-1.37h-2.14v-.56h2.93v.43l-1.15,1.43C118.59,91.71,119,92.22,119,92.89Z"/><path class="cls-4" d="M128.72,89.77V94.2h-.62V90.32h-1v-.55Z"/><path class="cls-4" d="M133.55,93.11h-.8V94.2h-.62V93.11H129.7v-.45L132,89.77h.69l-2.18,2.8h1.71v-1h.59v1h.81Z"/><path class="cls-4" d="M46.3,102.67v4.43h-.63v-3.88h-1v-.55Z"/><path class="cls-4" d="M50.38,105.79c0,.76-.55,1.37-1.68,1.37a2.51,2.51,0,0,1-1.62-.53l.29-.5a2,2,0,0,0,1.33.48c.67,0,1-.31,1-.81s-.31-.81-1.34-.81h-1l.24-2.32h2.5v.55h-2l-.12,1.23h.49C49.86,104.43,50.38,105,50.38,105.79Z"/><path class="cls-4" d="M60.08,102.67v4.43h-.63v-3.88h-1v-.55Z"/><path class="cls-4" d="M64.48,105.79A1.45,1.45,0,0,1,63,107.2h-.15c-1.19,0-1.86-.81-1.86-2.21a2.11,2.11,0,0,1,2.09-2.33,2.18,2.18,0,0,1,1.1.26l-.24.5a1.43,1.43,0,0,0-.81-.21c-.9,0-1.47.56-1.47,1.67V105a1.48,1.48,0,0,1,1.29-.57,1.36,1.36,0,0,1,1.51,1.21A1,1,0,0,1,64.48,105.79Zm-.63,0c0-.52-.38-.85-1-.85a.91.91,0,0,0-1,.8.43.43,0,0,0,0,.05c0,.48.38.85,1.06.85a.86.86,0,0,0,1-.76.28.28,0,0,0,0-.09Z"/><path class="cls-2" d="M73.55,102.67v4.43h-.63v-3.88h-1v-.55Z"/><path class="cls-2" d="M77.75,102.67v.43l-1.8,4h-.67L77,103.22H75V104H74.4v-1.34Z"/><path class="cls-2" d="M87.62,102.67v4.43H87v-3.88H86v-.55Z"/><path class="cls-2" d="M92.09,105.85c0,.81-.69,1.3-1.77,1.3s-1.76-.48-1.76-1.3a1.1,1.1,0,0,1,.81-1.07,1,1,0,0,1-.62-1c0-.74.64-1.2,1.62-1.2s1.62.46,1.62,1.2a1,1,0,0,1-.63,1A1.09,1.09,0,0,1,92.09,105.85Zm-.64,0c0-.49-.43-.81-1.13-.81s-1.12.3-1.12.81.41.81,1.12.81S91.45,106.34,91.45,105.85Zm-2.09-2c0,.44.35.7,1,.7s1-.26,1-.7-.4-.72-1-.72S89.36,103.42,89.36,103.87Z"/><path class="cls-2" d="M101.27,102.67v4.43h-.63v-3.88h-1v-.55Z"/><path class="cls-2" d="M105.54,104.83a2.17,2.17,0,0,1-3.2,2.06l.25-.49a1.5,1.5,0,0,0,.83.19c.9,0,1.47-.56,1.47-1.66v-.16a1.5,1.5,0,0,1-1.28.58,1.36,1.36,0,0,1-1.5-1.2.71.71,0,0,1,0-.14,1.42,1.42,0,0,1,1.44-1.41h.12C104.87,102.62,105.54,103.42,105.54,104.83Zm-.81-.81c0-.46-.37-.86-1.06-.86a.88.88,0,0,0-1,.77.28.28,0,0,0,0,.09c0,.53.39.86,1,.86a.92.92,0,0,0,1-.76.57.57,0,0,0,0-.13Z"/><path class="cls-2" d="M116.78,106.59v.55h-3.19v-.42l1.8-1.74c.47-.46.55-.74.55-1,0-.46-.32-.74-.94-.74a1.4,1.4,0,0,0-1.13.49l-.44-.37a2.07,2.07,0,0,1,1.62-.67c.92,0,1.52.47,1.52,1.22a1.77,1.77,0,0,1-.73,1.4l-1.36,1.3Z"/><path class="cls-2" d="M117.27,104.89c0-1.45.81-2.27,1.81-2.27s1.81.81,1.81,2.27-.81,2.26-1.81,2.26S117.27,106.33,117.27,104.89Zm3,0c0-1.14-.48-1.7-1.17-1.7s-1.17.56-1.17,1.7.48,1.7,1.17,1.7S120.25,106,120.25,104.89Z"/><path class="cls-2" d="M130.46,106.59v.55h-3.18v-.42l1.8-1.74c.47-.46.56-.73.56-1,0-.46-.32-.74-.94-.74a1.4,1.4,0,0,0-1.13.49l-.44-.37a2,2,0,0,1,1.62-.67c.92,0,1.52.47,1.52,1.22a1.81,1.81,0,0,1-.74,1.4l-1.35,1.29Z"/><path class="cls-2" d="M132.37,102.67v4.43h-.64v-3.88h-1v-.55Z"/><path class="cls-2" d="M48.05,119.34v.55H44.86v-.43l1.8-1.74a1.32,1.32,0,0,0,.56-1c0-.45-.32-.73-.94-.73a1.42,1.42,0,0,0-1.14.49l-.43-.37a2.08,2.08,0,0,1,1.62-.68c.92,0,1.52.48,1.52,1.23a1.77,1.77,0,0,1-.74,1.39l-1.35,1.31Z"/><path class="cls-2" d="M51.68,119.34v.55H48.49v-.43l1.8-1.74a1.36,1.36,0,0,0,.56-1c0-.45-.32-.73-.94-.73a1.43,1.43,0,0,0-1.14.49l-.43-.37a2.09,2.09,0,0,1,1.62-.68c.93,0,1.52.48,1.52,1.23a1.77,1.77,0,0,1-.74,1.39l-1.35,1.31Z"/><path class="cls-2" d="M61.82,119.34v.55H58.64v-.43l1.8-1.74a1.36,1.36,0,0,0,.56-1c0-.45-.33-.73-1-.73a1.4,1.4,0,0,0-1.13.49l-.43-.37a2,2,0,0,1,1.62-.68c.93,0,1.52.48,1.52,1.23a1.74,1.74,0,0,1-.74,1.39l-1.35,1.31Z"/><path class="cls-2" d="M65.39,118.59c0,.75-.55,1.35-1.68,1.35a2.5,2.5,0,0,1-1.62-.54l.29-.48a2,2,0,0,0,1.34.47c.67,0,1-.3,1-.81s-.34-.81-1.1-.81h-.38v-.45L64.4,116H62.27v-.47h2.94v.43l-1.16,1.44A1.23,1.23,0,0,1,65.39,118.59Z"/><path class="cls-4" d="M75.29,119.34v.55H72.1v-.43l1.81-1.74a1.33,1.33,0,0,0,.55-1c0-.45-.32-.73-.94-.73a1.34,1.34,0,0,0-1.13.49l-.44-.37a2.09,2.09,0,0,1,1.62-.68c.92,0,1.52.48,1.52,1.23a1.76,1.76,0,0,1-.73,1.39L73,119.34Z"/><path class="cls-4" d="M79.54,118.8h-.81v1.09h-.61V118.8H75.69v-.44l2.27-2.9h.68l-2.17,2.79h1.72v-1h.57v1h.81Z"/><path class="cls-4" d="M48.05,130.69v.55H44.86v-.43l1.8-1.75c.48-.45.56-.73.56-1,0-.45-.32-.74-.94-.74a1.4,1.4,0,0,0-1.14.5l-.43-.38a2,2,0,0,1,1.62-.67c.92,0,1.52.47,1.52,1.23a1.8,1.8,0,0,1-.74,1.39l-1.35,1.3Z"/><path class="cls-4" d="M51.86,129c0,1.51-.81,2.32-2.1,2.32a2.23,2.23,0,0,1-1.1-.26l.25-.5a1.5,1.5,0,0,0,.85.22c.91,0,1.47-.57,1.47-1.68v-.15a1.5,1.5,0,0,1-1.28.58,1.36,1.36,0,0,1-1.5-1.2c0-.05,0-.09,0-.14a1.46,1.46,0,0,1,1.49-1.41H50C51.19,126.75,51.86,127.55,51.86,129Zm-.81-.85c0-.46-.37-.81-1.06-.81a.88.88,0,0,0-1,.76v.09c0,.53.39.86,1,.86a.92.92,0,0,0,1-.77.62.62,0,0,0,0-.13Z"/><path class="cls-4" d="M61.74,129.93c0,.75-.56,1.36-1.68,1.36a2.55,2.55,0,0,1-1.62-.54l.29-.49a2,2,0,0,0,1.34.47c.67,0,1-.3,1-.81s-.33-.81-1.09-.81h-.36v-.44l1.12-1.37H58.64v-.48h2.92v.43l-1.15,1.43C61.29,128.75,61.74,129.25,61.74,129.93Z"/><path class="cls-4" d="M62.33,129c0-1.45.8-2.27,1.81-2.27s1.8.81,1.8,2.27-.81,2.27-1.8,2.27S62.33,130.46,62.33,129Zm3,0c0-1.13-.48-1.72-1.17-1.72S63,127.87,63,129s.49,1.7,1.18,1.7S65.31,130.15,65.31,129Z"/><path class="cls-4" d="M75.21,129.93c0,.75-.55,1.36-1.68,1.36a2.57,2.57,0,0,1-1.62-.54l.29-.49a2,2,0,0,0,1.35.47c.66,0,1-.3,1-.81s-.34-.81-1.1-.81h-.36v-.44l1.12-1.37H72.11v-.48H75v.43l-1.15,1.43A1.25,1.25,0,0,1,75.21,129.93Z"/><path class="cls-4" d="M77.17,126.82v4.43h-.63v-3.88h-1v-.55Z"/><path class="cls-4" d="M89.36,119.34v.55H86.18v-.43L88,117.72a1.33,1.33,0,0,0,.55-1c0-.45-.32-.73-.94-.73a1.34,1.34,0,0,0-1.13.49l-.44-.37a2.08,2.08,0,0,1,1.62-.68c.92,0,1.52.48,1.52,1.23a1.77,1.77,0,0,1-.74,1.39l-1.36,1.31Z"/><path class="cls-4" d="M93,118.56c0,.81-.55,1.38-1.69,1.38a2.43,2.43,0,0,1-1.61-.54l.29-.48a2.08,2.08,0,0,0,1.33.47c.67,0,1.05-.31,1.05-.81s-.32-.81-1.34-.81H90l.24-2.32h2.5V116h-2l-.13,1.22h.5C92.48,117.23,93,117.78,93,118.56Z"/><path class="cls-4" d="M103,119.34v.55H99.83v-.43l1.8-1.74a1.36,1.36,0,0,0,.56-1c0-.45-.33-.73-1-.73a1.4,1.4,0,0,0-1.13.49l-.43-.37a2,2,0,0,1,1.62-.68c.93,0,1.52.48,1.52,1.23a1.74,1.74,0,0,1-.74,1.39l-1.35,1.31Z"/><path class="cls-4" d="M106.94,118.54a1.42,1.42,0,0,1-1.45,1.41h-.11c-1.19,0-1.87-.8-1.87-2.2a2.11,2.11,0,0,1,2.1-2.33,2.23,2.23,0,0,1,1.1.26l-.24.5a1.42,1.42,0,0,0-.85-.21c-.9,0-1.47.55-1.47,1.66v.16a1.5,1.5,0,0,1,1.27-.58,1.39,1.39,0,0,1,1.52,1.21Zm-.61,0c0-.51-.39-.85-1-.85a.9.9,0,0,0-1,.78.25.25,0,0,0,0,.08c0,.49.36.85,1,.85a.86.86,0,0,0,1-.74.49.49,0,0,0,0-.12Z"/><path class="cls-4" d="M116.78,119.34v.55h-3.19v-.43l1.8-1.74a1.33,1.33,0,0,0,.55-1c0-.45-.32-.73-.94-.73a1.34,1.34,0,0,0-1.13.49l-.44-.37a2.09,2.09,0,0,1,1.62-.68c.92,0,1.52.48,1.52,1.23a1.76,1.76,0,0,1-.73,1.39l-1.36,1.31Z"/><path class="cls-4" d="M120.5,115.49v.43l-1.79,4H118l1.75-3.88h-2v.81h-.6v-1.36Z"/><path class="cls-4" d="M130.46,119.34v.55h-3.18v-.43l1.8-1.74a1.36,1.36,0,0,0,.56-1c0-.45-.32-.73-.94-.73a1.34,1.34,0,0,0-1.13.49l-.44-.37a2.08,2.08,0,0,1,1.62-.68c.92,0,1.52.48,1.52,1.23a1.77,1.77,0,0,1-.74,1.39l-1.36,1.31Z"/><path class="cls-4" d="M134.49,118.63c0,.81-.69,1.31-1.77,1.31s-1.75-.5-1.75-1.31a1.08,1.08,0,0,1,.8-1.06,1,1,0,0,1-.62-1c0-.74.64-1.2,1.62-1.2s1.62.46,1.62,1.2a1,1,0,0,1-.62,1A1.1,1.1,0,0,1,134.49,118.63Zm-.64,0c0-.48-.43-.81-1.13-.81s-1.12.31-1.12.81.42.81,1.12.81S133.85,119.14,133.85,118.63Zm-2.12-2c0,.43.37.71,1,.71s1-.28,1-.71-.4-.72-1-.72-1,.27-1,.72Z"/><path class="cls-2" d="M53.35,57.65h0A1.34,1.34,0,0,1,52,56.32h0V49.72a1.35,1.35,0,0,1,1.31-1.38h0a1.34,1.34,0,0,1,1.34,1.34h0v6.59a1.33,1.33,0,0,1-1.34,1.33h0Z"/><path class="cls-4" d="M53.35,57.65h.22a1.32,1.32,0,0,0,1.06-1.06,3.11,3.11,0,0,0,0-.61V49.79a1.27,1.27,0,0,0-2.13-1h0l-.08.07a1.36,1.36,0,0,0-.34.94V56a3.11,3.11,0,0,0,0,.61,1.33,1.33,0,0,0,1.07,1.06h0A1.4,1.4,0,0,1,52,56.54,4.62,4.62,0,0,1,52,55.9V49.77a1.41,1.41,0,0,1,2.35-1.1h0l.08.09a1.39,1.39,0,0,1,.37,1v6.16a3.32,3.32,0,0,1,0,.63,1.34,1.34,0,0,1-.54.81,1.24,1.24,0,0,1-.58.24A1,1,0,0,1,53.35,57.65Z"/><path class="cls-2" d="M71.73,57.65h0a1.36,1.36,0,0,1-1.35-1.34h0V49.72a1.36,1.36,0,0,1,1.31-1.38h0a1.34,1.34,0,0,1,1.33,1.34h0v6.59a1.31,1.31,0,0,1-1.32,1.33h0Z"/><path class="cls-4" d="M71.73,57.65H72a1.32,1.32,0,0,0,1-1.06A3.11,3.11,0,0,0,73,56V49.79a1.31,1.31,0,0,0-.33-.94,1.28,1.28,0,0,0-2.22.94V56a3.11,3.11,0,0,0,0,.61,1.3,1.3,0,0,0,1.06,1h.22a.45.45,0,0,1-.23,0,1.24,1.24,0,0,1-.58-.24,1.26,1.26,0,0,1-.54-.81,3.42,3.42,0,0,1,0-.64V49.77a1.35,1.35,0,0,1,.37-1,1.4,1.4,0,0,1,2-.09h0l.08.09a1.39,1.39,0,0,1,.37,1v6.16a3.31,3.31,0,0,1,0,.63,1.3,1.3,0,0,1-.54.81,1.24,1.24,0,0,1-.58.24A.75.75,0,0,1,71.73,57.65Z"/><path class="cls-2" d="M90.1,57.65h0a1.33,1.33,0,0,1-1.34-1.33h0V49.72a1.35,1.35,0,0,1,1.32-1.38h0a1.36,1.36,0,0,1,1.34,1.35v6.59a1.32,1.32,0,0,1-1.33,1.33h0Z"/><path class="cls-4" d="M90.1,57.65h.22a1.32,1.32,0,0,0,1.06-1.06,3.11,3.11,0,0,0,0-.61V49.79a1.3,1.3,0,0,0-.34-.94,1.28,1.28,0,0,0-1.8-.07h0l-.07.07a1.36,1.36,0,0,0-.35.94V56c0,.2,0,.41,0,.61a1.32,1.32,0,0,0,1.06,1.06h0a1.4,1.4,0,0,1-1.12-1.08,3.21,3.21,0,0,1,0-.62V49.76a1.41,1.41,0,1,1,2.81,0v6.16a3.21,3.21,0,0,1,0,.62,1.33,1.33,0,0,1-.54.81,1.36,1.36,0,0,1-.59.25A.91.91,0,0,1,90.1,57.65Z"/><path class="cls-2" d="M108.47,57.65h0a1.35,1.35,0,0,1-1.34-1.34h0V49.72a1.36,1.36,0,0,1,1.33-1.38h0a1.37,1.37,0,0,1,1.35,1.35v6.59a1.36,1.36,0,0,1-1.32,1.37Z"/><path class="cls-4" d="M108.47,57.65h.22a1.32,1.32,0,0,0,1.06-1.06,3.11,3.11,0,0,0,0-.61V49.79a1.31,1.31,0,0,0-.35-.94,1.26,1.26,0,0,0-1.79-.07h0l-.07.07a1.28,1.28,0,0,0-.34.94V56a3.11,3.11,0,0,0,0,.61,1.31,1.31,0,0,0,1.07,1.06h0a1.41,1.41,0,0,1-1.13-1.06,3.21,3.21,0,0,1,0-.62V49.78a1.37,1.37,0,0,1,.38-1,1.39,1.39,0,0,1,2-.09h0l.08.09a1.37,1.37,0,0,1,.38,1v6.16a3.21,3.21,0,0,1,0,.62,1.42,1.42,0,0,1-1.13,1.09A1,1,0,0,1,108.47,57.65Z"/><path class="cls-2" d="M126.88,57.65h0a1.33,1.33,0,0,1-1.33-1.34h0V49.72a1.33,1.33,0,0,1,1.29-1.38h0a1.34,1.34,0,0,1,1.34,1.34h0v6.59a1.34,1.34,0,0,1-1.29,1.37Z"/><path class="cls-4" d="M126.88,57.65h.22a1.35,1.35,0,0,0,1.06-1.06c0-.2,0-.41,0-.61V49.79a1.28,1.28,0,1,0-2.56,0h0V56c0,.2,0,.41,0,.61a1.3,1.3,0,0,0,1.06,1h.22a.41.41,0,0,1-.22,0,1.28,1.28,0,0,1-.59-.24,1.3,1.3,0,0,1-.54-.81,3.32,3.32,0,0,1,0-.63V49.78a1.43,1.43,0,0,1,.37-1,1.41,1.41,0,0,1,2-.08.6.6,0,0,1,.08.08,1.44,1.44,0,0,1,.38,1v6.16a3.31,3.31,0,0,1,0,.63,1.31,1.31,0,0,1-.55.81,1.24,1.24,0,0,1-.58.24A.74.74,0,0,1,126.88,57.65Z"/><g class="cls-5"><path class="cls-2" d="M25.34,135.72v-.81l10.05.13s.47.18.42.48Z"/></g><path class="cls-6" d="M36.32,54.35a.64.64,0,0,1,0-.47c0-.27.17-.46.2-.44a1.09,1.09,0,0,1-.07.45A1.51,1.51,0,0,1,36.32,54.35Z"/></g></g></g></svg>