<svg xmlns="http://www.w3.org/2000/svg" viewBox="0 0 178 184"><defs><style>.cls-1{fill:#d4dee1;}.cls-2{fill:#455a64;}.cls-3{fill:#e0e0e0;}.cls-4{fill:#ebebeb;}.cls-5{fill:#fafafa;}.cls-6{fill:#263238;}.cls-7{fill:#94b7bd;}.cls-8{opacity:0.3;}</style></defs><g id="Calque_2" data-name="Calque 2"><g id="Calque_1-2" data-name="Calque 1"><path id="bulle_fond" data-name="bulle fond" class="cls-1" d="M0,83.28C0,26.73,24.75,0,77.12,0H99c55.23,0,79,26.73,79,83.28v17.44C178,157.26,153.26,184,99,184H77.12C25.71,184,0,157.26,0,100.72Z"/><g id="freepik--Checklist--inject-689"><rect class="cls-2" x="47.72" y="39.93" width="82.55" height="113.11"/><polygon class="cls-3" points="127.02 146.31 111.72 146.31 54.6 146.31 54.6 44.51 127.02 44.51 127.02 133.65 127.02 146.31"/><polygon class="cls-4" points="125.86 144.43 110.72 144.43 54.1 144.43 54.1 43.16 125.86 43.16 125.86 131.82 125.86 144.43"/><polygon class="cls-5" points="118.16 136.54 109.89 143.28 52.77 143.28 52.77 43.41 125.17 43.41 125.17 130.85 118.16 136.54"/><path class="cls-6" d="M118.15,136.53l.44-.37,1.33-1.08,5.25-4.25h0c0-14.37,0-46.31,0-87.44l.07.08H52.82l.09-.09v99.86l-.07-.08H110l6.21-5,1.56-1.25c.33-.28.52-.41.52-.41l-.51.41-1.55,1.29L110,143.26h0l-57.18.08h-.07v-100h72.59v.07c0,41.16-.06,73.08-.06,87.44h0L120,135.08l-1.33,1.11Z"/><path class="cls-7" d="M79.2,36.43H99a4.81,4.81,0,0,1,4.82,4.8s0,0,0,0v5.34H74.18V41.45a5,5,0,0,1,5-5Z"/><polygon class="cls-7" points="81.44 36.44 80.36 30.95 97.42 30.95 96.47 36.44 81.44 36.44"/><path class="cls-7" d="M72.54,71.52H60.34V59.32h12.2Zm-11.86-.34H72.2V59.66H60.68Z"/><path class="cls-6" d="M115.65,62.26s-8.5.09-19,.09-19,0-19-.09,8.49-.08,19-.08S115.65,62.21,115.65,62.26Z"/><path class="cls-6" d="M115.65,64.8s-8.5.09-19,.09-19,0-19-.09,8.49-.08,19-.08S115.65,64.75,115.65,64.8Z"/><path class="cls-6" d="M115.65,67.33s-8.5.09-19,.09-19,0-19-.09,8.49-.08,19-.08S115.65,67.29,115.65,67.33Z"/><path class="cls-6" d="M115.65,69.87s-8.5.09-19,.09-19,0-19-.09,8.49-.08,19-.08S115.65,69.81,115.65,69.87Z"/><path class="cls-7" d="M72.54,90.32H60.34V78.12h12.2ZM60.68,90H72.2V78.46H60.68Z"/><polygon class="cls-7" points="62.77 84.47 64.39 82.73 67.08 84.89 73.27 78.89 74.75 80.64 66.97 88.31 62.77 84.47"/><path class="cls-6" d="M115.65,81.06s-8.5.09-19,.09-19,0-19-.09,8.49-.08,19-.08S115.65,81,115.65,81.06Z"/><path class="cls-6" d="M115.65,83.6c0,.05-8.5.09-19,.09s-19,0-19-.09,8.49-.09,19-.09S115.65,83.55,115.65,83.6Z"/><path class="cls-6" d="M115.65,86.13c0,.05-8.5.09-19,.09s-19,0-19-.09,8.49-.09,19-.09S115.65,86.09,115.65,86.13Z"/><path class="cls-6" d="M115.65,88.67s-8.5.09-19,.09-19,0-19-.09,8.49-.09,19-.09S115.65,88.62,115.65,88.67Z"/><path class="cls-7" d="M72.54,108.51H60.34V96.31h12.2Zm-11.86-.34H72.2V96.65H60.68Z"/><polygon class="cls-7" points="62.77 102.67 64.39 100.92 67.08 103.08 73.27 97.08 74.75 98.83 66.97 106.5 62.77 102.67"/><path class="cls-6" d="M115.65,99.26s-8.5.09-19,.09-19,0-19-.09,8.49-.08,19-.08S115.65,99.21,115.65,99.26Z"/><path class="cls-6" d="M115.65,101.79s-8.5.09-19,.09-19,0-19-.09,8.49-.09,19-.09S115.65,101.74,115.65,101.79Z"/><path class="cls-6" d="M115.65,104.33s-8.5.09-19,.09-19,0-19-.09,8.49-.08,19-.08S115.65,104.28,115.65,104.33Z"/><path class="cls-6" d="M115.65,106.86s-8.5.09-19,.09-19,0-19-.09,8.49-.09,19-.09S115.65,106.81,115.65,106.86Z"/><path class="cls-7" d="M72.54,126.08H60.34V113.89h12.2Zm-11.86-.33H72.2V114.22H60.68Z"/><polygon class="cls-7" points="62.77 120.23 64.39 118.5 67.08 120.66 73.27 114.66 74.75 116.39 66.97 124.08 62.77 120.23"/><path class="cls-6" d="M115.65,116.83s-8.5.08-19,.08-19,0-19-.08,8.49-.09,19-.09S115.65,116.79,115.65,116.83Z"/><path class="cls-6" d="M115.65,119.36s-8.5.09-19,.09-19,0-19-.09,8.49-.09,19-.09S115.65,119.31,115.65,119.36Z"/><path class="cls-6" d="M115.65,121.89s-8.5.09-19,.09-19,0-19-.09,8.49-.08,19-.08S115.65,121.84,115.65,121.89Z"/><path class="cls-6" d="M115.65,124.43s-8.5.09-19,.09-19,0-19-.09,8.49-.09,19-.09S115.65,124.39,115.65,124.43Z"/><polygon class="cls-3" points="112.17 126.75 104.22 143.19 109.89 143.19 112.17 126.75"/><polygon class="cls-5" points="109.89 143.28 112.17 126.83 125.17 130.85 109.89 143.28"/><path class="cls-6" d="M109.9,143.27l4.38-3.6,10.85-8.89v.15l-5-1.55-8-2.47.1-.07c-.68,4.77-1.26,8.87-1.67,11.77s-.62,4.29-.68,4.66V143c0-.21.06-.51.11-.89.11-.8.26-2,.45-3.41.4-2.93,1-7,1.59-11.87v-.09h.09l8,2.47,5,1.55.16.05-.13.11-11,8.85-3.21,2.58-.85.68-.22.16Z"/><g class="cls-8"><polyline points="96.25 30.95 95.31 36.44 96.47 36.44 97.42 30.95 95.92 30.95"/></g></g></g></g></svg>