<svg xmlns="http://www.w3.org/2000/svg" viewBox="0 0 178 184"><defs><style>.cls-1{fill:#d4dee1;}.cls-2{fill:#ed7160;}.cls-3{opacity:0.94;}.cls-4{fill:#1c5b68;}.cls-5{fill:#94b7bd;}.cls-6{fill:#dce6e8;}</style></defs><g id="Calque_2" data-name="Calque 2"><g id="Calque_1-2" data-name="Calque 1"><path id="bulle_fond" data-name="bulle fond" class="cls-1" d="M0,83.28C0,26.73,24.75,0,77.12,0H99c55.23,0,79,26.73,79,83.28v17.44C178,157.26,153.26,184,99,184H77.12C25.71,184,0,157.26,0,100.72Z"/><path class="cls-2" d="M151.47,117.21h-2.24l-6.55.05-24.54.08-84.71.13H33.2l-.07-.22A21,21,0,0,1,47.45,91.16a21.34,21.34,0,0,1,6.45-.84l-.31.41a18.16,18.16,0,0,1-.66-5.68,18.78,18.78,0,0,1,9.7-15.79,19.17,19.17,0,0,1,17.95.09l-.44.16a27.91,27.91,0,0,1,16.44-15.3c7-2.49,14.75-2.21,20.85,1a28.46,28.46,0,0,1,12.9,14.07,27,27,0,0,1,1.55,16.93l-.24-.27a20.27,20.27,0,0,1,9.8,1.4,20.69,20.69,0,0,1,7.27,5A13,13,0,0,1,151,95.6a18.76,18.76,0,0,1,1.22,3.49,31.07,31.07,0,0,1,.84,6.37,36.67,36.67,0,0,1-.76,8.81,21.45,21.45,0,0,1-.61,2.22c-.18.49-.27.72-.27.72"/><g class="cls-3"><path class="cls-4" d="M151.47,117.21h-2.24l-6.55.05-24.54.08-84.71.13H33.2l-.07-.22A21,21,0,0,1,47.45,91.16a21.34,21.34,0,0,1,6.45-.84l-.31.41a18.16,18.16,0,0,1-.66-5.68,18.78,18.78,0,0,1,9.7-15.79,19.17,19.17,0,0,1,17.95.09l-.44.16a27.91,27.91,0,0,1,16.44-15.3c7-2.49,14.75-2.21,20.85,1a28.46,28.46,0,0,1,12.9,14.07,27,27,0,0,1,1.55,16.93l-.24-.27a20.27,20.27,0,0,1,9.8,1.4,20.69,20.69,0,0,1,7.27,5A13,13,0,0,1,151,95.6a18.76,18.76,0,0,1,1.22,3.49,31.07,31.07,0,0,1,.84,6.37,36.67,36.67,0,0,1-.76,8.81,21.45,21.45,0,0,1-.61,2.22c-.18.49-.27.72-.27.72"/></g><path class="cls-5" d="M142.1,117.21h-2.24l-6.55.05-24.54.08-84.71.13h-.23l-.07-.22A21.07,21.07,0,0,1,44.54,90.32l-.32.41A17.92,17.92,0,0,1,43.57,85a18.74,18.74,0,0,1,9.7-15.8,19.17,19.17,0,0,1,17.94.09l-.43.16a27.94,27.94,0,0,1,16.44-15.3c7-2.48,14.74-2.21,20.84,1A28.44,28.44,0,0,1,121,69.25a26.93,26.93,0,0,1,1.59,16.89l-.24-.27a20.1,20.1,0,0,1,9.79,1.41,20.48,20.48,0,0,1,7.28,5,13,13,0,0,1,2.29,3.29A18.76,18.76,0,0,1,142.89,99a30.38,30.38,0,0,1,.83,6.37,36.17,36.17,0,0,1-.76,8.81,20.78,20.78,0,0,1-.61,2.22c-.17.49-.27.73-.27.73"/><path class="cls-6" d="M105.46,89.88a6,6,0,0,1-.28-1.74c-.12-.55-.21-1.22-.41-2l-.35-1.22c-.13-.43-.33-.86-.5-1.33a18,18,0,0,0-3.85-5.75,17.41,17.41,0,0,0-15.61-4.77,17.74,17.74,0,0,0-6.4,2.61,20.12,20.12,0,0,0-3.58,3.06c-.38.41-.67.75-.86,1s-.32.33-.34.31,0-.17.19-.42a7.44,7.44,0,0,1,.72-1.1,16.26,16.26,0,0,1,3.49-3.39,17.38,17.38,0,0,1,6.61-2.92,17.75,17.75,0,0,1,16.41,5,18,18,0,0,1,3.84,6.12c.16.49.35,1,.46,1.4s.2.88.29,1.27c.15.81.2,1.52.26,2.09A6.66,6.66,0,0,1,105.46,89.88Z"/><path class="cls-6" d="M97.06,83.65c.16-.22,4,2.44,8.57,5.9l.25.19-.74.23c1.84-5.28,3.53-9.43,3.77-9.35s-1,4.38-2.87,9.66l-.21.61-.53-.4-.25-.19C100.47,86.84,96.9,83.83,97.06,83.65Z"/><path class="cls-6" d="M72.32,87a6.12,6.12,0,0,1,.06,1.71c0,.54.07,1.22.14,2A18.41,18.41,0,0,0,73,93.21,17.89,17.89,0,0,0,76,99.26a17.25,17.25,0,0,0,6.29,5.21l.48.25.51.2,1,.39c.33.11.68.2,1,.3a7.09,7.09,0,0,0,1,.25,17.46,17.46,0,0,0,10.53-1,19.63,19.63,0,0,0,4-2.28c.44-.32.78-.58,1-.76s.36-.26.38-.24-.06.16-.25.38a9.66,9.66,0,0,1-.9.91,16.42,16.42,0,0,1-3.94,2.6,17.26,17.26,0,0,1-6.8,1.65,18.23,18.23,0,0,1-4.17-.36,7.94,7.94,0,0,1-1.07-.26c-.35-.1-.72-.19-1.07-.31l-1.06-.41-.54-.21-.51-.26-1-.53c-.33-.19-.64-.41-1-.61a19.15,19.15,0,0,1-1.78-1.33c-.28-.22-.52-.49-.79-.73a7.48,7.48,0,0,1-.74-.75l-.67-.8-.33-.39-.28-.41A17.23,17.23,0,0,1,72,90.7v-2A5.47,5.47,0,0,1,72.32,87Z"/><path class="cls-6" d="M79.86,94.19c-.18.18-3.67-2.91-7.77-6.91l-.23-.22.77-.13c-2.49,5-4.65,8.93-4.9,8.81s1.56-4.22,4-9.24l.29-.61.47.46.23.23C76.89,90.6,80.07,94,79.86,94.19Z"/></g></g></svg>