<svg xmlns="http://www.w3.org/2000/svg" viewBox="0 0 178 184"><defs><style>.cls-1{fill:#d4dee1;}.cls-2{fill:#94b7bd;}.cls-3{fill:#f5f5f6;}</style></defs><g id="Calque_2" data-name="Calque 2"><g id="Calque_1-2" data-name="Calque 1"><path id="bulle_fond" data-name="bulle fond" class="cls-1" d="M0,83.28C0,26.73,24.75,0,77.12,0H99c55.23,0,79,26.73,79,83.28v17.44C178,157.26,153.26,184,99,184H77.12C25.71,184,0,157.26,0,100.72Z"/><g id="Calque_1-2-2" data-name="Calque 1-2"><path class="cls-2" d="M41.41,59.83l2.6,47.8a3.23,3.23,0,0,0,3.19,3.05l86,.63a3.24,3.24,0,0,0,3.25-3.21l.27-37.19a3.24,3.24,0,0,0-3.21-3.25H80.63a3.27,3.27,0,0,1-2.28-.91l-9.13-9.12A3.2,3.2,0,0,0,67,56.72l-22.3-.16a3.22,3.22,0,0,0-3.22,3.22h0Z"/><path class="cls-2" d="M35.32,66.33,42.06,125a2.08,2.08,0,0,0,2,1.81l91.55.66a2.07,2.07,0,0,0,2.08-1.9l5-58.5a2.07,2.07,0,0,0-1.82-2.29h-.17L37.39,64a2.07,2.07,0,0,0-2.09,2A2.17,2.17,0,0,0,35.32,66.33Z"/><path class="cls-3" d="M109.07,96.1c-.29,0-.13-2.56-1.69-6.21A17.56,17.56,0,0,0,96.46,80a18,18,0,0,0-8.26-.45,17.56,17.56,0,0,0-6.34,2.53c-3.3,2.18-4.66,4.38-4.86,4.21s.17-.64.84-1.57a16,16,0,0,1,3.45-3.46,17.31,17.31,0,0,1,6.64-3,17.63,17.63,0,0,1,20.38,11.25,16.32,16.32,0,0,1,.91,4.79C109.23,95.48,109.16,96.1,109.07,96.1Z"/><path class="cls-3" d="M100.7,89.89c.24-.31,4.12,2.24,8.66,5.7l.26.19-1.1.33c1.81-5.26,3.62-9.36,4-9.24s-.8,4.44-2.63,9.7l-.32.91-.77-.59-.26-.2C104,93.25,100.47,90.19,100.7,89.89Z"/><path class="cls-3" d="M76,93.2c.29,0-.17,2.49.91,6.18a18,18,0,0,0,2.94,5.94,17.16,17.16,0,0,0,6.19,5.12,20.47,20.47,0,0,0,2,.82c.67.19,1.33.42,2,.54a17.64,17.64,0,0,0,3.9.41,17.41,17.41,0,0,0,6.48-1.32,21,21,0,0,0,4-2.18c.9-.62,1.35-1,1.43-.91s-.28.58-1.09,1.35a15.2,15.2,0,0,1-3.92,2.67A17,17,0,0,1,94,113.53a18,18,0,0,1-4.21-.35c-.71-.13-1.43-.36-2.16-.57a18.18,18.18,0,0,1-2.13-.91A17.6,17.6,0,0,1,76,99.62a16.48,16.48,0,0,1-.35-2.71v-2C75.81,93.78,76,93.15,76,93.2Z"/><path class="cls-3" d="M83.59,100.39c-.28.28-3.81-2.71-7.91-6.72l-.23-.22,1.14-.2c-2.48,5-4.74,8.85-5.08,8.69s1.35-4.31,3.81-9.31l.42-.91.7.68.24.23C80.77,96.65,83.87,100.11,83.59,100.39Z"/></g></g></g></svg>