<svg xmlns="http://www.w3.org/2000/svg" viewBox="0 0 178 184"><defs><style>.cls-1{fill:#d4dee1;}.cls-2{fill:#94b7bd;}.cls-3{fill:#dce6e8;}</style></defs><g id="Calque_2" data-name="Calque 2"><g id="Calque_1-2" data-name="Calque 1"><path id="bulle_fond" data-name="bulle fond" class="cls-1" d="M0,83.28C0,26.73,24.75,0,77.12,0H99c55.23,0,79,26.73,79,83.28v17.44C178,157.26,153.26,184,99,184H77.12C25.71,184,0,157.26,0,100.72Z"/><path class="cls-2" d="M133,104.28A128.86,128.86,0,0,1,91.6,140.19a128.71,128.71,0,0,1-41.3-35.91c-14.59-19.29-13.87-49.49,7-56,23.06-7.18,34.39,27.49,34.39,27.49s11.49-34.92,34.41-27.49C146.78,55.09,147.57,85,133,104.28Z"/><polygon class="cls-3" points="75.36 122.3 69.07 96.14 64.96 105.37 39.59 105.37 39.59 102.4 63.06 102.4 69.9 86.98 74.8 107.38 81.73 65.11 87.86 98.54 92.69 84.59 100.3 107.45 101.99 102.4 143.68 102.4 143.68 105.35 104.13 105.35 100.3 116.77 92.63 93.77 86.96 110.14 81.89 82.4 75.36 122.3"/></g></g></svg>