<svg xmlns="http://www.w3.org/2000/svg" viewBox="0 0 178 184"><defs><style>.cls-1{fill:#d4dee1;}.cls-2{fill:#94b7bd;}.cls-10,.cls-11,.cls-3,.cls-5,.cls-7,.cls-8,.cls-9{fill:#1c5a68;}.cls-4{fill:#f5f5f6;stroke:#1c5a68;stroke-miterlimit:10;stroke-width:0.34px;opacity:0.1;}.cls-10,.cls-11,.cls-4,.cls-5,.cls-6,.cls-7,.cls-8,.cls-9{isolation:isolate;}.cls-5{opacity:0.51;}.cls-6{opacity:0.09;}.cls-7{opacity:0.5;}.cls-8{opacity:0.49;}.cls-9{opacity:0.47;}.cls-10{opacity:0.52;}.cls-11{opacity:0.53;}</style></defs><g id="Calque_2" data-name="Calque 2"><g id="Calque_1-2" data-name="Calque 1"><path id="bulle_fond" data-name="bulle fond" class="cls-1" d="M0,83.28C0,26.73,24.75,0,77.12,0H99c55.23,0,79,26.73,79,83.28v17.44C178,157.26,153.26,184,99,184H77.12C25.71,184,0,157.26,0,100.72Z"/><rect class="cls-2" x="74.27" y="128.96" width="28.97" height="6.58"/><rect class="cls-2" x="78.79" y="122.38" width="28.97" height="6.58"/><rect class="cls-2" x="74.76" y="115.81" width="28.97" height="6.57"/><rect class="cls-2" x="78.79" y="109.23" width="28.97" height="6.58"/><rect class="cls-2" x="80.06" y="102.66" width="28.97" height="6.58"/><rect class="cls-2" x="76.62" y="96.08" width="28.97" height="6.57"/><rect class="cls-2" x="38.05" y="129.06" width="28.97" height="6.58"/><rect class="cls-2" x="39.42" y="122.48" width="28.97" height="6.58"/><rect class="cls-2" x="37.64" y="115.9" width="28.97" height="6.58"/><path class="cls-3" d="M144.2,44.24,137,66.82a1.57,1.57,0,0,1-2.63.61l-3.76-3.89a1.59,1.59,0,0,0-2.19-.08L97,92a1.57,1.57,0,0,1-2.06.05L75,75.45a1.57,1.57,0,0,0-2,0L33.72,110.22l1.49-13.93a1.56,1.56,0,0,1,.52-1l37-32.78a1.59,1.59,0,0,1,2,0L94.62,79a1.58,1.58,0,0,0,2.06,0l24.8-22.52a1.57,1.57,0,0,0,.1-2.22l0,0-3.7-3.85a1.57,1.57,0,0,1,0-2.22,1.54,1.54,0,0,1,.74-.4l23.73-5.5a1.57,1.57,0,0,1,1.89,1.17A1.6,1.6,0,0,1,144.2,44.24Z"/><path class="cls-4" d="M144.19,44.28,137,66.8a1.6,1.6,0,0,1-2,1,1.63,1.63,0,0,1-.66-.41l-3.73-3.85a1.59,1.59,0,0,0-2.22-.07L97,92a1.6,1.6,0,0,1-1.14.42,1.55,1.55,0,0,1-1-.37L75,75.47a1.61,1.61,0,0,0-2.08,0L33.72,110.22,35.27,95.7,72.7,62.53a1.61,1.61,0,0,1,2.08,0l8.46,7L94.61,79a1.6,1.6,0,0,0,2.09,0l24.78-22.51a1.59,1.59,0,0,0,.12-2.24l0,0-3.68-3.8a1.58,1.58,0,0,1,.05-2.25,1.51,1.51,0,0,1,.74-.41l23.65-5.48a1.59,1.59,0,0,1,1.91,1.21A1.56,1.56,0,0,1,144.19,44.28Z"/><rect class="cls-5" x="77.16" y="128.96" width="0.78" height="6.58"/><rect class="cls-5" x="81.19" y="128.96" width="0.78" height="6.58"/><polygon class="cls-5" points="86 135.53 85.22 135.53 85.22 128.96 86 129.07 86 135.53"/><rect class="cls-5" x="89.25" y="128.96" width="0.78" height="6.58"/><rect class="cls-5" x="93.28" y="128.96" width="0.78" height="6.58"/><rect class="cls-5" x="97.31" y="128.96" width="0.78" height="6.58"/><rect class="cls-5" x="101.34" y="128.96" width="0.78" height="6.58"/><rect class="cls-6" x="74.27" y="128.96" width="28.97" height="1.36"/><rect class="cls-7" x="81.67" y="122.38" width="0.78" height="6.58"/><rect class="cls-7" x="85.7" y="122.38" width="0.78" height="6.58"/><rect class="cls-7" x="89.74" y="122.38" width="0.78" height="6.58"/><rect class="cls-7" x="93.76" y="122.38" width="0.78" height="6.58"/><rect class="cls-7" x="97.8" y="122.38" width="0.78" height="6.58"/><rect class="cls-7" x="101.82" y="122.38" width="0.78" height="6.58"/><rect class="cls-7" x="105.85" y="122.38" width="0.78" height="6.58"/><rect class="cls-6" x="78.79" y="122.38" width="28.97" height="1.36"/><rect class="cls-8" x="77.65" y="115.81" width="0.78" height="6.57"/><polygon class="cls-8" points="82.46 122.39 81.67 122.39 81.67 115.81 82.46 115.81 82.46 122.39"/><rect class="cls-8" x="85.7" y="115.81" width="0.78" height="6.57"/><rect class="cls-8" x="89.74" y="115.81" width="0.78" height="6.57"/><polygon class="cls-8" points="94.55 122.39 93.76 122.39 93.76 115.81 94.55 115.81 94.55 122.39"/><rect class="cls-8" x="97.8" y="115.81" width="0.78" height="6.57"/><rect class="cls-8" x="101.82" y="115.81" width="0.78" height="6.57"/><rect class="cls-6" x="74.76" y="115.81" width="28.97" height="1.62"/><rect class="cls-9" x="81.67" y="109.23" width="0.78" height="6.58"/><rect class="cls-9" x="85.7" y="109.23" width="0.78" height="6.58"/><rect class="cls-9" x="89.74" y="109.23" width="0.78" height="6.58"/><rect class="cls-9" x="93.76" y="109.23" width="0.78" height="6.58"/><rect class="cls-9" x="97.8" y="109.23" width="0.78" height="6.58"/><polygon class="cls-9" points="102.61 115.81 101.82 115.81 101.82 109.23 102.61 109.35 102.61 115.81"/><rect class="cls-9" x="105.85" y="109.23" width="0.78" height="6.58"/><rect class="cls-6" x="78.79" y="109.23" width="28.97" height="1.36"/><rect class="cls-5" x="82.95" y="102.66" width="0.78" height="6.58"/><rect class="cls-5" x="86.98" y="102.66" width="0.78" height="6.58"/><rect class="cls-5" x="91.01" y="102.66" width="0.78" height="6.58"/><rect class="cls-5" x="95.04" y="102.66" width="0.78" height="6.58"/><rect class="cls-5" x="99.07" y="102.66" width="0.78" height="6.58"/><rect class="cls-5" x="103.1" y="102.66" width="0.78" height="6.58"/><rect class="cls-5" x="107.12" y="102.66" width="0.78" height="6.58"/><rect class="cls-6" x="80.06" y="102.66" width="28.97" height="1.36"/><rect class="cls-7" x="79.5" y="96.08" width="0.78" height="6.57"/><rect class="cls-7" x="83.53" y="96.08" width="0.78" height="6.57"/><rect class="cls-7" x="87.56" y="96.08" width="0.78" height="6.57"/><rect class="cls-7" x="91.59" y="96.08" width="0.78" height="6.57"/><rect class="cls-7" x="95.62" y="96.08" width="0.78" height="6.57"/><rect class="cls-7" x="99.65" y="96.08" width="0.78" height="6.57"/><rect class="cls-7" x="103.68" y="96.08" width="0.78" height="6.57"/><rect class="cls-6" x="76.62" y="96.08" width="28.97" height="1.36"/><rect class="cls-10" x="40.93" y="129.06" width="0.78" height="6.58"/><rect class="cls-10" x="44.96" y="129.06" width="0.78" height="6.58"/><rect class="cls-10" x="48.99" y="129.06" width="0.78" height="6.58"/><rect class="cls-10" x="53.02" y="129.06" width="0.78" height="6.58"/><rect class="cls-10" x="57.05" y="129.06" width="0.78" height="6.58"/><rect class="cls-10" x="61.08" y="129.06" width="0.78" height="6.58"/><rect class="cls-10" x="65.11" y="129.06" width="0.78" height="6.58"/><rect class="cls-6" x="38.05" y="129.06" width="28.97" height="1.36"/><rect class="cls-7" x="42.3" y="122.48" width="0.78" height="6.58"/><rect class="cls-7" x="46.33" y="122.48" width="0.78" height="6.58"/><rect class="cls-7" x="50.36" y="122.48" width="0.78" height="6.58"/><rect class="cls-7" x="54.39" y="122.48" width="0.78" height="6.58"/><rect class="cls-7" x="58.42" y="122.48" width="0.78" height="6.58"/><rect class="cls-7" x="62.45" y="122.48" width="0.78" height="6.58"/><rect class="cls-7" x="66.48" y="122.48" width="0.78" height="6.58"/><rect class="cls-6" x="39.42" y="122.48" width="28.97" height="1.24"/><rect class="cls-11" x="40.52" y="115.9" width="0.78" height="6.58"/><rect class="cls-11" x="44.55" y="115.9" width="0.78" height="6.58"/><rect class="cls-11" x="48.58" y="115.9" width="0.78" height="6.58"/><rect class="cls-11" x="52.61" y="115.9" width="0.78" height="6.58"/><rect class="cls-11" x="56.64" y="115.9" width="0.78" height="6.58"/><rect class="cls-11" x="60.67" y="115.9" width="0.78" height="6.58"/><rect class="cls-11" x="64.7" y="115.9" width="0.78" height="6.58"/><rect class="cls-6" x="37.64" y="115.9" width="28.97" height="1.24"/><rect class="cls-2" x="123.91" y="112.61" width="6.35" height="23.2"/><rect class="cls-2" x="131.72" y="120.08" width="6.35" height="15.73"/><rect class="cls-2" x="116.09" y="101.46" width="6.35" height="34.35"/></g></g></svg>