<svg xmlns="http://www.w3.org/2000/svg" viewBox="0 0 178 184"><defs><style>.cls-1{fill:#d4dee1;}.cls-2{fill:#94bdbd;}.cls-3{opacity:0.1;}.cls-12,.cls-13,.cls-3,.cls-4,.cls-5,.cls-6{isolation:isolate;}.cls-11,.cls-12,.cls-13,.cls-4,.cls-5,.cls-6,.cls-9{fill:#1c5a68;}.cls-4{opacity:0.54;}.cls-5{opacity:0.65;}.cls-6{opacity:0.68;}.cls-7{fill:#fff;}.cls-8{opacity:0.52;}.cls-10,.cls-11,.cls-13{opacity:0.51;}</style></defs><g id="Calque_2" data-name="Calque 2"><g id="Calque_1-2" data-name="Calque 1"><path id="bulle_fond" data-name="bulle fond" class="cls-1" d="M0,83.28C0,26.73,24.75,0,77.12,0H99c55.23,0,79,26.73,79,83.28v17.44C178,157.26,153.26,184,99,184H77.12C25.71,184,0,157.26,0,100.72Z"/><path class="cls-2" d="M59.74,78.4c.17-.88.27-1.68.36-2.52a24.06,24.06,0,0,0,.13-2.55A15.6,15.6,0,0,0,60,70.69a6.47,6.47,0,0,0-1.18-2.79,3.71,3.71,0,0,0-1.42-1.06,3.35,3.35,0,0,0-.86-.24,3.94,3.94,0,0,0-.84,0,5.09,5.09,0,0,0-2.81,1.13,7.74,7.74,0,0,0-1.8,2.07,7.05,7.05,0,0,0-1,2.54,3.08,3.08,0,0,0,.13,1.62,1.77,1.77,0,0,0,.65.83,2,2,0,0,0,.94.31,1.83,1.83,0,0,0,1-.24,2.17,2.17,0,0,0,.64-.64A3.65,3.65,0,0,0,54,72.83a7.45,7.45,0,0,0,0-2.58,6.06,6.06,0,0,0-.91-2.39,2.87,2.87,0,0,0-1-.93,2,2,0,0,0-1.35-.23A4.09,4.09,0,0,0,48.56,68,13.8,13.8,0,0,0,46,72a13.5,13.5,0,0,1,2.81-3.77,3.61,3.61,0,0,1,2-1,1.68,1.68,0,0,1,1.56,1,5.26,5.26,0,0,1,.57,2.09,6.57,6.57,0,0,1-.18,2.16,2.41,2.41,0,0,1-.4.84.62.62,0,0,1-.22.17.2.2,0,0,1-.15,0,.27.27,0,0,1-.17-.08.56.56,0,0,1,0-.12,1.63,1.63,0,0,1,.05-.73,5.94,5.94,0,0,1,2.37-3.18,2.73,2.73,0,0,1,1.56-.52,2.23,2.23,0,0,1,.36,0,1.53,1.53,0,0,1,.27.11,1.24,1.24,0,0,1,.4.39,3.93,3.93,0,0,1,.47,1.64,12.16,12.16,0,0,1,0,2.09,20.75,20.75,0,0,1-.3,2.2,16.07,16.07,0,0,1-.52,2.15Z"/><path class="cls-3" d="M59.74,78.4c.17-.88.27-1.68.36-2.52a24.06,24.06,0,0,0,.13-2.55A15.6,15.6,0,0,0,60,70.69a6.47,6.47,0,0,0-1.18-2.79,3.71,3.71,0,0,0-1.42-1.06,3.35,3.35,0,0,0-.86-.24,3.94,3.94,0,0,0-.84,0,5.09,5.09,0,0,0-2.81,1.13,7.74,7.74,0,0,0-1.8,2.07,7.05,7.05,0,0,0-1,2.54,3.08,3.08,0,0,0,.13,1.62,1.77,1.77,0,0,0,.65.83,2,2,0,0,0,.94.31,1.83,1.83,0,0,0,1-.24,2.17,2.17,0,0,0,.64-.64A3.65,3.65,0,0,0,54,72.83a7.45,7.45,0,0,0,0-2.58,6.06,6.06,0,0,0-.91-2.39,2.87,2.87,0,0,0-1-.93,2,2,0,0,0-1.35-.23A4.09,4.09,0,0,0,48.56,68,13.8,13.8,0,0,0,46,72a13.5,13.5,0,0,1,2.81-3.77,3.61,3.61,0,0,1,2-1,1.68,1.68,0,0,1,1.56,1,5.26,5.26,0,0,1,.57,2.09,6.57,6.57,0,0,1-.18,2.16,2.41,2.41,0,0,1-.4.84.62.62,0,0,1-.22.17.2.2,0,0,1-.15,0,.27.27,0,0,1-.17-.08.56.56,0,0,1,0-.12,1.63,1.63,0,0,1,.05-.73,5.94,5.94,0,0,1,2.37-3.18,2.73,2.73,0,0,1,1.56-.52,2.23,2.23,0,0,1,.36,0,1.53,1.53,0,0,1,.27.11,1.24,1.24,0,0,1,.4.39,3.93,3.93,0,0,1,.47,1.64,12.16,12.16,0,0,1,0,2.09,20.75,20.75,0,0,1-.3,2.2,16.07,16.07,0,0,1-.52,2.15Z"/><path class="cls-2" d="M62.38,117.19c2.31,3.25,1.84,13.18,3.23,14.57s15.66,1.25,16.64.43.52-4.33,1.56-4.9C84.26,127.06,62.38,117.19,62.38,117.19Z"/><path class="cls-3" d="M62.38,117.19c2.31,3.25,1.84,13.18,3.23,14.57s15.66,1.25,16.64.43.52-4.33,1.56-4.9C84.26,127.06,62.38,117.19,62.38,117.19Z"/><path class="cls-2" d="M123.37,117.35c-2.88,4.17-1.32,13.05-2.71,14.41S105,133,104,132.19s-.52-4.52-1.09-5.22C102.63,126.6,123.37,117.35,123.37,117.35Z"/><path class="cls-3" d="M123.37,117.35c-2.88,4.17-1.32,13.05-2.71,14.41S105,133,104,132.19s-.52-4.52-1.09-5.22C102.63,126.6,123.37,117.35,123.37,117.35Z"/><path class="cls-4" d="M83.84,127.29a1.55,1.55,0,0,0-.62,1,67.83,67.83,0,0,1-19.12-5.12c-.34-2.42-.81-4.73-1.72-6C62.38,117.19,84.26,127.06,83.84,127.29Z"/><path class="cls-4" d="M123.37,117.35a13,13,0,0,0-1.75,6,65,65,0,0,1-18.38,5.08,3.25,3.25,0,0,0-.31-1.44C102.62,126.6,123.37,117.35,123.37,117.35Z"/><path class="cls-2" d="M91.92,57.15c-28.71,0-39.73,22.49-39.73,35.66,0,13,8.35,35.05,39.73,35.05s41.78-18.7,41.78-35.35S121,57.15,91.92,57.15Z"/><path class="cls-3" d="M91.92,57.15c-28.71,0-39.73,22.49-39.73,35.66,0,13,8.35,35.05,39.73,35.05s41.78-18.7,41.78-35.35S121,57.15,91.92,57.15Z"/><path class="cls-2" d="M100,58.78s13.12-10.06,27.33-8.87c4.89.41-3.23,11-3.38,19.31Z"/><path class="cls-3" d="M100,58.78s13.12-10.06,27.33-8.87c4.89.41-3.23,11-3.38,19.31Z"/><path class="cls-4" d="M118.5,65.16c-.08.52,4.45,2.46,4.92,2.16s.94-6.82,4.63-13.77C128.59,52.53,119.38,59.53,118.5,65.16Z"/><path class="cls-5" d="M121.35,91a2.3,2.3,0,0,0,1.88-1.64A3.43,3.43,0,0,1,121.7,92a.08.08,0,0,0,.06.14c2.51-1,2.24-4.49,1.35-6.75A2.39,2.39,0,0,0,123,85c-.56-1.31-1.56-2.26-2.77-2.09C116.13,83.48,117.59,91.55,121.35,91Z"/><path class="cls-2" d="M131,79.52c.62,1.89,6.32.36,7.76,1.57,2.26,1.88,1.63,25.15-.44,27-1.16,1-7.62,0-9.43,1.23S131,79.52,131,79.52Z"/><path class="cls-3" d="M131,79.52c.62,1.89,6.32.36,7.76,1.57,2.26,1.88,1.63,25.15-.44,27-1.16,1-7.62,0-9.43,1.23S131,79.52,131,79.52Z"/><path class="cls-4" d="M139.08,94c0,5.66-.47,10.26-1,10.26s-1-4.6-1-10.26.47-10.27,1-10.27S139.08,88.35,139.08,94Z"/><path class="cls-6" d="M80.78,64.61c.1,0,9.78-3.18,18.79-.72l.9-3.28c-10-2.74-20.36.63-20.77.77l1.08,3.23L80.26,63Z"/><path class="cls-7" d="M67.32,114c-12.94-14.87-5-32.14-4.67-32.89a2.13,2.13,0,0,0-3.82-1.87,36.2,36.2,0,0,0-3,12.4c-.62,9.46,2.51,18.14,9.92,24C67.94,117.51,69,115.94,67.32,114Z"/><path class="cls-7" d="M61.7,74.55A2.32,2.32,0,1,0,64,72.23h0A2.32,2.32,0,0,0,61.7,74.55Z"/><rect class="cls-2" x="132.69" y="127.84" width="16.36" height="3.62"/><g class="cls-8"><path class="cls-9" d="M133.36,128.17a4.14,4.14,0,0,1,0,2.9A4.25,4.25,0,0,1,133.36,128.17Z"/><path class="cls-9" d="M134.58,128.17a4.25,4.25,0,0,1,0,2.9A4.14,4.14,0,0,1,134.58,128.17Z"/><path class="cls-9" d="M135.17,128.17a4.14,4.14,0,0,1,0,2.9A4.25,4.25,0,0,1,135.17,128.17Z"/><path class="cls-9" d="M138.45,128.17a4.25,4.25,0,0,1,0,2.9A4.14,4.14,0,0,1,138.45,128.17Z"/><path class="cls-9" d="M139.33,128.17a3.83,3.83,0,0,1,.26,1.45,3.76,3.76,0,0,1-.26,1.45,3.59,3.59,0,0,1-.26-1.45A3.83,3.83,0,0,1,139.33,128.17Z"/><path class="cls-9" d="M143,128.17a4.14,4.14,0,0,1,0,2.9A4.25,4.25,0,0,1,143,128.17Z"/><path class="cls-9" d="M143.83,128.17a4.25,4.25,0,0,1,0,2.9A4.14,4.14,0,0,1,143.83,128.17Z"/><path class="cls-9" d="M145.38,128.17a4.25,4.25,0,0,1,0,2.9A4.25,4.25,0,0,1,145.38,128.17Z"/><path class="cls-9" d="M142.28,128.17a3.66,3.66,0,0,1,.25,1.46,3.62,3.62,0,0,1-.26,1.45,3.8,3.8,0,0,1-.26-1.45A3.86,3.86,0,0,1,142.28,128.17Z"/><path class="cls-9" d="M136.27,128.17a4.14,4.14,0,0,1,0,2.9A4.14,4.14,0,0,1,136.27,128.17Z"/><path class="cls-9" d="M140.49,128.17a4.14,4.14,0,0,1,0,2.9,3.76,3.76,0,0,1-.26-1.45A3.83,3.83,0,0,1,140.49,128.17Z"/><path class="cls-9" d="M141.1,128.17a4.14,4.14,0,0,1,0,2.9A4.25,4.25,0,0,1,141.1,128.17Z"/><path class="cls-9" d="M147.4,128.17a3.83,3.83,0,0,1,.26,1.45,3.76,3.76,0,0,1-.26,1.45,3.76,3.76,0,0,1-.26-1.45A3.83,3.83,0,0,1,147.4,128.17Z"/><path class="cls-9" d="M148.32,128.17a4,4,0,0,1,.26,1.45,3.76,3.76,0,0,1-.26,1.45,3.59,3.59,0,0,1-.26-1.45A3.83,3.83,0,0,1,148.32,128.17Z"/><path class="cls-9" d="M146.1,128.17a4.25,4.25,0,0,1,0,2.9A4.14,4.14,0,0,1,146.1,128.17Z"/><path class="cls-9" d="M137.74,128.17a3.83,3.83,0,0,1,.26,1.45,3.76,3.76,0,0,1-.26,1.45A4.14,4.14,0,0,1,137.74,128.17Z"/></g><polygon class="cls-3" points="149.05 127.84 149.05 128.61 132.68 129.13 132.68 127.84 149.05 127.84"/><rect class="cls-2" x="131.32" y="124.23" width="16.36" height="3.62"/><g class="cls-8"><path class="cls-9" d="M147,127.45a4.11,4.11,0,0,1,0-2.89A4.11,4.11,0,0,1,147,127.45Z"/><path class="cls-9" d="M145.73,127.45a4.15,4.15,0,0,1,0-2.89A3.59,3.59,0,0,1,146,126,3.75,3.75,0,0,1,145.73,127.45Z"/><path class="cls-9" d="M145.14,127.45a4.11,4.11,0,0,1,0-2.89A4.11,4.11,0,0,1,145.14,127.45Z"/><path class="cls-9" d="M141.87,127.45a4.11,4.11,0,0,1,0-2.89A4.11,4.11,0,0,1,141.87,127.45Z"/><path class="cls-9" d="M141,127.45a3.75,3.75,0,0,1-.26-1.44,3.59,3.59,0,0,1,.26-1.45,4.15,4.15,0,0,1,0,2.89Z"/><path class="cls-9" d="M137.31,127.45a4.22,4.22,0,0,1,0-2.89A4.11,4.11,0,0,1,137.31,127.45Z"/><path class="cls-9" d="M136.48,127.45a4.15,4.15,0,0,1,0-2.89,4.11,4.11,0,0,1,0,2.89Z"/><path class="cls-9" d="M134.93,127.45a4.22,4.22,0,0,1,0-2.89A4.11,4.11,0,0,1,134.93,127.45Z"/><path class="cls-9" d="M138,127.45a4,4,0,0,1-.26-1.44,3.76,3.76,0,0,1,.26-1.45,3.42,3.42,0,0,1,.26,1.45A3.75,3.75,0,0,1,138,127.45Z"/><path class="cls-9" d="M144.06,127.45a3.75,3.75,0,0,1-.26-1.44,3.42,3.42,0,0,1,.26-1.45,4.11,4.11,0,0,1,0,2.89Z"/><path class="cls-9" d="M139.82,127.45a4.11,4.11,0,0,1,0-2.89A4.11,4.11,0,0,1,139.82,127.45Z"/><path class="cls-9" d="M139.21,127.45a4.22,4.22,0,0,1,0-2.89A4.22,4.22,0,0,1,139.21,127.45Z"/><path class="cls-9" d="M132.91,127.45a4.11,4.11,0,0,1,0-2.89,4.15,4.15,0,0,1,0,2.89Z"/><path class="cls-9" d="M132,127.45a4.17,4.17,0,0,1-.26-1.44,3.76,3.76,0,0,1,.26-1.45,4,4,0,0,1,0,2.89Z"/><path class="cls-9" d="M134.21,127.45a4.11,4.11,0,0,1,0-2.89A4.11,4.11,0,0,1,134.21,127.45Z"/><path class="cls-9" d="M142.57,127.45a4.15,4.15,0,0,1,0-2.89,3.59,3.59,0,0,1,.27,1.45A4,4,0,0,1,142.57,127.45Z"/></g><polygon class="cls-3" points="147.69 124.23 147.69 125 131.32 125.51 131.32 124.23 147.69 124.23"/><rect class="cls-2" x="132.58" y="120.64" width="16.36" height="3.62"/><g class="cls-8"><path class="cls-9" d="M133.26,121a4.25,4.25,0,0,1,0,2.9A4.14,4.14,0,0,1,133.26,121Z"/><path class="cls-9" d="M134.47,121a3.81,3.81,0,0,1,.27,1.45,3.59,3.59,0,0,1-.27,1.45A4.25,4.25,0,0,1,134.47,121Z"/><path class="cls-9" d="M135.07,121a4.25,4.25,0,0,1,0,2.9A4.14,4.14,0,0,1,135.07,121Z"/><path class="cls-9" d="M138.36,121a4.25,4.25,0,0,1,0,2.9A4.14,4.14,0,0,1,138.36,121Z"/><path class="cls-9" d="M139.22,121a3.8,3.8,0,0,1,.26,1.45,3.59,3.59,0,0,1-.26,1.45,4.17,4.17,0,0,1,0-2.9Z"/><path class="cls-9" d="M142.88,121a4.25,4.25,0,0,1,0,2.9A4.14,4.14,0,0,1,142.88,121Z"/><path class="cls-9" d="M143.72,121a4.14,4.14,0,0,1,0,2.9A4.25,4.25,0,0,1,143.72,121Z"/><path class="cls-9" d="M145.27,121a4.14,4.14,0,0,1,0,2.9A4.25,4.25,0,0,1,145.27,121Z"/><path class="cls-9" d="M142.17,121a3.8,3.8,0,0,1,.26,1.45,3.42,3.42,0,0,1-.26,1.45,4.17,4.17,0,0,1,0-2.9Z"/><path class="cls-9" d="M136.15,121a4.14,4.14,0,0,1,0,2.9A4.14,4.14,0,0,1,136.15,121Z"/><path class="cls-9" d="M140.39,121a4.25,4.25,0,0,1,0,2.9A4.14,4.14,0,0,1,140.39,121Z"/><path class="cls-9" d="M141,121a4.25,4.25,0,0,1,0,2.9A4.14,4.14,0,0,1,141,121Z"/><path class="cls-9" d="M147.3,121a4.25,4.25,0,0,1,0,2.9,3.59,3.59,0,0,1-.26-1.45A3.8,3.8,0,0,1,147.3,121Z"/><path class="cls-9" d="M148.21,121a4.17,4.17,0,0,1,0,2.9,4.17,4.17,0,0,1,0-2.9Z"/><path class="cls-9" d="M146,121a4.14,4.14,0,0,1,0,2.9A4.25,4.25,0,0,1,146,121Z"/><path class="cls-9" d="M137.63,121a3.8,3.8,0,0,1,.26,1.45,3.59,3.59,0,0,1-.26,1.45,4.17,4.17,0,0,1,0-2.9Z"/></g><polygon class="cls-3" points="148.95 120.64 148.95 121.41 132.58 121.93 132.58 120.64 148.95 120.64"/><rect class="cls-2" x="40.62" y="127.08" width="16.36" height="3.62"/><g class="cls-10"><path class="cls-9" d="M41.29,127.39a4.11,4.11,0,0,1,0,2.89A4.11,4.11,0,0,1,41.29,127.39Z"/><path class="cls-9" d="M42.51,127.39a4.15,4.15,0,0,1,0,2.89,4.15,4.15,0,0,1,0-2.89Z"/><path class="cls-9" d="M43.11,127.39a4,4,0,0,1,.26,1.44,3.76,3.76,0,0,1-.26,1.45,3.59,3.59,0,0,1-.26-1.45A3.75,3.75,0,0,1,43.11,127.39Z"/><path class="cls-9" d="M46.37,127.39a4.11,4.11,0,0,1,0,2.89A4.22,4.22,0,0,1,46.37,127.39Z"/><path class="cls-9" d="M47.26,127.39a4.11,4.11,0,0,1,0,2.89A4.22,4.22,0,0,1,47.26,127.39Z"/><path class="cls-9" d="M50.92,127.39a4.15,4.15,0,0,1,0,2.89A4.11,4.11,0,0,1,50.92,127.39Z"/><path class="cls-9" d="M51.76,127.39a3.75,3.75,0,0,1,.26,1.44,3.59,3.59,0,0,1-.26,1.45,4.15,4.15,0,0,1,0-2.89Z"/><path class="cls-9" d="M53.31,127.39a3.75,3.75,0,0,1,.26,1.44,3.59,3.59,0,0,1-.26,1.45A4.22,4.22,0,0,1,53.31,127.39Z"/><path class="cls-9" d="M50.21,127.39a4.11,4.11,0,0,1,0,2.89,4.15,4.15,0,0,1,0-2.89Z"/><path class="cls-9" d="M44.19,127.39a4.15,4.15,0,0,1,0,2.89,3.42,3.42,0,0,1-.26-1.45A3.75,3.75,0,0,1,44.19,127.39Z"/><path class="cls-9" d="M48.43,127.39a4.22,4.22,0,0,1,0,2.89A4.11,4.11,0,0,1,48.43,127.39Z"/><path class="cls-9" d="M49.05,127.39a4.22,4.22,0,0,1,0,2.89A4.11,4.11,0,0,1,49.05,127.39Z"/><path class="cls-9" d="M55.34,127.39a4.22,4.22,0,0,1,0,2.89A4.11,4.11,0,0,1,55.34,127.39Z"/><path class="cls-9" d="M56.25,127.39a4.11,4.11,0,0,1,0,2.89A4.11,4.11,0,0,1,56.25,127.39Z"/><path class="cls-9" d="M54,127.39a3.75,3.75,0,0,1,.26,1.44,3.42,3.42,0,0,1-.26,1.45A4.22,4.22,0,0,1,54,127.39Z"/><path class="cls-9" d="M45.67,127.39a4.15,4.15,0,0,1,0,2.89,4.15,4.15,0,0,1,0-2.89Z"/></g><polygon class="cls-3" points="56.99 127.08 56.99 127.84 40.62 128.36 40.62 127.08 56.99 127.08"/><rect class="cls-2" x="39.5" y="123.46" width="16.36" height="3.62"/><g class="cls-10"><path class="cls-9" d="M40.17,123.79a3.76,3.76,0,0,1,.26,1.45,3.45,3.45,0,0,1-.26,1.45,3.8,3.8,0,0,1-.26-1.45A4,4,0,0,1,40.17,123.79Z"/><path class="cls-9" d="M41.39,123.79a4.14,4.14,0,0,1,0,2.9A4.25,4.25,0,0,1,41.39,123.79Z"/><path class="cls-9" d="M42,123.79a4.14,4.14,0,0,1,0,2.9A4.14,4.14,0,0,1,42,123.79Z"/><path class="cls-9" d="M45.26,123.79a4.25,4.25,0,0,1,0,2.9,3.45,3.45,0,0,1-.26-1.45A3.76,3.76,0,0,1,45.26,123.79Z"/><path class="cls-9" d="M46.14,123.79a4.14,4.14,0,0,1,0,2.9A4.14,4.14,0,0,1,46.14,123.79Z"/><path class="cls-9" d="M49.8,123.79a4.25,4.25,0,0,1,0,2.9A4.14,4.14,0,0,1,49.8,123.79Z"/><path class="cls-9" d="M50.64,123.79a4.14,4.14,0,0,1,0,2.9A4.25,4.25,0,0,1,50.64,123.79Z"/><path class="cls-9" d="M52.18,123.79a4.25,4.25,0,0,1,0,2.9A4.14,4.14,0,0,1,52.18,123.79Z"/><path class="cls-9" d="M49.09,123.79a4.25,4.25,0,0,1,0,2.9A4.14,4.14,0,0,1,49.09,123.79Z"/><path class="cls-9" d="M43.07,123.79a4.14,4.14,0,0,1,0,2.9A4.14,4.14,0,0,1,43.07,123.79Z"/><path class="cls-9" d="M47.3,123.79a3.59,3.59,0,0,1,.26,1.45,3.45,3.45,0,0,1-.26,1.45,3.8,3.8,0,0,1-.26-1.45A4,4,0,0,1,47.3,123.79Z"/><path class="cls-9" d="M47.91,123.79a4.14,4.14,0,0,1,0,2.9,4.17,4.17,0,0,1,0-2.9Z"/><path class="cls-9" d="M54.21,123.79a4,4,0,0,1,0,2.9A4.25,4.25,0,0,1,54.21,123.79Z"/><path class="cls-9" d="M55.13,123.79a4.25,4.25,0,0,1,0,2.9A4.14,4.14,0,0,1,55.13,123.79Z"/><path class="cls-9" d="M52.91,123.79a4.14,4.14,0,0,1,0,2.9A4.25,4.25,0,0,1,52.91,123.79Z"/><path class="cls-9" d="M44.55,123.79a4.25,4.25,0,0,1,0,2.9A4.14,4.14,0,0,1,44.55,123.79Z"/></g><polygon class="cls-3" points="55.86 123.46 55.86 124.23 39.5 124.74 39.5 123.46 55.86 123.46"/><rect class="cls-2" x="42.03" y="116.26" width="16.36" height="3.62"/><g class="cls-10"><path class="cls-9" d="M42.7,116.59a4.11,4.11,0,0,1,0,2.89A4.11,4.11,0,0,1,42.7,116.59Z"/><path class="cls-9" d="M43.92,116.59a4.15,4.15,0,0,1,0,2.89,4.15,4.15,0,0,1,0-2.89Z"/><path class="cls-9" d="M44.52,116.59a4,4,0,0,1,.26,1.45,3.75,3.75,0,0,1-.26,1.44,3.41,3.41,0,0,1-.26-1.44A3.76,3.76,0,0,1,44.52,116.59Z"/><path class="cls-9" d="M47.78,116.59A3.59,3.59,0,0,1,48,118a3.41,3.41,0,0,1-.26,1.44A4.22,4.22,0,0,1,47.78,116.59Z"/><path class="cls-9" d="M48.67,116.59a4.11,4.11,0,0,1,0,2.89A4.22,4.22,0,0,1,48.67,116.59Z"/><path class="cls-9" d="M52.32,116.59a4,4,0,0,1,0,2.89,3.75,3.75,0,0,1-.26-1.44A4.18,4.18,0,0,1,52.32,116.59Z"/><path class="cls-9" d="M53.17,116.59a4.15,4.15,0,0,1,0,2.89,4.15,4.15,0,0,1,0-2.89Z"/><path class="cls-9" d="M54.72,116.59a4.15,4.15,0,0,1,0,2.89A4.22,4.22,0,0,1,54.72,116.59Z"/><path class="cls-9" d="M51.62,116.59a4.11,4.11,0,0,1,0,2.89A4.11,4.11,0,0,1,51.62,116.59Z"/><path class="cls-9" d="M45.6,116.59a4.15,4.15,0,0,1,0,2.89,3.41,3.41,0,0,1-.26-1.44A3.76,3.76,0,0,1,45.6,116.59Z"/><path class="cls-9" d="M49.83,116.59a4.11,4.11,0,0,1,0,2.89A4.22,4.22,0,0,1,49.83,116.59Z"/><path class="cls-9" d="M50.44,116.59a4.11,4.11,0,0,1,0,2.89A4.11,4.11,0,0,1,50.44,116.59Z"/><path class="cls-9" d="M56.75,116.59a4.22,4.22,0,0,1,0,2.89A4.11,4.11,0,0,1,56.75,116.59Z"/><path class="cls-9" d="M57.66,116.59a4.11,4.11,0,0,1,0,2.89A4.11,4.11,0,0,1,57.66,116.59Z"/><path class="cls-9" d="M55.44,116.59A3.76,3.76,0,0,1,55.7,118a3.57,3.57,0,0,1-.26,1.44,4.15,4.15,0,0,1,0-2.89Z"/><path class="cls-9" d="M47.08,116.59a4.15,4.15,0,0,1,0,2.89,4.15,4.15,0,0,1,0-2.89Z"/></g><polygon class="cls-3" points="58.39 116.26 58.39 117.02 42.03 117.54 42.03 116.26 58.39 116.26"/><rect class="cls-2" x="41.61" y="112.64" width="16.36" height="3.62"/><g class="cls-10"><path class="cls-9" d="M57.25,115.87a4.14,4.14,0,0,1,0-2.9A4.25,4.25,0,0,1,57.25,115.87Z"/><path class="cls-9" d="M56,115.87a4,4,0,0,1-.27-1.45A3.63,3.63,0,0,1,56,113a3.8,3.8,0,0,1,.26,1.45A4,4,0,0,1,56,115.87Z"/><path class="cls-9" d="M55.43,115.87a4.17,4.17,0,0,1,0-2.9,4.17,4.17,0,0,1,0,2.9Z"/><path class="cls-9" d="M52.18,115.87a4.14,4.14,0,0,1,0-2.9A4.14,4.14,0,0,1,52.18,115.87Z"/><path class="cls-9" d="M51.28,115.87a4.14,4.14,0,0,1,0-2.9A4.25,4.25,0,0,1,51.28,115.87Z"/><path class="cls-9" d="M47.62,115.87a4.17,4.17,0,0,1,0-2.9,4.14,4.14,0,0,1,0,2.9Z"/><path class="cls-9" d="M46.78,115.87a3.62,3.62,0,0,1-.26-1.45,3.45,3.45,0,0,1,.26-1.45,3.8,3.8,0,0,1,.26,1.45A4,4,0,0,1,46.78,115.87Z"/><path class="cls-9" d="M45.23,115.87a4.14,4.14,0,0,1,0-2.9A4.25,4.25,0,0,1,45.23,115.87Z"/><path class="cls-9" d="M48.33,115.87a3.8,3.8,0,0,1-.26-1.45,3.62,3.62,0,0,1,.26-1.45,4.17,4.17,0,0,1,0,2.9Z"/><path class="cls-9" d="M54.35,115.87a4.17,4.17,0,0,1,0-2.9,4.17,4.17,0,0,1,0,2.9Z"/><path class="cls-9" d="M50.09,115.87a4.14,4.14,0,0,1,0-2.9A4.14,4.14,0,0,1,50.09,115.87Z"/><path class="cls-9" d="M49.51,115.87a4.14,4.14,0,0,1,0-2.9A4.25,4.25,0,0,1,49.51,115.87Z"/><path class="cls-9" d="M43.2,115.87a4.14,4.14,0,0,1,0-2.9A4.14,4.14,0,0,1,43.2,115.87Z"/><path class="cls-9" d="M42.29,115.87a4.14,4.14,0,0,1,0-2.9A4.14,4.14,0,0,1,42.29,115.87Z"/><path class="cls-9" d="M44.51,115.87a4.14,4.14,0,0,1,0-2.9A4.25,4.25,0,0,1,44.51,115.87Z"/><path class="cls-9" d="M52.87,115.87a4.17,4.17,0,0,1,0-2.9,4.17,4.17,0,0,1,0,2.9Z"/></g><polygon class="cls-3" points="57.98 112.64 57.98 113.41 41.61 113.92 41.61 112.64 57.98 112.64"/><rect class="cls-2" x="40.62" y="109.02" width="16.36" height="3.62"/><g class="cls-10"><path class="cls-9" d="M41.29,109.36a4.11,4.11,0,0,1,0,2.89A4.22,4.22,0,0,1,41.29,109.36Z"/><path class="cls-9" d="M42.51,109.36a4.15,4.15,0,0,1,0,2.89,4.15,4.15,0,0,1,0-2.89Z"/><path class="cls-9" d="M43.11,109.36a4.15,4.15,0,0,1,0,2.89,3.59,3.59,0,0,1-.26-1.45A3.75,3.75,0,0,1,43.11,109.36Z"/><path class="cls-9" d="M46.37,109.36a4.11,4.11,0,0,1,0,2.89A4.22,4.22,0,0,1,46.37,109.36Z"/><path class="cls-9" d="M47.26,109.36a4.11,4.11,0,0,1,0,2.89A4.11,4.11,0,0,1,47.26,109.36Z"/><path class="cls-9" d="M50.92,109.36a4.22,4.22,0,0,1,0,2.89A4.11,4.11,0,0,1,50.92,109.36Z"/><path class="cls-9" d="M51.76,109.36A3.75,3.75,0,0,1,52,110.8a3.59,3.59,0,0,1-.26,1.45,4.15,4.15,0,0,1,0-2.89Z"/><path class="cls-9" d="M53.31,109.36a4.11,4.11,0,0,1,0,2.89A4.11,4.11,0,0,1,53.31,109.36Z"/><path class="cls-9" d="M50.21,109.36a4.15,4.15,0,0,1,0,2.89,4.15,4.15,0,0,1,0-2.89Z"/><path class="cls-9" d="M44.19,109.36a4.15,4.15,0,0,1,0,2.89,4.15,4.15,0,0,1,0-2.89Z"/><path class="cls-9" d="M48.43,109.36a4.22,4.22,0,0,1,0,2.89A4.11,4.11,0,0,1,48.43,109.36Z"/><path class="cls-9" d="M49.05,109.36a4.11,4.11,0,0,1,0,2.89A4.11,4.11,0,0,1,49.05,109.36Z"/><path class="cls-9" d="M55.34,109.36a4.22,4.22,0,0,1,0,2.89A4.11,4.11,0,0,1,55.34,109.36Z"/><path class="cls-9" d="M56.25,109.36a4.11,4.11,0,0,1,0,2.89A4.11,4.11,0,0,1,56.25,109.36Z"/><path class="cls-9" d="M54,109.36a4.11,4.11,0,0,1,0,2.89A4.11,4.11,0,0,1,54,109.36Z"/><path class="cls-9" d="M45.67,109.36a4.15,4.15,0,0,1,0,2.89,4.15,4.15,0,0,1,0-2.89Z"/></g><polygon class="cls-3" points="56.99 109.02 56.99 109.8 40.62 110.31 40.62 109.02 56.99 109.02"/><rect class="cls-2" x="40.62" y="119.87" width="16.36" height="3.62"/><g class="cls-10"><path class="cls-9" d="M56.25,123.1a4.14,4.14,0,0,1,0-2.9A4.14,4.14,0,0,1,56.25,123.1Z"/><path class="cls-9" d="M55,123.1a4.14,4.14,0,0,1,0-2.9A4.25,4.25,0,0,1,55,123.1Z"/><path class="cls-9" d="M54.43,123.1a4.25,4.25,0,0,1,0-2.9,3.42,3.42,0,0,1,.26,1.45A3.59,3.59,0,0,1,54.43,123.1Z"/><path class="cls-9" d="M51.17,123.1a3.76,3.76,0,0,1-.26-1.45,3.42,3.42,0,0,1,.26-1.45,3.76,3.76,0,0,1,.26,1.45A4,4,0,0,1,51.17,123.1Z"/><path class="cls-9" d="M50.28,123.1a4.25,4.25,0,0,1,0-2.9A4.14,4.14,0,0,1,50.28,123.1Z"/><path class="cls-9" d="M46.63,123.1a4,4,0,0,1-.27-1.45,3.59,3.59,0,0,1,.27-1.45,3.76,3.76,0,0,1,.26,1.45A4.18,4.18,0,0,1,46.63,123.1Z"/><path class="cls-9" d="M45.78,123.1a4.14,4.14,0,0,1,0-2.9,4.17,4.17,0,0,1,0,2.9Z"/><path class="cls-9" d="M44.23,123.1a4.17,4.17,0,0,1,0-2.9,4.17,4.17,0,0,1,0,2.9Z"/><path class="cls-9" d="M47.33,123.1a4.14,4.14,0,0,1,0-2.9A4.14,4.14,0,0,1,47.33,123.1Z"/><path class="cls-9" d="M53.35,123.1a4.25,4.25,0,0,1,0-2.9,3.42,3.42,0,0,1,.26,1.45A3.59,3.59,0,0,1,53.35,123.1Z"/><path class="cls-9" d="M49.12,123.1a4.14,4.14,0,0,1,0-2.9A4.14,4.14,0,0,1,49.12,123.1Z"/><path class="cls-9" d="M48.53,123.1a4,4,0,0,1,0-2.9,3.76,3.76,0,0,1,.26,1.45A4.18,4.18,0,0,1,48.53,123.1Z"/><path class="cls-9" d="M42.21,123.1a4.14,4.14,0,0,1,0-2.9A4.25,4.25,0,0,1,42.21,123.1Z"/><path class="cls-9" d="M41.29,123.1a4.14,4.14,0,0,1,0-2.9A4.14,4.14,0,0,1,41.29,123.1Z"/><path class="cls-9" d="M43.51,123.1a3.76,3.76,0,0,1-.26-1.45,3.59,3.59,0,0,1,.26-1.45,4.17,4.17,0,0,1,0,2.9Z"/><path class="cls-9" d="M51.87,123.1a4.25,4.25,0,0,1,0-2.9A4.14,4.14,0,0,1,51.87,123.1Z"/></g><polygon class="cls-3" points="56.99 119.87 56.99 120.64 40.62 121.16 40.62 119.87 56.99 119.87"/><path class="cls-11" d="M39.25,118.07C50,120,47.18,136,36.39,134S28.46,116.14,39.25,118.07Z"/><path class="cls-12" d="M39.25,118.07C50,120,47.18,136,36.39,134S28.46,116.14,39.25,118.07Z"/><path class="cls-2" d="M38.24,117.89c10.27,1.84,7.42,17.81-2.86,16S28,116.05,38.24,117.89Z"/><path class="cls-13" d="M30.3,126.25a6.23,6.23,0,0,0,5.32,6.26c8.54,1.53,10.9-11.72,2.38-13.25l-.17,0c8,1.6,5.7,14.13-2.44,12.67A5.92,5.92,0,0,1,30.3,126.25Z"/><g class="cls-10"><path class="cls-9" d="M37.7,120.9a.27.27,0,0,1,.19.33l-.11.44a3.65,3.65,0,0,1,1.76,1.25.36.36,0,0,1,.1.29.3.3,0,0,1-.36.21.34.34,0,0,1-.18-.13,3.22,3.22,0,0,0-1.46-1.12l-.77,3.06c1.57.77,2.12,1.57,1.86,2.64a2.22,2.22,0,0,1-2.85,1.44l-.22.86a.27.27,0,0,1-.3.24.28.28,0,0,1-.24-.3.64.64,0,0,1,0-.07l.22-.87a4.27,4.27,0,0,1-2.2-1.67.27.27,0,0,1-.06-.27.29.29,0,0,1,.34-.2.24.24,0,0,1,.17.13,3.7,3.7,0,0,0,1.89,1.53l.78-3.14c-1.57-.77-2.09-1.56-1.81-2.63a2.24,2.24,0,0,1,2.8-1.41l.1-.42A.28.28,0,0,1,37.7,120.9ZM36.42,125l.74-3A1.66,1.66,0,0,0,35,123c-.19.79.05,1.29,1.38,2Zm.31.78-.73,3a1.66,1.66,0,0,0,2.17-1c.21-.83-.08-1.3-1.44-2Z"/></g></g></g></svg>