<svg xmlns="http://www.w3.org/2000/svg" viewBox="0 0 178 184"><defs><style>.cls-1{fill:#d4dee1;}.cls-2,.cls-3{fill:#3f3f3f;}.cls-2{opacity:0.71;}.cls-2,.cls-5{isolation:isolate;}.cls-4{fill:#94b7bd;}.cls-5{opacity:0.3;}.cls-6{fill:#fff;}.cls-7{fill:#1c5b68;}.cls-8{fill:#dce6e8;}</style></defs><g id="Calque_2" data-name="Calque 2"><g id="Calque_1-2" data-name="Calque 1"><path id="bulle_fond" data-name="bulle fond" class="cls-1" d="M0,83.28C0,26.73,24.75,0,77.12,0H99c55.23,0,79,26.73,79,83.28v17.44C178,157.26,153.26,184,99,184H77.12C25.71,184,0,157.26,0,100.72Z"/><rect class="cls-2" x="34.45" y="66.23" width="48.54" height="69.3" rx="4.75" transform="translate(-42.67 158.71) rotate(-89.49)"/><path class="cls-3" d="M52.63,85.12A4.51,4.51,0,0,1,50,83.81a4.57,4.57,0,0,1-1.29-3.2l.07-8.12A4.5,4.5,0,0,1,53.36,68h0l13.51.11a4.52,4.52,0,0,1,4.48,4.55l-.07,8.12a4.53,4.53,0,0,1-4.55,4.47h0l-13.52-.13A5.68,5.68,0,0,1,52.63,85.12ZM67.12,70.74l-.24,0-13.53-.12a1.88,1.88,0,0,0-1.9,1.86h0l-.08,8.11a1.91,1.91,0,0,0,1.88,1.91l13.52.12a1.91,1.91,0,0,0,1.91-1.87l.1-8a1.92,1.92,0,0,0-.54-1.34,1.94,1.94,0,0,0-1.13-.59Z"/><rect class="cls-3" x="37.83" y="66.33" width="48.54" height="69.3" rx="4.75" transform="translate(-39.43 162.18) rotate(-89.49)"/><g id="freepik--Agreement--inject-189"><path class="cls-4" d="M99.14,65.08C98.22,59.51,102,55,107.56,55H66.86c-5.58,0-9.34,4.51-8.42,10.09Z"/><path class="cls-5" d="M99.14,65.08C98.22,59.51,102,55,107.56,55H66.86c-5.58,0-9.34,4.51-8.42,10.09Z"/><path class="cls-4" d="M107.56,55H66.86A12.37,12.37,0,0,1,78.62,65.08l8.91,53.81A12.41,12.41,0,0,0,99.3,129h20.53c5.57,0,9.33-4.52,8.42-10.09l-8.93-53.81A12.37,12.37,0,0,0,107.56,55Z"/><path class="cls-4" d="M107.72,118.92c.92,5.57-2.85,10.09-8.42,10.09H140a8.31,8.31,0,0,0,8.6-8,7.83,7.83,0,0,0-.18-2Z"/><path class="cls-5" d="M107.72,118.92c.92,5.57-2.85,10.09-8.42,10.09H140a8.31,8.31,0,0,0,8.6-8,7.83,7.83,0,0,0-.18-2Z"/><path class="cls-6" d="M114.27,69.75H85.21a.74.74,0,0,1-.7-.61h0a.48.48,0,0,1,.37-.59h29.19a.74.74,0,0,1,.7.6h0a.5.5,0,0,1-.37.6Z"/><path class="cls-6" d="M98.17,74H85.91a.76.76,0,0,1-.71-.61h0a.5.5,0,0,1,.37-.59.33.33,0,0,1,.14,0H98a.75.75,0,0,1,.71.6h0a.51.51,0,0,1-.4.6Z"/><path class="cls-6" d="M109.51,74H101a.75.75,0,0,1-.7-.61h0a.5.5,0,0,1,.37-.59h8.6a.73.73,0,0,1,.7.6h0a.51.51,0,0,1-.37.6Z"/><path class="cls-6" d="M115.7,78.2H86.61a.75.75,0,0,1-.71-.6h0a.49.49,0,0,1,.37-.59.29.29,0,0,1,.13,0h29.06a.75.75,0,0,1,.71.6h0a.51.51,0,0,1-.39.59Z"/><path class="cls-6" d="M113.49,82.35H87.3a.73.73,0,0,1-.7-.6h0a.51.51,0,0,1,.39-.6h26.35a.77.77,0,0,1,.71.61h0a.52.52,0,0,1-.39.6A.49.49,0,0,1,113.49,82.35Z"/><path class="cls-6" d="M105.61,86.55H88a.75.75,0,0,1-.71-.6h0a.51.51,0,0,1,.38-.59h17.75a.76.76,0,0,1,.7.6h0a.49.49,0,0,1-.39.59Z"/><path class="cls-6" d="M117.72,90.76h-29a.74.74,0,0,1-.7-.6h0a.5.5,0,0,1,.39-.6h29.17a.73.73,0,0,1,.7.61h0a.49.49,0,0,1-.53.6Z"/><path class="cls-6" d="M118.45,95H89.39a.75.75,0,0,1-.71-.61h0a.5.5,0,0,1,.4-.59h29.17a.73.73,0,0,1,.7.6h0a.5.5,0,0,1-.37.6Z"/><path class="cls-6" d="M107.71,99.16H90.09a.76.76,0,0,1-.71-.6h0a.5.5,0,0,1,.39-.59h17.74a.74.74,0,0,1,.7.6h0a.49.49,0,0,1-.38.59Z"/><rect class="cls-7" x="112.79" y="87.72" width="52.91" height="2.14" transform="translate(-9.61 160.32) rotate(-58.19)"/><rect class="cls-5" x="112.79" y="87.72" width="52.91" height="2.14" transform="translate(-9.61 160.32) rotate(-58.19)"/><rect class="cls-7" x="109.16" y="85.48" width="52.91" height="2.14" transform="matrix(0.53, -0.85, 0.85, 0.53, -9.42, 156.17)"/><rect class="cls-5" x="109.16" y="85.48" width="52.91" height="2.14" transform="matrix(0.53, -0.85, 0.85, 0.53, -9.42, 156.17)"/><rect class="cls-7" x="110.98" y="86.6" width="52.91" height="2.14" transform="matrix(0.53, -0.85, 0.85, 0.53, -9.5, 158.25)"/><polygon class="cls-8" points="120.72 112.79 122.35 113.81 126.22 111.84 120.77 108.46 120.72 112.79"/><polygon class="cls-7" points="120.7 114.66 122.35 113.81 120.72 112.79 120.7 114.66"/><path class="cls-6" d="M119.74,115h-.07a8.75,8.75,0,0,1-3.48-2.56,15.62,15.62,0,0,0-1.91-1.73.6.6,0,0,0-.74,0,.49.49,0,0,0,0,.66,9.05,9.05,0,0,0,.79,1,.77.77,0,0,1,.09.9.71.71,0,0,1-.8.25c-.38-.13-.76-.27-1.13-.43a.16.16,0,0,0-.24,0,.17.17,0,0,0,0,.23l0,.13a.85.85,0,0,1-.08.83.87.87,0,0,1-.75.33,131.71,131.71,0,0,0-13.33,0,.25.25,0,0,1,0-.5,132.7,132.7,0,0,1,13.38-.06.31.31,0,0,0,.31-.12.34.34,0,0,0,0-.34l0-.11a.67.67,0,0,1,.26-.92.68.68,0,0,1,.65,0,8.72,8.72,0,0,0,1.07.41.17.17,0,0,0,.23,0,.24.24,0,0,0-.06-.29,12,12,0,0,1-.81-1.07,1,1,0,0,1,1.43-1.3,14.29,14.29,0,0,1,2,1.79,8.71,8.71,0,0,0,3.17,2.33.25.25,0,0,1,.16.32h0A.24.24,0,0,1,119.74,115Z"/></g></g></g></svg>