<svg xmlns="http://www.w3.org/2000/svg" viewBox="0 0 178 184"><defs><style>.cls-1{fill:#d4dee1;}.cls-2{fill:#1c5a68;}.cls-3{fill:#94b7b9;}.cls-4{opacity:0.25;}.cls-4,.cls-5,.cls-8{isolation:isolate;}.cls-5{fill:#fff;}.cls-10,.cls-5{opacity:0.5;}.cls-6{fill:#e0e0e0;}.cls-7{fill:#f0f0f0;}.cls-8{opacity:0.2;}.cls-9{fill:#fafafa;}</style></defs><g id="Calque_2" data-name="Calque 2"><g id="Calque_1-2" data-name="Calque 1"><path id="bulle_fond" data-name="bulle fond" class="cls-1" d="M0,83.28C0,26.73,24.75,0,77.12,0H99c55.23,0,79,26.73,79,83.28v17.44C178,157.26,153.26,184,99,184H77.12C25.71,184,0,157.26,0,100.72Z"/><g id="calculatrice"><g id="freepik--calculator--inject-1184-2"><path class="cls-2" d="M118.81,29.26a2.24,2.24,0,0,0-.91-2c-.55-.32-5.32-3.1-5.9-3.42a2.17,2.17,0,0,0-2.18.23L62.32,51.48a6.89,6.89,0,0,0-3.13,5.41v97.84a2.22,2.22,0,0,0,.92,2L66,160.12a2.21,2.21,0,0,0,2.23-.21l47.48-27.42a6.92,6.92,0,0,0,3.15-5.39Z"/><path class="cls-2" d="M65.05,158.13V60.28a6.89,6.89,0,0,1,3.13-5.41l47.48-27.42c1.73-1,3.13-.19,3.13,1.8v97.86a6.89,6.89,0,0,1-3.13,5.41L68.18,159.94C66.45,160.93,65.05,160.12,65.05,158.13Z"/><path class="cls-3" d="M77.54,140.25a.35.35,0,0,0-.39,0l-7,4a2.15,2.15,0,0,0-.72,1.7v6.83a1,1,0,0,0,.33.89c.11.07,1.27.72,1.46.85a.41.41,0,0,0,.4,0l7-4a2.15,2.15,0,0,0,.73-1.71V142a1,1,0,0,0-.34-.9Z"/><path class="cls-4" d="M71.27,154.58h0l-1.46-.85a1,1,0,0,1-.33-.88V146a2.69,2.69,0,0,1,.23-1.08l1.47.84a2.51,2.51,0,0,0-.24,1.08v6.83C70.91,154.14,71.05,154.47,71.27,154.58Z"/><path class="cls-5" d="M79,141.09a.38.38,0,0,0-.36,0l-7,4a1.27,1.27,0,0,0-.5.62l-1.46-.84a1.36,1.36,0,0,1,.49-.62l7-4a.39.39,0,0,1,.39,0C77.74,140.36,78.81,141,79,141.09Z"/><path class="cls-3" d="M78.62,150.52l-7,4c-.4.23-.73-.16-.73-.87v-6.83a2.05,2.05,0,0,1,.73-1.7l7-4c.4-.24.72.15.72.86v6.83A2.14,2.14,0,0,1,78.62,150.52Z"/><path class="cls-3" d="M102.45,125.87a.35.35,0,0,0-.39,0l-7,4a2.1,2.1,0,0,0-.72,1.7v6.83a1,1,0,0,0,.32.89l1.48.84a.39.39,0,0,0,.39,0l7-4a2.13,2.13,0,0,0,.72-1.7V127.6a1,1,0,0,0-.34-.89Z"/><path class="cls-4" d="M96.17,140.18h0l-1.47-.84a1,1,0,0,1-.32-.89v-6.83a2.69,2.69,0,0,1,.23-1.08l1.46.84a2.7,2.7,0,0,0-.23,1.09v6.82A.9.9,0,0,0,96.17,140.18Z"/><path class="cls-5" d="M103.91,126.7a.37.37,0,0,0-.38,0l-7,4a1.34,1.34,0,0,0-.49.63l-1.46-.85a1.31,1.31,0,0,1,.49-.62l7-4a.39.39,0,0,1,.39,0C102.66,126,103.75,126.62,103.91,126.7Z"/><path class="cls-3" d="M103.53,136.13l-7,4.05c-.4.23-.72-.15-.72-.86v-6.85a2.17,2.17,0,0,1,.72-1.71l7-4c.4-.23.72.16.72.87v6.83A2.13,2.13,0,0,1,103.53,136.13Z"/><path class="cls-3" d="M114.91,118.67a.39.39,0,0,0-.39,0l-7,4a2.1,2.1,0,0,0-.72,1.7v6.83a1,1,0,0,0,.33.89l1.46.84a.41.41,0,0,0,.4,0l7-4a2.16,2.16,0,0,0,.72-1.7V120.4a1,1,0,0,0-.34-.9Z"/><path class="cls-4" d="M108.63,133h0l-1.47-.84a1,1,0,0,1-.32-.89v-6.84a2.69,2.69,0,0,1,.23-1.08l1.47.84a2.55,2.55,0,0,0-.24,1.09v6.82A1,1,0,0,0,108.63,133Z"/><path class="cls-5" d="M116.38,119.51a.37.37,0,0,0-.38,0l-7,4a1.28,1.28,0,0,0-.49.63L107,123.3a1.34,1.34,0,0,1,.49-.63l7-4a.35.35,0,0,1,.39,0C115.11,118.79,116.22,119.43,116.38,119.51Z"/><path class="cls-3" d="M116,128.94l-7,4c-.4.24-.72-.15-.72-.86v-6.82a2.14,2.14,0,0,1,.72-1.71l7-4c.4-.23.72.16.72.87v6.83A2.11,2.11,0,0,1,116,128.94Z"/><path class="cls-3" d="M114.91,104.27a.35.35,0,0,0-.39,0l-7,4a2.13,2.13,0,0,0-.71,1.73v6.83a1,1,0,0,0,.33.89l1.46.84a.36.36,0,0,0,.4,0l7-4a2.16,2.16,0,0,0,.72-1.7V106a1,1,0,0,0-.34-.9Z"/><path class="cls-4" d="M108.63,118.6h0l-1.47-.84a1,1,0,0,1-.32-.89V110a2.69,2.69,0,0,1,.23-1.08l1.47.84a2.55,2.55,0,0,0-.24,1.09v6.82A1,1,0,0,0,108.63,118.6Z"/><path class="cls-5" d="M116.38,105.11a.37.37,0,0,0-.38,0l-7,4a1.34,1.34,0,0,0-.49.63l-1.46-.85a1.31,1.31,0,0,1,.49-.62l7-4a.39.39,0,0,1,.39,0C115.11,104.39,116.22,105,116.38,105.11Z"/><path class="cls-3" d="M116,114.54l-7,4c-.4.23-.72-.16-.72-.87v-6.83a2.1,2.1,0,0,1,.72-1.7l7-4c.4-.23.72.16.72.87v6.83A2.13,2.13,0,0,1,116,114.54Z"/><path class="cls-3" d="M114.91,89.87a.39.39,0,0,0-.39,0l-7,4a2.1,2.1,0,0,0-.72,1.7v6.83a1,1,0,0,0,.33.89l1.46.84a.36.36,0,0,0,.4,0l7-4a2.16,2.16,0,0,0,.72-1.7V91.61a1,1,0,0,0-.34-.9Z"/><path class="cls-4" d="M108.63,104.2h0l-1.47-.84a1,1,0,0,1-.32-.89V95.63a2.69,2.69,0,0,1,.23-1.08l1.47.84a2.55,2.55,0,0,0-.24,1.09v6.82A1,1,0,0,0,108.63,104.2Z"/><path class="cls-5" d="M116.38,90.71a.37.37,0,0,0-.38,0l-7,4a1.34,1.34,0,0,0-.49.63l-1.46-.85a1.31,1.31,0,0,1,.49-.62l7-4a.39.39,0,0,1,.39,0C115.11,90,116.22,90.63,116.38,90.71Z"/><path class="cls-3" d="M116,100.13l-7,4c-.4.23-.72-.16-.72-.87V96.43a2.1,2.1,0,0,1,.72-1.7l7-4c.4-.23.72.16.72.87v6.83A2.09,2.09,0,0,1,116,100.13Z"/><path class="cls-3" d="M114.91,75.47a.35.35,0,0,0-.39,0l-7,4a2.1,2.1,0,0,0-.72,1.7V88a1,1,0,0,0,.33.89l1.46.84a.36.36,0,0,0,.4,0l7-4a2.16,2.16,0,0,0,.72-1.7V77.2a1,1,0,0,0-.33-.89C116.26,76.25,115.11,75.6,114.91,75.47Z"/><path class="cls-4" d="M108.63,89.8h0L107.15,89a1,1,0,0,1-.33-.89V81.23a2.69,2.69,0,0,1,.23-1.08l1.47.84a2.55,2.55,0,0,0-.24,1.09V88.9A1.09,1.09,0,0,0,108.63,89.8Z"/><path class="cls-5" d="M116.38,76.32a.37.37,0,0,0-.38,0l-7,4a1.36,1.36,0,0,0-.49.62l-1.46-.84a1.31,1.31,0,0,1,.49-.62l7-4a.39.39,0,0,1,.39,0C115.11,75.6,116.22,76.23,116.38,76.32Z"/><path class="cls-3" d="M116,85.74l-7,4c-.4.23-.72-.16-.72-.87V82.06a2.1,2.1,0,0,1,.72-1.7l7-4c.4-.23.72.16.72.87V84A2.11,2.11,0,0,1,116,85.74Z"/><path class="cls-3" d="M114.91,61.07a.35.35,0,0,0-.39,0l-7,4a2.14,2.14,0,0,0-.72,1.71v6.83a1,1,0,0,0,.33.88c.11.07,1.27.72,1.46.85a.41.41,0,0,0,.4,0l7-4a2.18,2.18,0,0,0,.72-1.71V62.81a1,1,0,0,0-.34-.9Z"/><path class="cls-4" d="M108.63,75.4h0l-1.47-.84a1,1,0,0,1-.32-.89V66.83a2.69,2.69,0,0,1,.23-1.08l1.47.84a2.55,2.55,0,0,0-.24,1.09v6.83A1,1,0,0,0,108.63,75.4Z"/><path class="cls-5" d="M116.38,61.91a.37.37,0,0,0-.38,0l-7,4a1.34,1.34,0,0,0-.49.63l-1.46-.85a1.31,1.31,0,0,1,.49-.62l7-4a.39.39,0,0,1,.39,0C115.11,61.19,116.22,61.83,116.38,61.91Z"/><path class="cls-3" d="M116,71.34l-7,4c-.4.23-.72-.16-.72-.87V67.66A2.1,2.1,0,0,1,109,66l7-4c.4-.23.72.16.72.87v6.83A2.16,2.16,0,0,1,116,71.34Z"/><path class="cls-3" d="M102.45,68.26a.39.39,0,0,0-.39,0l-7,4a2.1,2.1,0,0,0-.72,1.7v6.83a1,1,0,0,0,.32.89l1.47.84a.36.36,0,0,0,.4,0l7-4a2.13,2.13,0,0,0,.72-1.7V70a1,1,0,0,0-.34-.89Z"/><path class="cls-4" d="M96.17,82.59h0l-1.46-.86a1,1,0,0,1-.33-.89V74a2.51,2.51,0,0,1,.24-1.08l1.46.85a2.69,2.69,0,0,0-.23,1.08v6.82A1,1,0,0,0,96.17,82.59Z"/><path class="cls-5" d="M103.91,69.1a.37.37,0,0,0-.38,0l-7,4a1.44,1.44,0,0,0-.49.63L94.6,73a1.34,1.34,0,0,1,.49-.63l7-4a.35.35,0,0,1,.39,0A9.64,9.64,0,0,1,103.91,69.1Z"/><path class="cls-3" d="M103.53,78.53l-7,4c-.4.23-.72-.16-.72-.87V74.87a2.15,2.15,0,0,1,.72-1.7l7-4c.4-.23.72.16.72.87v6.83A2.11,2.11,0,0,1,103.53,78.53Z"/><path class="cls-3" d="M90,75.46a.35.35,0,0,0-.39,0l-7,4a2.1,2.1,0,0,0-.72,1.7V88a1,1,0,0,0,.33.89l1.46.85a.41.41,0,0,0,.4,0l7-4A2.14,2.14,0,0,0,91.81,84V77.17a1,1,0,0,0-.33-.89Z"/><path class="cls-4" d="M83.72,89.78h0L82.26,89a1,1,0,0,1-.33-.89V81.21a2.69,2.69,0,0,1,.23-1.08l1.47.85a2.47,2.47,0,0,0-.24,1.08v6.82C83.38,89.35,83.51,89.67,83.72,89.78Z"/><path class="cls-5" d="M91.45,76.29a.38.38,0,0,0-.36,0l-7,4a1.3,1.3,0,0,0-.5.63l-1.46-.84a1.34,1.34,0,0,1,.49-.63l7-4a.33.33,0,0,1,.38,0Z"/><path class="cls-3" d="M91.07,85.72l-7,4c-.4.24-.72-.15-.72-.87V82a2.14,2.14,0,0,1,.72-1.71l7-4c.4-.23.72.16.72.87V84A2.07,2.07,0,0,1,91.07,85.72Z"/><path class="cls-3" d="M77.54,82.65a.35.35,0,0,0-.39,0l-7,4a2.1,2.1,0,0,0-.72,1.7v6.83a1,1,0,0,0,.33.89l1.46.85a.41.41,0,0,0,.4,0l7-4a2.13,2.13,0,0,0,.72-1.7V84.39A1,1,0,0,0,79,83.5Z"/><path class="cls-4" d="M71.27,97h0l-1.46-.84a1,1,0,0,1-.33-.89V88.4a2.69,2.69,0,0,1,.23-1.08l1.47.85a2.51,2.51,0,0,0-.24,1.08v6.83A1,1,0,0,0,71.27,97Z"/><path class="cls-5" d="M79,83.48a.38.38,0,0,0-.36,0l-7,4a1.36,1.36,0,0,0-.5.63l-1.46-.84a1.34,1.34,0,0,1,.49-.63l7-4a.35.35,0,0,1,.39,0Z"/><path class="cls-3" d="M78.62,92.91l-7,4c-.4.23-.73-.16-.73-.87V89.21a2.12,2.12,0,0,1,.73-1.71l7-4c.4-.23.72.16.72.87V91.2A2.11,2.11,0,0,1,78.62,92.91Z"/><path class="cls-6" d="M90,133.06a.35.35,0,0,0-.39,0l-7,4a2.1,2.1,0,0,0-.72,1.7v6.83a1,1,0,0,0,.33.89c.11.07,1.26.72,1.46.85a.36.36,0,0,0,.4,0l7-4a2.14,2.14,0,0,0,.72-1.71v-6.83c0-.46-.13-.78-.33-.89Z"/><path class="cls-7" d="M91.45,133.89a.38.38,0,0,0-.36,0l-7,4a1.3,1.3,0,0,0-.5.63l-1.46-.85a1.36,1.36,0,0,1,.49-.62l7-4a.33.33,0,0,1,.38,0Z"/><path class="cls-8" d="M83.72,147.4h0l-1.46-.85a1,1,0,0,1-.33-.88v-6.86a2.69,2.69,0,0,1,.23-1.08l1.47.85a2.47,2.47,0,0,0-.24,1.08v6.82A1.1,1.1,0,0,0,83.72,147.4Z"/><path class="cls-6" d="M77.54,125.85a.35.35,0,0,0-.39,0l-7,4a2.1,2.1,0,0,0-.72,1.7v6.83a1,1,0,0,0,.33.89c.11.07,1.27.72,1.46.85a.41.41,0,0,0,.4,0l7-4a2.15,2.15,0,0,0,.73-1.71v-6.85a1,1,0,0,0-.34-.89Z"/><path class="cls-7" d="M79,126.68a.38.38,0,0,0-.36,0l-7,4a1.36,1.36,0,0,0-.5.63l-1.46-.84a1.34,1.34,0,0,1,.49-.63l7-4a.35.35,0,0,1,.39,0Z"/><path class="cls-8" d="M71.27,140.18h0l-1.46-.84a1,1,0,0,1-.33-.89V131.6a2.69,2.69,0,0,1,.23-1.08l1.47.85a2.51,2.51,0,0,0-.24,1.08v6.83C70.91,139.74,71.05,140.07,71.27,140.18Z"/><path class="cls-6" d="M102.45,111.47a.35.35,0,0,0-.39,0l-7,4a2.1,2.1,0,0,0-.72,1.7V124a1,1,0,0,0,.32.89l1.48.84a.35.35,0,0,0,.39,0l7-4a2.13,2.13,0,0,0,.72-1.7V113.2a1,1,0,0,0-.34-.9Z"/><path class="cls-7" d="M103.91,112.3a.37.37,0,0,0-.38,0l-7,4a1.34,1.34,0,0,0-.49.63l-1.46-.85a1.31,1.31,0,0,1,.49-.62l7-4a.39.39,0,0,1,.39,0C102.66,111.58,103.75,112.22,103.91,112.3Z"/><path class="cls-8" d="M96.17,125.79h0L94.7,125a1,1,0,0,1-.32-.89v-6.84a2.69,2.69,0,0,1,.23-1.08l1.46.84a2.7,2.7,0,0,0-.23,1.09v6.82A1,1,0,0,0,96.17,125.79Z"/><path class="cls-6" d="M90,118.66a.35.35,0,0,0-.39,0l-7,4a2.1,2.1,0,0,0-.72,1.7v6.83a1,1,0,0,0,.33.89l1.46.85a.36.36,0,0,0,.4,0l7-4a2.14,2.14,0,0,0,.72-1.71v-6.83c0-.46-.13-.78-.33-.89Z"/><path class="cls-7" d="M91.45,119.49a.38.38,0,0,0-.36,0l-7,4a1.3,1.3,0,0,0-.5.63l-1.46-.85a1.36,1.36,0,0,1,.49-.62l7-4a.33.33,0,0,1,.38,0Z"/><path class="cls-8" d="M83.72,133h0l-1.46-.84a1,1,0,0,1-.33-.89v-6.84a2.69,2.69,0,0,1,.23-1.08l1.47.85a2.47,2.47,0,0,0-.24,1.08v6.82A1,1,0,0,0,83.72,133Z"/><path class="cls-6" d="M77.54,111.45a.39.39,0,0,0-.39,0l-7,4a2.1,2.1,0,0,0-.72,1.7V124a1,1,0,0,0,.33.89l1.46.84a.42.42,0,0,0,.38,0l7-4a2.13,2.13,0,0,0,.72-1.7V113.2a1,1,0,0,0-.33-.9Z"/><path class="cls-7" d="M79,112.29a.38.38,0,0,0-.36,0l-7,4a1.3,1.3,0,0,0-.5.63l-1.46-.85a1.36,1.36,0,0,1,.49-.62l7-4a.39.39,0,0,1,.39,0C77.74,111.57,78.81,112.21,79,112.29Z"/><path class="cls-8" d="M71.27,125.78h0l-1.46-.84a1,1,0,0,1-.33-.89v-6.84a2.69,2.69,0,0,1,.23-1.08l1.47.84a2.55,2.55,0,0,0-.24,1.09v6.82C70.91,125.35,71.05,125.67,71.27,125.78Z"/><path class="cls-6" d="M102.45,97.07a.35.35,0,0,0-.39,0l-7,4a2.14,2.14,0,0,0-.72,1.71v6.83a1,1,0,0,0,.32.88l1.48.85a.39.39,0,0,0,.39,0l7-4a2.14,2.14,0,0,0,.72-1.71V98.8a1,1,0,0,0-.34-.89C103.81,97.85,102.66,97.18,102.45,97.07Z"/><path class="cls-7" d="M103.91,97.9a.42.42,0,0,0-.38,0l-7,4a1.44,1.44,0,0,0-.49.63l-1.46-.84a1.34,1.34,0,0,1,.49-.63l7-4a.35.35,0,0,1,.39,0C102.66,97.18,103.75,97.83,103.91,97.9Z"/><path class="cls-8" d="M96.17,111.4h0l-1.47-.85a1,1,0,0,1-.32-.89v-6.83a2.7,2.7,0,0,1,.23-1.09l1.46.85a2.69,2.69,0,0,0-.23,1.08v6.83A1,1,0,0,0,96.17,111.4Z"/><path class="cls-6" d="M90,104.26a.35.35,0,0,0-.39,0l-7,4a2.17,2.17,0,0,0-.72,1.71v6.83a1,1,0,0,0,.33.89l1.46.84a.36.36,0,0,0,.4,0l7-4a2.14,2.14,0,0,0,.72-1.71V106a1,1,0,0,0-.33-.9Z"/><path class="cls-7" d="M91.45,105.1a.38.38,0,0,0-.36,0l-7,4a1.23,1.23,0,0,0-.49.63l-1.47-.85a1.36,1.36,0,0,1,.49-.62l7-4a.35.35,0,0,1,.39,0Z"/><path class="cls-8" d="M83.72,118.59h0l-1.46-.84a1,1,0,0,1-.33-.89V110a2.69,2.69,0,0,1,.23-1.08l1.47.84a2.55,2.55,0,0,0-.24,1.09v6.82C83.38,118.17,83.51,118.48,83.72,118.59Z"/><path class="cls-6" d="M77.54,97.06a.35.35,0,0,0-.39,0l-7,4a2.1,2.1,0,0,0-.72,1.7v6.83a1,1,0,0,0,.33.89c.11.07,1.27.72,1.46.84a.41.41,0,0,0,.4,0l7-4a2.15,2.15,0,0,0,.73-1.71V98.78a1,1,0,0,0-.34-.89Z"/><path class="cls-7" d="M79,97.89a.38.38,0,0,0-.36,0l-7,4a1.27,1.27,0,0,0-.5.62l-1.46-.84a1.44,1.44,0,0,1,.49-.63l7-4a.39.39,0,0,1,.39,0Z"/><path class="cls-8" d="M71.27,111.38h0l-1.46-.84a1,1,0,0,1-.33-.89v-6.84a2.69,2.69,0,0,1,.23-1.08l1.47.84a2.55,2.55,0,0,0-.24,1.09v6.82C70.91,111,71.05,111.27,71.27,111.38Z"/><path class="cls-6" d="M102.45,82.68a.35.35,0,0,0-.39,0l-7,4a2.1,2.1,0,0,0-.72,1.7v6.83a1,1,0,0,0,.32.89l1.48.84a.39.39,0,0,0,.39,0l7-4a2.13,2.13,0,0,0,.72-1.7V84.41a1,1,0,0,0-.34-.9Z"/><path class="cls-7" d="M103.91,83.51a.37.37,0,0,0-.38,0l-7,4a1.34,1.34,0,0,0-.49.63l-1.46-.85a1.31,1.31,0,0,1,.49-.62l7-4a.39.39,0,0,1,.39,0C102.66,82.78,103.75,83.43,103.91,83.51Z"/><path class="cls-8" d="M96.17,97h0l-1.46-.84a1,1,0,0,1-.33-.89V88.43a2.51,2.51,0,0,1,.24-1.08l1.46.84a2.69,2.69,0,0,0-.23,1.08V96.1A1,1,0,0,0,96.17,97Z"/><path class="cls-6" d="M90,89.87a.35.35,0,0,0-.39,0l-7,4a2.1,2.1,0,0,0-.72,1.7v6.83a1,1,0,0,0,.33.89l1.46.84a.36.36,0,0,0,.4,0l7-4a2.14,2.14,0,0,0,.72-1.71V91.6c0-.46-.13-.78-.33-.89Z"/><path class="cls-7" d="M91.45,90.7a.38.38,0,0,0-.36,0l-7,4a1.3,1.3,0,0,0-.5.63l-1.46-.85a1.36,1.36,0,0,1,.49-.62l7-4a.37.37,0,0,1,.38,0Z"/><path class="cls-8" d="M83.72,104.19h0l-1.46-.84a1,1,0,0,1-.33-.89V95.62a2.69,2.69,0,0,1,.23-1.08l1.47.84a2.55,2.55,0,0,0-.24,1.09v6.82C83.38,103.76,83.51,104.1,83.72,104.19Z"/><path class="cls-3" d="M74.48,107h0l.88-3.65-1.2.69m-.07,0a.17.17,0,0,1,0-.1v-.67a.28.28,0,0,1,0-.13.11.11,0,0,1,.07-.08l1.94-1.12a.06.06,0,0,1,.08,0,.17.17,0,0,1,0,.1v.58a2.25,2.25,0,0,1-.06.36l-.89,3.66a.28.28,0,0,1,0,.13.2.2,0,0,1-.07.09l-.57.33m-.07,0a.11.11,0,0,1-.07-.14.05.05,0,0,1,0,0Z"/><path class="cls-3" d="M86.43,97.22a2.1,2.1,0,0,1,.09-.61,2.63,2.63,0,0,1,.29-.61,2.47,2.47,0,0,1,.36-.49,2.11,2.11,0,0,1,.43-.36,1.2,1.2,0,0,1,.45-.15.5.5,0,0,1,.36.07.53.53,0,0,1,.24.29,1.25,1.25,0,0,1,.1.51,2.05,2.05,0,0,1-.06.49,2.6,2.6,0,0,1-.16.47.72.72,0,0,1,.2.29,1.17,1.17,0,0,1,.08.46,1.87,1.87,0,0,1-.1.62,2.48,2.48,0,0,1-.25.58,3.66,3.66,0,0,1-.38.5,2.15,2.15,0,0,1-.48.36,1.12,1.12,0,0,1-.46.17.66.66,0,0,1-.39-.06.62.62,0,0,1-.25-.28,1.29,1.29,0,0,1-.1-.51,2,2,0,0,1,.08-.55,3,3,0,0,1,.2-.52.92.92,0,0,1-.16-.29A1.24,1.24,0,0,1,86.43,97.22Zm.69,1.37a.26.26,0,0,0,.11.24.46.46,0,0,0,.34-.08,1,1,0,0,0,.34-.32.66.66,0,0,0,.11-.36.25.25,0,0,0-.11-.24.75.75,0,0,0-.34.07,1,1,0,0,0-.34.32.67.67,0,0,0-.08.37Zm.06-1.81a.25.25,0,0,0,.39.25.74.74,0,0,0,.39-.64.29.29,0,0,0-.1-.25.3.3,0,0,0-.29,0,.81.81,0,0,0-.29.29.68.68,0,0,0-.09.35Z"/><path class="cls-3" d="M98.81,90.27a2.46,2.46,0,0,1,.1-.72,2.42,2.42,0,0,1,.27-.64,2.23,2.23,0,0,1,.38-.53A2.17,2.17,0,0,1,100,88a1.1,1.1,0,0,1,.46-.16.63.63,0,0,1,.38.09.7.7,0,0,1,.27.34,1.7,1.7,0,0,1,.1.59,2.28,2.28,0,0,1,0,.37.55.55,0,0,1-.07.32l-.09.31-.11.3-.77,2.09v.1l-.08.09-.65.36h-.06a.11.11,0,0,1,0-.08v-.09l.52-1.42a1.09,1.09,0,0,1-.36,0,.58.58,0,0,1-.33-.14,1.19,1.19,0,0,1-.22-.33A1.81,1.81,0,0,1,98.81,90.27Zm1.63-.94a.37.37,0,0,0,0-.21.18.18,0,0,0-.1-.11.17.17,0,0,0-.14,0,.44.44,0,0,0-.16.06.4.4,0,0,0-.16.13.48.48,0,0,0-.14.2.6.6,0,0,0-.1.23,1,1,0,0,0,0,.25.67.67,0,0,0,0,.2.23.23,0,0,0,.1.12.17.17,0,0,0,.14,0H100l.16-.13a.66.66,0,0,0,.14-.2.67.67,0,0,0,.1-.23.53.53,0,0,0,0-.25Z"/><path class="cls-3" d="M75.33,121.1a.06.06,0,0,1-.08,0,.17.17,0,0,1,0-.1v-.63l-1.28.72a.06.06,0,0,1-.08,0,.17.17,0,0,1,0-.1v-.65a.76.76,0,0,1,0-.3L75.11,117l.06-.13a.28.28,0,0,1,.09-.07l.61-.36a.06.06,0,0,1,.08,0,.17.17,0,0,1,0,.1v2.4l.36-.2a.06.06,0,0,1,.08,0,.17.17,0,0,1,0,.1v.66a.33.33,0,0,1,0,.14l-.08.1-.36.19v.64a.33.33,0,0,1,0,.14l-.08.09Zm-.09-1.75V118.2l-.6,1.49Z"/><path class="cls-3" d="M87.15,112.94l.06.09.08.06h.12a.49.49,0,0,0,.17-.06l.16-.13.14-.18a1,1,0,0,0,.09-.22,1.13,1.13,0,0,0,0-.26.34.34,0,0,0-.11-.29h-.3a.28.28,0,0,0-.1.09.47.47,0,0,0-.1.1l-.08.1-.06.06-.63.36a.06.06,0,0,1-.08,0,.09.09,0,0,1,0-.1l.12-2.31v-.13a.39.39,0,0,1,.08-.1l1.74-1m.07,0a.17.17,0,0,1,0,.1v.68a.17.17,0,0,1,0,.14.2.2,0,0,1-.07.09l-1.18.69v.57a1.63,1.63,0,0,1,.17-.2.65.65,0,0,1,.21-.16,1.11,1.11,0,0,1,.43-.15.5.5,0,0,1,.36.08.64.64,0,0,1,.23.33,1.9,1.9,0,0,1,.09.58,3,3,0,0,1-.09.72,3.18,3.18,0,0,1-.26.64,3,3,0,0,1-.36.51,2,2,0,0,1-.46.36,1.45,1.45,0,0,1-.49.18.57.57,0,0,1-.36-.09.62.62,0,0,1-.24-.29,1.42,1.42,0,0,1-.08-.45.2.2,0,0,1,0-.11.11.11,0,0,1,.06-.07l.51-.3a.11.11,0,0,1,.11,0Z"/><path class="cls-3" d="M101.25,104.6a2.55,2.55,0,0,1-.1.72,3.18,3.18,0,0,1-.26.64,3.36,3.36,0,0,1-.39.54,2,2,0,0,1-.46.36,1.48,1.48,0,0,1-.46.16.66.66,0,0,1-.39-.09.73.73,0,0,1-.26-.34,1.55,1.55,0,0,1-.1-.6,2.16,2.16,0,0,1,0-.36.58.58,0,0,1,.07-.34A1,1,0,0,0,99,105c0-.1.07-.2.1-.29l.78-2v-.11a.24.24,0,0,1,.08-.09l.65-.36m.06,0h0a.11.11,0,0,1,0,.08v.09l-.53,1.41a1.1,1.1,0,0,1,.4-.08.62.62,0,0,1,.34.13.77.77,0,0,1,.22.34,1.45,1.45,0,0,1,.15.5Zm-1.09,3.47a.88.88,0,0,0,0,.23.29.29,0,0,0,.25.14.51.51,0,0,0,.17-.07,1.09,1.09,0,0,0,.17-.13.9.9,0,0,0,.15-.19,2.44,2.44,0,0,0,.1-.24.62.62,0,0,0,0-.27.41.41,0,0,0,0-.22.29.29,0,0,0-.1-.12.19.19,0,0,0-.15,0,.49.49,0,0,0-.17.06.7.7,0,0,0-.17.13l-.15.2a1.6,1.6,0,0,0-.1.23.74.74,0,0,0,0,.21Z"/><path class="cls-3" d="M74.29,133.13a.2.2,0,0,1,0-.11.34.34,0,0,1,0-.14l.87-1.54.08-.13a.38.38,0,0,1,.11-.11l.49-.29a.06.06,0,0,1,.08,0,.11.11,0,0,1,0,.11v4a.33.33,0,0,1,0,.14.14.14,0,0,1-.08.09l-.53.31a.06.06,0,0,1-.08,0,.17.17,0,0,1,0-.1v-2.73l-.48.84-.08.08h-.08Z"/><path class="cls-3" d="M88.7,124.84v.36a2.62,2.62,0,0,1-.09.38,3.39,3.39,0,0,1-.15.41,3.75,3.75,0,0,1-.24.44l-.56,1,1-.59a.11.11,0,0,1,.08,0,.17.17,0,0,1,0,.1v.67a.28.28,0,0,1,0,.13.16.16,0,0,1-.08.1l-2.14,1.23m-.07,0a.17.17,0,0,1,0-.1v-.53a.81.81,0,0,1,0-.22.85.85,0,0,1,.09-.22l1.21-2a1.59,1.59,0,0,0,.18-.4.66.66,0,0,0,0-.28v-.11a.28.28,0,0,0,0-.13.16.16,0,0,0-.1-.08.24.24,0,0,0-.18,0,.55.55,0,0,0-.18.16.82.82,0,0,0-.12.2,1.05,1.05,0,0,0,0,.19.28.28,0,0,1,0,.13.47.47,0,0,1-.06.15.29.29,0,0,1-.1.09l-.5.29h-.06a.11.11,0,0,1,0-.08,2.61,2.61,0,0,1,.08-.57,2.28,2.28,0,0,1,.2-.59,2.9,2.9,0,0,1,.36-.55,1.8,1.8,0,0,1,.5-.41.8.8,0,0,1,.47-.15.48.48,0,0,1,.36.12.85.85,0,0,1,.21.37,1.67,1.67,0,0,1-.06.44Z"/><path class="cls-3" d="M101,116.27h.08a.17.17,0,0,1,0,.1V117a.33.33,0,0,1,0,.14.61.61,0,0,1,0,.12l-.49,1a.56.56,0,0,1,.51.12.86.86,0,0,1,.2.67,2.31,2.31,0,0,1-1.2,2.11,1.36,1.36,0,0,1-.52.19.57.57,0,0,1-.36-.06.6.6,0,0,1-.24-.26,1.14,1.14,0,0,1-.08-.4v-.11a.27.27,0,0,1,.07-.08l.51-.29h.13l.1.07a.33.33,0,0,0,.14,0,.44.44,0,0,0,.25-.08,1.28,1.28,0,0,0,.32-.29.7.7,0,0,0,.13-.39c0-.15,0-.23-.13-.25a.46.46,0,0,0-.32.09l-.34.2m-.07,0a.17.17,0,0,1,0-.1V119a.33.33,0,0,1,0-.14l.06-.13.43-.92-1.06.61a.06.06,0,0,1-.08,0,.09.09,0,0,1,0-.1v-.66a.33.33,0,0,1,0-.14.18.18,0,0,1,.08-.09Z"/><path class="cls-3" d="M87.58,138.38a.93.93,0,0,1,.53-.17.54.54,0,0,1,.36.16,1.07,1.07,0,0,1,.21.41,2.89,2.89,0,0,1,.09.6v1.12a4.08,4.08,0,0,1-.09.69,2.74,2.74,0,0,1-.21.67,3.5,3.5,0,0,1-.36.58,2.26,2.26,0,0,1-.53.44,1,1,0,0,1-.52.16.54.54,0,0,1-.36-.16.85.85,0,0,1-.21-.41,3.11,3.11,0,0,1-.09-.6v-1.12a4,4,0,0,1,.09-.69,2.61,2.61,0,0,1,.21-.67,3.13,3.13,0,0,1,.36-.58A2,2,0,0,1,87.58,138.38ZM88,140.9v-1.32a.41.41,0,0,0-.08-.19.12.12,0,0,0-.12-.07.39.39,0,0,0-.21.06.79.79,0,0,0-.2.17,1,1,0,0,0-.13.23,1.07,1.07,0,0,0-.07.27,1.5,1.5,0,0,0,0,.3v1.05a1.31,1.31,0,0,0,0,.28.45.45,0,0,0,.07.18.22.22,0,0,0,.13.08.36.36,0,0,0,.2-.06.74.74,0,0,0,.21-.18,1,1,0,0,0,.13-.22,1.34,1.34,0,0,0,.07-.27,1.6,1.6,0,0,0,0-.31Z"/><path class="cls-9" d="M73.4,92.31v-.07L73,91.43V93.5a.28.28,0,0,1,0,.13.23.23,0,0,1-.07.1l-.54.31h-.07a.09.09,0,0,1,0-.1v-4a.33.33,0,0,1,0-.14.16.16,0,0,1,.07-.09l.48-.27H73v.07l.66,1.35.66-2.11a.28.28,0,0,1,0-.13.28.28,0,0,1,.12-.14l.47-.27a.06.06,0,0,1,.08,0,.17.17,0,0,1,0,.1v4a.33.33,0,0,1,0,.14.19.19,0,0,1-.08.1l-.53.31h-.08a.2.2,0,0,1,0-.11V90.69l-.38,1.25a.31.31,0,0,1-.06.13.23.23,0,0,1-.09.11l-.26.15A.11.11,0,0,1,73.4,92.31Z"/><path class="cls-9" d="M76.26,89.05V90.3a.31.31,0,0,0,.09.18.21.21,0,0,0,.15.07.39.39,0,0,0,.23-.07,1,1,0,0,0,.38-.39,1.8,1.8,0,0,0,.08-.21.6.6,0,0,1,0-.19v-.16a.22.22,0,0,1,.09-.1l.53-.31a.06.06,0,0,1,.06,0,.11.11,0,0,1,0,.08,2.51,2.51,0,0,1-.1.66,4.06,4.06,0,0,1-.27.65,3.5,3.5,0,0,1-.4.55,2,2,0,0,1-.5.41,1,1,0,0,1-.52.17.62.62,0,0,1-.39-.14.94.94,0,0,1-.25-.4,2,2,0,0,1-.1-.59V89.39a3.38,3.38,0,0,1,.1-.72,3.06,3.06,0,0,1,.25-.68,2.16,2.16,0,0,1,.39-.59,1.75,1.75,0,0,1,.73-.4,1,1,0,0,1,.5-.17.63.63,0,0,1,.4.1.73.73,0,0,1,.27.33,1.4,1.4,0,0,1,.1.54.2.2,0,0,1,0,.11s0,.06-.06.08l-.53.31H77.4a.2.2,0,0,1,0-.11.33.33,0,0,0,0-.14.15.15,0,0,0-.08-.11.2.2,0,0,0-.15,0,.63.63,0,0,0-.23.08.87.87,0,0,0-.23.2,1,1,0,0,0-.15.24,1.4,1.4,0,0,0-.09.29A.3.3,0,0,0,76.26,89.05Z"/><path class="cls-9" d="M85.88,85.11V85l-.39-.81v2.07a.33.33,0,0,1,0,.14.61.61,0,0,1-.07.1l-.54.3m-.07,0a.17.17,0,0,1,0-.1v-4a.33.33,0,0,1,0-.14.16.16,0,0,1,.07-.09l.47-.28h.13v.07l.66,1.35.65-2.11.06-.13a.24.24,0,0,1,.12-.14l.47-.27a.06.06,0,0,1,.08,0,.17.17,0,0,1,0,.1v4a.33.33,0,0,1,0,.14l-.08.09-.53.31a.06.06,0,0,1-.08,0,.17.17,0,0,1,0-.1V83.46l-.38,1.25-.06.14a.31.31,0,0,1-.09.11L86,85.1s-.13,0-.16,0Z"/><path class="cls-9" d="M89.31,79.86a1.66,1.66,0,0,1,.48-.19.59.59,0,0,1,.37.06.5.5,0,0,1,.22.31,1.68,1.68,0,0,1,.08.59,2.46,2.46,0,0,1-.12.85,2.34,2.34,0,0,1-.36.68l.5,1.2v.06a.2.2,0,0,1,0,.11.27.27,0,0,1-.07.08l-.55.32h-.12v-.08l-.45-1.08-.36.21v1.34a.33.33,0,0,1,0,.14.2.2,0,0,1-.07.09l-.54.31m-.07,0a.09.09,0,0,1,0-.1v-4a.33.33,0,0,1,0-.14.16.16,0,0,1,.07-.09ZM88.86,82l.45-.27a.72.72,0,0,0,.4-.69c0-.17,0-.27-.11-.3a.38.38,0,0,0-.29.07l-.45.26Z"/><path class="cls-9" d="M98.81,77.64l0-.07-.39-.81v2.08a.33.33,0,0,1,0,.14.23.23,0,0,1-.07.1l-.53.3a.06.06,0,0,1-.08,0,.17.17,0,0,1,0-.1v-4a.33.33,0,0,1,0-.14.2.2,0,0,1,.08-.1l.47-.27h.12v.08L99,76.18,99.71,74l.06-.13a.24.24,0,0,1,.12-.14l.47-.27h.08a.14.14,0,0,1,0,.09v4a.33.33,0,0,1,0,.14l-.08.09-.53.31a.06.06,0,0,1-.08,0,.17.17,0,0,1,0-.1V76l-.39,1.25a.78.78,0,0,1,0,.14.31.31,0,0,1-.09.11l-.26.15C98.87,77.66,98.81,77.66,98.81,77.64Z"/><path class="cls-9" d="M101.07,76.05a.06.06,0,0,1-.08,0,.17.17,0,0,1,0-.1v-.64a.28.28,0,0,1,0-.13.2.2,0,0,1,.08-.1l1.28-.72m.07,0a.17.17,0,0,1,0,.1v.63a.33.33,0,0,1,0,.14.2.2,0,0,1-.07.09Z"/><path class="cls-9" d="M111,70.63l0-.07-.38-.81v2.06a.44.44,0,0,1-.11.24l-.54.3m-.07,0a.17.17,0,0,1,0-.1v-4a.33.33,0,0,1,0-.14.16.16,0,0,1,.07-.09l.47-.27h.12l.06.07.65,1.35.63-2.17a.5.5,0,0,1,0-.13.29.29,0,0,1,.13-.14l.47-.27a.06.06,0,0,1,.08,0,.17.17,0,0,1,0,.1v4a.28.28,0,0,1,0,.13.25.25,0,0,1-.08.1l-.53.31a.06.06,0,0,1-.08,0,.17.17,0,0,1,0-.1V69l-.38,1.25a.2.2,0,0,1-.06.14.19.19,0,0,1-.1.1l-.26.15s-.09,0-.09,0Z"/><path class="cls-9" d="M114.49,68.3v1a.33.33,0,0,1,0,.14l-.08.09-.51.3a.06.06,0,0,1-.08,0,.2.2,0,0,1,0-.11v-1l-.63.38a.06.06,0,0,1-.08,0,.17.17,0,0,1,0-.1v-.63a.28.28,0,0,1,0-.13.2.2,0,0,1,.08-.1l.63-.36V66.72a.33.33,0,0,1,0-.14.18.18,0,0,1,.08-.09l.51-.3a.06.06,0,0,1,.08,0,.17.17,0,0,1,0,.1v1l.62-.36a.06.06,0,0,1,.08,0,.09.09,0,0,1,0,.1v.63a.33.33,0,0,1,0,.14.14.14,0,0,1-.08.09Z"/><path class="cls-9" d="M111.29,84.2a.06.06,0,0,1-.08,0,.17.17,0,0,1,0-.1v-.64a.33.33,0,0,1,0-.14.24.24,0,0,1,.08-.09l2.42-1.4a.09.09,0,0,1,.07,0,.11.11,0,0,1,0,.11v.62a.33.33,0,0,1,0,.14.23.23,0,0,1-.07.1Z"/><path class="cls-9" d="M112.9,81a1.15,1.15,0,0,1-.4.86c-.23.12-.4,0-.4-.39a1,1,0,0,1,.4-.85C112.72,80.53,112.9,80.7,112.9,81Z"/><path class="cls-9" d="M112.9,84.62c0-.34-.18-.52-.4-.39a1,1,0,0,0-.4.85c0,.34.17.51.4.39A1.11,1.11,0,0,0,112.9,84.62Z"/><path class="cls-9" d="M112,97.76l-.52-.52a.07.07,0,0,1,0-.09.33.33,0,0,1,0-.14l.36-.76a.18.18,0,0,1,.07-.1.06.06,0,0,1,.08,0l.53.51.52-1.11a.18.18,0,0,1,.08-.09.06.06,0,0,1,.08,0l.36.36a.17.17,0,0,1,0,.1.28.28,0,0,1,0,.13L113,97.16l.53.5a.17.17,0,0,1,0,.1.33.33,0,0,1,0,.14l-.36.76-.08.1a.06.06,0,0,1-.08,0l-.52-.5L112,99.37a.14.14,0,0,1-.08.09m-.07,0-.36-.36a.09.09,0,0,1,0-.1.33.33,0,0,1,0-.14Z"/><path class="cls-9" d="M111.29,113a.06.06,0,0,1-.08,0,.17.17,0,0,1,0-.1v-.64a.28.28,0,0,1,0-.13.27.27,0,0,1,.08-.1l2.42-1.39m.07,0a.09.09,0,0,1,0,.1v.63a.28.28,0,0,1,0,.13.23.23,0,0,1-.07.1Z"/><path class="cls-9" d="M74.11,146.23h.12a.24.24,0,0,1,.06.11l.89,3.42v.09a.2.2,0,0,1,0,.11.13.13,0,0,1-.06.07l-.52.3h-.11a.11.11,0,0,1,0-.08l-.12-.45-1.08.62-.11.59v.12a.34.34,0,0,1-.12.12l-.51.3h-.06a.11.11,0,0,1,0-.08v-.1l.89-4.45a.49.49,0,0,1,.06-.17.24.24,0,0,1,.12-.14Zm-.67,3.11.66-.38-.33-1.31Z"/><path class="cls-9" d="M76.11,146.74v1a1,1,0,0,0,0,.25.42.42,0,0,0,.08.18.3.3,0,0,0,.16.08.63.63,0,0,0,.23-.08l.23-.17a1.28,1.28,0,0,0,.14-.21,1,1,0,0,0,.09-.21v-.35a.22.22,0,0,1,.09-.1l.54-.3h.06a.06.06,0,0,1,0,.08,2.16,2.16,0,0,1-.1.66,3.18,3.18,0,0,1-.26.64,4.39,4.39,0,0,1-.4.56,2,2,0,0,1-.5.41,1.21,1.21,0,0,1-.52.16.52.52,0,0,1-.39-.14.78.78,0,0,1-.25-.39,2.09,2.09,0,0,1-.1-.6V147.1a2.84,2.84,0,0,1,.09-.72,3.38,3.38,0,0,1,.26-.69,2.83,2.83,0,0,1,.38-.59,2,2,0,0,1,.53-.44,1,1,0,0,1,.5-.16.7.7,0,0,1,.4.09.68.68,0,0,1,.26.34,1.24,1.24,0,0,1,.1.54.2.2,0,0,1,0,.11.21.21,0,0,1-.06.08l-.54.3H77a.2.2,0,0,1,0-.11v-.14a.24.24,0,0,0-.09-.11.17.17,0,0,0-.14,0,.4.4,0,0,0-.23.08.6.6,0,0,0-.23.19,1.07,1.07,0,0,0-.16.25.9.9,0,0,0-.08.28A1.29,1.29,0,0,0,76.11,146.74Z"/><path class="cls-9" d="M98.89,133.83a.06.06,0,0,1-.08,0,.17.17,0,0,1,0-.1v-.63a.33.33,0,0,1,0-.14.18.18,0,0,1,.08-.09l2.3-1.33a.06.06,0,0,1,.08,0,.07.07,0,0,1,0,.09v.63a.33.33,0,0,1,0,.14.16.16,0,0,1-.08.1Zm0,1.54a.06.06,0,0,1-.08,0,.17.17,0,0,1,0-.1v-.63a.33.33,0,0,1,0-.14.27.27,0,0,1,.08-.1l2.3-1.33a.06.06,0,0,1,.08,0,.09.09,0,0,1,0,.1v.63a.33.33,0,0,1,0,.14.19.19,0,0,1-.08.1Z"/><path class="cls-9" d="M112.86,126.53v1a.33.33,0,0,1,0,.14.14.14,0,0,1-.08.09l-.51.3a.06.06,0,0,1-.08,0,.17.17,0,0,1,0-.1v-1l-.63.36m-.07,0a.17.17,0,0,1,0-.1v-.63a.41.41,0,0,1,.11-.24l.63-.36v-1a.33.33,0,0,1,0-.14.24.24,0,0,1,.08-.09l.51-.3h0a.11.11,0,0,1,0,.11v1l.63-.36m.07,0a.09.09,0,0,1,0,.1v.63a.33.33,0,0,1,0,.14.28.28,0,0,1-.07.09Z"/><path class="cls-2" d="M66,57.19a6.38,6.38,0,0,0-.93,3.1v97.84a2.22,2.22,0,0,0,.87,2c-.64-.39-5.26-3.06-5.82-3.38a2.21,2.21,0,0,1-.91-2V56.88a6.31,6.31,0,0,1,.91-3.08Z"/><path class="cls-3" d="M117.88,27.25h0a2.13,2.13,0,0,0-2.25.19L68.17,54.89A6.31,6.31,0,0,0,66,57.2l-5.87-3.39a6.26,6.26,0,0,1,2.21-2.33l47.49-27.42a2.19,2.19,0,0,1,2.18-.23C112.55,24.14,117.31,26.91,117.88,27.25Z"/><path class="cls-3" d="M114.16,55.22h0a1.72,1.72,0,0,1-.56.58l-43.37,25a.49.49,0,0,1-.78-.46V60.1a1.72,1.72,0,0,1,.78-1.35l25-14.44Z"/><path class="cls-2" d="M114.39,34.15v20.3a1.64,1.64,0,0,1-.23.77L95.23,44.32,112.91,34.1l.68-.4C114,33.45,114.39,33.66,114.39,34.15Z"/><path class="cls-3" d="M112.92,34.1V53.61a1.72,1.72,0,0,1-.78,1.35L69.45,79.6V60.12a1.74,1.74,0,0,1,.78-1.36Z"/><path class="cls-4" d="M112.92,34.1V53.61a1.72,1.72,0,0,1-.78,1.35L69.45,79.6V60.12a1.74,1.74,0,0,1,.78-1.36Z"/><g class="cls-10"><path d="M77.48,69.43,76,70.31a.81.81,0,0,1-1.08-.06,1.89,1.89,0,0,1-.44-1.4,1.13,1.13,0,0,1,.11-.48.76.76,0,0,1,.26-.37.2.2,0,0,1,.27,0,.52.52,0,0,1,.11.36.9.9,0,0,0,.22.7.42.42,0,0,0,.54,0l1.52-.87a1.57,1.57,0,0,0,.54-.66,2.07,2.07,0,0,0,.23-1V65.17a2.66,2.66,0,0,1-.77.76L76,66.8a.82.82,0,0,1-1.08-.07,1.89,1.89,0,0,1-.44-1.4V64.16a4.35,4.35,0,0,1,.44-1.91A2.83,2.83,0,0,1,76,60.94l1.53-.88a.81.81,0,0,1,1.08.06,1.87,1.87,0,0,1,.45,1.4v4.69a4.58,4.58,0,0,1-.45,1.92A2.85,2.85,0,0,1,77.48,69.43ZM78.25,62a.89.89,0,0,0-.22-.7.41.41,0,0,0-.55,0L76,62.14a1.41,1.41,0,0,0-.53.65,2.29,2.29,0,0,0-.23,1V65a1,1,0,0,0,.23.7.41.41,0,0,0,.53,0l1.53-.88a1.46,1.46,0,0,0,.54-.66,2.32,2.32,0,0,0,.23-1Z"/><path d="M81.29,61.08a.25.25,0,0,0,.06.18.11.11,0,0,0,.13,0l2.09-1.21a.84.84,0,0,1,1.09.06,1.88,1.88,0,0,1,.44,1.4v1.18a4.38,4.38,0,0,1-.44,1.91,2.84,2.84,0,0,1-1.09,1.31l-1.52.88A.82.82,0,0,1,81,66.72a1.84,1.84,0,0,1-.45-1.4,1.13,1.13,0,0,1,.11-.48.71.71,0,0,1,.27-.32.2.2,0,0,1,.27,0,.43.43,0,0,1,.11.36,1.05,1.05,0,0,0,.23.7.41.41,0,0,0,.53,0l1.53-.88a1.46,1.46,0,0,0,.53-.65,2.07,2.07,0,0,0,.23-1V62a.93.93,0,0,0-.23-.7.39.39,0,0,0-.53,0l-2.29,1.32a.41.41,0,0,1-.53,0,1.05,1.05,0,0,1-.23-.7V58.87a1.13,1.13,0,0,1,.11-.48.73.73,0,0,1,.27-.33l3.81-2.19a.2.2,0,0,1,.27,0,.44.44,0,0,1,.11.36,1.12,1.12,0,0,1-.11.47.72.72,0,0,1-.27.33l-3.25,1.86a.31.31,0,0,0-.13.17.51.51,0,0,0-.06.25Z"/><path d="M89.68,62.4l-1.53.88a.82.82,0,0,1-1.08-.06,1.93,1.93,0,0,1-.45-1.4V57.13a4.55,4.55,0,0,1,.45-1.92,2.89,2.89,0,0,1,1.08-1.31L89.68,53a.82.82,0,0,1,1.08.07,1.93,1.93,0,0,1,.45,1.4v4.69a4.56,4.56,0,0,1-.4,1.92A2.85,2.85,0,0,1,89.68,62.4Zm-1.53-.29,1.53-.88a1.37,1.37,0,0,0,.36-.36l-2.65-4.08v4.58a1,1,0,0,0,.23.7.4.4,0,0,0,.52,0Zm1.53-7.91-1.53.88a1.13,1.13,0,0,0-.36.36l2.65,4.08V54.93a1,1,0,0,0-.22-.7A.4.4,0,0,0,89.68,54.2Z"/><path d="M95.37,59.11l-2.28,1.33a.21.21,0,0,1-.28,0,.52.52,0,0,1-.11-.36,1.3,1.3,0,0,1,.11-.48.65.65,0,0,1,.28-.33l.76-.44V53a1,1,0,0,0-.22-.7.41.41,0,0,0-.53,0h0a.22.22,0,0,1-.27,0,.5.5,0,0,1-.12-.37,1,1,0,0,1,.12-.48.61.61,0,0,1,.27-.32h0a.8.8,0,0,1,1.08.06,1.93,1.93,0,0,1,.45,1.4v5.86l.75-.44a.21.21,0,0,1,.28,0,.52.52,0,0,1,.11.36,1,1,0,0,1-.12.48A.7.7,0,0,1,95.37,59.11Z"/><path d="M100.32,56.25l-1.52.88a.82.82,0,0,1-1.08-.07,1.93,1.93,0,0,1-.45-1.4V51a4.5,4.5,0,0,1,.45-1.91,2.87,2.87,0,0,1,1.09-1.34l1.52-.88a.84.84,0,0,1,1.09.07,1.86,1.86,0,0,1,.44,1.4V53a4.38,4.38,0,0,1-.44,1.91A2.83,2.83,0,0,1,100.32,56.25ZM98.81,56l1.52-.88a1.37,1.37,0,0,0,.36-.36l-2.64-4.09v4.59a.9.9,0,0,0,.22.7A.42.42,0,0,0,98.81,56Zm1.51-8-1.52.88a1.06,1.06,0,0,0-.36.37l2.65,4.08V48.78a.93.93,0,0,0-.23-.7A.4.4,0,0,0,100.32,48Z"/><path d="M107.81,51.75a.7.7,0,0,1-.27.32.2.2,0,0,1-.27,0,.52.52,0,0,1-.11-.36V48.47a2.3,2.3,0,0,1-.76.76l-1.52.88a.85.85,0,0,1-1.07-.11,1.89,1.89,0,0,1-.44-1.4V45.7a1,1,0,0,1,.11-.47.63.63,0,0,1,.27-.33.2.2,0,0,1,.27,0,.44.44,0,0,1,.11.36v2.93a1,1,0,0,0,.22.7.42.42,0,0,0,.54,0l1.52-.88a1.43,1.43,0,0,0,.54-.65,2.18,2.18,0,0,0,.22-1V43.51a1.31,1.31,0,0,1,.12-.48.66.66,0,0,1,.26-.33.2.2,0,0,1,.27,0,.48.48,0,0,1,.12.36v8.21A1.19,1.19,0,0,1,107.81,51.75Z"/></g></g></g></g></g></svg>