<svg xmlns="http://www.w3.org/2000/svg" viewBox="0 0 178 184"><defs><style>.cls-1{fill:#d4dee1;}.cls-10,.cls-2,.cls-4{fill:#fff;}.cls-11,.cls-2,.cls-3{stroke:#94b7bd;stroke-linecap:round;stroke-linejoin:round;}.cls-2,.cls-3,.cls-4,.cls-6{stroke-width:0.61px;}.cls-11,.cls-3,.cls-6,.cls-9{fill:none;}.cls-3{stroke-dasharray:3.07 3.07;}.cls-4,.cls-6,.cls-9{stroke:#1c5a68;}.cls-4,.cls-6{stroke-miterlimit:10;}.cls-5{fill:#94b7bd;}.cls-7{fill:#1c5a68;}.cls-8{opacity:0.2;}.cls-12,.cls-13,.cls-14,.cls-15,.cls-16,.cls-17,.cls-8{isolation:isolate;}.cls-9{stroke-miterlimit:10;stroke-width:0.61px;}.cls-11{stroke-width:0.46px;}.cls-12{opacity:0.1;}.cls-13{opacity:0.3;}.cls-14{opacity:0.4;}.cls-15{opacity:0.5;}.cls-16{opacity:0.6;}.cls-17{opacity:0.7;}</style></defs><g id="Calque_2" data-name="Calque 2"><g id="Calque_1-2" data-name="Calque 1"><path id="bulle_fond" data-name="bulle fond" class="cls-1" d="M0,83.28C0,26.73,24.75,0,77.12,0H99c55.23,0,79,26.73,79,83.28v17.44C178,157.26,153.26,184,99,184H77.12C25.71,184,0,157.26,0,100.72Z"/><g id="freepik--Screen--inject-4"><path class="cls-2" d="M143.92,64.65V114.9a7.51,7.51,0,0,1-7.51,7.51H41.6a7.52,7.52,0,0,1-7.52-7.51V64.65a6.51,6.51,0,0,1,.06-.88,7.51,7.51,0,0,1,7.46-6.66h94.8a7.52,7.52,0,0,1,7.47,6.63C143.9,64,143.92,64.35,143.92,64.65Z"/><path class="cls-3" d="M56.07,96.46a20.32,20.32,0,0,1-1.23-10.85C56,79.11,61.05,73.25,67.52,72c9.42-1.84,18.41,5.57,28,5.16,6.74-.28,13.74-4.35,19.79-1.38,9.57,4.71,6.88,19.37,2.27,26.52-4.79,7.44-13.53,11.77-22,13.35"/><polygon class="cls-4" points="58.4 127.61 68.59 131.76 74.71 126.61 74.13 107.25 70.7 105.85 56.94 119.36 58.4 127.61"/><path class="cls-5" d="M64.13,136.43,58.22,134a2.33,2.33,0,0,1-1.29-3v0h0a2.33,2.33,0,0,1,3-1.29h0l5.89,2.46a2.35,2.35,0,0,1,1.3,3.05l0,0h0A2.33,2.33,0,0,1,64.13,136.43Z"/><line class="cls-6" x1="72.43" y1="106.55" x2="67.54" y2="118.52"/><path class="cls-7" d="M68.59,118.93a1.1,1.1,0,1,1-2-.82,1.1,1.1,0,0,1,2,.82Z"/><path class="cls-8" d="M64.13,136.43,58.22,134a2.33,2.33,0,0,1-1.29-3v0h0a2.33,2.33,0,0,1,3-1.29h0l5.89,2.46a2.35,2.35,0,0,1,1.3,3.05l0,0h0A2.33,2.33,0,0,1,64.13,136.43Z"/><path class="cls-6" d="M44,119.56a22.37,22.37,0,1,1,41.78,16"/><rect class="cls-9" x="84.9" y="135.43" width="1.25" height="1.25" transform="translate(-74.5 150.79) rotate(-63.11)"/><rect class="cls-9" x="43.1" y="119.46" width="1.25" height="1.25" transform="translate(-83.15 104.77) rotate(-63.11)"/><line class="cls-6" x1="57.76" y1="100.08" x2="92.01" y2="114.93"/><path class="cls-5" d="M92.8,115.11a.62.62,0,0,1-.79.37.63.63,0,0,1-.4-.56.62.62,0,0,1,1.23,0A.59.59,0,0,1,92.8,115.11Z"/><path class="cls-5" d="M58.4,100.2a.61.61,0,1,1-1.22.06.53.53,0,0,1,0-.25.62.62,0,0,1,.58-.65.61.61,0,0,1,.64.58A.59.59,0,0,1,58.4,100.2Z"/><path class="cls-5" d="M143.87,63.74H34.13a7.51,7.51,0,0,1,7.47-6.63h94.8A7.52,7.52,0,0,1,143.87,63.74Z"/><path class="cls-10" d="M120.59,60.1a1.23,1.23,0,1,1-1.23-1.23A1.23,1.23,0,0,1,120.59,60.1Z"/><circle class="cls-10" cx="125.62" cy="60.1" r="1.23"/><path class="cls-10" d="M133.11,60.1a1.23,1.23,0,1,1-1.23-1.23A1.23,1.23,0,0,1,133.11,60.1Z"/><rect class="cls-11" x="128.66" y="66" width="11.13" height="18.46"/><rect class="cls-5" x="130.65" y="67.58" width="2.46" height="2.46"/><rect class="cls-5" x="135.65" y="67.58" width="2.46" height="2.46"/><rect class="cls-5" x="130.65" y="71.72" width="2.46" height="2.46"/><rect class="cls-5" x="135.65" y="71.72" width="2.46" height="2.46"/><rect class="cls-5" x="130.65" y="75.86" width="2.46" height="2.46"/><rect class="cls-5" x="135.65" y="75.86" width="2.46" height="2.46"/><rect class="cls-5" x="130.65" y="79.99" width="2.46" height="2.46"/><rect class="cls-5" x="135.65" y="79.99" width="2.46" height="2.46"/><rect class="cls-12" x="135.65" y="67.58" width="2.46" height="2.46"/><rect class="cls-8" x="130.65" y="71.72" width="2.46" height="2.46"/><rect class="cls-13" x="135.65" y="71.72" width="2.46" height="2.46"/><rect class="cls-14" x="130.65" y="75.86" width="2.46" height="2.46"/><rect class="cls-15" x="135.65" y="75.86" width="2.46" height="2.46"/><rect class="cls-16" x="130.65" y="79.99" width="2.46" height="2.46"/><rect class="cls-17" x="135.65" y="79.99" width="2.46" height="2.46"/></g></g></g></svg>