<svg xmlns="http://www.w3.org/2000/svg" viewBox="0 0 178 184"><defs><style>.cls-1{fill:#d4dee1;}.cls-2{fill:#f4f4f5;}.cls-3{fill:#1c5b68;}.cls-4{fill:#94b7bd;}.cls-5{opacity:0.5;}.cls-6{opacity:0.7;}.cls-7{opacity:0.8;}.cls-8{opacity:0.2;}.cls-9{opacity:0.3;}.cls-10{opacity:0.4;}.cls-11{opacity:0.8;}.cls-12{fill:#fff;}.cls-13{opacity:0.6;}</style></defs><g id="Calque_2" data-name="Calque 2"><g id="Calque_1-2" data-name="Calque 1"><path id="bulle_fond" data-name="bulle fond" class="cls-1" d="M0,83.28C0,26.73,24.75,0,77.12,0H99c55.23,0,79,26.73,79,83.28v17.44C178,157.26,153.26,184,99,184H77.12C25.71,184,0,157.26,0,100.72Z"/><path class="cls-2" d="M46.35,111.55,63.5,129.4a3,3,0,0,0,4.21.13L135.93,64a3,3,0,0,0,0-4.21L118.82,41.93a3,3,0,0,0-4.21-.13L46.39,107.33A3,3,0,0,0,46.35,111.55Z"/><path class="cls-3" d="M46.35,111.55a2,2,0,0,1-.42-.51,3,3,0,0,1,0-3.26,9.6,9.6,0,0,1,1.2-1.27l3.1-3L70.07,84.34,99.53,56l8.53-8.19,4.39-4.24c.77-.71,1.46-1.42,2.28-2.14A3.21,3.21,0,0,1,118,41a3.82,3.82,0,0,1,1.32,1l1.1,1.14,2.2,2.29L127,50.1l9.11,9.5a3.26,3.26,0,0,1,.75,3.34,3.3,3.3,0,0,1-1,1.44l-1.18,1.19L130,70.09l-9.17,8.82-17.48,16.7c-11.13,10.65-21.13,20.25-29.55,28.31l-6,5.74a3.12,3.12,0,0,1-3.73.36,7.46,7.46,0,0,1-1.37-1.26l-1.22-1.27-8.18-8.6-5.17-5.44c-.57-.62-1-1.09-1.33-1.42l-.44-.5s.17.15.48.46l1.37,1.39,5.23,5.37,8.25,8.54,1.22,1.26a7.16,7.16,0,0,0,1.32,1.2,2.77,2.77,0,0,0,3.34-.33l6-5.77L103,95.26l17.39-16.67,9.21-8.86,4.72-4.52,1.18-1.16a2.72,2.72,0,0,0,.39-3.83,1.29,1.29,0,0,0-.16-.17l-9.11-9.5-4.46-4.64-2.2-2.3-1.1-1.14a3.28,3.28,0,0,0-1.16-.89,2.7,2.7,0,0,0-2.7.28c-.74.64-1.49,1.41-2.24,2.11l-4.4,4.23-8.54,8.18L70.33,84.6l-20,19-3.13,3a9.29,9.29,0,0,0-1.2,1.23A3,3,0,0,0,46,111C46.2,111.38,46.37,111.54,46.35,111.55Z"/><rect class="cls-4" x="109.79" y="46.64" width="17.29" height="25.21" transform="translate(-7.76 99.38) rotate(-44.22)"/><rect class="cls-4" x="69.43" y="85.91" width="17.29" height="25.21" transform="translate(-46.59 82.37) rotate(-44.22)"/><rect class="cls-4" x="82.9" y="72.81" width="17.29" height="25.21" transform="translate(-33.63 88.05) rotate(-44.22)"/><rect class="cls-4" x="96.38" y="59.69" width="17.29" height="25.21" transform="translate(-20.66 93.73) rotate(-44.22)"/><rect class="cls-3" x="109.79" y="46.64" width="17.29" height="25.21" transform="translate(-7.76 99.38) rotate(-44.22)"/><g class="cls-5"><rect class="cls-3" x="69.43" y="85.91" width="17.29" height="25.21" transform="translate(-46.59 82.37) rotate(-44.22)"/></g><g class="cls-6"><rect class="cls-3" x="82.9" y="72.81" width="17.29" height="25.21" transform="translate(-33.63 88.05) rotate(-44.22)"/></g><g class="cls-7"><rect class="cls-3" x="96.38" y="59.69" width="17.29" height="25.21" transform="translate(-20.66 93.73) rotate(-44.22)"/></g><path class="cls-2" d="M47.5,108.49l12,21.67a3,3,0,0,0,4,1.23l81.6-45.12a3,3,0,0,0,1.08-4l-12-21.65a3,3,0,0,0-4-1.24L48.57,104.44A3,3,0,0,0,47.5,108.49Z"/><path class="cls-3" d="M47.5,108.49a2.46,2.46,0,0,1-.28-.59,3,3,0,0,1,0-1.92,2.81,2.81,0,0,1,.78-1.2,8.88,8.88,0,0,1,1.46-.91l3.74-2.1L77,88.5l35.37-19.63,10.24-5.67,5.28-2.92,1.34-.74a6.5,6.5,0,0,1,1.43-.69,3.17,3.17,0,0,1,3.1.81,5.17,5.17,0,0,1,.91,1.35l.76,1.36c.5.92,1,1.83,1.52,2.76,1,1.84,2,3.7,3.09,5.57q3.09,5.63,6.3,11.39a3.34,3.34,0,0,1-.1,3.4A3.28,3.28,0,0,1,145,86.62l-1.43.79-5.68,3.13-11,6.08-20.92,11.54L70.48,127.7c-2.54,1.38-4.9,2.72-7.22,3.94a3.11,3.11,0,0,1-3.59-1c-.7-1.06-1.19-2.1-1.76-3.1-2.21-4-4.1-7.47-5.64-10.3s-2.74-5-3.55-6.51l-.91-1.7a6.42,6.42,0,0,1-.3-.6s.13.2.34.57.55,1,1,1.68c.84,1.49,2.07,3.66,3.63,6.46L58.2,127.4c.57,1,1.11,2.07,1.75,3a2.79,2.79,0,0,0,3.21.88c2.26-1.21,4.67-2.58,7.18-4l35.38-19.64,20.92-11.57,11-6.12,5.66-3.13,1.43-.79a2.8,2.8,0,0,0,1.13-1,2.84,2.84,0,0,0,.08-2.86l-6.3-11.39-3.08-5.57-1.52-2.76-.76-1.36a5,5,0,0,0-.81-1.23,2.7,2.7,0,0,0-2.62-.69,7.31,7.31,0,0,0-1.32.64l-1.33.74-5.29,2.92-10.24,5.65L77.25,88.65,53.32,102l-3.76,2a8.25,8.25,0,0,0-1.45.88,2.6,2.6,0,0,0-.77,1.13,3,3,0,0,0-.07,1.87C47.4,108.29,47.52,108.49,47.5,108.49Z"/><rect class="cls-4" x="119.66" y="65.9" width="17.29" height="25.21" transform="translate(-22 72.78) rotate(-29.28)"/><rect class="cls-4" x="70.55" y="93.43" width="17.29" height="25.21" transform="translate(-41.74 52.28) rotate(-29.28)"/><rect class="cls-4" x="86.93" y="84.24" width="17.29" height="25.21" transform="translate(-35.16 59.12) rotate(-29.28)"/><rect class="cls-4" x="103.33" y="75.05" width="17.29" height="25.21" transform="translate(-28.56 65.96) rotate(-29.28)"/><g class="cls-5"><rect class="cls-3" x="119.66" y="65.9" width="17.29" height="25.21" transform="translate(-22 72.78) rotate(-29.28)"/></g><g class="cls-8"><rect class="cls-3" x="70.55" y="93.43" width="17.29" height="25.21" transform="translate(-41.74 52.28) rotate(-29.28)"/></g><g class="cls-9"><rect class="cls-3" x="86.93" y="84.24" width="17.29" height="25.21" transform="translate(-35.16 59.12) rotate(-29.28)"/></g><g class="cls-10"><rect class="cls-3" x="103.33" y="75.05" width="17.29" height="25.21" transform="translate(-28.56 65.96) rotate(-29.28)"/></g><path class="cls-2" d="M44.5,108.3l5.28,24.18a3,3,0,0,0,3.57,2.31h.06l95.7-20.92a3,3,0,0,0,2.35-3.54v-.06l-5.28-24.17a3,3,0,0,0-3.56-2.32l-.07,0-95.7,20.92a3,3,0,0,0-2.36,3.54Z"/><path class="cls-3" d="M44.5,108.3a2.24,2.24,0,0,1-.1-.68,3,3,0,0,1,.66-1.88,3.21,3.21,0,0,1,1.18-.91,10.23,10.23,0,0,1,1.73-.45l4.34-1L80,97.25l41.07-9,11.87-2.6,6.13-1.34,3.11-.68a3.82,3.82,0,0,1,1.68-.1,3.37,3.37,0,0,1,1.56.77,3.11,3.11,0,0,1,1,1.44c.16.57.25,1.07.37,1.6.23,1.06.47,2.13.7,3.2q.71,3.21,1.41,6.47,1.43,6.51,2.89,13.2a3.28,3.28,0,0,1-1.21,3.29,3.65,3.65,0,0,1-1.66.7l-1.65.36L140.69,116l-12.85,2.8-24.26,5.29L62.51,133l-8.34,1.82c-.33.06-.65.15-1,.19a3.23,3.23,0,0,1-2.77-1.06,3.58,3.58,0,0,1-.79-1.76c-.12-.6-.25-1.19-.38-1.77-1-4.65-1.85-8.64-2.55-11.92s-1.23-5.8-1.6-7.54l-.4-2c-.1-.51-.12-.68-.12-.68s.07.22.17.67l.46,1.95c.39,1.73,1,4.27,1.69,7.51s1.61,7.27,2.64,11.91c.13.57.26,1.16.39,1.76a3.14,3.14,0,0,0,.72,1.62,2.94,2.94,0,0,0,1.57.9,4.08,4.08,0,0,0,1.9-.15l8.33-1.85,41.07-9,24.25-5.32,12.83-2.8,6.56-1.44,1.65-.36a3.06,3.06,0,0,0,1.45-.6,2.78,2.78,0,0,0,1-2.77q-1.49-6.69-2.89-13.2-.72-3.27-1.41-6.47c-.24-1.07-.47-2.14-.7-3.2-.12-.51-.22-1.08-.35-1.55a2.82,2.82,0,0,0-.81-1.22,2.85,2.85,0,0,0-2.8-.55l-3.1.67-6.13,1.34-11.87,2.58L80.12,97.6l-27.7,6-4.36.92a12.55,12.55,0,0,0-1.71.42,3.06,3.06,0,0,0-1.15.86,3.1,3.1,0,0,0-.69,1.81A2.69,2.69,0,0,0,44.5,108.3Z"/><path class="cls-3" d="M44.29,108.4c0,.09-1.2,0-3.3.41a17.78,17.78,0,0,0-8,3.81,17.08,17.08,0,0,0-5.93,11.43,16.79,16.79,0,0,0,31.28,9.76,17.43,17.43,0,0,0,2.32-8.57v-1.42a6.87,6.87,0,0,0-.11-1,2.54,2.54,0,0,1,0-.87,3.1,3.1,0,0,1,.24.84c.06.28.15.62.21,1s.09.9.14,1.44A17.08,17.08,0,0,1,59,134.17a17.53,17.53,0,0,1-26.61,5,17.6,17.6,0,0,1,.22-27.1,16.38,16.38,0,0,1,10.93-3.77A2.7,2.7,0,0,1,44.29,108.4Z"/><path class="cls-3" d="M63.25,118.11a3.77,3.77,0,1,1-4.49-2.87A3.77,3.77,0,0,1,63.25,118.11Z"/><rect class="cls-4" x="128.85" y="88.57" width="17.29" height="25.21" transform="matrix(0.98, -0.21, 0.21, 0.98, -18.43, 31.69)"/><rect class="cls-4" x="110.57" y="92.56" width="17.29" height="25.21" transform="matrix(0.98, -0.21, 0.21, 0.98, -19.71, 27.88)"/><rect class="cls-4" x="92.2" y="96.58" width="17.29" height="25.21" transform="translate(-20.99 24.05) rotate(-12.33)"/><rect class="cls-4" x="73.85" y="100.59" width="17.29" height="25.21" transform="translate(-22.27 20.23) rotate(-12.33)"/><g class="cls-11"><rect class="cls-12" x="73.85" y="100.59" width="17.29" height="25.21" transform="translate(-22.27 20.23) rotate(-12.33)"/></g><g class="cls-13"><rect class="cls-12" x="92.2" y="96.58" width="17.29" height="25.21" transform="translate(-20.99 24.05) rotate(-12.33)"/></g><g class="cls-10"><rect class="cls-12" x="110.57" y="92.56" width="17.29" height="25.21" transform="matrix(0.98, -0.21, 0.21, 0.98, -19.71, 27.88)"/></g></g></g></svg>