<svg xmlns="http://www.w3.org/2000/svg" viewBox="0 0 178 184"><defs><style>.cls-1{fill:#d4dee1;}.cls-2{fill:#94b7bd;}.cls-3{opacity:0.87;}.cls-4{fill:#1c5b68;}.cls-5{opacity:0.2;}.cls-6{fill:#fff;}.cls-7{fill:#dce6e8;}</style></defs><g id="Calque_2" data-name="Calque 2"><g id="Calque_1-2" data-name="Calque 1"><path id="bulle_fond" data-name="bulle fond" class="cls-1" d="M0,83.28C0,26.73,24.75,0,77.12,0H99c55.23,0,79,26.73,79,83.28v17.44C178,157.26,153.26,184,99,184H77.12C25.71,184,0,157.26,0,100.72Z"/><path class="cls-2" d="M116.53,137H61.47a6.89,6.89,0,0,1-6.89-6.89V53.88A6.89,6.89,0,0,1,61.47,47H96.39l27,27.92v55.25A6.9,6.9,0,0,1,116.53,137Z"/><g class="cls-3"><path class="cls-4" d="M54.58,109.7h68.85v19.6a7.71,7.71,0,0,1-7.7,7.71H62.27a7.71,7.71,0,0,1-7.7-7.71V109.7Z"/></g><g class="cls-5"><path class="cls-6" d="M96.39,47V68.45a6.41,6.41,0,0,0,6.41,6.39h20.63Z"/></g><g class="cls-5"><path d="M96.67,70.37s-.27,5.21,5.66,6.91a5.43,5.43,0,0,0,.67.16c2.7.48,20.43,3.64,20.43,3.23V74.84H102.8S97.65,74.68,96.67,70.37Z"/></g><path class="cls-7" d="M82.85,87.12l-8.26,3,8.26,3v3.13L71,91.81V88.56L82.85,84.1Z"/><path class="cls-7" d="M91.74,78h3.45L87,101.35H83.54Z"/><path class="cls-7" d="M107.44,88.56v3.23L95.67,96.28V93.17l8.26-3-8.26-3V84.06Z"/><path class="cls-7" d="M80,119.86v9.25H77.89v-3.79H73.68v3.79H71.55v-9.25h2.14v3.65H77.9v-3.65Z"/><path class="cls-7" d="M84.15,121.6h-3v-1.74h8.07v1.74H86.29v7.51H84.15Z"/><path class="cls-7" d="M98.83,129.11v-5.58L96.1,128.1h-1l-2.7-4.47v5.44h-2v-9.26h1.76l3.46,5.75,3.42-5.75h1.75v9.26Z"/><path class="cls-7" d="M103,119.86h2.15v7.51h4.64v1.74H103Z"/></g></g></svg>