<svg xmlns="http://www.w3.org/2000/svg" viewBox="0 0 178 184"><defs><style>.cls-1{fill:#d4dee1;}.cls-2{fill:#263238;}.cls-3{fill:#1c5a68;}.cls-4{fill:#94b7bd;}.cls-5{fill:#fafafa;}.cls-6{fill:#fff;}.cls-7{opacity:0.4;}.cls-8{fill:#e0e0e0;}.cls-9{fill:#455a64;}</style></defs><g id="Calque_2" data-name="Calque 2"><g id="Calque_1-2" data-name="Calque 1"><path class="cls-1" d="M0,83.28C0,26.73,24.75,0,77.12,0H99c55.23,0,79,26.73,79,83.28v17.44C178,157.26,153.26,184,99,184H77.12C25.71,184,0,157.26,0,100.72Z"/><g id="Calque_2-2" data-name="Calque 2"><rect class="cls-2" x="53.28" y="61.23" width="5.33" height="8.31" transform="translate(-29.1 52.3) rotate(-40.7)"/><path class="cls-3" d="M59.08,60.57l-8.26,7.17L45,60.94a20.81,20.81,0,0,1,8.32-7.16Z"/><path class="cls-2" d="M52.15,66.54a16.94,16.94,0,0,1-3.33-3.33A17.65,17.65,0,0,1,46,59.55a17.59,17.59,0,0,1,3.31,3.31A17.27,17.27,0,0,1,52.15,66.54Z"/><path class="cls-2" d="M53.74,65.18a18.71,18.71,0,0,1-3.28-3.49,27.29,27.29,0,0,1-2.84-3.85c.17-.16,1.66,1.4,3.33,3.43A17.72,17.72,0,0,1,53.74,65.18Z"/><path class="cls-2" d="M55.82,63.35a18.67,18.67,0,0,1-3.27-3.55,22.24,22.24,0,0,1-2.84-3.92A15.85,15.85,0,0,1,53,59.4,17.32,17.32,0,0,1,55.82,63.35Z"/><path class="cls-2" d="M57.82,61.65a18.05,18.05,0,0,1-3.29-3.36,18,18,0,0,1-2.79-3.77A17.69,17.69,0,0,1,55,57.88,17.26,17.26,0,0,1,57.82,61.65Z"/><rect class="cls-2" x="117.89" y="63.63" width="8.31" height="5.33" transform="translate(-11.99 102.68) rotate(-43.7)"/><path class="cls-3" d="M127.05,69.15l-7.57-7.93L126,55a20.91,20.91,0,0,1,7.59,8Z"/><path class="cls-2" d="M120.75,62.55a34.1,34.1,0,0,1,6.71-6.49,18.11,18.11,0,0,1-3.13,3.47A17.54,17.54,0,0,1,120.75,62.55Z"/><path class="cls-2" d="M122.19,64.07a18.15,18.15,0,0,1,3.32-3.46,26.4,26.4,0,0,1,3.67-3c.17.16-1.31,1.73-3.26,3.52A18.32,18.32,0,0,1,122.19,64.07Z"/><path class="cls-2" d="M124.1,66.07a18.77,18.77,0,0,1,3.37-3.47,22.21,22.21,0,0,1,3.76-3c.15.15-1.35,1.72-3.33,3.51A19.12,19.12,0,0,1,124.1,66.07Z"/><path class="cls-2" d="M125.92,67.91a34.27,34.27,0,0,1,6.79-6.44,17.59,17.59,0,0,1-3.18,3.44A17.3,17.3,0,0,1,125.92,67.91Z"/><rect class="cls-2" x="86.6" y="46.97" width="6.31" height="9.84"/><path class="cls-4" d="M96.29,49.92h-13V39.31a24.92,24.92,0,0,1,13,0Z"/><path class="cls-2" d="M96.44,39.36a14.08,14.08,0,0,1-13.2,0A22.17,22.17,0,0,0,96.44,39.36Z"/><path class="cls-2" d="M87.59,49.89a16.9,16.9,0,0,1-.32-4.54,17,17,0,0,1,.32-4.56,17,17,0,0,1,.32,4.56A16.9,16.9,0,0,1,87.59,49.89Z"/><path class="cls-2" d="M90.06,50a17.12,17.12,0,0,1-.32-4.57,17.09,17.09,0,0,1,.32-4.57,16.31,16.31,0,0,1,.32,4.57A16.31,16.31,0,0,1,90.06,50Z"/><path class="cls-2" d="M92.54,49.92a16.31,16.31,0,0,1-.32-4.57,16.31,16.31,0,0,1,.32-4.57,17.09,17.09,0,0,1,.32,4.57A17.12,17.12,0,0,1,92.54,49.92Z"/><path class="cls-2" d="M94.59,49.92A19.57,19.57,0,0,1,94.28,45a20,20,0,0,1,.31-4.89A19.55,19.55,0,0,1,94.91,45,19.58,19.58,0,0,1,94.59,49.92Z"/><path class="cls-2" d="M85.26,49.84A18.6,18.6,0,0,1,84.94,45a18.65,18.65,0,0,1,.32-4.89A19.54,19.54,0,0,1,85.57,45,19.5,19.5,0,0,1,85.26,49.84Z"/><circle class="cls-4" cx="89" cy="99.67" r="45.89"/><circle class="cls-5" cx="88.99" cy="99.3" r="38.53"/><path class="cls-2" d="M127.53,99.3v-.62c0-.44-.07-1-.12-1.83a7.6,7.6,0,0,0-.09-1.35c-.08-.49-.16-1-.24-1.61a30.15,30.15,0,0,0-.81-4A36.69,36.69,0,0,0,122,79.68a38.47,38.47,0,0,0-25.87-18,34.86,34.86,0,0,0-4.89-.56c-.83,0-1.66-.11-2.44-.1l-2.54.13a5.1,5.1,0,0,0-1.23.09l-1.28.2c-.84.13-1.71.24-2.56.41a41.68,41.68,0,0,0-10.09,3.69c-.8.44-1.59,1-2.38,1.43a18.21,18.21,0,0,0-2.31,1.59,34.23,34.23,0,0,0-8.08,8.12,36.79,36.79,0,0,0-5.5,10.56,37.82,37.82,0,0,0,0,24.11,37,37,0,0,0,5.47,10.54A41.53,41.53,0,0,0,62,126.32,45.46,45.46,0,0,0,66.41,130a18.21,18.21,0,0,0,2.31,1.59c.8.47,1.58,1,2.38,1.43a42.53,42.53,0,0,0,10.09,3.69c.85.17,1.72.27,2.58.41l1.22.2c.43.06.85,0,1.22.09l2.53.13c.83,0,1.66-.07,2.44-.1A38,38,0,0,0,121.93,119a36.81,36.81,0,0,0,4.28-10.21,30.48,30.48,0,0,0,.81-4c.08-.57.19-1.11.24-1.6a13.47,13.47,0,0,1,.09-1.35c0-.61.05-1.22.12-1.82v3.19a14.82,14.82,0,0,1-.22,1.61,28.78,28.78,0,0,1-.76,4,36.51,36.51,0,0,1-4.2,10.32,38.77,38.77,0,0,1-26.08,18.34,36.63,36.63,0,0,1-4.89.57c-.83,0-1.68.12-2.53.11L86.22,138a8,8,0,0,1-1.29-.08l-1.3-.19c-.87-.15-1.75-.25-2.61-.42a44.79,44.79,0,0,1-5.2-1.51,40.07,40.07,0,0,1-5.14-2.19c-.82-.45-1.6-1-2.44-1.44a22.27,22.27,0,0,1-2.35-1.62,35.33,35.33,0,0,1-8.23-8.23A38.71,38.71,0,0,1,52.1,87.09,37.3,37.3,0,0,1,57.66,76.4a35.72,35.72,0,0,1,8.22-8.24,19.8,19.8,0,0,1,2.34-1.61c.82-.48,1.6-1,2.45-1.44a37.26,37.26,0,0,1,5.06-2.21,40.45,40.45,0,0,1,5.18-1.52c.87-.17,1.75-.28,2.61-.42l1.3-.19c.43-.06.87,0,1.29-.09l2.57-.12c.86,0,1.7.07,2.53.1a34.91,34.91,0,0,1,4.89.59,38.76,38.76,0,0,1,26.08,18.33,36.27,36.27,0,0,1,4.2,10.32,28.5,28.5,0,0,1,.76,4c.07.59.17,1.13.22,1.63a10.14,10.14,0,0,1,0,1.35v1.84C127.37,99.17,127.53,99.3,127.53,99.3Z"/><path class="cls-2" d="M121.91,98.7c-3.52,0-6.38-.12-6.39-.38s2.83-.64,6.34-.84,6.37,0,6.38.37S125.42,98.64,121.91,98.7Z"/><path class="cls-2" d="M112.82,122c-2.55-2.45-4.45-4.56-4.28-4.76s2.44,1.54,5.11,3.87,4.54,4.45,4.26,4.75S115.35,124.44,112.82,122Z"/><path class="cls-2" d="M90,132.2c-.1-3.52,0-6.37.31-6.38s.67,2.81.91,6.32.1,6.38-.3,6.39S90.05,135.71,90,132.2Z"/><path class="cls-2" d="M66.55,123.38c2.44-2.57,4.51-4.51,4.7-4.34s-1.5,2.44-3.8,5.14-4.4,4.61-4.7,4.33S64.14,125.93,66.55,123.38Z"/><path class="cls-2" d="M56.11,100.62c3.51-.13,6.37,0,6.38.23s-2.81.7-6.32,1-6.35.16-6.35-.25S52.59,100.76,56.11,100.62Z"/><path class="cls-2" d="M64.68,77.12c2.59,2.37,4.54,4.46,4.37,4.66S66.61,80.3,63.87,78s-4.66-4.35-4.38-4.66S62.09,74.74,64.68,77.12Z"/><path class="cls-2" d="M87.3,66.4c.17,3.51.1,6.37-.16,6.39s-.73-2.79-1-6.3-.25-6.37.16-6.39S87.14,62.92,87.3,66.4Z"/><path class="cls-2" d="M110.91,74.74c-2.35,2.61-4.41,4.61-4.62,4.43s1.45-2.51,3.67-5.23,4.3-4.69,4.6-4.42S113.26,72.12,110.91,74.74Z"/><path class="cls-2" d="M121.82,97.25c-3.51.21-6.38.16-6.39-.1s2.79-.76,6.29-1.12,6.35-.31,6.39.09S125.32,97,121.82,97.25Z"/><path class="cls-6" d="M74,57.6a16.36,16.36,0,0,1-2,.91,44.61,44.61,0,0,0-26.67,34,46.94,46.94,0,0,0-.61,5.92,16.36,16.36,0,0,1-.06,2.21,1.6,1.6,0,0,1-.07-.57c0-.37-.08-.92-.07-1.63a38.78,38.78,0,0,1,.41-6,43.17,43.17,0,0,1,21.6-31.61,38.8,38.8,0,0,1,5.42-2.55c.66-.27,1.22-.42,1.54-.53A2.46,2.46,0,0,1,74,57.6Z"/><path class="cls-6" d="M86.82,55.12a21.47,21.47,0,0,1-4.51.75,23,23,0,0,1-4.54.43,12.81,12.81,0,0,1,4.47-1A13.06,13.06,0,0,1,86.82,55.12Z"/><g class="cls-7"><path d="M58.19,122.46s20,31.52,51,15.38c32.32-16.85,14.47-55.48,14.47-55.48s15.21,30.79-16.32,50.86c-7.84,5-16.38,5-22.91,4.35C67.72,135.89,58.19,122.46,58.19,122.46Z"/></g><path class="cls-8" d="M99.74,78.82a136.85,136.85,0,0,1-.51,16.94,21.22,21.22,0,0,1-1.23,6,8,8,0,0,1-4,4.43,5,5,0,0,1-5.62-1.1Z"/><polygon class="cls-4" points="88.15 96.26 102.16 72.67 93.7 99.3 89.39 100.6 88.15 96.26"/><g class="cls-7"><polygon class="cls-4" points="102.16 72.67 91.77 96.77 93.7 99.3 102.16 72.67"/></g><path class="cls-5" d="M93.9,100.62a4.51,4.51,0,1,1-4.51-4.51,4.51,4.51,0,0,1,4.51,4.51Z"/><path class="cls-2" d="M93.9,100.62a3.29,3.29,0,0,0-.26-1.07A4.57,4.57,0,0,0,92,97.21,4.24,4.24,0,1,0,92,104a4.58,4.58,0,0,0,1.66-2.33,9.81,9.81,0,0,1,.26-1.07,2.4,2.4,0,0,1,0,1.13,4.5,4.5,0,0,1-1.63,2.62,4.71,4.71,0,0,1-4.5.76,4.78,4.78,0,0,1,0-9,4.66,4.66,0,0,1,4.5.75,4.42,4.42,0,0,1,1.63,2.63A2.32,2.32,0,0,1,93.9,100.62Z"/><circle class="cls-9" cx="89.39" cy="100.6" r="3.36"/></g></g></g></svg>