<svg xmlns="http://www.w3.org/2000/svg" viewBox="0 0 178 184"><defs><style>.cls-1{fill:#d4dee1;}.cls-2{fill:#94b7bd;fill-rule:evenodd;}.cls-3{fill:#dde7e9;}.cls-4{fill:#3f3f3f;}</style></defs><g id="Calque_2" data-name="Calque 2"><g id="Calque_1-2" data-name="Calque 1"><path id="bulle_fond" data-name="bulle fond" class="cls-1" d="M0,83.28C0,26.73,24.75,0,77.12,0H99c55.23,0,79,26.73,79,83.28v17.44C178,157.26,153.26,184,99,184H77.12C25.71,184,0,157.26,0,100.72Z"/><g id="engrenages"><path class="cls-2" d="M32.54,58.68a16.09,16.09,0,0,1,4-1.71l.84-4L44,52.92l1,3.91a16.67,16.67,0,0,1,4,1.61l3.38-2.2,4.78,4.67-2.11,3.44a16.7,16.7,0,0,1,1.73,4l3.94.83.09,6.67-3.92.93a16.45,16.45,0,0,1-1.59,4l2.19,3.38L52.83,89l-3.44-2.1a16.28,16.28,0,0,1-4,1.72l-.84,3.94-6.67.1-.94-3.92a15.45,15.45,0,0,1-4-1.61l-3.4,2.2-4.71-4.68,2.1-3.44a16.7,16.7,0,0,1-1.73-4l-3.93-.84-.09-6.63,3.91-1a15.74,15.74,0,0,1,1.61-4l-2.2-3.38,4.65-4.8Z"/><path class="cls-3" d="M44.91,70.82a8.27,8.27,0,0,0-.21-1.41,5.83,5.83,0,0,0-.64-1.52,5.7,5.7,0,0,0-6.86-2.42,5.12,5.12,0,0,0-1.44.77,4.76,4.76,0,0,0-1.2,1.21,5.64,5.64,0,0,0,0,6.72,5.94,5.94,0,0,0,.56.68,6.76,6.76,0,0,0,.64.54,5.15,5.15,0,0,0,1.44.78,5.66,5.66,0,0,0,3,.25,5.72,5.72,0,0,0,4.51-4.19,9.46,9.46,0,0,0,.21-1.4v.36a3.38,3.38,0,0,1,0,.45c0,.2-.06.4-.1.6a5.8,5.8,0,0,1-4.55,4.33,5.78,5.78,0,0,1-3.06-.25,5.55,5.55,0,0,1-1.5-.8,5.21,5.21,0,0,1-1.24-1.24,5.84,5.84,0,0,1,0-6.93,5.35,5.35,0,0,1,.58-.68,6.13,6.13,0,0,1,.68-.56,5.6,5.6,0,0,1,1.47-.78,5.84,5.84,0,0,1,7.64,4.08c0,.2.08.4.1.6a3.38,3.38,0,0,1,0,.45v.27A.16.16,0,0,1,44.91,70.82Z"/><path class="cls-3" d="M43.09,75s1.3,1.17,2.81,2.69,2.72,2.77,2.69,2.81-1.29-1.17-2.81-2.68A37.06,37.06,0,0,1,43.09,75Z"/><path class="cls-2" d="M78.12,83.92a20.76,20.76,0,0,1,5.12-2.21l1.08-5.06,8.55-.12,1.22,5a20.68,20.68,0,0,1,5.18,2.06l4.34-2.82,6.14,6-2.7,4.42a21.54,21.54,0,0,1,2.21,5.12l5.06,1.07.12,8.56-5,1.22a21.46,21.46,0,0,1-2.06,5.18l2.82,4.34-6,6.13-4.37-2.7a21,21,0,0,1-5.13,2.2l-1.07,5.06-8.56.13-1.21-5a21.37,21.37,0,0,1-5.19-2.06l-4.33,2.81-6.14-6,2.7-4.42a20.76,20.76,0,0,1-2.21-5.12l-5.06-1.07-.12-8.56,5-1.22a20.68,20.68,0,0,1,2.06-5.18l-2.82-4.34,6-6.14,4.41,2.7Z"/><path class="cls-3" d="M86.06,110.93h5.71v0c0-.72,0-1.53,0-2.4h0a12.76,12.76,0,0,0,3.58-2.48,8.78,8.78,0,0,0,1.5-1.93,6.93,6.93,0,0,0,.84-2.45,8.24,8.24,0,0,0-1.29-5.38,9.89,9.89,0,0,0-4.68-3.74,8.13,8.13,0,0,0-4.5-.31,8.73,8.73,0,0,0-3.91,1.81,7.86,7.86,0,0,0-2.35,3.25c-.11.31-.24.61-.32.92s-.15.62-.22.92A10,10,0,0,0,80.2,101a9.75,9.75,0,0,0,.21,1.7,9.24,9.24,0,0,0,.56,1.52,9.37,9.37,0,0,0,1.69,2.35A11.55,11.55,0,0,0,86.18,109h0l-.09,1.5a2.54,2.54,0,0,1,0,.39.29.29,0,0,1,0,.13v-.5c0-.34,0-.86.06-1.52h0a11.43,11.43,0,0,1-3.56-2.37,8.6,8.6,0,0,1-1.73-2.38,7.42,7.42,0,0,1-.57-1.55,9.23,9.23,0,0,1-.24-1.74,10.33,10.33,0,0,1,.17-1.84c.07-.31.15-.62.22-.93s.22-.62.32-.93a7.89,7.89,0,0,1,2.4-3.33,9,9,0,0,1,4-1.82,8.26,8.26,0,0,1,4.59.32,10,10,0,0,1,4.75,3.8,7.86,7.86,0,0,1,1.14,2.7,4.23,4.23,0,0,1,.13.71,5.56,5.56,0,0,1,.08.7v.7l-.06.68a7,7,0,0,1-.86,2.51,9.36,9.36,0,0,1-1.54,2,13.2,13.2,0,0,1-3.64,2.46V111H86.12Z"/><path class="cls-3" d="M91.83,112.53a24.07,24.07,0,0,1-2.94.09,24.17,24.17,0,0,1-3-.09,26.36,26.36,0,0,1,3-.08A24.06,24.06,0,0,1,91.83,112.53Z"/><path class="cls-3" d="M90,114.74a2.42,2.42,0,0,1-1,.12,2.31,2.31,0,0,1-1-.19,5.57,5.57,0,0,1,1,0A4.76,4.76,0,0,1,90,114.74Z"/><path class="cls-3" d="M87.26,110.93a.09.09,0,0,1,0-.1v-1.37c0-1,.06-2.33.1-4,0-.85,0-1.78.07-2.78a1.91,1.91,0,0,0-.1-.71.46.46,0,0,0-.51-.34.65.65,0,0,0-.46.51,1,1,0,0,0,.09.75,1.68,1.68,0,0,0,1.31.87,1.71,1.71,0,0,0,1.53-.61,2.63,2.63,0,0,0,.64-1.64,1.56,1.56,0,0,0-.18-.87.56.56,0,0,0-.76-.25.58.58,0,0,0-.3.65,2,2,0,0,0,.42.8,3.23,3.23,0,0,0,1.41,1.09,1.91,1.91,0,0,0,.86.1,1.74,1.74,0,0,0,.77-.32,1.5,1.5,0,0,0,.49-.65,1,1,0,0,0,0-.76.69.69,0,0,0-.59-.4.86.86,0,0,0-.61.37,3.48,3.48,0,0,0-.35,1.45c-.11,1-.18,1.91-.25,2.76-.11,1.7-.19,3-.26,4a4.79,4.79,0,0,1-.07,1.09V111a.09.09,0,0,1,0-.1v-1.38c0-1,.1-2.32.21-4,0-.85.12-1.77.23-2.77a5.07,5.07,0,0,1,.09-.76,1.75,1.75,0,0,1,.28-.76.94.94,0,0,1,.73-.43.83.83,0,0,1,.73.47,1.22,1.22,0,0,1,.06.9,1.62,1.62,0,0,1-.54.72,2,2,0,0,1-.86.36,2,2,0,0,1-.93-.11A3.26,3.26,0,0,1,89,101.94a1.77,1.77,0,0,1-.45-.88.81.81,0,0,1,.46-.89.8.8,0,0,1,.93.38,1.8,1.8,0,0,1,.2,1,2.79,2.79,0,0,1-.68,1.75,1.91,1.91,0,0,1-1.67.68,1.85,1.85,0,0,1-1.44-1,1.17,1.17,0,0,1-.1-.86.83.83,0,0,1,.58-.63.6.6,0,0,1,.43.1.82.82,0,0,1,.26.34,2.29,2.29,0,0,1,.1.78c0,1-.07,1.92-.1,2.77-.06,1.7-.11,3.06-.15,4a6.6,6.6,0,0,1,0,1.09v.28Z"/><path class="cls-3" d="M91.34,113.63a31.38,31.38,0,0,1-4.75,0A31.38,31.38,0,0,1,91.34,113.63Z"/><path class="cls-2" d="M134.32,97.59a13.07,13.07,0,0,1,3.3-1.48l.65-3.3,5.55-.16.84,3.25a13.37,13.37,0,0,1,3.39,1.28l2.78-1.87,4,3.81-1.7,2.89a13.78,13.78,0,0,1,1.48,3.3l3.3.64.16,5.55-3.25.84a14.08,14.08,0,0,1-1.28,3.4l1.87,2.78-3.81,4-2.89-1.7a13.81,13.81,0,0,1-3.3,1.49l-.64,3.29-5.56.17-.84-3.28a13.71,13.71,0,0,1-3.4-1.29l-2.78,1.88-4-3.8,1.7-2.89a13.43,13.43,0,0,1-1.49-3.3l-3.29-.64L125,106.9l3.27-.86a13.3,13.3,0,0,1,1.28-3.4l-1.87-2.78,3.79-4Z"/><path class="cls-3" d="M149,115.18H135V102.76a1,1,0,0,1,0-.25,1,1,0,0,1,0,.25V115.1l-.09-.09h13.65Z"/><path class="cls-3" d="M147.43,105.65a3.16,3.16,0,0,1-.42.4l-1.17,1c-1,.86-2.38,2-3.92,3.35l-.23.2h-.07L139.83,109h.11l-2.56,2.11-.74.59a2.43,2.43,0,0,1-.28.2,1.14,1.14,0,0,1,.25-.24l.71-.63,2.52-2.16,0,0,.06,0,1.75,1.61h-.12l.23-.19,4-3.32,1.21-1A2.69,2.69,0,0,1,147.43,105.65Z"/><path class="cls-3" d="M147.43,108.57a4.25,4.25,0,0,1-.06-.87v-2.12l.09.09h-2.37a5.62,5.62,0,0,1-.92-.07,4.69,4.69,0,0,1,.92-.06h2.46v2.2A5.72,5.72,0,0,1,147.43,108.57Z"/><path class="cls-4" d="M57.59,115.67a3.52,3.52,0,0,1-.39-.94,3.46,3.46,0,0,1-.23-1,2.78,2.78,0,0,1,.4.94A2.9,2.9,0,0,1,57.59,115.67Z"/><path class="cls-4" d="M61.2,122.94a14,14,0,0,1-2-3.53,12.29,12.29,0,0,1,1,1.75A15.57,15.57,0,0,1,61.2,122.94Z"/><path class="cls-4" d="M66.51,129.07a12.61,12.61,0,0,1-2.84-2.9,17.79,17.79,0,0,1,1.44,1.44C65.6,128.07,66.06,128.56,66.51,129.07Z"/><path class="cls-4" d="M73.22,133.62a13.19,13.19,0,0,1-3.52-2.05c.6.31,1.2.65,1.77,1A18.41,18.41,0,0,1,73.22,133.62Z"/><path class="cls-4" d="M80.94,136.1a12.51,12.51,0,0,1-4-1,12.85,12.85,0,0,1,2,.46A14.45,14.45,0,0,1,80.94,136.1Z"/><path class="cls-4" d="M89,136.28a8.48,8.48,0,0,1-2,.24,8.36,8.36,0,0,1-2-.06,16.65,16.65,0,0,1,2-.12C87.69,136.29,88.36,136.27,89,136.28Z"/><path class="cls-4" d="M97,134.53a8.7,8.7,0,0,1-1.91.68,9.23,9.23,0,0,1-2,.41,19.14,19.14,0,0,1,2-.58A15.34,15.34,0,0,1,97,134.53Z"/><path class="cls-4" d="M104.3,131.09a13.89,13.89,0,0,1-3.58,1.92,16.26,16.26,0,0,1,1.78-1A17.94,17.94,0,0,1,104.3,131.09Z"/><path class="cls-4" d="M110.61,126a7.65,7.65,0,0,1-1.39,1.51,8.16,8.16,0,0,1-1.6,1.26,17.76,17.76,0,0,1,1.49-1.39A12.53,12.53,0,0,1,110.61,126Z"/><path class="cls-4" d="M115.1,119.24a12.74,12.74,0,0,1-2,3.56,15.57,15.57,0,0,1,1-1.78C114.41,120.41,114.74,119.82,115.1,119.24Z"/><path class="cls-4" d="M117.88,111.61a25,25,0,0,1-1.27,3.87,10.78,10.78,0,0,1,.55-2A12.45,12.45,0,0,1,117.88,111.61Z"/><path class="cls-4" d="M120.47,103.91a16.17,16.17,0,0,1-.61,1.94,12.86,12.86,0,0,1-.76,1.89,22.76,22.76,0,0,1,1.11-3.29A2.69,2.69,0,0,1,120.47,103.91Z"/><path class="cls-4" d="M124.08,96.64a17.4,17.4,0,0,1-1,1.79,19,19,0,0,1-1,1.76,13.15,13.15,0,0,1,2-3.55Z"/><path class="cls-4" d="M129.5,90.64,128,92c-.84.76-1.45,1.42-1.48,1.38a7.5,7.5,0,0,1,1.36-1.51A6.93,6.93,0,0,1,129.5,90.64Z"/><path class="cls-4" d="M136.83,87.21c-.64.26-1.26.48-1.92.68-1,.37-1.89.73-1.91.68a7.83,7.83,0,0,1,1.86-.85A8.28,8.28,0,0,1,136.83,87.21Z"/><path class="cls-4" d="M144.83,86.31s-.92,0-2,.07c-.67.05-1.34.07-2,.06a8.36,8.36,0,0,1,2-.24A7.91,7.91,0,0,1,144.83,86.31Z"/><path class="cls-4" d="M152.71,88.31a18,18,0,0,1-1.92-.66c-1-.38-1.92-.65-1.91-.68a8.33,8.33,0,0,1,2,.53A8.79,8.79,0,0,1,152.71,88.31Z"/><path class="cls-4" d="M159.61,92.54,158,91.37c-.56-.37-1.11-.77-1.64-1.19a8.9,8.9,0,0,1,1.75,1A8.4,8.4,0,0,1,159.61,92.54Z"/><path class="cls-4" d="M163.69,97a9.78,9.78,0,0,1-1.21-1.64A4.26,4.26,0,0,1,163.69,97Z"/><path class="cls-4" d="M14.31,67.93l.06-.3.21-.9a21.06,21.06,0,0,1,1.13-3.36,24.5,24.5,0,0,1,2.8-4.83,28.11,28.11,0,0,1,5.19-5.32A27.19,27.19,0,0,1,31.59,49a28.93,28.93,0,0,1,4.88-1.18,30.93,30.93,0,0,1,5.36-.31,28.2,28.2,0,0,1,5.55.7,25.86,25.86,0,0,1,5.45,2,25.35,25.35,0,0,1,5,3.34A24.32,24.32,0,0,1,62,58.06a23.66,23.66,0,0,1,2.84,5.58,26.93,26.93,0,0,1,1.26,5.88c0,.5.09,1,.12,1.48s0,1,0,1.47v1.45c0,.48-.07,1-.14,1.44a22.36,22.36,0,0,1-1.46,5.4,42.34,42.34,0,0,1-2.41,4.75c-.87,1.49-1.72,2.93-2.53,4.33a25.34,25.34,0,0,0-3,8.42,36.06,36.06,0,0,0-.48,3.88c-.09,1.23-.13,2.4-.14,3.5a37.19,37.19,0,0,0,.27,5.58,21.46,21.46,0,0,0,.76,3.45c.13.38.24.68.31.86l.09.22v.08a9.51,9.51,0,0,1-.46-1.15,22.46,22.46,0,0,1-.81-3.45,40.34,40.34,0,0,1-.3-5.6,32.87,32.87,0,0,1,.13-3.5,36.61,36.61,0,0,1,.48-3.91,25.52,25.52,0,0,1,3-8.47l2.53-4.33a39.54,39.54,0,0,0,2.39-4.73,21.09,21.09,0,0,0,1.45-5.35c.06-.48.09-1,.13-1.43a11.53,11.53,0,0,0,0-1.44V71c0-.46-.08-1-.11-1.47a25.55,25.55,0,0,0-1.27-5.86,22,22,0,0,0-2.78-5.52,22.75,22.75,0,0,0-4.14-4.57,24.32,24.32,0,0,0-5-3.33,25,25,0,0,0-5.46-1.93,27.57,27.57,0,0,0-5.43-.71,33.39,33.39,0,0,0-5.29.3,28.8,28.8,0,0,0-4.85,1.17,27.34,27.34,0,0,0-7.87,4.23,28,28,0,0,0-5.17,5.26,24.56,24.56,0,0,0-2.83,4.82,22,22,0,0,0-1.16,3.34l-.23.89Z"/></g></g></g></svg>