<svg xmlns="http://www.w3.org/2000/svg" viewBox="0 0 178 184"><defs><style>.cls-1{fill:#d4dee1;}.cls-2{fill:#94b7bd;}.cls-3{fill:#3f3f3f;}</style></defs><g id="Calque_2" data-name="Calque 2"><g id="Calque_1-2" data-name="Calque 1"><path class="cls-1" d="M0,83.28C0,26.73,24.75,0,77.12,0H99c55.23,0,79,26.73,79,83.28v17.44C178,157.26,153.26,184,99,184H77.12C25.71,184,0,157.26,0,100.72Z"/><g id="Calque_2-2" data-name="Calque 2"><g id="Calque_1-2-2" data-name="Calque 1-2"><rect class="cls-2" x="66.92" y="31.44" width="45.88" height="121.88"/><rect class="cls-3" x="95.2" y="31.44" width="17.61" height="121.88"/><rect class="cls-2" x="102.26" y="41.05" width="3.48" height="7.35"/><rect class="cls-2" x="102.26" y="53.95" width="3.48" height="7.35"/><rect class="cls-2" x="102.26" y="68.41" width="3.48" height="7.35"/><rect class="cls-2" x="102.26" y="82.2" width="3.48" height="7.35"/><rect class="cls-2" x="102.26" y="96.02" width="3.48" height="7.35"/><rect class="cls-2" x="102.26" y="109.82" width="3.48" height="7.35"/><rect class="cls-2" x="102.26" y="123.63" width="3.48" height="7.35"/><rect class="cls-2" x="102.26" y="138.8" width="3.48" height="7.35"/><rect class="cls-3" x="62.92" y="30.67" width="52.16" height="1.42"/><rect class="cls-3" x="73.45" y="40.76" width="3.48" height="7.35"/><rect class="cls-3" x="82.73" y="40.76" width="3.48" height="7.35"/><rect class="cls-3" x="73.45" y="54.77" width="3.48" height="7.35"/><rect class="cls-3" x="82.73" y="54.77" width="3.48" height="7.35"/><rect class="cls-3" x="73.45" y="68.77" width="3.48" height="7.35"/><rect class="cls-3" x="82.73" y="68.77" width="3.48" height="7.35"/><rect class="cls-3" x="73.45" y="82.77" width="3.48" height="7.35"/><rect class="cls-3" x="82.73" y="82.77" width="3.48" height="7.35"/><rect class="cls-3" x="73.45" y="96.78" width="3.48" height="7.35"/><rect class="cls-3" x="82.73" y="96.78" width="3.48" height="7.35"/><rect class="cls-3" x="73.45" y="110.79" width="3.48" height="7.35"/><rect class="cls-3" x="82.73" y="110.79" width="3.48" height="7.35"/><rect class="cls-3" x="73.45" y="124.8" width="3.48" height="7.35"/><rect class="cls-3" x="82.73" y="124.8" width="3.48" height="7.35"/><rect class="cls-3" x="73.45" y="138.8" width="3.48" height="7.35"/><rect class="cls-3" x="82.73" y="138.8" width="3.48" height="7.35"/><path class="cls-3" d="M95.2,51c0,.13-6.34.23-14.14.23s-14.14-.1-14.14-.23,6.33-.22,14.14-.22S95.2,50.88,95.2,51Z"/><path class="cls-3" d="M95.2,65.05c0,.12-6.34.23-14.14.23s-14.14-.1-14.14-.23,6.33-.21,14.14-.21S95.2,64.94,95.2,65.05Z"/><path class="cls-3" d="M95.2,79.27c0,.13-6.34.22-14.14.22s-14.14-.09-14.14-.22,6.33-.22,14.14-.22S95.2,79.16,95.2,79.27Z"/><path class="cls-3" d="M95.2,93.41c0,.11-6.34.21-14.14.21s-14.14-.1-14.14-.21,6.33-.24,14.14-.24S95.2,93.27,95.2,93.41Z"/><path class="cls-3" d="M95.2,107.33c0,.11-6.34.21-14.14.21s-14.14-.1-14.14-.21,6.33-.23,14.14-.23S95.2,107.19,95.2,107.33Z"/><path class="cls-3" d="M95.2,120.86c0,.12-6.34.22-14.14.22s-14.14-.1-14.14-.22,6.33-.22,14.14-.22S95.2,120.72,95.2,120.86Z"/><path class="cls-3" d="M95.2,135.88c0,.11-6.34.22-14.14.22s-14.14-.11-14.14-.22,6.33-.22,14.14-.22S95.2,135.72,95.2,135.88Z"/><path class="cls-2" d="M112.6,51a81.56,81.56,0,0,1-8.42.23A81.37,81.37,0,0,1,95.77,51a81.36,81.36,0,0,1,8.41-.22C107,50.7,109.8,50.78,112.6,51Z"/><path class="cls-2" d="M112.6,65.05a78.85,78.85,0,0,1-8.42.23,78.66,78.66,0,0,1-8.41-.23,78.65,78.65,0,0,1,8.41-.21C108.83,64.84,112.6,64.94,112.6,65.05Z"/><path class="cls-2" d="M112.6,79.09c-2.8.21-5.61.29-8.42.22a76.12,76.12,0,0,1-8.41-.22,71.52,71.52,0,0,1,8.41-.22C108.83,78.87,112.6,79,112.6,79.09Z"/><path class="cls-2" d="M112.41,93.41c0,.11-3.76.21-8.41.21s-8.42-.1-8.42-.21a78.85,78.85,0,0,1,8.42-.24A76.13,76.13,0,0,1,112.41,93.41Z"/><path class="cls-2" d="M112.41,107.33c0,.11-3.76.21-8.41.21s-8.42-.1-8.42-.21a76.31,76.31,0,0,1,8.42-.23A73.75,73.75,0,0,1,112.41,107.33Z"/><path class="cls-2" d="M112.41,121.24c0,.11-3.76.22-8.41.22s-8.42-.11-8.42-.22A78.84,78.84,0,0,1,104,121,76.12,76.12,0,0,1,112.41,121.24Z"/><path class="cls-2" d="M112.41,135.88c-2.8.21-5.6.29-8.41.22s-5.62,0-8.42-.22a78.84,78.84,0,0,1,8.42-.22A76.12,76.12,0,0,1,112.41,135.88Z"/></g></g></g></g></svg>