<svg xmlns="http://www.w3.org/2000/svg" xmlns:xlink="http://www.w3.org/1999/xlink" viewBox="0 0 178 184"><defs><style>.cls-1{fill:none;}.cls-2{fill:#d4dee1;}.cls-3{clip-path:url(#clip-path);}.cls-4{fill:#94b7bd;}.cls-5{fill:#fff;}</style><clipPath id="clip-path"><rect class="cls-1" x="40.19" y="37.5" width="97.62" height="109"/></clipPath></defs><g id="Calque_2" data-name="Calque 2"><g id="Calque_1-2" data-name="Calque 1"><path id="bulle_fond" data-name="bulle fond" class="cls-2" d="M0,83.28C0,26.73,24.75,0,77.12,0H99c55.23,0,79,26.73,79,83.28v17.44C178,157.26,153.26,184,99,184H77.12C25.71,184,0,157.26,0,100.72Z"/><g id="Group_14" data-name="Group 14"><g id="Group_3" data-name="Group 3"><path id="Clip_2-2" data-name="Clip 2-2" class="cls-1" d="M40.19,37.5h97.62v109H40.19Z"/><g class="cls-3"><g id="Group_3-2" data-name="Group 3-2"><path id="Fill_1" data-name="Fill 1" class="cls-4" d="M97,37.5s3,23.66-21,39.63c-14.87,9.88-40.82,33-35,45.3L72.28,146.5s12.19-20.33,32.9-32.77c20.36-12.22,32.62-47.11,32.62-47.11Z"/></g></g></g><path id="Fill_4-2" data-name="Fill 4-2" class="cls-5" d="M102.17,110.09c-10.06,8.2-23.56,4-28.4-4.7S76,83.61,84.64,78.78a18,18,0,0,1,24.46,6.91c4.84,8.65.76,18.14-6.93,24.41"/><path id="Fill_6" data-name="Fill 6" class="cls-4" d="M95.09,106.38c-.17-.25.3-.84,1.18-1.75a22.16,22.16,0,0,0,3.17-3.86,7.71,7.71,0,0,0,1-2.83,3.61,3.61,0,0,0-.6-2.65,3.06,3.06,0,0,0-2.42-1.16,5.06,5.06,0,0,0-3,1.68c-.6.53-1.23,1.15-2,1.76a10,10,0,0,1-2.72,1.68,7.1,7.1,0,0,1-1.76.44A5.93,5.93,0,0,1,86,99.6,6.11,6.11,0,0,1,83,98a6,6,0,0,1-1.6-2.67,6.08,6.08,0,0,1-.08-2.78,8.73,8.73,0,0,1,2-4,12.64,12.64,0,0,1,2.57-2.27A16.1,16.1,0,0,1,88,85.08c1.24-.56,2-.71,2.15-.48s-.26.85-1.14,1.78a22.73,22.73,0,0,0-3.2,3.85A6.36,6.36,0,0,0,84.87,93a2.52,2.52,0,0,0,.9,2.24,2.26,2.26,0,0,0,1.07.48,1.7,1.7,0,0,0,.55,0A2.76,2.76,0,0,0,88,95.5a15.44,15.44,0,0,0,3.39-2.74,12.13,12.13,0,0,1,2.5-1.82,8,8,0,0,1,1.64-.66,6.85,6.85,0,0,1,1.85-.23,7,7,0,0,1,5.74,3.12,6.76,6.76,0,0,1,.8,5.42,9.52,9.52,0,0,1-2,3.85,13.5,13.5,0,0,1-4.7,3.5c-1.24.56-2,.68-2.17.44"/><path id="Fill_8" data-name="Fill 8" class="cls-4" d="M105.17,102.46c-.37.45-5.82-3.19-12.15-8.14S81.84,85,82.21,84.53,88,87.72,94.37,92.67s11.17,9.33,10.8,9.79"/><path id="Fill_10" data-name="Fill 10" class="cls-4" d="M103.17,105.45c-.38.48-5.38-2.93-11.16-7.6S81.84,89,82.21,88.54s5.38,2.93,11.16,7.6,10.17,8.84,9.8,9.31"/><path id="Fill_12" data-name="Fill 12" class="cls-5" d="M71.43,141.5h0L43.19,119.37l.06-.37c2.7-17,23.88-31.92,37.9-41.79h0c2.17-1.52,4.63-3.25,6.62-4.74,12.85-9.57,12.5-26.81,11.72-28.06l.84-.91,30.86,23.37-.08.39c-5,23.74-22.14,40.52-35.33,47.68-12.28,6.65-23.87,25.75-24,25.95l-.37.61ZM101,45.57h0a25.7,25.7,0,0,1,0,3.51c-.25,3.73-1.89,16.52-12.47,24.4-1.89,1.4-4.12,3-6.48,4.64l-.17.12h0c-13.72,9.67-34.45,24.27-37.31,40.6l26.54,20.79c2-3.21,12.55-19.54,24.09-25.8,12.86-7,29.64-23.33,34.62-46.44Z"/></g></g></g></svg>