<svg xmlns="http://www.w3.org/2000/svg" viewBox="0 0 178 184"><defs><style>.cls-1{fill:#d4dee1;}.cls-2{fill:#3f3f3f;}.cls-3{fill:#1c5a68;}.cls-4{fill:#263238;}.cls-5{fill:#455a64;}.cls-6{fill:#dde7e9;}.cls-7{fill:#94b7bd;}</style></defs><g id="Calque_2" data-name="Calque 2"><g id="Calque_1-2" data-name="Calque 1"><path id="bulle_fond" data-name="bulle fond" class="cls-1" d="M0,83.28C0,26.73,24.75,0,77.12,0H99c55.23,0,79,26.73,79,83.28v17.44C178,157.26,153.26,184,99,184H77.12C25.71,184,0,157.26,0,100.72Z"/><rect class="cls-2" x="28.61" y="48.14" width="118.13" height="84.37"/><rect class="cls-3" x="31.42" y="51.51" width="111.67" height="77.76"/><path class="cls-4" d="M143.09,129.27c0-.62,0-30.49-.08-77.76l.08.07-111.66,0h0l.09-.09v77.76l-.08-.09,111.67.09-111.67.08h-.08V51.42H143.19v.07C143.12,98.78,143.09,128.65,143.09,129.27Z"/><rect class="cls-2" x="24.77" y="132.5" width="128.47" height="3.36"/><path class="cls-5" d="M150.24,132.5c0,.06-22.78.1-50.84.1s-50.85,0-50.85-.1,22.78-.09,50.85-.09S150.24,132.46,150.24,132.5Z"/><path class="cls-5" d="M31.86,51.35a17,17,0,0,1-1.63-1.54,18.11,18.11,0,0,1-1.57-1.59,10.67,10.67,0,0,1,1.7,1.46A10.84,10.84,0,0,1,31.86,51.35Z"/><path class="cls-5" d="M146.75,48.3A17,17,0,0,1,145,50.08a17.22,17.22,0,0,1-1.85,1.67A14.64,14.64,0,0,1,144.9,50,15.25,15.25,0,0,1,146.75,48.3Z"/><path class="cls-5" d="M147.17,132.4a21.2,21.2,0,0,1-3.79-3.16,22,22,0,0,1,1.92,1.55A22,22,0,0,1,147.17,132.4Z"/><path class="cls-6" d="M122.7,93.48V91.61c0-1.22,0-3,0-5.25,0-4.51,0-10.94,0-18.65l.1.11H97l.12-.12V93.46l-.1-.1,18.64,0,5.25,0h0l-5.23,0L97,93.52h-.1v-26h26v.1c0,7.74,0,14.19,0,18.71,0,2.24,0,4,0,5.22v1.72A.53.53,0,0,1,122.7,93.48Z"/><path class="cls-6" d="M122.7,93.48l.19-.14.59-.38,2.29-1.44,8.38-5.22,0,.08c0-6.72,0-15.63,0-25.37l.12.12h-.07l-25.37,0h0L100.16,66,97.81,67.3l-.62.34-.21.1.2-.13.61-.36,2.35-1.36,8.6-4.94h.05l25.37,0h.19V61c0,9.75,0,18.65,0,25.37v0l0,0-8.46,5.16-2.3,1.41-.61.36Z"/><path class="cls-6" d="M134.2,61c0,.06-2.51,1.61-5.69,3.46s-5.78,3.29-5.81,3.25,2.51-1.6,5.69-3.46S134.17,61,134.2,61Z"/><path class="cls-6" d="M98.16,92.42c0,.06-.22.26-.55.47s-.64.3-.68.24.22-.26.55-.47S98.12,92.36,98.16,92.42Z"/><path class="cls-6" d="M100.6,91c0,.06-.21.26-.55.47s-.64.3-.67.24.21-.26.55-.47S100.57,91,100.6,91Z"/><path class="cls-6" d="M103.05,89.61c0,.06-.22.27-.55.47s-.64.31-.68.25.22-.26.55-.47S103,89.55,103.05,89.61Z"/><path class="cls-6" d="M105.49,88.21c0,.06-.21.26-.55.47s-.64.31-.67.25.21-.26.55-.47S105.46,88.15,105.49,88.21Z"/><path class="cls-6" d="M108,86.81c0,.06-.21.26-.55.47s-.64.3-.67.24.21-.26.55-.47S107.9,86.75,108,86.81Z"/><path class="cls-6" d="M108.56,84.34c.06,0,.11.31.11.7s-.06.71-.13.71-.12-.32-.11-.71S108.49,84.34,108.56,84.34Z"/><path class="cls-6" d="M108.57,81.52c.08,0,.13.32.12.71s0,.7-.12.7-.12-.32-.12-.7S108.51,81.52,108.57,81.52Z"/><path class="cls-6" d="M108.6,78.7c.07,0,.12.32.12.71s-.07.7-.13.7-.12-.32-.12-.7S108.53,78.7,108.6,78.7Z"/><path class="cls-6" d="M108.62,75.88c.07,0,.12.32.12.71s-.06.7-.13.7-.12-.32-.12-.7S108.56,75.88,108.62,75.88Z"/><path class="cls-6" d="M108.65,73.07c.06,0,.11.31.11.7s-.06.7-.13.7-.12-.31-.12-.7S108.57,73.07,108.65,73.07Z"/><path class="cls-6" d="M108.66,70.25c.07,0,.13.31.12.7s-.06.71-.13.71-.12-.32-.11-.71S108.6,70.25,108.66,70.25Z"/><path class="cls-6" d="M108.69,67.43c.06,0,.12.31.11.7s-.06.71-.12.71-.12-.32-.12-.71S108.62,67.43,108.69,67.43Z"/><path class="cls-6" d="M108.71,64.61c.07,0,.12.31.12.7s-.06.71-.13.71-.12-.32-.12-.71S108.64,64.61,108.71,64.61Z"/><path class="cls-6" d="M108.73,61.79c.07,0,.12.32.12.71s-.06.7-.13.7-.12-.31-.12-.7S108.66,61.79,108.73,61.79Z"/><path class="cls-6" d="M132.79,86.38c0-.07.32-.12.71-.12s.7,0,.7.12-.31.12-.7.12S132.79,86.44,132.79,86.38Z"/><path class="cls-6" d="M130,86.38c0-.07.31-.12.7-.12s.71,0,.71.12-.32.12-.71.12S130,86.44,130,86.38Z"/><path class="cls-6" d="M127.16,86.38c0-.07.31-.12.7-.12s.71,0,.71.12-.32.12-.71.12S127.16,86.44,127.16,86.38Z"/><path class="cls-6" d="M124.34,86.38c0-.07.31-.12.7-.12s.71,0,.71.12-.32.12-.71.12S124.34,86.44,124.34,86.38Z"/><path class="cls-6" d="M121.52,86.38c0-.07.32-.12.71-.12s.7,0,.7.12-.31.12-.7.12S121.52,86.44,121.52,86.38Z"/><path class="cls-6" d="M118.7,86.38c0-.07.32-.12.71-.12s.7,0,.7.12-.31.12-.7.12S118.7,86.44,118.7,86.38Z"/><path class="cls-6" d="M115.88,86.38c0-.07.32-.12.71-.12s.7,0,.7.12-.31.12-.7.12S115.88,86.44,115.88,86.38Z"/><path class="cls-6" d="M113.07,86.38c0-.07.31-.12.7-.12s.7,0,.7.12-.31.12-.7.12S113.07,86.44,113.07,86.38Z"/><path class="cls-6" d="M110.25,86.38c0-.07.31-.12.7-.12s.71,0,.71.12-.32.12-.71.12S110.25,86.44,110.25,86.38Z"/><path class="cls-6" d="M108.54,86.38a.15.15,0,0,1,.12-.19.16.16,0,0,1,.18.12.15.15,0,0,1-.12.19h0A.14.14,0,0,1,108.54,86.38Z"/><path class="cls-6" d="M137.32,77.8a3.54,3.54,0,0,0,.65,0,2,2,0,0,0,1.33-1,2.71,2.71,0,0,0-.07-2.45.77.77,0,0,0-.51-.4.84.84,0,0,0-.65.17,3.11,3.11,0,0,0-.82,1.37,6.15,6.15,0,0,0-.37,1.74h-.24c0-1.87,0-3.49,0-4.66V71.17a2.56,2.56,0,0,1,0-.47,2.5,2.5,0,0,1,.05.47c0,.37,0,.82.06,1.37,0,1.16.08,2.79.12,4.65h-.24a6.56,6.56,0,0,1,.38-1.81,5.7,5.7,0,0,1,.35-.8,2.12,2.12,0,0,1,.55-.68,1.12,1.12,0,0,1,.85-.21,1,1,0,0,1,.65.52,2.82,2.82,0,0,1,0,2.65,1.95,1.95,0,0,1-2,1A1.11,1.11,0,0,1,137.32,77.8Z"/><path class="cls-6" d="M124.83,58.06s0,0-.06.09a.79.79,0,0,1-.25.19,1,1,0,0,1-.49.11,1,1,0,0,1-.63-.27,1.9,1.9,0,0,1-.43-.72c-.11-.29-.21-.6-.3-.9a10.49,10.49,0,0,1-.36-2.22h.23a8.31,8.31,0,0,1-.08,2.94,2.77,2.77,0,0,1-.91,1.5,1.14,1.14,0,0,1-.86.18,1,1,0,0,1-.67-.51,2.88,2.88,0,0,1,1.39-3.92,2.6,2.6,0,0,1,.47-.16c.11,0,.17,0,.17,0s-.23.07-.6.27A2.8,2.8,0,0,0,119.92,57a2.42,2.42,0,0,0,.29,1.32.8.8,0,0,0,.53.4.89.89,0,0,0,.67-.16,2.47,2.47,0,0,0,.82-1.36,8.33,8.33,0,0,0,.08-2.86h.24a10,10,0,0,0,.31,2.18,8.78,8.78,0,0,0,.27.9,1.94,1.94,0,0,0,.36.68,1,1,0,0,0,1,.19A1.7,1.7,0,0,0,124.83,58.06Z"/><path class="cls-6" d="M76.85,80.07a.41.41,0,0,0,0,.13l0,.36q0,.51.12,1.41c.1,1.24.24,3,.25,5.2a29.47,29.47,0,0,1-.88,7.65,19.29,19.29,0,0,1-1.65,4.25,16.59,16.59,0,0,1-3,3.91c-1.17,1.19-2.4,2.28-3.42,3.47A14.11,14.11,0,0,0,66,110.28a22.09,22.09,0,0,0-1.53,7.49c-.09,2.19,0,4,.06,5.19,0,.6,0,1.07.07,1.41v.49a.24.24,0,0,1,0-.12,3.15,3.15,0,0,0,0-.37c0-.33-.06-.81-.11-1.41-.07-1.24-.19-3-.12-5.2a22,22,0,0,1,1.49-7.55,14.33,14.33,0,0,1,2.38-3.9c1-1.21,2.26-2.3,3.43-3.48A16.63,16.63,0,0,0,74.57,99a19.23,19.23,0,0,0,1.66-4.2,30.07,30.07,0,0,0,.91-7.61c0-2.19-.11-4-.17-5.19,0-.6-.07-1.08-.09-1.41v-.37Z"/><path class="cls-6" d="M72.22,87.13A7.43,7.43,0,0,1,71.71,86c-.29-.69-.68-1.65-1.1-2.73l-.07-.16h.2a11,11,0,0,0-1,2.58c-.19.69-.25,1.13-.29,1.13a4.34,4.34,0,0,1,.16-1.13,9.75,9.75,0,0,1,1-2.65l.11-.2.08.21a.87.87,0,0,1,.07.17c.41,1.07.79,2,1,2.75A5.77,5.77,0,0,1,72.22,87.13Z"/><path class="cls-6" d="M70.12,126.3c-.06,0,.06-9.68.27-21.61s.42-21.61.49-21.61-.06,9.68-.27,21.62S70.18,126.3,70.12,126.3Z"/><path class="cls-6" d="M79.32,103.92c0,.06-3.38.11-7.55.11s-7.57,0-7.57-.11,3.38-.11,7.56-.11S79.32,103.88,79.32,103.92Z"/><path class="cls-6" d="M77.64,105.59a9.07,9.07,0,0,1,1.13-.55c.71-.31,1.69-.74,2.79-1.2v.21l-.13,0c-1.16-.38-2.2-.74-3-1a8.34,8.34,0,0,1-1.2-.48,7.55,7.55,0,0,1,1.24.33c.76.24,1.82.57,3,1l.13,0,.27.09-.27.11c-1.1.46-2.09.86-2.81,1.14A6.25,6.25,0,0,1,77.64,105.59Z"/><path class="cls-6" d="M79.36,100.94a.63.63,0,0,1-.1.15l-.25.29.18-.35c.14-.26.51-.82,1-1.49A9,9,0,0,1,81.35,98a9.06,9.06,0,0,1-1,1.65c-.45.65-.86,1.19-1.06,1.42L79.2,101C79.29,101,79.35,100.93,79.36,100.94Z"/><path class="cls-6" d="M82,100.65a8.13,8.13,0,0,1-1.36-1.26A8.45,8.45,0,0,1,79.39,98a7.37,7.37,0,0,1,1.36,1.26A8.52,8.52,0,0,1,82,100.65Z"/><path class="cls-6" d="M68.2,100.06a.4.4,0,0,1,.33,0,.81.81,0,0,1,.59.65,2.51,2.51,0,0,1-.23,1.3,1.59,1.59,0,0,1-.48.64.93.93,0,0,1-1.32-.1,1,1,0,0,1-.18-.31,1.46,1.46,0,0,1-.07-.8,2,2,0,0,1,.62-1.16,1,1,0,0,1,.86-.24.49.49,0,0,1,.29.15,1.6,1.6,0,0,0-.3-.06,1,1,0,0,0-.75.26,1.84,1.84,0,0,0-.52,1.08,1.25,1.25,0,0,0,.07.69.8.8,0,0,0,.5.47.78.78,0,0,0,.67-.15,1.5,1.5,0,0,0,.42-.55,2.37,2.37,0,0,0,.26-1.2.74.74,0,0,0-.46-.6A1.53,1.53,0,0,0,68.2,100.06Z"/><path class="cls-6" d="M66.11,86s-.36-.32-.7-.79a2.57,2.57,0,0,1-.53-.92s.36.32.7.79A2.57,2.57,0,0,1,66.11,86Z"/><path class="cls-6" d="M65.21,88.22A12.25,12.25,0,0,1,65.93,86a12.09,12.09,0,0,1,.92-2.16,12.35,12.35,0,0,1-.72,2.23A13.12,13.12,0,0,1,65.21,88.22Z"/><path class="cls-6" d="M112,108.76a17.22,17.22,0,0,1-3-3.37A17.58,17.58,0,0,1,112,108.76Z"/><path class="cls-6" d="M111.34,113.48a6,6,0,0,1,.27-1.32c.21-.81.54-1.91,1-3.1s.87-2.28,1.21-3a5.43,5.43,0,0,1,.63-1.19,7,7,0,0,1-.43,1.27c-.3.78-.71,1.85-1.14,3s-.78,2.28-1,3.07A6.58,6.58,0,0,1,111.34,113.48Z"/><path class="cls-6" d="M122,107.28a18.25,18.25,0,0,1-4.67,0A18.25,18.25,0,0,1,122,107.28Z"/><path class="cls-6" d="M122.51,111.1a24.37,24.37,0,0,1-5.4,0A25.65,25.65,0,0,1,122.51,111.1Z"/><path class="cls-6" d="M129.82,112.89a38.15,38.15,0,0,1-4.42-5.08,19.9,19.9,0,0,1,2.32,2.45A20.52,20.52,0,0,1,129.82,112.89Z"/><path class="cls-6" d="M129.5,107.09a6.6,6.6,0,0,1-.63,1.17L127.25,111l-1.62,2.75a6.36,6.36,0,0,1-.72,1.13,5.46,5.46,0,0,1,.54-1.21c.37-.73.91-1.71,1.54-2.8s1.25-2,1.71-2.71A5.24,5.24,0,0,1,129.5,107.09Z"/><path class="cls-6" d="M133.9,105.52a33.25,33.25,0,0,0-3.45-.11h-.25l.14-.21c.49-.79,1.06-1.67,1.65-2.61.46-.76,1.1-1.47.92-2.19a.79.79,0,0,0-.64-.64,1.39,1.39,0,0,0-.87.13,2.68,2.68,0,0,0-.92,1,2,2,0,0,1-.3.42,1.66,1.66,0,0,1,.19-.48,2.68,2.68,0,0,1,.94-1.09,1.48,1.48,0,0,1,1-.19,1,1,0,0,1,.86.82,1.81,1.81,0,0,1-.24,1.28c-.21.38-.46.74-.7,1.13l-1.71,2.6-.11-.2a14.15,14.15,0,0,1,2.52.14A3.45,3.45,0,0,1,133.9,105.52Z"/><path class="cls-6" d="M57.85,56.08l.24.07c.15.06.39.12.68.24a14.14,14.14,0,0,1,2.47,1.29,13.76,13.76,0,0,1,3.25,3A12,12,0,0,1,66.91,66a11.78,11.78,0,0,1-.88,7,10.91,10.91,0,0,1-2.26,3.25,10.65,10.65,0,0,1-1.61,1.3c-.31.17-.61.36-.93.52a8.62,8.62,0,0,1-1,.44,19.24,19.24,0,0,1-8.89.83c-1.55-.15-3.1-.38-4.71-.63a28.7,28.7,0,0,1-4.77-1.1,12.11,12.11,0,0,1-4.27-2.4,9.51,9.51,0,0,1-1.56-1.85,9.76,9.76,0,0,1-1-2.15,11.4,11.4,0,0,1-.45-4.57,12.26,12.26,0,0,1,1.26-4.22,14.06,14.06,0,0,1,5.75-5.66,19.23,19.23,0,0,1,6.72-2.14,26.52,26.52,0,0,1,5.84,0,37.93,37.93,0,0,1,4.35.72c1.18.26,2.09.5,2.7.67l.7.21.23.07a.91.91,0,0,1-.24,0l-.7-.18c-.62-.16-1.53-.39-2.71-.64a39.54,39.54,0,0,0-4.34-.67,26.16,26.16,0,0,0-5.8.07,19,19,0,0,0-6.66,2.15,14,14,0,0,0-5.65,5.59,12,12,0,0,0-1.22,4.14A11.13,11.13,0,0,0,35.28,71a9.53,9.53,0,0,0,1,2.1,9.36,9.36,0,0,0,1.52,1.8A11.89,11.89,0,0,0,42,77.29a28.17,28.17,0,0,0,4.71,1.07c1.58.25,3.15.48,4.7.63a19.17,19.17,0,0,0,8.79-.8,10.32,10.32,0,0,0,5.68-5.39A11.63,11.63,0,0,0,66.76,66a12.09,12.09,0,0,0-2.37-5.23,13.86,13.86,0,0,0-3.18-3,15.17,15.17,0,0,0-2.44-1.33l-.68-.26Z"/><path class="cls-6" d="M42.41,71a2,2,0,0,1-.48.06c-.3,0-.75.05-1.29.07H40.2a1.6,1.6,0,0,1-.49,0,.41.41,0,0,1-.25-.19,1,1,0,0,1-.08-.28l0-.53c0-.73-.09-1.52-.14-2.34s-.1-1.62-.1-2.35a2.21,2.21,0,0,1,.24-1,1.49,1.49,0,0,1,.71-.6,2.78,2.78,0,0,1,1.31-.14,1.44,1.44,0,0,1,.46.08,3.68,3.68,0,0,1-.47,0,3,3,0,0,0-1.23.2,1.36,1.36,0,0,0-.61.55,2.08,2.08,0,0,0-.2.95c0,.7.09,1.5.12,2.33s.09,1.61.12,2.34c0,.34,0,.77.2.83a1.71,1.71,0,0,0,.45,0h1.73A2.59,2.59,0,0,1,42.41,71Z"/><path class="cls-6" d="M41.75,67.25a3.27,3.27,0,0,1-1.2.14,3.08,3.08,0,0,1-1.21-.09,3.27,3.27,0,0,1,1.2-.14A3.08,3.08,0,0,1,41.75,67.25Z"/><path class="cls-6" d="M47.78,66.18a11.22,11.22,0,0,1-1.83.09,11.29,11.29,0,0,1-1.84,0A5.66,5.66,0,0,1,45.94,66,5.42,5.42,0,0,1,47.78,66.18Z"/><path class="cls-6" d="M48.12,69a6.19,6.19,0,0,1-1.82.12,6.12,6.12,0,0,1-1.8-.21,9.12,9.12,0,0,1,1.81,0A9.12,9.12,0,0,1,48.12,69Z"/><path class="cls-6" d="M57.85,70.61V69.9A6.79,6.79,0,0,0,57.5,68a2,2,0,0,0-.67-1.1.58.58,0,0,0-.63,0,1.53,1.53,0,0,0-.48.59,8.2,8.2,0,0,0-.59,3.6h-.22a15.64,15.64,0,0,0,0-2.65,9.51,9.51,0,0,0-.16-1.07,1.34,1.34,0,0,0-.48-.84.74.74,0,0,0-.85,0,1.26,1.26,0,0,0-.53.73,4.79,4.79,0,0,0-.16.92c0,.31-.07.61-.08.88a15.32,15.32,0,0,0,0,1.66h-.18c0-1.31-.08-2.37-.11-3.15v-.86a.76.76,0,0,1,0-.3c0,.1,0,.2,0,.3s0,.51.06.85c0,.78.12,1.85.2,3.15h-.18a15.69,15.69,0,0,1,0-1.68c0-.29,0-.6.07-.91a4.5,4.5,0,0,1,.17-1,1.52,1.52,0,0,1,.61-.86,1.1,1.1,0,0,1,.55-.16,1.07,1.07,0,0,1,.55.19,1.57,1.57,0,0,1,.57,1,10.07,10.07,0,0,1,.17,1.1,15.22,15.22,0,0,1,0,2.7h-.22a8,8,0,0,1,.64-3.68,1.67,1.67,0,0,1,.55-.66.76.76,0,0,1,.82,0,2.05,2.05,0,0,1,.72,1.2,6.77,6.77,0,0,1,.29,2,4.71,4.71,0,0,1,0,.53A.52.52,0,0,1,57.85,70.61Z"/><path class="cls-6" d="M62.94,70.24a.76.76,0,0,1-.27.2,2.29,2.29,0,0,1-.89.22,2.49,2.49,0,0,1-1.33-.36,2.29,2.29,0,0,1,.28-4,2.24,2.24,0,0,1,.88-.22.78.78,0,0,1,.34,0,3.38,3.38,0,0,0-1.17.31,2.33,2.33,0,0,0-.9.89,2.19,2.19,0,0,0,.67,2.78,2.28,2.28,0,0,0,1.22.38A3.15,3.15,0,0,0,62.94,70.24Z"/><path class="cls-6" d="M64.31,63.68a11.91,11.91,0,0,0-2.58.44l-.39.13.29-.3a7.92,7.92,0,0,0,1.44-1.77,2.65,2.65,0,0,0,.3-1.77c-.06-.26-.22-.48-.44-.49a1.47,1.47,0,0,0-.65.18,2.49,2.49,0,0,0-.8.64c-.16.19-.22.32-.24.31a.84.84,0,0,1,.17-.36,2.08,2.08,0,0,1,.8-.73,1.46,1.46,0,0,1,.73-.23.65.65,0,0,1,.45.2,1,1,0,0,1,.21.45,2.74,2.74,0,0,1-.3,1.94,7.37,7.37,0,0,1-1.5,1.79l-.1-.17a7.7,7.7,0,0,1,1.9-.31A2.41,2.41,0,0,1,64.31,63.68Z"/><path class="cls-6" d="M132.53,117.11c0,.08-4.4.6-9.86,1.14s-9.91,1-9.91.88,4.41-.6,9.87-1.14S132.53,117,132.53,117.11Z"/><path class="cls-6" d="M133.63,119.57c0,.08-4.13.62-9.24,1.2s-9.27,1-9.28.91,4.13-.62,9.24-1.2S133.62,119.52,133.63,119.57Z"/><rect class="cls-6" x="74.66" y="131.24" width="12.25" height="1.33"/><path class="cls-7" d="M91.71,117.07v15.49h26.63Zm4.08,6.23,11.07,6.56H95.79Z"/><path class="cls-4" d="M94.27,118.56a3.21,3.21,0,0,1-.48.94,3,3,0,0,1-.64.85,6.37,6.37,0,0,1,1.12-1.78Z"/><path class="cls-4" d="M98.22,120.83a3.23,3.23,0,0,1-.48.92,3,3,0,0,1-.63.83A5.92,5.92,0,0,1,98.22,120.83Z"/><path class="cls-4" d="M102.17,123.1a5.83,5.83,0,0,1-1.28,1.62,3.08,3.08,0,0,1,.56-.87C101.81,123.39,102.13,123.07,102.17,123.1Z"/><path class="cls-4" d="M106.05,125.46a3,3,0,0,1-.57.87,2.82,2.82,0,0,1-.71.75,2.72,2.72,0,0,1,.56-.86C105.69,125.77,106,125.43,106.05,125.46Z"/><path class="cls-4" d="M110.1,127.79a3.35,3.35,0,0,1-.52.92,3.13,3.13,0,0,1-.67.82,2.8,2.8,0,0,1,.52-.92A2.94,2.94,0,0,1,110.1,127.79Z"/><path class="cls-4" d="M114.32,130.23a3.1,3.1,0,0,1-.47.88,2.77,2.77,0,0,1-.62.78,2.48,2.48,0,0,1,.46-.88A2.64,2.64,0,0,1,114.32,130.23Z"/><path class="cls-4" d="M95.5,119.27s0,.25-.2.5-.31.42-.36.4,0-.25.2-.5S95.46,119.25,95.5,119.27Z"/><path class="cls-4" d="M96.79,120s0,.25-.2.5-.31.43-.35.4.05-.25.2-.5S96.75,120,96.79,120Z"/><path class="cls-4" d="M99.67,121.69s0,.25-.2.49-.31.43-.35.4,0-.25.2-.49S99.63,121.66,99.67,121.69Z"/><path class="cls-4" d="M101,122.41s0,.25-.2.5-.31.42-.36.39,0-.24.2-.49S100.93,122.38,101,122.41Z"/><path class="cls-4" d="M103.57,124c.05,0,0,.25-.2.5s-.31.43-.35.4,0-.25.19-.5S103.53,124,103.57,124Z"/><path class="cls-4" d="M104.81,124.75s0,.25-.2.49-.31.43-.36.4,0-.25.2-.5S104.76,124.72,104.81,124.75Z"/><path class="cls-4" d="M107.47,126.28s0,.25-.19.5-.32.43-.36.4,0-.25.2-.5S107.43,126.26,107.47,126.28Z"/><path class="cls-4" d="M108.91,127.13s0,.25-.2.5-.32.42-.36.39.05-.25.2-.49S108.86,127.1,108.91,127.13Z"/><path class="cls-4" d="M111.48,128.64s0,.25-.2.49-.31.43-.36.4,0-.25.2-.5S111.44,128.61,111.48,128.64Z"/><path class="cls-4" d="M113,129.49s0,.25-.2.5-.32.42-.36.39,0-.25.2-.49S112.92,129.46,113,129.49Z"/></g></g></svg>