<svg xmlns="http://www.w3.org/2000/svg" viewBox="0 0 178 184"><defs><style>.cls-1{fill:#d4dee1;}.cls-2{fill:#1c5a68;}.cls-3{fill:#94b7bd;}.cls-4{fill:#dde7e9;}</style></defs><g id="Calque_2" data-name="Calque 2"><g id="Calque_1-2" data-name="Calque 1"><path id="bulle_fond" data-name="bulle fond" class="cls-1" d="M0,83.28C0,26.73,24.75,0,77.12,0H99c55.23,0,79,26.73,79,83.28v17.44C178,157.26,153.26,184,99,184H77.12C25.71,184,0,157.26,0,100.72Z"/><g id="freepik--speech-bubble--inject-4"><path class="cls-2" d="M130.36,97.81a42.23,42.23,0,1,0-70,23.43c-2.11,4.63-6,11.38-11.13,13.43,0,0,12,6,22.56-6a42.24,42.24,0,0,0,53.78-17.86c14.27,4.94,21.82-5.49,21.82-5.49C141.42,106,134.26,101,130.36,97.81Z"/><path class="cls-3" d="M96.32,90.31l1.59-4.63a.62.62,0,0,0-.33-.74l-4-1.86a1,1,0,0,1-.47-.86A15.4,15.4,0,0,0,93,79.68a1,1,0,0,1,.24-.92l4-2.45c.2-.13.22-.53,0-.91l-2-4c-.18-.37-.51-.6-.74-.52l-4.36,1.56a1,1,0,0,1-.88-.37,13.28,13.28,0,0,0-1.91-1.68,1,1,0,0,1-.38-.9l1-4.27a.62.62,0,0,0-.38-.72l-4.62-1.59a.59.59,0,0,0-.72.28l-1.91,4.07a.78.78,0,0,1-.69.42,13.76,13.76,0,0,0-2.94.19,1,1,0,0,1-.83-.55l-2.14-3.4c-.22-.35-.57-.54-.79-.44l-4.57,2.23c-.21.11-.27.5-.13.89l1.36,3.79a1,1,0,0,1-.09,1,15,15,0,0,0-2,2.21.79.79,0,0,1-.76.27l-4.38-1a.58.58,0,0,0-.66.39l-1.6,4.62a.63.63,0,0,0,.34.74l4,1.87a1,1,0,0,1,.47.86,13.49,13.49,0,0,0,.15,2.54,1,1,0,0,1-.24.91l-3.92,2.48c-.21.13-.22.53,0,.9l2,4c.18.38.51.61.74.53l4.36-1.57a1,1,0,0,1,.87.37,13.35,13.35,0,0,0,1.91,1.69,1,1,0,0,1,.39.9l-1,4.27a.62.62,0,0,0,.38.72l4.62,1.59a.58.58,0,0,0,.71-.28l1.93-4.09a.77.77,0,0,1,.69-.42,13.71,13.71,0,0,0,2.93-.19,1,1,0,0,1,.83.54l2.15,3.41c.22.34.57.54.78.43l4.57-2.23c.22-.1.28-.5.14-.88l-1.36-3.79a1,1,0,0,1,.08-1,14.4,14.4,0,0,0,2-2.2.81.81,0,0,1,.76-.28l4.38,1A.59.59,0,0,0,96.32,90.31Zm-20.38.44A9.5,9.5,0,1,1,88,84.86a9.51,9.51,0,0,1-12.08,5.89Zm1-2.79a6.55,6.55,0,1,1,8.32-4.07h0A6.56,6.56,0,0,1,76.94,88l0,0Z"/><path class="cls-4" d="M112.58,114l2.43-2.61a.44.44,0,0,0,0-.59l-2.09-2.42a.68.68,0,0,1-.06-.71,10.7,10.7,0,0,0,.65-1.74c.07-.27.26-.52.43-.54l3.35-.49c.18,0,.31-.29.3-.59l-.12-3.25c0-.3-.16-.56-.33-.57l-3.38-.2c-.17,0-.38-.24-.47-.5a10.76,10.76,0,0,0-.78-1.69.7.7,0,0,1,0-.71l1.91-2.57a.44.44,0,0,0,0-.59l-2.61-2.43a.43.43,0,0,0-.56,0L108.77,94a.6.6,0,0,1-.59.08,10.26,10.26,0,0,0-2-.75c-.18,0-.35-.31-.39-.6l-.43-2.91c0-.3-.22-.53-.39-.52l-3.71,0c-.18,0-.33.25-.36.55l-.21,2.93a.73.73,0,0,1-.35.63,10.72,10.72,0,0,0-2,.89.57.57,0,0,1-.59,0l-2.63-2a.43.43,0,0,0-.56.07L92.18,95a.44.44,0,0,0,0,.59L94.26,98a.7.7,0,0,1,.06.71,10.7,10.7,0,0,0-.65,1.74c-.07.27-.26.52-.43.54l-3.35.49c-.18,0-.31.29-.3.59l.12,3.25c0,.3.16.56.34.57l3.37.25c.18,0,.38.24.47.5a10.36,10.36,0,0,0,.78,1.69.71.71,0,0,1,0,.72l-1.91,2.56a.44.44,0,0,0,0,.59l2.61,2.43a.43.43,0,0,0,.56,0l2.48-2.15a.6.6,0,0,1,.59-.08,10.26,10.26,0,0,0,2,.75c.18,0,.35.31.39.6l.43,2.91c0,.3.22.53.39.52l3.71-.13c.18,0,.33-.25.36-.55l.21-2.93a.7.7,0,0,1,.35-.63,10.18,10.18,0,0,0,2-.89.57.57,0,0,1,.59,0l2.63,2A.42.42,0,0,0,112.58,114Zm-13.73-5.71a6.93,6.93,0,1,1,9.8-.35A6.92,6.92,0,0,1,98.85,108.31Zm1.77-1.9a4.34,4.34,0,1,1,6.13-.22h0a4.34,4.34,0,0,1-6.13.19Z"/></g></g></g></svg>