<svg xmlns="http://www.w3.org/2000/svg" viewBox="0 0 178 184"><defs><style>.cls-1{fill:#d4dee1;}.cls-2{fill:#94b7bd;}.cls-3{fill:#f5f5f6;}.cls-4{fill:#1c5a68;}.cls-5{fill:#263238;}</style></defs><g id="Calque_2" data-name="Calque 2"><g id="Calque_1-2" data-name="Calque 1"><path id="bulle_fond" data-name="bulle fond" class="cls-1" d="M0,83.28C0,26.73,24.75,0,77.12,0H99c55.23,0,79,26.73,79,83.28v17.44C178,157.26,153.26,184,99,184H77.12C25.71,184,0,157.26,0,100.72Z"/><path class="cls-2" d="M98.57,80.19a5.56,5.56,0,0,0,.62,7.14,10.31,10.31,0,0,0,7.14,2.73c2.61.09,5.2-.38,7.82-.54a30.78,30.78,0,0,1,31.39,38.86l-8.22-8.16-3.87,9.22a30.17,30.17,0,0,0-4-21.62,21.91,21.91,0,0,0-19-10.07,81.33,81.33,0,0,0-9.42,1.75,14.79,14.79,0,0,1-9.37-.79,9,9,0,0,1-3.11-2.62A9.22,9.22,0,0,1,90.4,83.18"/><path class="cls-3" d="M115.3,44.84l-83.4,82c2,9.39,6.45,13.7,13.82,11.89l81-80.46C126.43,49.85,123.14,44.81,115.3,44.84Z"/><path class="cls-4" d="M125.81,53.1A11.71,11.71,0,0,0,123,47.78a10.58,10.58,0,0,0-7.68-2.73l.18-.09c-16.59,16.54-47.36,46.9-82.54,81.5l-.68.65.14-.47a20.2,20.2,0,0,0,4.19,9.3,8.07,8.07,0,0,0,4.19,2.42,11,11,0,0,0,4.84-.16l-.24.12c23-22.72,43.24-42.75,57.79-57.14l17.18-16.83c2-2,3.56-3.47,4.66-4.56l1.25-1.15a1.61,1.61,0,0,1,.44-.38,2.77,2.77,0,0,1-.36.4c-.29.33-.68.72-1.16,1.21-1,1.09-2.53,2.62-4.46,4.59-4,4-9.78,9.83-16.94,17L46.18,138.94l-.13.07-.13.06a12.22,12.22,0,0,1-5.28.22,9.24,9.24,0,0,1-4.7-2.7,20.82,20.82,0,0,1-4.46-9.8l-.12-.26.25-.12.68-.67c35.19-34.58,66.09-64.81,82.9-81.12l.09,0,.09,0a11,11,0,0,1,8,2.91,11.7,11.7,0,0,1,2.79,5.64,20.77,20.77,0,0,1,.54,3.84l0,1,0,.32A42.48,42.48,0,0,0,125.81,53.1Z"/><path class="cls-5" d="M35,125.94a10,10,0,0,1,1.81-.16,9.77,9.77,0,0,1,9.71,9.81c0,2.19-.61,3.4-.79,3.35s.23-1.3,0-3.32l0-.41a9.64,9.64,0,0,0-10.6-8.57c-2,.16-3.16.78-3.24.62A5.11,5.11,0,0,1,35,125.94Z"/><path class="cls-4" d="M36,130.34a9.56,9.56,0,0,0,1.84,3.35,5.66,5.66,0,0,0,3.7,2.3,1.74,1.74,0,0,0,1.6-1,1.88,1.88,0,0,0-.32-1.77,2.49,2.49,0,0,0-3-1,1.35,1.35,0,0,0-.68,1,1,1,0,0,0,.4.79,1.45,1.45,0,0,0,.84.35s-.4.37-1.08,0a1.47,1.47,0,0,1-.61-1.22,1.85,1.85,0,0,1,.86-1.57,3.21,3.21,0,0,1,4.16,1,2.79,2.79,0,0,1,.5,2.72A2.75,2.75,0,0,1,41.6,137a4.73,4.73,0,0,1-2.69-.91,9,9,0,0,1-1.79-1.76,9.75,9.75,0,0,1-1.87-3.77,5.76,5.76,0,0,1,.12-3.78C35.56,126.76,35.33,128.2,36,130.34Z"/><path class="cls-4" d="M119.45,46.6c-.55.65-1.27,1.48-2.15,2.5-1.87,2.16-4.65,5.25-8.1,9C102.29,65.7,92.58,76,81.77,87.3l-27.65,29c-3.44,3.64-6.28,6.61-8.35,8.78-.93,1-1.68,1.76-2.3,2.38a4.19,4.19,0,0,1-.85.78,5.67,5.67,0,0,1,.69-.92c.58-.65,1.28-1.49,2.18-2.5,1.87-2.16,4.65-5.24,8.09-9C60.49,108.18,70.2,97.87,81,86.58l27.65-28.95L117,48.82c.94-1,1.7-1.74,2.3-2.38a6.29,6.29,0,0,1,.85-.78A3.78,3.78,0,0,1,119.45,46.6Z"/><path class="cls-2" d="M91.83,92.46c-.36-12.41-11.36-12.64-11.36-12.64l-8.56,8.29C83.49,87.73,84.16,100,84.16,100Z"/></g></g></svg>