<svg xmlns="http://www.w3.org/2000/svg" viewBox="0 0 178 184"><defs><style>.cls-1{fill:#d4dee1;}.cls-2{fill:#94b7bd;}.cls-3{opacity:0.3;isolation:isolate;}.cls-4{fill:#fff;}.cls-5{fill:#3f3f3f;}.cls-6{fill:#1c5a68;}.cls-7{fill:#f5f5f6;}.cls-8{fill:#dde7e9;}</style></defs><g id="Calque_2" data-name="Calque 2"><g id="Calque_1-2" data-name="Calque 1"><path id="bulle_fond" data-name="bulle fond" class="cls-1" d="M0,83.28C0,26.73,24.75,0,77.12,0H99c55.23,0,79,26.73,79,83.28v17.44C178,157.26,153.26,184,99,184H77.12C25.71,184,0,157.26,0,100.72Z"/><g id="freepik--Folder--inject-690"><path class="cls-2" d="M31,59.47l2.81,47.85a3.22,3.22,0,0,0,3.21,3l86.14.27a3.24,3.24,0,0,0,3.24-3.22h0l.11-37.26a3.22,3.22,0,0,0-3.22-3.24h0l-53,.18A3.26,3.26,0,0,1,68,66.15l-9.18-9.1a3.28,3.28,0,0,0-2.26-.94l-22.33-.06A3.22,3.22,0,0,0,31,59.28Z"/><path class="cls-3" d="M31,59.47l2.81,47.85a3.22,3.22,0,0,0,3.21,3l86.14.27a3.24,3.24,0,0,0,3.24-3.22h0l.11-37.26a3.22,3.22,0,0,0-3.22-3.24h0l-53,.18A3.26,3.26,0,0,1,68,66.15l-9.18-9.1a3.28,3.28,0,0,0-2.26-.94l-22.33-.06A3.22,3.22,0,0,0,31,59.28Z"/><rect class="cls-4" x="37.63" y="49.29" width="46.74" height="37.37" transform="translate(-30.04 75.3) rotate(-52.7)"/><path class="cls-5" d="M60.29,38.06l-.13.18-.39.52c-.35.46-.87,1.14-1.53,2l-5.78,7.62L32,75.29l0-.12L61.76,97.8h0l-.15,0L90,60.65l0,.12L68.43,44.3l-6-4.6-1.59-1.22-.54-.42.54.39,1.59,1.2,6,4.56L90.07,60.63l.07,0,0,.07L61.78,98l-.06.08L61.63,98h0L31.92,75.31l-.07-.06,0-.07L52.43,48.3l5.81-7.58,1.53-2,.4-.51Z"/><rect class="cls-5" x="39.25" y="51.66" width="43.46" height="32.67" transform="translate(-30.06 75.3) rotate(-52.7)"/><polygon class="cls-6" points="60.8 95.58 53.85 71.21 69.65 71.43 68.11 62.24 87.14 61.02 60.8 95.58"/><circle class="cls-6" cx="57.92" cy="61.35" r="3.42"/><rect class="cls-4" x="72.01" y="32.45" width="52.01" height="65.06" transform="matrix(0.04, -1, 1, 0.04, 29.06, 160.24)"/><path class="cls-5" d="M131.58,40.32h-.31l-.91,0-3.53-.14-13.3-.52-47-1.88.1-.09c-.64,15.47-1.36,33.2-2.13,52h0l-.1-.1,65,2.68-.09.09c.66-15.67,1.21-28.65,1.59-37.71.2-4.54.35-8.11.46-10.53.05-1.21.09-2.14.12-2.78s.05-1,.05-1,0,.32,0,.94-.06,1.55-.1,2.76c-.1,2.42-.24,6-.4,10.51-.36,9.08-.88,22.08-1.51,37.76v.08h-.09l-65-2.64h-.1v-.1h0c.77-18.77,1.51-36.5,2.15-52v-.09h.09l47,2,13.28.57,3.5.15.9,0Z"/><rect class="cls-6" x="75.24" y="34.73" width="45.47" height="60.49" transform="translate(29.02 160.19) rotate(-87.64)"/><polygon class="cls-5" points="66.81 86.44 89.08 59.07 101.43 77.27 110.69 68.19 127.25 88.92 66.81 86.44"/><circle class="cls-5" cx="103.09" cy="56.18" r="4.76"/><polygon class="cls-7" points="134.72 62.66 46.67 74.78 56 139.27 143.33 126.97 134.72 62.66"/><polygon class="cls-8" points="135.06 54.62 48.03 72.65 61.69 136.37 147.99 118.2 135.06 54.62"/><polygon class="cls-4" points="127.38 47.47 43.53 76.97 65.57 138.29 148.68 108.75 127.38 47.47"/><path class="cls-5" d="M127.38,47.46l21.38,61.27,0,.08-.07,0L65.63,138.38l-.1,0,0-.1-.17-.45C57.49,116,50.05,95.34,43.47,77l0-.09.09,0L127.4,47.46,43.56,77.05l.06-.12L65.51,137.8l.16.45-.13-.06,83.11-29.52-.05.11C135.74,71.63,127.61,48.12,127.38,47.46Z"/><path class="cls-5" d="M129.74,106.28c-.16.06-4.19-10.4-9-23.35s-8.58-23.52-8.42-23.58,4.19,10.4,9,23.36S129.9,106.21,129.74,106.28Z"/><path class="cls-5" d="M122.58,109.55c-.16.06-4.19-10.4-9-23.35S105,62.68,105.17,62.63s4.19,10.39,9,23.35S122.74,109.49,122.58,109.55Z"/><path class="cls-5" d="M100.35,118.87c-.16.06-4.19-10.4-9-23.36S82.78,72,82.94,71.94s4.19,10.39,9,23.36S100.5,118.81,100.35,118.87Z"/><path class="cls-5" d="M107.43,116c-.16.06-4.19-10.4-9-23.35S89.86,69.14,90,69.08s4.19,10.4,9,23.36S107.6,116,107.43,116Z"/><path class="cls-5" d="M114.52,113.16c-.16.06-4.19-10.4-9-23.35S97,66.29,97.11,66.23s4.19,10.4,9,23.36S114.68,113.1,114.52,113.16Z"/><path class="cls-5" d="M92.14,121.23c-.16.06-4.19-10.4-9-23.36S74.57,74.36,74.73,74.3s4.19,10.39,9,23.36S92.3,121.17,92.14,121.23Z"/><path class="cls-5" d="M84.29,124.1c-.16.06-4.19-10.4-9-23.35S66.72,77.24,66.88,77.2s4.19,10.4,9,23.35S84.45,124.05,84.29,124.1Z"/><path class="cls-5" d="M76.44,127c-.16.06-4.19-10.39-9-23.35S58.87,80.11,59,80.06s4.19,10.39,9,23.35S76.59,126.92,76.44,127Z"/><path class="cls-2" d="M29.23,85.66l7,58.67a2.07,2.07,0,0,0,2,1.83l91.72.28a2.07,2.07,0,0,0,2.08-1.91l4.8-58.63A2.09,2.09,0,0,0,135,83.66h-.16L31.3,83.34a2.06,2.06,0,0,0-2.08,2.07A2,2,0,0,0,29.23,85.66Z"/></g><g id="freepik--character-1--inject-690"><path class="cls-5" d="M89.11,64.63a23.45,23.45,0,0,0,18.19,38.16,23.82,23.82,0,0,0,2.53-.13,23.23,23.23,0,0,0,9.78-3.35l20.67,24.28,2.94-2.51L122.71,97a23.41,23.41,0,0,0,7.91-20.14h0A23.43,23.43,0,0,0,89.09,64.65ZM87.88,81.44A19.56,19.56,0,1,1,109.41,98.8,19.41,19.41,0,0,1,87.88,81.44Z"/><path class="cls-6" d="M90.74,63a23.46,23.46,0,0,0,18.19,38.16,23.87,23.87,0,0,0,2.54-.14,23.36,23.36,0,0,0,9.78-3.34L142,122.12l3.14-2.51L124.36,95.36a23.41,23.41,0,0,0,7.91-20.14h0A23.43,23.43,0,0,0,90.74,63Zm3,2.46a19.57,19.57,0,1,1-4.22,14.36A19.56,19.56,0,0,1,93.75,65.43Z"/><path class="cls-5" d="M119.61,90.4a.87.87,0,0,0,.16-.17c.09-.12.24-.29.39-.52a17.88,17.88,0,0,0,1.31-2.06A19.35,19.35,0,0,0,122.79,72a17.6,17.6,0,0,0-.93-2.24,6.41,6.41,0,0,0-.32-.59.76.76,0,0,0-.12-.19,1,1,0,0,0,.09.21c.06.14.16.34.27.6a20.71,20.71,0,0,1,.88,2.26,19.93,19.93,0,0,1-1.32,15.5,20.74,20.74,0,0,1-1.24,2.08c-.16.24-.29.4-.37.55A.71.71,0,0,0,119.61,90.4Z"/></g></g></g></svg>