<svg xmlns="http://www.w3.org/2000/svg" viewBox="0 0 178 184"><defs><style>.cls-1{fill:#d4dee1;}.cls-2{fill:#263238;}.cls-3{opacity:0.3;}.cls-3,.cls-8,.cls-9{isolation:isolate;}.cls-4{fill:#94b7bd;}.cls-5{fill:#1c5a68;}.cls-6{fill:#dde7e9;}.cls-7{fill:#fff;}.cls-8{opacity:0.5;}.cls-9{opacity:0.7;}</style></defs><g id="Calque_2" data-name="Calque 2"><g id="Calque_1-2" data-name="Calque 1"><path id="bulle_fond" data-name="bulle fond" class="cls-1" d="M0,83.28C0,26.73,24.75,0,77.12,0H99c55.23,0,79,26.73,79,83.28v17.44C178,157.26,153.26,184,99,184H77.12C25.71,184,0,157.26,0,100.72Z"/><g id="freepik--Computer--inject-1--inject-554"><g id="freepik--Screen--inject-1--inject-554"><path class="cls-2" d="M91.68,125.12,81.62,119.3a2.65,2.65,0,0,1-1.55-2.16v-1.39l10.43-5.89a2.23,2.23,0,0,0,1-1.73V95.74l17.55,10.14v12.39a2.19,2.19,0,0,1-1,1.74l-8.87,5.11A8.32,8.32,0,0,1,91.68,125.12Z"/><path class="cls-3" d="M104.82,120.46v1.4L108,120a2.22,2.22,0,0,0,1-1.74V105.88L105.71,104c-.07.85-.14,1.73-.22,2.59l2.36,1.35v9.69a2.22,2.22,0,0,1-1,1.72Z"/><path class="cls-4" d="M107.87,117.58a2.23,2.23,0,0,1-1,1.73l-7.66,4.41a8.26,8.26,0,0,1-7.5,0l-10.09-5.81c-2.07-1.2-2.07-3.13,0-4.33l7.67-4.42a2.14,2.14,0,0,0,1-1.72V97.75l17.59,10.15Z"/><path class="cls-5" d="M87.24,110.34h0l2-1.18a2.14,2.14,0,0,0,1-1.72V97.75l17.59,10.15v9.68a2.23,2.23,0,0,1-1,1.73l-2,1.15Z"/><path class="cls-5" d="M80.07,115.75v1.39a2.68,2.68,0,0,0,1.55,2.17l10.06,5.81a7.5,7.5,0,0,0,3.62.9v-1.38a7.51,7.51,0,0,1-3.62-.91l-10.06-5.82A2.67,2.67,0,0,1,80.07,115.75Z"/><path class="cls-4" d="M63.18,33.55V87.44a2.81,2.81,0,0,0,1.25,2.17l68.7,39.59.12.05h0c.62.28,1.1-.06,1.1-.79v1.06a2.48,2.48,0,0,0,1.17-.27,2.71,2.71,0,0,0,1.17-2.12V73.25a2.71,2.71,0,0,0-1.25-2.16L66.82,31.5a2.37,2.37,0,0,0-3.58,1.9A1.16,1.16,0,0,0,63.18,33.55Z"/><path class="cls-5" d="M63.18,33.55V87.44a2.81,2.81,0,0,0,1.25,2.17l68.7,39.59.12.05h0c.62.28,1.1-.06,1.1-.79V74.61a2.77,2.77,0,0,0-1.25-2.17L64.42,32.85c-.63-.36-1.14-.13-1.23.5A1.27,1.27,0,0,0,63.18,33.55Z"/><path class="cls-2" d="M134.38,128.49v-3.66l2.35-1.36v3.67a2.71,2.71,0,0,1-1.17,2.12,2.52,2.52,0,0,1-1.18.27h-.56l-.22-.06h-.07l-.21-.09C133.9,129.56,134.38,129.23,134.38,128.49Z"/><path class="cls-4" d="M63.18,83.78v3.68a2.81,2.81,0,0,0,1.25,2.17l68.7,39.59.12.05h0c.62.27,1.1-.06,1.1-.8v-3.66Z"/><path class="cls-2" d="M134,73.39a2.42,2.42,0,0,1,.36,1.23v50.22l2.36-1.35V73.25a2.43,2.43,0,0,0-.37-1.23Z"/><path class="cls-6" d="M132,118.55V75.39a1.67,1.67,0,0,0-.75-1.31l-65-37.46a.47.47,0,0,0-.75.44V80.22a1.7,1.7,0,0,0,.75,1.31l65,37.45A.46.46,0,0,0,132,118.55Z"/><path class="cls-7" d="M87.19,71.11A28.69,28.69,0,0,0,90.58,84a23,23,0,0,0,8.2,9.25c3.1,1.78,6,1.86,8.15.21s3.4-4.85,3.4-9A28.42,28.42,0,0,0,107,71.55c0-.06-.06-.11-.09-.18L106.7,71a22.46,22.46,0,0,0-7.88-8.7c-3.09-1.81-6-1.85-8.15-.22h0l-.15.12C88.34,63.94,87.19,67.05,87.19,71.11Zm.24.3v-.32c0-4,1.24-6.94,3.18-8.49a1.1,1.1,0,0,1,.18-.14A6.31,6.31,0,0,1,97,61.82a8.56,8.56,0,0,1,1.28.56l.53.29.54.32c.44.28.87.59,1.28.91a24,24,0,0,1,5.93,7.32l.19.34a28.18,28.18,0,0,1,3.41,12.63v.32c-.06,7.42-4.18,11.22-9.53,9.27a11.26,11.26,0,0,1-1.28-.56l-.54-.29-.53-.32c-.44-.28-.87-.59-1.28-.91C91.58,87.46,87.5,78.9,87.43,71.41Z"/><path class="cls-7" d="M90.21,84.25a29.82,29.82,0,0,1-3.55-13.47c0-4.2,1.21-7.49,3.4-9.25h0l.15-.13h0c2.29-1.71,5.32-1.62,8.55.24A23.61,23.61,0,0,1,107,70.79l.19.34.09.18a29.76,29.76,0,0,1,3.55,13.48c0,4.32-1.26,7.64-3.55,9.37S102,95.82,98.76,94A23.61,23.61,0,0,1,90.21,84.25Zm8.06-21.18a8.75,8.75,0,0,0-1.21-.54,6,6,0,0,0-5.91.61l-.16.13c-1.93,1.55-3,4.43-3,8.1v.32c0,7.07,3.88,15.2,9.1,19.34h0c.39.32.8.63,1.22.91s.66.41,1,.59.81.37,1.22.53c5.22,1.89,9.06-1.81,9.06-8.84v-.31a26.5,26.5,0,0,0-3.26-12,3.24,3.24,0,0,0-.17-.32,22.86,22.86,0,0,0-5.66-7c-.41-.32-.82-.62-1.22-.91l-.51-.31Z"/><path class="cls-7" d="M90.24,61.9l.15-.12h0l.19-.13.24.35.17.32a29.49,29.49,0,0,0,2.12,3.31l.21.28a21.27,21.27,0,0,0,3.36,3.48l.24.19a16.84,16.84,0,0,0,1.64,1.11,12.68,12.68,0,0,0,2.12.89l.24.07a6.72,6.72,0,0,0,3.27.17h.2a5.67,5.67,0,0,0,2-.91l.17-.14.18-.14.2.35.18.35.19.35-.18.15L107,72h0a6.09,6.09,0,0,1-2.16,1l-.22.06a7.29,7.29,0,0,1-3.5-.21l-.24-.08a12.24,12.24,0,0,1-2.25-1,16.4,16.4,0,0,1-1.78-1.21l-.25-.2A22.63,22.63,0,0,1,93,66.62l-.23-.29a31.26,31.26,0,0,1-2.3-3.63c-.06-.1-.11-.22-.18-.34L90.05,62Z"/><path class="cls-7" d="M90.25,83.35l.18-.13a6,6,0,0,1,2.3-.91H93a7.6,7.6,0,0,1,3.63.45l.24.09a10.52,10.52,0,0,1,1.76.84,14.44,14.44,0,0,1,2.23,1.57l.26.21a22.72,22.72,0,0,1,3.5,3.83l.22.31a30.37,30.37,0,0,1,2.15,3.5h0l.16.31.19.36-.19.14-.19.13-.19.13-.19-.37-.17-.33a26.61,26.61,0,0,0-2-3.22l-.21-.28a20.89,20.89,0,0,0-3.28-3.62l-.22-.2a14.19,14.19,0,0,0-2.12-1.49,10.1,10.1,0,0,0-1.66-.79l-.22-.09a7.11,7.11,0,0,0-3.36-.39h-.21a5.44,5.44,0,0,0-2.12.85l-.17.13-.19.13-.19-.35h0l-.16-.3-.18-.38Z"/><path class="cls-7" d="M92.64,74.29a42.07,42.07,0,0,0,1.75,12.1c1.16,3.72,2.71,6.33,4.39,7.24s3.24.19,4.4-2.2,1.74-5.89,1.74-10.07a41.55,41.55,0,0,0-1.74-12.09c-1.16-3.72-2.72-6.34-4.4-7.24s-3.23-.19-4.39,2.19S92.64,70.08,92.64,74.29ZM95,86.06A40.05,40.05,0,0,1,93.3,74.6,23.3,23.3,0,0,1,95,65c1.06-2.19,2.4-2.88,3.83-2s2.8,3.14,3.84,6.49A39.63,39.63,0,0,1,104.25,81a23.35,23.35,0,0,1-1.64,9.56c-1,2.2-2.39,2.88-3.83,2S96,89.45,95,86.06Z"/><path class="cls-7" d="M87.31,70.67l23,13.25a1,1,0,0,1,.38.78c0,.28-.17.46-.38.34l-23-13.26a1,1,0,0,1-.39-.77C86.92,70.67,87.1,70.53,87.31,70.67Z"/><path class="cls-7" d="M98.37,92.89V62.3c0-.29.21-.41.42-.28a1,1,0,0,1,.42.76v30.6c0,.28-.21.39-.42.28A1,1,0,0,1,98.37,92.89Z"/></g><g id="freepik--Keyboard--inject-1--inject-554"><g id="freepik--keyboard--inject-1--inject-554-2"><path class="cls-6" d="M41.26,121.86a.65.65,0,0,1,.4-.56L57.82,112a2.1,2.1,0,0,1,1.92,0L109,140.46a.63.63,0,0,1,.4.55v1.7a.67.67,0,0,1-.4.56l-16.14,9.3a2.16,2.16,0,0,1-1.92,0L41.66,124.15a.7.7,0,0,1-.4-.55C41.25,123.39,41.26,122.06,41.26,121.86Z"/><path class="cls-8" d="M41.26,121.86a.65.65,0,0,1,.4-.56L57.82,112a2.1,2.1,0,0,1,1.92,0L109,140.46a.63.63,0,0,1,.4.55v1.7a.67.67,0,0,1-.4.56l-16.14,9.3a2.16,2.16,0,0,1-1.92,0L41.66,124.15a.7.7,0,0,1-.4-.55C41.25,123.39,41.26,122.06,41.26,121.86Z"/><path class="cls-6" d="M92.82,150.84l16.12-9.27a.6.6,0,0,0,.38-.75.56.56,0,0,0-.38-.37L59.71,112a2.1,2.1,0,0,0-1.89,0l-16.16,9.3a.59.59,0,0,0-.37.74.62.62,0,0,0,.37.37l49.23,28.42A2.18,2.18,0,0,0,92.82,150.84Z"/><path class="cls-3" d="M92.82,150.84l16.12-9.27a.6.6,0,0,0,.38-.75.56.56,0,0,0-.38-.37L59.71,112a2.1,2.1,0,0,0-1.89,0l-16.16,9.3a.59.59,0,0,0-.37.74.62.62,0,0,0,.37.37l49.23,28.42A2.18,2.18,0,0,0,92.82,150.84Z"/><path class="cls-6" d="M91.91,151.06v1.73a2.18,2.18,0,0,0,.91-.22l16.11-9.31a.66.66,0,0,0,.4-.55V141a.7.7,0,0,1-.4.57l-16.11,9.27A2.18,2.18,0,0,1,91.91,151.06Z"/><path class="cls-9" d="M91.91,151.06v1.73a2.18,2.18,0,0,0,.91-.22l16.11-9.31a.66.66,0,0,0,.4-.55V141a.7.7,0,0,1-.4.57l-16.11,9.27A2.18,2.18,0,0,1,91.91,151.06Z"/><path class="cls-5" d="M88.33,133.83l-1.81,1-.06.07,1.64,1L90,134.75Z"/><path class="cls-5" d="M90.54,135.1l-1.81,1.07a.06.06,0,0,0,0,.06h0l1.62.91L92.28,136Z"/><path class="cls-5" d="M84.6,131.67l-1.78,1.07a.06.06,0,0,0,0,.06l2.72,1.59,1.93-1.14Z"/><path class="cls-5" d="M82.39,130.42l-1.81,1.07a.06.06,0,0,0,0,.06l1.63,1,1.85-1.2Z"/><path class="cls-5" d="M53.46,124.56l1.63,1L57,124.42l-1.64-1-1.81,1.07s-.08,0-.1.05h0Z"/><path class="cls-5" d="M80.18,129.12l-1.81,1.06v.07l1.63,1,1.93-1.14Z"/><path class="cls-5" d="M87.5,136.23l-1.67-1L84,136.3v.07l1.64,1Z"/><path class="cls-5" d="M72.48,132.67l1.64,1L76,132.53l-1.65-1-1.81,1.07S72.48,132.64,72.48,132.67Z"/><path class="cls-5" d="M86.15,137.66l1.63,1,1.92-1.14-1.67-1-1.81,1.07A.07.07,0,0,0,86.15,137.66Z"/><path class="cls-5" d="M70.27,131.39l1.63,1,1.93-1.14-1.68-1-1.81,1.06S70.27,131.37,70.27,131.39Z"/><path class="cls-5" d="M68,130.11l1.63,1L71.6,130l-1.68-1L68.11,130A.08.08,0,0,0,68,130.11Z"/><path class="cls-5" d="M76.9,135.22l3.5,2.05,4.43-2.58-1.92-1.1L80.58,135h-.32l-1.44-.9L77,135.16S76.9,135.2,76.9,135.22Z"/><path class="cls-5" d="M75.75,126.56l-1.81,1.07v.07l1.63,1,1.93-1.14Z"/><path class="cls-5" d="M74.69,133.94l1.63,1,1.93-1.14-1.67-1-1.76,1.07C74.69,133.9,74.69,133.92,74.69,133.94Z"/><path class="cls-5" d="M54.46,119.39l1.63,1,2-1.14-1.67-1-1.81,1.06a.07.07,0,0,0-.11,0h0A.07.07,0,0,0,54.46,119.39Z"/><path class="cls-5" d="M58.08,116.35l-1.81,1.07a.06.06,0,0,0,0,.06h0l1.62.91,1.93-1.14Z"/><path class="cls-5" d="M52.58,121.17h0l1.62.91L56.13,121l-1.67-.92-1.81,1.06S52.6,121.15,52.58,121.17Z"/><path class="cls-5" d="M49,122l1.64,1,1.92-1.14-1.68-1-1.81,1.06A.11.11,0,0,0,49,122Z"/><path class="cls-5" d="M60.27,117.63l-1.81,1.07v.06l1.64,1L62,118.62Z"/><path class="cls-5" d="M51.24,123.29l1.64,1,1.94-1.17-1.67-1-1.81,1.06a.09.09,0,0,0-.1.09Z"/><path class="cls-5" d="M66.91,121.46l-1.81,1.07v.06l1.63,1,1.93-1.14Z"/><path class="cls-5" d="M69.13,122.74l-1.81,1a.11.11,0,0,0,0,.08l1.63,1,1.92-1.14Z"/><path class="cls-5" d="M71.34,124l-1.81,1.06-.06.07,1.64,1L73,125Z"/><path class="cls-5" d="M64.7,120.18l-1.81,1.06a.08.08,0,0,0,0,.07l1.53,1,1.93-1.14Z"/><path class="cls-5" d="M73.54,125.29l-1.81,1.07v.06l1.63,1,1.93-1.14Z"/><path class="cls-5" d="M62.49,118.91,60.68,120h0l1.64,1,1.92-1.15Z"/><path class="cls-5" d="M78,127.84l-1.81,1.07a.06.06,0,0,0,0,.06l1.64,1,1.92-1.14Z"/><path class="cls-5" d="M78.5,131l-1.81,1.06s0,0-.06.06v.07l1.63.91L80.18,132Z"/><path class="cls-5" d="M95.43,137.93,93.62,139v.06l1.63,1,1.93-1.14Z"/><path class="cls-5" d="M97.64,139.2l-1.82,1.06v.07l1.63,1,1.93-1.14Z"/><path class="cls-5" d="M76.28,129.76l-1.81,1.06a.06.06,0,0,0,0,.06l1.64,1L78,130.74Z"/><path class="cls-5" d="M99.82,140.48,98,141.54l-.05.06,1.64,1,1.92-1.14Z"/><path class="cls-5" d="M78.82,133.44h0l1.62.91,1.93-1.14-1.66-.94-1.81,1.06Z"/><path class="cls-5" d="M92.93,139.37l-1.81,1c-.06,0-.06.06-.06.08l1.63,1,1.93-1.15Z"/><path class="cls-5" d="M97.35,141.92,95.54,143v.07l1.61,1,1.92-1.14Z"/><path class="cls-5" d="M93.25,141.77l1.63,1,1.93-1.14-1.67-1-1.81,1.07S93.25,141.75,93.25,141.77Z"/><path class="cls-5" d="M95.2,145.7a.08.08,0,0,0,0,.07h0l1.63.91,4.43-2.58-1.68-1Z"/><path class="cls-5" d="M74.07,128.48l-1.81,1.06a.08.08,0,0,0,0,.07h0l1.62.9,1.93-1.14Z"/><path class="cls-5" d="M90.75,143.21h0l1.63.91,1.91-1-1.67-1-1.8,1.08A.06.06,0,0,0,90.75,143.21Z"/><path class="cls-5" d="M93,144.49l1.64,1,1.92-1.14-1.67-1L93,144.41C93,144.44,93,144.47,93,144.49Z"/><path class="cls-5" d="M63,122.09l-1.81,1.06-.06.07,1.64,1,1.93-1.14Z"/><path class="cls-5" d="M58.59,119.56l-1.77,1.06a.06.06,0,0,0-.06.07h0l1.62.9,1.93-1.14Z"/><path class="cls-5" d="M57,123.73l1.63,1,1.92-1.14-1.66-1-1.81,1.07a0,0,0,0,0-.07,0,0,0,0,0,0,0,0Z"/><path class="cls-5" d="M54.82,122.45l1.64,1,1.91-1.16-1.66-.9-1.81,1.07a0,0,0,0,0-.07,0Z"/><path class="cls-5" d="M59.21,125h0l1.62.9,1.93-1.14-1.67-1-1.81,1Z"/><path class="cls-5" d="M71.82,127.2,70,128.27v.11l1.63.9,1.93-1.14Z"/><path class="cls-5" d="M63.63,127.56l1.64,1,1.92-1.14-1.67-1-1.81,1.06S63.63,127.54,63.63,127.56Z"/><path class="cls-5" d="M61.42,126.28l1.63,1L65,126.14l-1.67-1-1.81,1.07S61.42,126.26,61.42,126.28Z"/><path class="cls-5" d="M67.43,124.65l-1.81,1.06v.07l1.64,1,1.92-1.14Z"/><path class="cls-5" d="M60.82,120.82,59,121.88s-.06.05-.06.07l1.64,1,1.92-1.15Z"/><path class="cls-5" d="M69.65,125.89,67.82,127a.08.08,0,0,0,0,.07l1.64,1,1.92-1.14Z"/><path class="cls-5" d="M65.23,123.37l-1.82,1.06a.08.08,0,0,0,0,.07h0l1.63.91L67,124.27Z"/><path class="cls-5" d="M65.82,128.84l1.64,1,1.93-1.14-1.68-1-1.81,1a.11.11,0,0,0-.08.13Z"/><path class="cls-5" d="M92.75,136.38l-1.81,1.07a0,0,0,0,0,0,0v0l1.63,1,1.93-1.14Z"/><path class="cls-5" d="M57.53,116.05l-1.67-1L54,116.11a.08.08,0,0,0,0,.07h0l1.63.9Z"/><path class="cls-5" d="M55.82,118l-2.49-1.44-1.81,1.06v.07h0L54,119.1Z"/><path class="cls-5" d="M60.91,114.49l-2-1.17-1.81,1.07a.06.06,0,0,0,0,.06l2,1.18Z"/><path class="cls-5" d="M50.38,120.57l-2-1.17-1.81,1.06s-.06.06-.06.08l2,1.17Z"/><path class="cls-5" d="M53.93,119.73,50.82,118,49,119a.08.08,0,0,0,0,.07h0l3,1.74Z"/><path class="cls-5" d="M60.53,116.49l1.63,1,1.92-1.14-1.67-1-1.81,1.06a.07.07,0,0,0-.07.07h0Z"/><path class="cls-5" d="M45.82,120.85,44,121.91a.06.06,0,0,0,0,.06l2.45,1.45,1.9-1.15Z"/><path class="cls-5" d="M62.74,117.75l1.63,1,1.92-1.14-1.67-1-1.8,1.07S62.75,117.7,62.74,117.75Z"/><path class="cls-5" d="M72.57,123.42v0l1.63.9,1.92-1.14-1.69-1-1.81,1.06a.09.09,0,0,0-.06.11Z"/><path class="cls-5" d="M74.76,124.7l1.63,1,1.93-1.14-1.68-1-1.82,1.08Z"/><path class="cls-5" d="M70.33,122.15h0l1.63.91,1.92-1.14-1.67-1L70.39,122a.08.08,0,0,0-.11,0A.1.1,0,0,0,70.33,122.15Z"/><path class="cls-5" d="M67.14,120.32h0l1.62.9,1.93-1.14-1.67-1-1.81,1.07a.08.08,0,0,0-.11,0,.08.08,0,0,0-.06.1A.09.09,0,0,0,67.14,120.32Z"/><path class="cls-5" d="M64.94,119l1.64,1,1.92-1.14-1.66-1L65,119Z"/><path class="cls-5" d="M89.82,146.25,88,147.31a.08.08,0,0,0,0,.07h0l1.62.9,1.93-1.14Z"/><path class="cls-5" d="M78.33,139.59l-1.81,1.06v.07l1.63,1,1.93-1.14Z"/><path class="cls-5" d="M85.43,143.69l-1.81,1.06v.07h0L87.46,147l1.92-1.14Z"/><path class="cls-5" d="M80.54,140.87l-1.81,1.06V142l1.64,1,1.92-1.14Z"/><path class="cls-5" d="M82.75,142.19l-1.81,1.06s0,.05,0,.07l1.63,1,1.91-1.2Z"/><path class="cls-5" d="M77,126h0l1.62.91,1.93-1.14-1.68-1L77,125.83a.08.08,0,0,0-.11,0A.1.1,0,0,0,77,126Z"/><path class="cls-5" d="M96.23,147.05l-1.66-1-4.36,2.51v.06h0l1.63.91Z"/><path class="cls-5" d="M51.45,124.08l-1.81,1.06-.06.07,2,1.18,1.93-1.14Z"/><path class="cls-5" d="M54,125.55l-1.81,1.06a.06.06,0,0,0-.06.07h0l12.57,7.24,1.93-1.14Z"/><path class="cls-5" d="M55.67,125.84l1.62,1,1.93-1.14-1.67-1-1.81,1.07A.07.07,0,0,0,55.67,125.84Z"/><path class="cls-5" d="M48.88,122.6l-1.81,1.06v.06l2,1.18L51,123.76Z"/><path class="cls-5" d="M67.14,133.14l-1.82,1.06a.08.08,0,0,0,0,.07h0l2,1.14,1.93-1.14Z"/><path class="cls-5" d="M72.28,136.1l-1.81,1.07a.06.06,0,0,0,0,.06h0l2,1.14,1.92-1.14Z"/><path class="cls-5" d="M69.72,134.62l-1.82,1.07v.06l2,1.18,1.92-1.14Z"/><path class="cls-5" d="M74.82,137.58,73,138.64l-.06.06v.05l2.45,1.4L77.33,139Z"/><path class="cls-5" d="M88.36,139h0l1.63.9,1.92-1.14-1.67-1-1.81,1.06A.75.75,0,0,0,88.36,139Z"/><path class="cls-5" d="M81.15,140.56h0l1.63.91,1.93-1.14L83,139.47l-1.81,1.06A.07.07,0,0,0,81.15,140.56Z"/><path class="cls-5" d="M73.35,136.05l4.53,2.66,1.93-1.14L75.28,135l-1.81,1a0,0,0,0,0-.07,0S73.34,136,73.35,136.05Z"/><path class="cls-5" d="M86,143.38h0l1.63.91,1.93-1.15L88,142.21l-1.81,1.07a.06.06,0,0,0-.09,0Z"/><path class="cls-5" d="M88.26,144.65h0l1.62.91,1.92-1.15-1.67-1-1.81,1.06S88.26,144.64,88.26,144.65Z"/><path class="cls-5" d="M71.15,134.78l1.63,1,1.92-1.14-1.67-1-1.81,1.06A.07.07,0,0,0,71.15,134.78Z"/><path class="cls-5" d="M88.55,141.94h0l1.63.9,1.91-1.14-1.66-1-1.81,1.06C88.55,141.89,88.55,141.92,88.55,141.94Z"/><path class="cls-5" d="M60.08,128.39l1.62,1,1.92-1.14-1.66-1-1.81,1.06A.11.11,0,0,0,60.08,128.39Z"/><path class="cls-5" d="M69,133.5l1.63,1,1.93-1.14-1.67-1L69,133.43S69,133.47,69,133.5Z"/><path class="cls-5" d="M57.87,127.12h0l1.63.9,1.92-1.14-1.66-1L58,127a.09.09,0,0,0-.09.1S57.87,127.1,57.87,127.12Z"/><path class="cls-5" d="M62.3,129.67l1.63,1,1.89-1.15-1.68-1-1.81,1.06A.08.08,0,0,0,62.3,129.67Z"/><path class="cls-5" d="M64.51,131h0l1.63.91,1.9-1.12-1.67-1-1.81,1.06A.29.29,0,0,0,64.51,131Z"/><path class="cls-5" d="M66.72,132.23h0l1.63.91L70.27,132l-1.67-1-1.78,1.1a.07.07,0,0,0-.08.07v0S66.71,132.22,66.72,132.23Z"/><path class="cls-5" d="M82.35,129.09l1.63,1L85.91,129l-1.67-1-1.81,1s-.07,0-.08.07Z"/><path class="cls-5" d="M90.47,145.94h0l1.62.9,1.93-1-1.67-1-1.81,1.07S90.47,145.91,90.47,145.94Z"/><path class="cls-5" d="M86.82,131.64l1.64,1,1.92-1.14-1.67-1-1.89,1.07Z"/><path class="cls-5" d="M91.69,134.48l1.63,1,1.93-1.14-1.68-1-1.81,1.06a.06.06,0,0,0-.07.06Z"/><path class="cls-5" d="M89.48,133.2l1.63,1L93,133.06l-1.68-1-1.81,1.07a.06.06,0,0,0-.07,0h0Z"/><path class="cls-5" d="M80.14,127.81l1.63,1,1.93-1.14-1.67-1-1.81,1.06Z"/><path class="cls-5" d="M84.56,130.37h0l1.62.9,1.93-1.14-1.67-1-1.81,1.06A.75.75,0,0,0,84.56,130.37Z"/><path class="cls-5" d="M93.9,135.75l1.63,1,1.92-1.14-1.67-1L94,135.68C93.91,135.71,93.9,135.74,93.9,135.75Z"/><path class="cls-5" d="M103.82,140.76l1.63,1,1-.63-1.68-1-.9.55S103.82,140.73,103.82,140.76Z"/><path class="cls-5" d="M100.17,142.88l1.64,1,1.93-1.14-1.68-1-1.81,1C100.18,142.84,100.17,142.87,100.17,142.88Z"/><path class="cls-5" d="M97.22,136.93h0l1.62.91,1-.63-1.67-1-.91.54s-.07,0-.09,0h0a.06.06,0,0,0,0,.09A.09.09,0,0,0,97.22,136.93Z"/><path class="cls-5" d="M99.43,138.21h0l1.62.9,1-.62-1.66-1-.91.54a.07.07,0,0,0-.06.09v.09Z"/><path class="cls-5" d="M101.64,139.47l1.64,1,1-.62-1.67-1-.91.54Z"/></g></g></g></g></g></svg>