<svg xmlns="http://www.w3.org/2000/svg" viewBox="0 0 178 184"><defs><style>.cls-1{isolation:isolate;}.cls-2{fill:#d4dee1;}.cls-3,.cls-4{fill:#94b7bd;}.cls-4{mix-blend-mode:multiply;}</style></defs><g class="cls-1"><g id="Calque_2" data-name="Calque 2"><g id="Calque_1-2" data-name="Calque 1"><path id="bulle_fond" data-name="bulle fond" class="cls-2" d="M0,83.28C0,26.73,24.75,0,77.12,0H99c55.23,0,79,26.73,79,83.28v17.44C178,157.26,153.26,184,99,184H77.12C25.71,184,0,157.26,0,100.72Z"/><path class="cls-3" d="M99.66,56A278.19,278.19,0,0,1,68.3,62.26a275.72,275.72,0,0,1-31.83,2.9S39,94.35,42,103.58C48.58,123.9,78.37,132,78.37,132s26.27-16.25,26.82-37.61C105.44,84.69,99.66,56,99.66,56ZM55.82,76.81c3.47-.5,6.86,3,7.8,7.83L50.55,86.52C50.07,81.59,52.35,77.31,55.82,76.81Zm20.39,40.27A14.47,14.47,0,0,1,60,105.78l28.57-4.12A14.47,14.47,0,0,1,76.21,117.08Zm1.9-34.53c-.48-4.93,1.8-9.21,5.27-9.72s6.86,3,7.8,7.83Z"/><path class="cls-3" d="M77.85,59.44C79.39,55.05,80.51,52,80.51,52c3.39,1.51,7.21,3.06,11.34,4.62C87.47,57.64,82.76,58.58,77.85,59.44Z"/><path class="cls-3" d="M110.52,63c-3-.92-5.92-1.87-8.74-2.82,1.61,8.46,4.89,26.7,4.7,34.2a30.24,30.24,0,0,1-1.66,9A14.47,14.47,0,0,1,109,117.19l-9.76-3a70.74,70.74,0,0,1-12.48,13.24c1.86,1.86,3.1,2.92,3.1,2.92s30.7-3.45,40.33-22.52c4.36-8.64,11.38-37,11.38-37A277.4,277.4,0,0,1,110.52,63Zm13.74,28-12.61-3.88c1.67-4.66,5.56-7.56,8.91-6.53S125.5,86.28,124.26,91.07Z"/><path class="cls-4" d="M77.85,59.44C79.39,55.05,80.51,52,80.51,52c3.39,1.51,7.21,3.06,11.34,4.62C87.47,57.64,82.76,58.58,77.85,59.44Z"/><path class="cls-4" d="M110.52,63c-3-.92-5.92-1.87-8.74-2.82,1.61,8.46,4.89,26.7,4.7,34.2a30.24,30.24,0,0,1-1.66,9A14.47,14.47,0,0,1,109,117.19l-9.76-3a70.74,70.74,0,0,1-12.48,13.24c1.86,1.86,3.1,2.92,3.1,2.92s30.7-3.45,40.33-22.52c4.36-8.64,11.38-37,11.38-37A277.4,277.4,0,0,1,110.52,63Zm13.74,28-12.61-3.88c1.67-4.66,5.56-7.56,8.91-6.53S125.5,86.28,124.26,91.07Z"/></g></g></g></svg>