<svg xmlns="http://www.w3.org/2000/svg" viewBox="0 0 178 184"><defs><style>.cls-1{fill:#d4dee1;}.cls-2{fill:#94b7bd;}.cls-3{opacity:0.2;}.cls-3,.cls-6{isolation:isolate;}.cls-4{fill:#1c5a68;}.cls-5{fill:none;}.cls-6,.cls-7{fill:#dde7e9;}.cls-6{opacity:0.6;}.cls-8{fill:#005e6c;}.cls-9{fill:#005e6b;}.cls-10{fill:#35949f;}</style></defs><g id="Calque_2" data-name="Calque 2"><g id="Calque_1-2" data-name="Calque 1"><path id="bulle_fond" data-name="bulle fond" class="cls-1" d="M0,83.28C0,26.73,24.75,0,77.12,0H99c55.23,0,79,26.73,79,83.28v17.44C178,157.26,153.26,184,99,184H77.12C25.71,184,0,157.26,0,100.72Z"/><g id="freepik--House--inject-9"><polygon class="cls-2" points="102.48 70.91 92.73 70.89 84.19 67.45 75.38 70.85 75.34 87.14 102.44 87.2 102.48 70.91"/><rect class="cls-3" x="89.44" y="74.18" width="16.29" height="9.75" transform="translate(18.3 176.45) rotate(-89.86)"/><polygon class="cls-4" points="93.93 67.47 84.19 67.45 92.73 70.89 102.48 70.91 93.93 67.47"/><path class="cls-4" d="M102.52,71.42h0l-9.75,0-.19,0L84,67.93a.52.52,0,0,1,.2-1l9.74,0a.45.45,0,0,1,.2,0l8.54,3.43a.51.51,0,0,1,.25.68.5.5,0,0,1-.4.3Zm-9.69-1,7,0-6-2.41-7,0Z"/><line class="cls-5" x1="84.19" y1="67.45" x2="75.63" y2="70.85"/><path class="cls-4" d="M75.67,71.36a.51.51,0,0,1-.55-.48.5.5,0,0,1,.32-.5L84,67a.51.51,0,0,1,.55.87.48.48,0,0,1-.18.07l-8.56,3.4A.34.34,0,0,1,75.67,71.36Z"/><polygon class="cls-6" points="82.19 80.86 85.7 80.87 85.68 87.15 82.16 87.15 82.19 80.86"/><rect class="cls-7" x="81.69" y="71.21" width="4.96" height="8.25" transform="translate(8.63 159.32) rotate(-89.86)"/><rect class="cls-4" x="79.93" y="73.59" width="4.3" height="3.47" transform="translate(6.56 157.23) rotate(-89.86)"/><rect class="cls-4" x="84.1" y="73.6" width="4.3" height="3.47" transform="translate(10.7 161.41) rotate(-89.86)"/><rect class="cls-7" x="95.23" y="73.06" width="4.96" height="4.61" transform="translate(22.11 172.9) rotate(-89.86)"/><rect class="cls-4" x="94.39" y="74.4" width="4.3" height="1.94" transform="translate(20.95 171.73) rotate(-89.86)"/><rect class="cls-4" x="96.72" y="74.4" width="4.3" height="1.94" transform="translate(23.26 174.06) rotate(-89.86)"/><polygon class="cls-7" points="95.41 80.81 100.22 80.8 100.19 85.76 95.38 85.77 95.41 80.81"/><rect class="cls-4" x="94.37" y="82.32" width="4.3" height="1.94" transform="translate(13 179.61) rotate(-89.86)"/><rect class="cls-4" x="96.9" y="82.41" width="4.32" height="1.95" transform="translate(15.48 182.28) rotate(-89.89)"/></g><path class="cls-8" d="M92.73,104.34a28.21,28.21,0,1,1,28.21-28.21,28.21,28.21,0,0,1-28.21,28.21m29.79-54.69A42.63,42.63,0,0,0,87.23,31.73s-33,0-42.8,29.56A48,48,0,0,0,46,94.62a60.69,60.69,0,0,0,6.17,11.47C60.69,118.41,87.23,152,87.23,152H93c7.4-10.29,26.05-44.46,31.63-55.42,7-13.76,8.1-32.93-2.11-47"/><path class="cls-2" d="M92.77,104.57A28.21,28.21,0,1,1,121,76.36a28,28,0,0,1-28.21,28.21m35.56-54.69A42.63,42.63,0,0,0,93,32s-33,0-42.8,29.56A48,48,0,0,0,51.8,94.85,60.69,60.69,0,0,0,58,106.32c8.53,12.32,35.06,46,35.06,46s30.66-42.18,37.41-55.42c7-13.76,8.09-32.93-2.11-47"/><path class="cls-9" d="M92.77,48.15A28.21,28.21,0,0,0,66.85,65.27,24.17,24.17,0,1,1,69.1,91.51,28.16,28.16,0,0,0,91.4,104.3h1.33a28.22,28.22,0,0,0,28.21-28.21,29,29,0,0,0-.43-5,28.22,28.22,0,0,0-27.74-23"/><path class="cls-8" d="M120.51,71.17a29,29,0,0,1,.43,5,29,29,0,0,0-.43-5M91.4,104.3h0m.11,0h0m.06,0h0m.1,0h0m.08,0h0m.1,0h0m.07,0h0m.1,0h0m.09,0h0m.09,0h0m.09,0h0m.09,0h0m.09,0h0m.08,0h0m.1,0h0"/><path class="cls-10" d="M92.73,47.92A28.21,28.21,0,0,0,66.15,66.7c.21-.48.45-1,.7-1.43a28.21,28.21,0,0,1,53.66,5.9A28.21,28.21,0,0,0,92.73,47.92"/></g></g></svg>