<svg xmlns="http://www.w3.org/2000/svg" viewBox="0 0 178 184"><defs><style>.cls-1{fill:#d4dee1;}.cls-2{fill:#1c5a68;}.cls-2,.cls-3,.cls-4,.cls-5{stroke:#1c5a68;}.cls-2,.cls-4,.cls-5{stroke-miterlimit:10;}.cls-3,.cls-4{fill:#dde7e9;}.cls-3{stroke-linecap:round;stroke-linejoin:round;}.cls-5{fill:#fff;}.cls-6{fill:#94b7bd;}.cls-7{fill:#005e6c;}.cls-8{fill:#80bac0;}.cls-9{fill:#005e6b;}.cls-10{fill:#35949f;}</style></defs><g id="Calque_2" data-name="Calque 2"><g id="Calque_1-2" data-name="Calque 1"><path id="bulle_fond" data-name="bulle fond" class="cls-1" d="M0,83.28C0,26.73,24.75,0,77.12,0H99c55.23,0,79,26.73,79,83.28v17.44C178,157.26,153.26,184,99,184H77.12C25.71,184,0,157.26,0,100.72Z"/><rect class="cls-2" x="44.42" y="68.69" width="89.11" height="61.05"/><polygon class="cls-3" points="146.9 156.73 31.05 156.73 44.41 129.74 133.53 129.74 146.9 156.73"/><rect class="cls-4" x="49.82" y="73.52" width="78.31" height="51.39"/><polygon class="cls-5" points="85.25 138.29 85.41 135 80.7 135 80.39 138.29 85.25 138.29"/><polygon class="cls-5" points="94.98 138.29 94.83 135 90.11 135 90.13 138.29 94.98 138.29"/><polygon class="cls-5" points="120.33 141.8 125.36 141.8 124.17 138.29 119.31 138.29 120.33 141.8"/><polygon class="cls-5" points="80.39 138.29 80.7 135 76 135 75.53 138.29 80.39 138.29"/><polygon class="cls-5" points="70.66 138.29 71.28 135 66.58 135 65.8 138.29 70.66 138.29"/><polygon class="cls-5" points="114.44 138.29 113.66 135 108.94 135 109.58 138.29 114.44 138.29"/><polygon class="cls-5" points="119.31 138.29 118.36 135 113.66 135 114.44 138.29 119.31 138.29"/><polygon class="cls-5" points="65.8 138.29 66.58 135 61.87 135 60.92 138.29 65.8 138.29"/><polygon class="cls-5" points="99.86 138.29 99.53 135 94.83 135 94.98 138.29 99.86 138.29"/><polygon class="cls-5" points="124.17 138.29 123.08 135 118.36 135 119.31 138.29 124.17 138.29"/><polygon class="cls-5" points="109.58 138.29 108.94 135 104.25 135 104.72 138.29 109.58 138.29"/><polygon class="cls-5" points="104.72 138.29 104.25 135 99.53 135 99.86 138.29 104.72 138.29"/><polygon class="cls-5" points="90.13 138.29 90.11 135 85.41 135 85.25 138.29 90.13 138.29"/><polygon class="cls-5" points="56.06 138.29 51.2 138.29 49.85 141.8 54.88 141.8 56.06 138.29"/><polygon class="cls-5" points="57.16 135 52.45 135 51.2 138.29 56.06 138.29 57.16 135"/><polygon class="cls-5" points="60.92 138.29 61.87 135 57.16 135 56.06 138.29 60.92 138.29"/><polygon class="cls-5" points="48.41 145.57 46.87 149.62 52.27 149.62 53.63 145.57 48.41 145.57"/><polygon class="cls-5" points="54.88 141.8 49.85 141.8 48.41 145.57 53.63 145.57 54.88 141.8"/><polygon class="cls-5" points="53.63 145.57 52.27 149.62 57.69 149.62 58.84 145.57 53.63 145.57"/><polygon class="cls-5" points="75.53 138.29 76 135 71.28 135 70.66 138.29 75.53 138.29"/><polygon class="cls-5" points="75.03 141.8 75.53 138.29 70.66 138.29 69.98 141.8 75.03 141.8"/><polygon class="cls-5" points="69.98 141.8 70.66 138.29 65.8 138.29 64.95 141.8 69.98 141.8"/><polygon class="cls-5" points="80.06 141.8 80.39 138.29 75.53 138.29 75.03 141.8 80.06 141.8"/><polygon class="cls-5" points="60.92 138.29 56.06 138.29 54.88 141.8 59.92 141.8 60.92 138.29"/><polygon class="cls-5" points="121.42 145.57 126.63 145.57 125.36 141.8 120.33 141.8 121.42 145.57"/><polygon class="cls-5" points="64.95 141.8 65.8 138.29 60.92 138.29 59.92 141.8 64.95 141.8"/><polygon class="cls-5" points="54.88 141.8 53.63 145.57 58.84 145.57 59.92 141.8 54.88 141.8"/><polygon class="cls-5" points="110.25 141.8 109.58 138.29 104.72 138.29 105.22 141.8 110.25 141.8"/><polygon class="cls-5" points="105.22 141.8 104.72 138.29 99.86 138.29 100.19 141.8 105.22 141.8"/><polygon class="cls-5" points="120.33 141.8 119.31 138.29 114.44 138.29 115.3 141.8 120.33 141.8"/><polygon class="cls-5" points="90.13 141.8 90.13 138.29 85.25 138.29 85.08 141.8 90.13 141.8"/><polygon class="cls-5" points="100.19 141.8 99.86 138.29 94.98 138.29 95.16 141.8 100.19 141.8"/><polygon class="cls-5" points="95.16 141.8 94.98 138.29 90.13 138.29 90.13 141.8 95.16 141.8"/><polygon class="cls-5" points="85.08 141.8 85.25 138.29 80.39 138.29 80.06 141.8 85.08 141.8"/><polygon class="cls-5" points="100.19 141.8 100.56 145.57 105.78 145.57 105.22 141.8 100.19 141.8"/><polygon class="cls-5" points="105.22 141.8 105.78 145.57 110.98 145.57 110.25 141.8 105.22 141.8"/><polygon class="cls-5" points="59.92 141.8 58.84 145.57 64.06 145.57 64.95 141.8 59.92 141.8"/><polygon class="cls-5" points="110.25 141.8 110.98 145.57 116.19 145.57 115.3 141.8 110.25 141.8"/><polygon class="cls-5" points="90.13 141.8 90.13 145.57 95.34 145.57 95.16 141.8 90.13 141.8"/><polygon class="cls-5" points="115.3 141.8 116.19 145.57 121.42 145.57 120.33 141.8 115.3 141.8"/><polygon class="cls-5" points="95.16 141.8 95.34 145.57 100.56 145.57 100.19 141.8 95.16 141.8"/><polygon class="cls-5" points="69.98 141.8 69.27 145.57 74.48 145.57 75.03 141.8 69.98 141.8"/><polygon class="cls-5" points="64.95 141.8 64.06 145.57 69.27 145.57 69.98 141.8 64.95 141.8"/><polygon class="cls-5" points="85.08 141.8 84.92 145.57 90.13 145.57 90.13 141.8 85.08 141.8"/><polygon class="cls-5" points="80.06 141.8 79.69 145.57 84.92 145.57 85.08 141.8 80.06 141.8"/><polygon class="cls-5" points="75.03 141.8 74.48 145.57 79.69 145.57 80.06 141.8 75.03 141.8"/><polygon class="cls-5" points="115.3 141.8 114.44 138.29 109.58 138.29 110.25 141.8 115.3 141.8"/><polygon class="cls-5" points="57.16 135 58.28 131.63 53.73 131.63 52.45 135 57.16 135"/><polygon class="cls-5" points="52.45 135 48.1 135 46.7 138.29 51.2 138.29 52.45 135"/><polygon class="cls-5" points="53.73 131.63 49.55 131.63 48.1 135 52.45 135 53.73 131.63"/><polygon class="cls-5" points="51.2 138.29 46.7 138.29 45.2 141.8 49.85 141.8 51.2 138.29"/><polygon class="cls-5" points="49.85 141.8 45.2 141.8 43.59 145.57 48.41 145.57 49.85 141.8"/><polygon class="cls-5" points="48.41 145.57 43.59 145.57 41.88 149.62 46.87 149.62 48.41 145.57"/><polygon class="cls-5" points="129.04 138.29 130.4 141.8 134.84 141.8 133.34 138.29 129.04 138.29"/><polygon class="cls-5" points="131.84 145.57 136.46 145.57 134.84 141.8 130.4 141.8 131.84 145.57"/><polygon class="cls-5" points="133.4 149.62 138.18 149.62 136.46 145.57 131.84 145.57 133.4 149.62"/><polygon class="cls-5" points="94.83 135 94.67 131.63 90.11 131.63 90.11 135 94.83 135"/><polygon class="cls-5" points="129.04 138.29 133.34 138.29 131.94 135 127.78 135 129.04 138.29"/><polygon class="cls-5" points="126.63 145.57 131.84 145.57 130.4 141.8 125.36 141.8 126.63 145.57"/><polygon class="cls-5" points="61.87 135 62.84 131.63 58.28 131.63 57.16 135 61.87 135"/><polygon class="cls-5" points="123.08 135 124.17 138.29 129.04 138.29 127.78 135 123.08 135"/><polygon class="cls-5" points="131.94 135 130.51 131.63 126.48 131.63 127.78 135 131.94 135"/><polygon class="cls-5" points="127.78 135 126.48 131.63 121.94 131.63 123.08 135 127.78 135"/><polygon class="cls-5" points="110.98 145.57 111.77 149.62 117.17 149.62 116.19 145.57 110.98 145.57"/><polygon class="cls-5" points="127.98 149.62 133.4 149.62 131.84 145.57 126.63 145.57 127.98 149.62"/><polygon class="cls-5" points="123.08 135 121.94 131.63 117.39 131.63 118.36 135 123.08 135"/><polygon class="cls-5" points="121.42 145.57 122.58 149.62 127.98 149.62 126.63 145.57 121.42 145.57"/><polygon class="cls-5" points="116.19 145.57 117.17 149.62 122.58 149.62 121.42 145.57 116.19 145.57"/><polygon class="cls-5" points="125.36 141.8 130.4 141.8 129.04 138.29 124.17 138.29 125.36 141.8"/><polygon class="cls-5" points="80.7 135 81.03 131.63 76.47 131.63 76 135 80.7 135"/><polygon class="cls-5" points="118.36 135 117.39 131.63 112.84 131.63 113.66 135 118.36 135"/><polygon class="cls-5" points="76 135 76.47 131.63 71.92 131.63 71.28 135 76 135"/><polygon class="cls-5" points="90.11 135 90.11 131.63 85.56 131.63 85.41 135 90.11 135"/><polygon class="cls-5" points="71.28 135 71.92 131.63 67.38 131.63 66.58 135 71.28 135"/><polygon class="cls-5" points="66.58 135 67.38 131.63 62.84 131.63 61.87 135 66.58 135"/><polygon class="cls-5" points="85.41 135 85.56 131.63 81.03 131.63 80.7 135 85.41 135"/><polygon class="cls-5" points="113.66 135 112.84 131.63 108.31 131.63 108.94 135 113.66 135"/><polygon class="cls-5" points="108.94 135 108.31 131.63 103.75 131.63 104.25 135 108.94 135"/><polygon class="cls-5" points="99.53 135 99.2 131.63 94.67 131.63 94.83 135 99.53 135"/><polygon class="cls-5" points="110.98 145.57 105.78 145.57 100.56 145.57 95.34 145.57 90.13 145.57 84.92 145.57 79.69 145.57 74.48 145.57 69.27 145.57 64.06 145.57 58.84 145.57 57.69 149.62 63.09 149.62 68.5 149.62 73.91 149.62 79.31 149.62 84.72 149.62 90.13 149.62 95.53 149.62 100.94 149.62 106.36 149.62 111.77 149.62 110.98 145.57"/><polygon class="cls-5" points="104.25 135 103.75 131.63 99.2 131.63 99.53 135 104.25 135"/><rect class="cls-2" x="31.06" y="156.73" width="115.89" height="1.64"/><g id="Calque_2-2" data-name="Calque 2"><g id="Calque_1-2-2" data-name="Calque 1-2"><path class="cls-6" d="M94.47,45.84A11,11,0,0,0,101,35.7c0-6.06-4.55-11-10.23-11S80.47,29.56,80.44,35.6A11,11,0,0,0,87,45.84C71.17,48.22,71.88,65.42,71.88,65.42l37.41.17S110.15,48.21,94.47,45.84Z"/></g></g><path class="cls-7" d="M90.85,101.61a5.47,5.47,0,1,1,5.46-5.47,5.46,5.46,0,0,1-5.46,5.47M96.62,91a8.29,8.29,0,0,0-6.84-3.47s-6.39,0-8.29,5.73a9.25,9.25,0,0,0,.31,6.45A11.85,11.85,0,0,0,83,102c1.65,2.38,6.79,8.89,6.79,8.89H90.9c1.43-2,5-8.61,6.13-10.73a9,9,0,0,0-.41-9.1"/><path class="cls-8" d="M90.86,101.65a5.42,5.42,0,0,1-5.47-5.46,5.47,5.47,0,1,1,5.47,5.46m6.88-10.59a8.24,8.24,0,0,0-6.83-3.47s-6.4,0-8.29,5.72a9.28,9.28,0,0,0,.3,6.46,11.3,11.3,0,0,0,1.2,2.22c1.65,2.39,6.79,8.9,6.79,8.9s5.93-8.17,7.24-10.73a8.92,8.92,0,0,0-.41-9.1"/><path class="cls-9" d="M90.86,90.72a5.48,5.48,0,0,0-5,3.32,4.69,4.69,0,1,1,.44,5.08,5.47,5.47,0,0,0,4.32,2.48h.26a5.46,5.46,0,0,0,5.46-5.47,6,6,0,0,0-.08-1,5.46,5.46,0,0,0-5.37-4.46"/><path class="cls-7" d="M96.23,95.18a6,6,0,0,1,.08,1,6,6,0,0,0-.08-1m-5.64,6.42h0m0,0h0m0,0h0m0,0h0m0,0h0m0,0h0m0,0h0m0,0h0m0,0h0m0,0h0m0,0h0m0,0h0m0,0h0m0,0h0m0,0h0"/><path class="cls-10" d="M90.85,90.68a5.46,5.46,0,0,0-5.15,3.64c0-.1.09-.19.13-.28a5.47,5.47,0,0,1,10.4,1.14,5.47,5.47,0,0,0-5.38-4.5"/></g></g></svg>