<svg xmlns="http://www.w3.org/2000/svg" viewBox="0 0 178 184"><defs><style>.cls-1{fill:#d4dee1;}.cls-2{fill:#1c5a68;}.cls-2,.cls-3,.cls-4,.cls-5{stroke:#1c5a68;}.cls-2,.cls-4,.cls-5{stroke-miterlimit:10;}.cls-3,.cls-4{fill:#dde7e9;}.cls-3{stroke-linecap:round;stroke-linejoin:round;}.cls-5{fill:#fff;}.cls-6{fill:#94b7bd;}</style></defs><g id="Calque_2" data-name="Calque 2"><g id="Calque_1-2" data-name="Calque 1"><path id="bulle_fond" data-name="bulle fond" class="cls-1" d="M0,83.28C0,26.73,24.75,0,77.12,0H99c55.23,0,79,26.73,79,83.28v17.44C178,157.26,153.26,184,99,184H77.12C25.71,184,0,157.26,0,100.72Z"/><rect class="cls-2" x="44.77" y="47.16" width="89.11" height="61.05"/><polygon class="cls-3" points="147.25 135.2 31.41 135.2 44.77 108.21 133.88 108.21 147.25 135.2"/><rect class="cls-4" x="50.17" y="51.99" width="78.31" height="51.39"/><polygon class="cls-5" points="85.61 116.76 85.76 113.47 81.06 113.47 80.74 116.76 85.61 116.76"/><polygon class="cls-5" points="95.34 116.76 95.18 113.47 90.47 113.47 90.48 116.76 95.34 116.76"/><polygon class="cls-5" points="120.68 120.27 125.72 120.27 124.53 116.76 119.67 116.76 120.68 120.27"/><polygon class="cls-5" points="80.74 116.76 81.06 113.47 76.35 113.47 75.88 116.76 80.74 116.76"/><polygon class="cls-5" points="71.01 116.76 71.64 113.47 66.93 113.47 66.15 116.76 71.01 116.76"/><polygon class="cls-5" points="114.8 116.76 114.01 113.47 109.3 113.47 109.94 116.76 114.8 116.76"/><polygon class="cls-5" points="119.67 116.76 118.72 113.47 114.01 113.47 114.8 116.76 119.67 116.76"/><polygon class="cls-5" points="66.15 116.76 66.93 113.47 62.22 113.47 61.28 116.76 66.15 116.76"/><polygon class="cls-5" points="100.21 116.76 99.89 113.47 95.18 113.47 95.34 116.76 100.21 116.76"/><polygon class="cls-5" points="124.53 116.76 123.43 113.47 118.72 113.47 119.67 116.76 124.53 116.76"/><polygon class="cls-5" points="109.94 116.76 109.3 113.47 104.6 113.47 105.07 116.76 109.94 116.76"/><polygon class="cls-5" points="105.07 116.76 104.6 113.47 99.89 113.47 100.21 116.76 105.07 116.76"/><polygon class="cls-5" points="90.48 116.76 90.47 113.47 85.76 113.47 85.61 116.76 90.48 116.76"/><polygon class="cls-5" points="56.42 116.76 51.55 116.76 50.21 120.27 55.24 120.27 56.42 116.76"/><polygon class="cls-5" points="57.51 113.47 52.81 113.47 51.55 116.76 56.42 116.76 57.51 113.47"/><polygon class="cls-5" points="61.28 116.76 62.22 113.47 57.51 113.47 56.42 116.76 61.28 116.76"/><polygon class="cls-5" points="48.77 124.04 47.22 128.09 52.63 128.09 53.98 124.04 48.77 124.04"/><polygon class="cls-5" points="55.24 120.27 50.21 120.27 48.77 124.04 53.98 124.04 55.24 120.27"/><polygon class="cls-5" points="53.98 124.04 52.63 128.09 58.04 128.09 59.2 124.04 53.98 124.04"/><polygon class="cls-5" points="75.88 116.76 76.35 113.47 71.64 113.47 71.01 116.76 75.88 116.76"/><polygon class="cls-5" points="75.38 120.27 75.88 116.76 71.01 116.76 70.34 120.27 75.38 120.27"/><polygon class="cls-5" points="70.34 120.27 71.01 116.76 66.15 116.76 65.31 120.27 70.34 120.27"/><polygon class="cls-5" points="80.41 120.27 80.74 116.76 75.88 116.76 75.38 120.27 80.41 120.27"/><polygon class="cls-5" points="61.28 116.76 56.42 116.76 55.24 120.27 60.28 120.27 61.28 116.76"/><polygon class="cls-5" points="121.77 124.04 126.98 124.04 125.72 120.27 120.68 120.27 121.77 124.04"/><polygon class="cls-5" points="65.31 120.27 66.15 116.76 61.28 116.76 60.28 120.27 65.31 120.27"/><polygon class="cls-5" points="55.24 120.27 53.98 124.04 59.2 124.04 60.28 120.27 55.24 120.27"/><polygon class="cls-5" points="110.61 120.27 109.94 116.76 105.07 116.76 105.58 120.27 110.61 120.27"/><polygon class="cls-5" points="105.58 120.27 105.07 116.76 100.21 116.76 100.55 120.27 105.58 120.27"/><polygon class="cls-5" points="120.68 120.27 119.67 116.76 114.8 116.76 115.65 120.27 120.68 120.27"/><polygon class="cls-5" points="90.48 120.27 90.48 116.76 85.61 116.76 85.44 120.27 90.48 120.27"/><polygon class="cls-5" points="100.55 120.27 100.21 116.76 95.34 116.76 95.51 120.27 100.55 120.27"/><polygon class="cls-5" points="95.51 120.27 95.34 116.76 90.48 116.76 90.48 120.27 95.51 120.27"/><polygon class="cls-5" points="85.44 120.27 85.61 116.76 80.74 116.76 80.41 120.27 85.44 120.27"/><polygon class="cls-5" points="100.55 120.27 100.91 124.04 106.13 124.04 105.58 120.27 100.55 120.27"/><polygon class="cls-5" points="105.58 120.27 106.13 124.04 111.34 124.04 110.61 120.27 105.58 120.27"/><polygon class="cls-5" points="60.28 120.27 59.2 124.04 64.41 124.04 65.31 120.27 60.28 120.27"/><polygon class="cls-5" points="110.61 120.27 111.34 124.04 116.55 124.04 115.65 120.27 110.61 120.27"/><polygon class="cls-5" points="90.48 120.27 90.48 124.04 95.7 124.04 95.51 120.27 90.48 120.27"/><polygon class="cls-5" points="115.65 120.27 116.55 124.04 121.77 124.04 120.68 120.27 115.65 120.27"/><polygon class="cls-5" points="95.51 120.27 95.7 124.04 100.91 124.04 100.55 120.27 95.51 120.27"/><polygon class="cls-5" points="70.34 120.27 69.62 124.04 74.84 124.04 75.38 120.27 70.34 120.27"/><polygon class="cls-5" points="65.31 120.27 64.41 124.04 69.62 124.04 70.34 120.27 65.31 120.27"/><polygon class="cls-5" points="85.44 120.27 85.27 124.04 90.48 124.04 90.48 120.27 85.44 120.27"/><polygon class="cls-5" points="80.41 120.27 80.05 124.04 85.27 124.04 85.44 120.27 80.41 120.27"/><polygon class="cls-5" points="75.38 120.27 74.84 124.04 80.05 124.04 80.41 120.27 75.38 120.27"/><polygon class="cls-5" points="115.65 120.27 114.8 116.76 109.94 116.76 110.61 120.27 115.65 120.27"/><polygon class="cls-5" points="57.51 113.47 58.64 110.1 54.09 110.1 52.81 113.47 57.51 113.47"/><polygon class="cls-5" points="52.81 113.47 48.46 113.47 47.06 116.76 51.55 116.76 52.81 113.47"/><polygon class="cls-5" points="54.09 110.1 49.9 110.1 48.46 113.47 52.81 113.47 54.09 110.1"/><polygon class="cls-5" points="51.55 116.76 47.06 116.76 45.56 120.27 50.21 120.27 51.55 116.76"/><polygon class="cls-5" points="50.21 120.27 45.56 120.27 43.95 124.04 48.77 124.04 50.21 120.27"/><polygon class="cls-5" points="48.77 124.04 43.95 124.04 42.23 128.09 47.22 128.09 48.77 124.04"/><polygon class="cls-5" points="129.4 116.76 130.75 120.27 135.2 120.27 133.7 116.76 129.4 116.76"/><polygon class="cls-5" points="132.2 124.04 136.81 124.04 135.2 120.27 130.75 120.27 132.2 124.04"/><polygon class="cls-5" points="133.75 128.09 138.53 128.09 136.81 124.04 132.2 124.04 133.75 128.09"/><polygon class="cls-5" points="95.18 113.47 95.02 110.1 90.47 110.1 90.47 113.47 95.18 113.47"/><polygon class="cls-5" points="129.4 116.76 133.7 116.76 132.3 113.47 128.14 113.47 129.4 116.76"/><polygon class="cls-5" points="126.98 124.04 132.2 124.04 130.75 120.27 125.72 120.27 126.98 124.04"/><polygon class="cls-5" points="62.22 113.47 63.19 110.1 58.64 110.1 57.51 113.47 62.22 113.47"/><polygon class="cls-5" points="123.43 113.47 124.53 116.76 129.4 116.76 128.14 113.47 123.43 113.47"/><polygon class="cls-5" points="132.3 113.47 130.87 110.1 126.84 110.1 128.14 113.47 132.3 113.47"/><polygon class="cls-5" points="128.14 113.47 126.84 110.1 122.3 110.1 123.43 113.47 128.14 113.47"/><polygon class="cls-5" points="111.34 124.04 112.12 128.09 117.53 128.09 116.55 124.04 111.34 124.04"/><polygon class="cls-5" points="128.34 128.09 133.75 128.09 132.2 124.04 126.98 124.04 128.34 128.09"/><polygon class="cls-5" points="123.43 113.47 122.3 110.1 117.75 110.1 118.72 113.47 123.43 113.47"/><polygon class="cls-5" points="121.77 124.04 122.93 128.09 128.34 128.09 126.98 124.04 121.77 124.04"/><polygon class="cls-5" points="116.55 124.04 117.53 128.09 122.93 128.09 121.77 124.04 116.55 124.04"/><polygon class="cls-5" points="125.72 120.27 130.75 120.27 129.4 116.76 124.53 116.76 125.72 120.27"/><polygon class="cls-5" points="81.06 113.47 81.38 110.1 76.83 110.1 76.35 113.47 81.06 113.47"/><polygon class="cls-5" points="118.72 113.47 117.75 110.1 113.2 110.1 114.01 113.47 118.72 113.47"/><polygon class="cls-5" points="76.35 113.47 76.83 110.1 72.28 110.1 71.64 113.47 76.35 113.47"/><polygon class="cls-5" points="90.47 113.47 90.47 110.1 85.92 110.1 85.76 113.47 90.47 113.47"/><polygon class="cls-5" points="71.64 113.47 72.28 110.1 67.73 110.1 66.93 113.47 71.64 113.47"/><polygon class="cls-5" points="66.93 113.47 67.73 110.1 63.19 110.1 62.22 113.47 66.93 113.47"/><polygon class="cls-5" points="85.76 113.47 85.92 110.1 81.38 110.1 81.06 113.47 85.76 113.47"/><polygon class="cls-5" points="114.01 113.47 113.2 110.1 108.66 110.1 109.3 113.47 114.01 113.47"/><polygon class="cls-5" points="109.3 113.47 108.66 110.1 104.11 110.1 104.6 113.47 109.3 113.47"/><polygon class="cls-5" points="99.89 113.47 99.56 110.1 95.02 110.1 95.18 113.47 99.89 113.47"/><polygon class="cls-5" points="111.34 124.04 106.13 124.04 100.91 124.04 95.7 124.04 90.48 124.04 85.27 124.04 80.05 124.04 74.84 124.04 69.62 124.04 64.41 124.04 59.2 124.04 58.04 128.09 63.45 128.09 68.85 128.09 74.26 128.09 79.67 128.09 85.08 128.09 90.48 128.09 95.89 128.09 101.3 128.09 106.71 128.09 112.12 128.09 111.34 124.04"/><polygon class="cls-5" points="104.6 113.47 104.11 110.1 99.56 110.1 99.89 113.47 104.6 113.47"/><rect class="cls-2" x="31.41" y="135.2" width="115.89" height="1.64"/><g id="Calque_2-2" data-name="Calque 2"><g id="Calque_1-2-2" data-name="Calque 1-2"><path class="cls-6" d="M93.18,83.09a10.78,10.78,0,0,0,6.42-10c0-6-4.48-10.8-10.07-10.83S79.4,67.07,79.38,73a10.77,10.77,0,0,0,6.44,10.07C70.26,85.43,71,102.34,71,102.34l36.79.17S108.6,85.42,93.18,83.09Z"/></g></g></g></g></svg>