<svg xmlns="http://www.w3.org/2000/svg" viewBox="0 0 178 184"><defs><style>.cls-1{fill:#d4dee1;}.cls-2{fill:#94b7bd;}.cls-3{opacity:0.2;}.cls-3,.cls-6{isolation:isolate;}.cls-4{fill:#1c5a68;}.cls-5{fill:none;}.cls-6,.cls-7{fill:#dde7e9;}.cls-6{opacity:0.6;}.cls-8{fill:#005e6c;}.cls-9{fill:#005e6b;}.cls-10{fill:#35949f;}</style></defs><g id="Calque_2" data-name="Calque 2"><g id="Calque_1-2" data-name="Calque 1"><path id="bulle_fond" data-name="bulle fond" class="cls-1" d="M0,83.28C0,26.73,24.75,0,77.12,0H99c55.23,0,79,26.73,79,83.28v17.44C178,157.26,153.26,184,99,184H77.12C25.71,184,0,157.26,0,100.72Z"/><g id="freepik--House--inject-9"><polygon class="cls-2" points="134.98 103.21 104.64 103.14 78.03 92.43 50.61 103.02 50.5 153.73 134.87 153.92 134.98 103.21"/><rect class="cls-3" x="94.39" y="113.38" width="50.71" height="30.35" transform="translate(-9.09 247.99) rotate(-89.86)"/><polygon class="cls-4" points="108.38 92.5 78.03 92.43 104.64 103.14 134.98 103.21 108.38 92.5"/><path class="cls-4" d="M135.11,104.8H135l-30.35-.06a1.74,1.74,0,0,1-.59-.13L77.43,93.91A1.6,1.6,0,0,1,78,90.82l30.34.07a1.74,1.74,0,0,1,.6.13l26.6,10.69a1.6,1.6,0,0,1,.79,2.12,1.57,1.57,0,0,1-1.27.92Zm-30.17-3.26,21.75.06-18.64-7.5L86.3,94Z"/><line class="cls-5" x1="78.03" y1="92.43" x2="51.38" y2="103.01"/><path class="cls-4" d="M51.51,104.61a1.6,1.6,0,0,1-.72-3.07l26.65-10.6a1.6,1.6,0,0,1,1.73,2.7,1.82,1.82,0,0,1-.56.22L52,104.45A1.57,1.57,0,0,1,51.51,104.61Z"/><polygon class="cls-6" points="71.8 134.2 82.75 134.2 82.69 153.77 71.73 153.77 71.8 134.2"/><rect class="cls-7" x="70.25" y="104.13" width="15.44" height="25.68" transform="translate(-39.18 194.67) rotate(-89.86)"/><rect class="cls-4" x="64.79" y="111.56" width="13.4" height="10.81" transform="translate(-45.64 188.17) rotate(-89.86)"/><rect class="cls-4" x="77.76" y="111.59" width="13.4" height="10.81" transform="translate(-32.74 201.17) rotate(-89.86)"/><rect class="cls-7" x="112.42" y="109.91" width="15.44" height="14.35" transform="translate(2.77 236.94) rotate(-89.86)"/><rect class="cls-4" x="109.81" y="114.05" width="13.4" height="6.04" transform="matrix(0, -1, 1, 0, -0.85, 233.3)"/><rect class="cls-4" x="117.05" y="114.07" width="13.4" height="6.04" transform="translate(6.37 240.56) rotate(-89.86)"/><polygon class="cls-7" points="112.97 134.01 127.96 134 127.87 149.44 112.88 149.46 112.97 134.01"/><rect class="cls-4" x="109.74" y="138.73" width="13.4" height="6.04" transform="matrix(0, -1, 1, 0, -25.58, 257.85)"/><rect class="cls-4" x="117.6" y="139.01" width="13.44" height="6.06" transform="translate(-17.96 266.09) rotate(-89.89)"/></g><path class="cls-8" d="M91.41,59.94A11.61,11.61,0,1,1,103,48.33,11.61,11.61,0,0,1,91.41,59.94m12.26-22.51a17.54,17.54,0,0,0-14.52-7.37s-13.59,0-17.61,12.16a19.72,19.72,0,0,0,.64,13.72,24.88,24.88,0,0,0,2.54,4.72c3.51,5.07,14.43,18.91,14.43,18.91h2.37c3-4.24,10.73-18.3,13-22.81,2.89-5.66,3.33-13.55-.87-19.33"/><path class="cls-2" d="M91.43,60A11.61,11.61,0,1,1,103,48.42,11.53,11.53,0,0,1,91.43,60m14.63-22.5a17.55,17.55,0,0,0-14.52-7.38S78,30.15,73.93,42.32A19.69,19.69,0,0,0,74.57,56a25.25,25.25,0,0,0,2.54,4.73c3.51,5.06,14.43,18.9,14.43,18.9s12.62-17.35,15.39-22.8c2.89-5.67,3.33-13.56-.87-19.33"/><path class="cls-9" d="M91.43,36.82a11.61,11.61,0,0,0-10.67,7,10,10,0,1,1,.93,10.8,11.6,11.6,0,0,0,9.18,5.26h.55A11.6,11.6,0,0,0,103,48.33a11.38,11.38,0,0,0-.18-2,11.61,11.61,0,0,0-11.41-9.47"/><path class="cls-8" d="M102.84,46.29a11.38,11.38,0,0,1,.18,2,11.38,11.38,0,0,0-.18-2m-12,13.63h0m0,0h0m0,0h0m0,0h0m0,0h0m0,0h0m0,0h0m0,0h0m0,0h0m0,0h0m0,0h0m0,0h0m0,0h0m0,0h0m0,0h0"/><path class="cls-10" d="M91.41,36.72a11.63,11.63,0,0,0-10.94,7.73c.09-.2.19-.4.29-.59a11.61,11.61,0,0,1,22.08,2.43,11.6,11.6,0,0,0-11.43-9.57"/></g></g></svg>