<svg xmlns="http://www.w3.org/2000/svg" viewBox="0 0 178 184"><defs><style>.cls-1{fill:#d4dee1;}.cls-2{fill:#1c5a68;}.cls-3{fill:#263238;}.cls-4{fill:#dde7e9;}.cls-5{fill:#94b7bd;}.cls-6{opacity:0.3;}.cls-7{fill:#fff;}</style></defs><g id="Calque_2" data-name="Calque 2"><g id="Calque_1-2" data-name="Calque 1"><path id="bulle_fond" data-name="bulle fond" class="cls-1" d="M0,83.28C0,26.73,24.75,0,77.12,0H99c55.23,0,79,26.73,79,83.28v17.44C178,157.26,153.26,184,99,184H77.12C25.71,184,0,157.26,0,100.72Z"/><g id="Calque_1-2-2" data-name="Calque 1-2"><path class="cls-2" d="M146,66s-7.52-13.6-30.58-14.28-88.95,21-85.83,53.64,54,27.44,64.24,25.11a90.56,90.56,0,0,0,29.05-12.62c17.39-11.81,25.61-22.86,25.62-39.53A25.71,25.71,0,0,0,146,66Z"/><path class="cls-3" d="M145.7,78.72a1.21,1.21,0,0,1,0,.38,8.84,8.84,0,0,1-.16,1.15,14.25,14.25,0,0,1-.35,1.82c-.15.73-.33,1.62-.6,2.49a50.48,50.48,0,0,1-14.22,23.25,58.68,58.68,0,0,1-10.5,7.54,92.47,92.47,0,0,1-27.78,9.92,78.45,78.45,0,0,1-29.45,1,45.21,45.21,0,0,1-21.77-10.06A31.22,31.22,0,0,1,31.58,103a17.42,17.42,0,0,1-.74-2.46,11.58,11.58,0,0,1-.39-1.84,5.4,5.4,0,0,0-.16-1.13,1.21,1.21,0,0,1,0-.38,55.15,55.15,0,0,0,1.61,5.69,31.56,31.56,0,0,0,9.38,12.91,45,45,0,0,0,21.54,9.71A78.81,78.81,0,0,0,92,124.42a93,93,0,0,0,27.55-9.78A57.61,57.61,0,0,0,130,107.26a49.69,49.69,0,0,0,7.31-8.35,50.81,50.81,0,0,0,7.05-14.53c.29-.92.52-1.74.68-2.45s.34-1.32.44-1.81l.24-1.13Z"/><path class="cls-4" d="M65.39,87.27a20.4,20.4,0,0,0-5.47-2,6.94,6.94,0,0,0-5.56,1.18,4.91,4.91,0,0,0-1.48,2.16,5.38,5.38,0,0,1-4.21,3.63,40.73,40.73,0,0,0-5.2,1.19,4.58,4.58,0,0,0-2.24,1.45c-1.91,2.34.08,4.73,2.24,5.35a24.16,24.16,0,0,0,5.76.21,2.36,2.36,0,0,1,1.59.58c1.21,1.17.21,3-.16,4.49a5.46,5.46,0,0,0,2.25,5.71,5.29,5.29,0,0,0,6.06-.34,15.53,15.53,0,0,0,2.72-3.63,5.46,5.46,0,0,1,3.54-2.64c2.26-.25,4.1,2,6.36,2.24a4.1,4.1,0,0,0,4-2,4.18,4.18,0,0,0-.26-4.47c-.5-.68-1.18-1.16-1.7-1.81a2.44,2.44,0,0,1-.55-2.31A2.68,2.68,0,0,1,74.57,95a32.82,32.82,0,0,0,3.6-1.42,3.66,3.66,0,0,0,2.1-3.07,3.38,3.38,0,0,0-2.09-2.78,9.44,9.44,0,0,0-3.53-.64c-3.13-.16-6.86,1.34-9.23.16"/><path class="cls-5" d="M108.3,94.68a20.88,20.88,0,0,0-5.47-2,7.1,7.1,0,0,0-5.56,1.18A5,5,0,0,0,95.82,96a5.39,5.39,0,0,1-4.21,3.64,44.44,44.44,0,0,0-5.2,1.19,4.47,4.47,0,0,0-2.24,1.45c-1.91,2.36.08,4.75,2.24,5.36a25.25,25.25,0,0,0,5.76.21,2.34,2.34,0,0,1,1.62.6c1.21,1.14.21,2.93-.17,4.48a5.5,5.5,0,0,0,2.26,5.72,5.34,5.34,0,0,0,6.06-.36,16,16,0,0,0,2.72-3.63,5.41,5.41,0,0,1,3.52-2.63c2.28-.26,4.12,2,6.38,2.23a4.05,4.05,0,0,0,4-2,4.24,4.24,0,0,0-.25-4.49c-.5-.66-1.18-1.16-1.7-1.8a2.36,2.36,0,0,1-.55-2.31,2.74,2.74,0,0,1,1.49-1.21c1.18-.52,2.47-.79,3.6-1.42A3.7,3.7,0,0,0,123.24,98a3.35,3.35,0,0,0-2.08-2.78,9.32,9.32,0,0,0-3.55-.66c-3.13-.16-6.86,1.32-9.23.15"/><path class="cls-5" d="M101.55,60A24.23,24.23,0,0,0,95.1,58.4a8.13,8.13,0,0,0-6.14,2A5.55,5.55,0,0,0,87.54,63a6.09,6.09,0,0,1-4.31,4.57,47.29,47.29,0,0,0-5.72,2,5.35,5.35,0,0,0-2.36,1.9c-1.86,2.86.69,5.26,3.23,5.68a28.72,28.72,0,0,0,6.55-.48,2.69,2.69,0,0,1,1.87.46c1.52,1.13.61,3.23.39,5A5.92,5.92,0,0,0,97.27,87a16.84,16.84,0,0,0,2.63-4.38,6.13,6.13,0,0,1,3.67-3.38c2.53-.55,4.84,1.62,7.49,1.71a4.55,4.55,0,0,0,3.37-7.68c-.65-.68-1.47-1.14-2.15-1.79a2.65,2.65,0,0,1-.9-2.52,3,3,0,0,1,1.52-1.53,37.7,37.7,0,0,0,3.9-2,4.08,4.08,0,0,0,2-3.68,3.74,3.74,0,0,0-2.7-2.84,11,11,0,0,0-4.09-.26c-3.57.21-7.59,2.34-10.43,1.32"/><g class="cls-6"><path class="cls-7" d="M108.3,94.68a20.88,20.88,0,0,0-5.47-2,7.1,7.1,0,0,0-5.56,1.18A5,5,0,0,0,95.82,96a5.39,5.39,0,0,1-4.21,3.64,44.44,44.44,0,0,0-5.2,1.19,4.47,4.47,0,0,0-2.24,1.45c-1.91,2.36.08,4.75,2.24,5.36a25.25,25.25,0,0,0,5.76.21,2.34,2.34,0,0,1,1.62.6c1.21,1.14.21,2.93-.17,4.48a5.5,5.5,0,0,0,2.26,5.72,5.34,5.34,0,0,0,6.06-.36,16,16,0,0,0,2.72-3.63,5.41,5.41,0,0,1,3.52-2.63c2.28-.26,4.12,2,6.38,2.23a4.05,4.05,0,0,0,4-2,4.24,4.24,0,0,0-.25-4.49c-.5-.66-1.18-1.16-1.7-1.8a2.36,2.36,0,0,1-.55-2.31,2.74,2.74,0,0,1,1.49-1.21c1.18-.52,2.47-.79,3.6-1.42A3.7,3.7,0,0,0,123.24,98a3.35,3.35,0,0,0-2.08-2.78,9.32,9.32,0,0,0-3.55-.66c-3.13-.16-6.86,1.32-9.23.15"/></g></g></g></g></svg>