<svg xmlns="http://www.w3.org/2000/svg" xmlns:xlink="http://www.w3.org/1999/xlink" viewBox="0 0 178 184"><defs><style>.cls-1{fill:none;}.cls-2{fill:#d4dee1;}.cls-3{clip-path:url(#clip-path);}.cls-4{fill:#e1e1e1;}.cls-5{fill:#94b7bd;}.cls-6{fill:#1c5a68;}.cls-7{clip-path:url(#clip-path-2);}.cls-8{fill:#fff;}.cls-9{clip-path:url(#clip-path-3);}.cls-10{fill:#1a2e35;}</style><clipPath id="clip-path"><rect class="cls-1" x="44.55" y="51.11" width="85.21" height="89.75"/></clipPath><clipPath id="clip-path-2"><rect class="cls-1" x="45.54" y="43.14" width="36.25" height="18.19"/></clipPath><clipPath id="clip-path-3"><rect class="cls-1" x="108.19" y="51.45" width="27.71" height="33.29"/></clipPath></defs><g id="Calque_2" data-name="Calque 2"><g id="Calque_1-2" data-name="Calque 1"><path id="bulle_fond" data-name="bulle fond" class="cls-2" d="M0,83.28C0,26.73,24.75,0,77.12,0H99c55.23,0,79,26.73,79,83.28v17.44C178,157.26,153.26,184,99,184H77.12C25.71,184,0,157.26,0,100.72Z"/><g id="Group_24" data-name="Group 24"><g id="Group_3" data-name="Group 3"><path id="Clip_2-2" data-name="Clip 2-2" class="cls-1" d="M44.55,51.11h85.21v89.75H44.55Z"/><g class="cls-3"><g id="Group_3-2" data-name="Group 3-2"><path id="Fill_1" data-name="Fill 1" class="cls-4" d="M57.88,51.11l-13.33,67c6.19,6.21,12.74,12.07,23.27,14.23l50.63,8.55,11.31-78.69Z"/></g></g></g><path id="Fill_4" data-name="Fill 4" class="cls-5" d="M55.38,47.86,42.1,114.27l23.19,14.11,50.47,8.48L130.1,61.93Z"/><path id="Fill_6" data-name="Fill 6" class="cls-5" d="M42.1,113.53s3.4,5.58,8.33,8.59a41.06,41.06,0,0,0,14.67,5.74s-11-5.47-13.71-18Z"/><path id="Fill_8" data-name="Fill 8" class="cls-6" d="M51.39,109.86c-3.59,2.5-7.52,5.58-9.29,3.67,0,0,3.4,5.58,8.33,8.59a41.06,41.06,0,0,0,14.67,5.74s-11-5.47-13.71-18"/><g id="Group_12" data-name="Group 12"><path id="Clip_11-2" data-name="Clip 11-2" class="cls-1" d="M45.54,43.14H81.79V61.33H45.54Z"/><g class="cls-7"><g id="Group_12-2" data-name="Group 12-2"><path id="Fill_10" data-name="Fill 10" class="cls-8" d="M48.29,61.33l33.5-10.95L79.6,43.14,45.54,53.58Z"/></g></g></g><g id="Group_15" data-name="Group 15"><path id="Clip_14-2" data-name="Clip 14-2" class="cls-1" d="M108.19,51.45H135.9V84.74H108.19Z"/><g class="cls-9"><g id="Group_15-2" data-name="Group 15-2"><path id="Fill_13" data-name="Fill 13" class="cls-8" d="M135.9,79.37,114,51.45l-5.79,4.66,21.67,28.63Z"/></g></g></g><path id="Fill_16" data-name="Fill 16" class="cls-10" d="M117.1,83.86c0,.09-12.79-2.3-28.53-5.33S60.08,73,60.1,72.86s12.79,2.3,28.53,5.34,28.49,5.57,28.47,5.66"/><path id="Fill_18" data-name="Fill 18" class="cls-10" d="M115.1,93.86c0,.09-12.79-2.3-28.53-5.33S58.08,83,58.1,82.86s12.79,2.3,28.53,5.34,28.48,5.57,28.47,5.66"/><path id="Fill_20" data-name="Fill 20" class="cls-10" d="M114.1,103.86c0,.09-12.79-2.3-28.53-5.33S57.08,93,57.1,92.86s12.79,2.3,28.53,5.34,28.49,5.57,28.47,5.66"/><path id="Fill_22" data-name="Fill 22" class="cls-10" d="M112.1,111.86c0,.09-12.79-2.3-28.53-5.33S55.08,101,55.1,100.86s12.79,2.3,28.53,5.34,28.48,5.57,28.47,5.66"/></g></g></g></svg>