<svg xmlns="http://www.w3.org/2000/svg" viewBox="0 0 178 184"><defs><style>.cls-1{fill:#d4dee1;}.cls-2{fill:#94b7bd;}.cls-3{fill:#1c5a68;}</style></defs><g id="Calque_2" data-name="Calque 2"><g id="Calque_1-2" data-name="Calque 1"><path id="bulle_fond" data-name="bulle fond" class="cls-1" d="M0,83.28C0,26.73,24.75,0,77.12,0H99c55.23,0,79,26.73,79,83.28v17.44C178,157.26,153.26,184,99,184H77.12C25.71,184,0,157.26,0,100.72Z"/><g id="freepik--Money--inject-131"><path class="cls-2" d="M140.35,84.4a51.91,51.91,0,1,1-59-43.74l.17,0a51.8,51.8,0,0,1,58.78,43.75Z"/><path class="cls-3" d="M127.94,84.92c-.24,0-.66-1.65-1.72-4.55a40.77,40.77,0,0,0-12.43-17.7,39.32,39.32,0,0,0-8.65-5.34,36.24,36.24,0,0,0-5.16-1.9,36.82,36.82,0,0,0-5.6-1.24,38.78,38.78,0,0,0-5.9-.34A39,39,0,0,0,76.5,56a43,43,0,0,0-5.44,2.36,36.88,36.88,0,0,0-4.84,3.06A37.36,37.36,0,0,0,62,65,39.24,39.24,0,0,0,52.14,81a41.53,41.53,0,0,0-2,12.81c0,3.08.18,4.82,0,4.85s-.77-1.63-1.13-4.79a36.16,36.16,0,0,1,1.09-13.46,39.93,39.93,0,0,1,3.51-8.75A40.6,40.6,0,0,1,60.13,63a38.14,38.14,0,0,1,4.42-3.91,39.82,39.82,0,0,1,5.18-3.35A40.8,40.8,0,0,1,88.5,50.82a42.56,42.56,0,0,1,6.38.42,37.7,37.7,0,0,1,6,1.36,40.38,40.38,0,0,1,5.5,2.14,39.69,39.69,0,0,1,15.4,12.95A37.17,37.17,0,0,1,127.46,80C128.1,83.16,128.11,84.89,127.94,84.92Z"/><path class="cls-3" d="M96.82,114.53l1.09,6.8-6.07,1-1.06-6.62c-6.07.59-12.14-.36-15.9-2.47L77,105.26a24.66,24.66,0,0,0,12.47,2.47L87.88,97.6C80.88,97,73,96,71.59,87.31c-1-6.43,2.77-12.71,12.19-15.33l-1.09-6.75,6.08-1,1,6.61a27.93,27.93,0,0,1,12.93,1.73l-1.84,8a25.23,25.23,0,0,0-9.8-1.67l1.65,10.32c7,.49,14.76,1.56,16.13,10.12C109.91,105.64,106.16,111.85,96.82,114.53ZM86.45,88.66,85.07,80C82,81.25,81,83.22,81.3,85.23S83.64,88.24,86.45,88.66Zm12.79,13c-.35-2.13-2.29-3-5-3.5l1.33,8.38c2.93-1.1,4-2.94,3.71-4.88Z"/><path class="cls-3" d="M49.89,97.62a1.81,1.81,0,0,1,.09.31c.06.24.14.54.22.92l.32,1.48a19.76,19.76,0,0,0,.52,2,39.92,39.92,0,0,0,5.7,11.87,40.6,40.6,0,0,0,6,6.79l1.94,1.59c.34.26.66.54,1,.79l1.09.71c.73.47,1.45,1,2.23,1.45l2.39,1.24a40.55,40.55,0,0,0,10.94,3.57,42.66,42.66,0,0,0,12.36.13,43.14,43.14,0,0,0,11.79-3.7A40.62,40.62,0,0,0,116,120.2l1.93-1.94c.63-.64,1.15-1.36,1.72-2l.82-1a11.66,11.66,0,0,0,.73-1c.48-.7.94-1.39,1.41-2.07a42,42,0,0,0,3.81-8.26,39.62,39.62,0,0,0,2-13,13.16,13.16,0,0,0-.08-2.08c0-.58-.09-1.08-.12-1.52a5.73,5.73,0,0,0-.06-.94,1.71,1.71,0,0,1,0-.32.91.91,0,0,1,.06.32,8.85,8.85,0,0,0,.13.93c.05.37.11.94.18,1.52a14.58,14.58,0,0,1,.14,2.09A38.3,38.3,0,0,1,126.8,104a40.42,40.42,0,0,1-3.79,8.4l-1.4,2.1c-.25.36-.47.73-.74,1.08l-.83,1c-.57.68-1.1,1.41-1.73,2.07s-1.24,1.31-2,2a40.39,40.39,0,0,1-9.57,6.72A39.62,39.62,0,0,1,82.28,131a41.24,41.24,0,0,1-11.12-3.71l-2.47-1.32c-.79-.45-1.51-1-2.25-1.48l-1.1-.72c-.34-.26-.67-.56-1-.82l-1.95-1.61a40.83,40.83,0,0,1-6.06-6.94,38.48,38.48,0,0,1-5.56-12.06,13.1,13.1,0,0,1-.47-2c-.1-.58-.19-1.08-.27-1.51l-.15-.93A1.49,1.49,0,0,1,49.89,97.62Z"/></g></g></g></svg>