<svg xmlns="http://www.w3.org/2000/svg" viewBox="0 0 178 184"><defs><style>.cls-1{fill:#d4dee1;}.cls-2{fill:#1c5a68;}.cls-3{fill:#263238;}.cls-4{fill:#ffbe9d;}.cls-5{fill:#eb996e;}</style></defs><g id="Calque_2" data-name="Calque 2"><g id="Calque_1-2" data-name="Calque 1"><path id="bulle_fond" data-name="bulle fond" class="cls-1" d="M0,83.28C0,26.73,24.75,0,77.12,0H99c55.23,0,79,26.73,79,83.28v17.44C178,157.26,153.26,184,99,184H77.12C25.71,184,0,157.26,0,100.72Z"/><g id="freepik--character-1--inject-315"><path class="cls-2" d="M35,151c0-1.21,4.08-34.64,30.28-41.64C89.91,102.84,96,104.77,96,104.77s13.85-.55,28.41,9C141.38,124.86,143,151,143,151Z"/><path class="cls-3" d="M66,38.44c-10.75.77-13,15.28-12.08,23.49.44,3.92,1.77,8.11-.11,11.59-1.32,2.43-4,4-5.13,6.51-1.32,3.09.11,6.62,1.21,9.82s1.66,7.22-.88,9.48c6.18,1.44,12.36,2.87,18.65,3s12.79-1,18.09-4.53"/><path class="cls-3" d="M59.07,67.51c-7.5-16.06,1.82-26.26,8-30,3.7-2.21,8.11-2.81,12.41-3a46.56,46.56,0,0,1,12.69.78,22.49,22.49,0,0,1,11.14,5.84c5.3,5.35,6.73,13.52,6.45,21A58.84,58.84,0,0,1,103,87.67a6.8,6.8,0,0,1-2.16,2.65,2.27,2.27,0,0,1-3-.44"/><path class="cls-4" d="M84.56,122.67c7.33.27,13.51-6.13,14-17.43l2.37-57.32-.17,4a4.6,4.6,0,0,0-4.24-4.53l-22.7-1.73A13.71,13.71,0,0,0,59,58.2s0,.1,0,.15A2.07,2.07,0,0,1,59,59c-.27,8.71-.33,19.41.94,25.87,2.48,13,12.52,14.39,12.52,14.39l-.55,9.49a13.3,13.3,0,0,0,12.52,14h.17Z"/><path class="cls-3" d="M63.54,65.69a1.63,1.63,0,0,0,1.61,1.65h0a1.56,1.56,0,0,0,1.63-1.49v-.11a1.62,1.62,0,0,0-1.59-1.65h-.07a1.51,1.51,0,0,0-1.64,1.38.45.45,0,0,0,0,.11Z"/><path class="cls-3" d="M61.39,64.42c.22.22,1.43-.78,3.25-.83s3.15.83,3.37.61-.11-.5-.72-.89a5,5,0,0,0-2.7-.77,4.14,4.14,0,0,0-2.59.94C61.5,63.92,61.28,64.31,61.39,64.42Z"/><path class="cls-3" d="M81.41,65.69A1.63,1.63,0,0,0,83,67.34h0a1.65,1.65,0,0,0,1.75-1.54v-.06a1.62,1.62,0,0,0-1.59-1.65h-.07a1.66,1.66,0,0,0-1.71,1.6Z"/><path class="cls-3" d="M79.15,64.25c.22.22,1.43-.77,3.25-.83s3.15.83,3.31.61-.11-.5-.71-.88a4.56,4.56,0,0,0-2.71-.72,4.14,4.14,0,0,0-2.59.94C79.21,63.76,79,64.14,79.15,64.25Z"/><path class="cls-3" d="M73,77.77a10.71,10.71,0,0,0-2.92-.45c-.44,0-.88-.11-1-.44a2.36,2.36,0,0,1,.27-1.38c.39-1.15.83-2.31,1.27-3.53,1.77-5.07,3-9.21,2.81-9.26s-1.76,4-3.53,9l-1.21,3.58a2.55,2.55,0,0,0-.17,1.82,1.33,1.33,0,0,0,.78.67,4,4,0,0,0,.77.11A9.61,9.61,0,0,0,73,77.77Z"/><path class="cls-5" d="M72.37,99.17A33.32,33.32,0,0,0,89.74,94s-4.41,9.16-17.54,8.33Z"/><path class="cls-5" d="M73.91,82.12a3.4,3.4,0,0,1,2.87-1.32,3.1,3.1,0,0,1,2.09,1A1.93,1.93,0,0,1,79.1,84a2.11,2.11,0,0,1-2.32.66,6,6,0,0,1-2.32-1.32,5.17,5.17,0,0,1-.55-.5.7.7,0,0,1,0-.66"/><path class="cls-3" d="M78.32,78.87c-.27,0-.22,1.93-1.87,3.36S72.7,83.5,72.7,83.78c0,.11.49.38,1.38.38A4.77,4.77,0,0,0,77.22,83a4.1,4.1,0,0,0,1.43-2.81C78.71,79.37,78.49,78.87,78.32,78.87Z"/><path class="cls-3" d="M78.27,61.11c.22.49,2,.22,4.13.38s3.87.72,4.14.28c.11-.22-.22-.66-.88-1.1a7.19,7.19,0,0,0-6.29-.5C78.54,60.45,78.16,60.83,78.27,61.11Z"/><path class="cls-3" d="M61.94,59.18c.33.38,1.54-.06,3-.11s2.76.22,3-.22c.11-.22-.11-.61-.66-1a4.43,4.43,0,0,0-2.49-.6,4.33,4.33,0,0,0-2.42.88C61.94,58.57,61.82,59,61.94,59.18Z"/><path class="cls-3" d="M68.56,36.67c12.47-7.45,26.2-2.81,36.74,7.17,2.31,2.21,4.41,4.86,7.39,6,3.2,1.27,7.44.94,9.43,3.81,2.32,3.31-.55,8.16,1.16,11.86,1.6,3.37,6.29,4.25,8.11,7.5,1.43,2.54.66,5.68.11,8.55s-.72,6.29,1.49,8.22l-27,11.09a6.45,6.45,0,0,1-3.8.5c-3.86-.67-4.25-4.25-4-7.23.22-2.21.6-4.58-.33-6.57-1.16-2.37-4-3.58-5.08-6-1.88-4.25,2.87-8.88,2.15-13.46-.44-2.87-3-5-5.74-6.12s-5.68-1.38-8.49-2.21c-6.51-1.87-11.91-7.61-14.84-14.12a7,7,0,0,1,2.65-9Z"/><path class="cls-2" d="M117.6,95.69l.16-.16a3.5,3.5,0,0,0,.44-.5,6.63,6.63,0,0,0,1.27-2.2,7.55,7.55,0,0,0,.28-4,7,7,0,0,0-2.92-4.3A13.42,13.42,0,0,0,114,83.21a20.36,20.36,0,0,1-3.14-1.38,5.37,5.37,0,0,1-2.32-2.76,10.13,10.13,0,0,1-.55-3.86,31.45,31.45,0,0,1,.5-4,13.38,13.38,0,0,0,0-4.19,11.35,11.35,0,0,0-4.86-7,22.85,22.85,0,0,0-8.22-3.2c-2.81-.61-5.57-.88-8.16-1.43a28.79,28.79,0,0,1-3.75-1l-1.77-.66a17.6,17.6,0,0,1-1.65-.77,26.15,26.15,0,0,1-5.35-3.81,23.65,23.65,0,0,1-5.41-7.78c-.22-.49-.38-1-.55-1.37a5.86,5.86,0,0,1-.33-1,5.33,5.33,0,0,0-.17-.66v-.22a.41.41,0,0,1,0,.22l.22.66c.06.27.22.6.34,1a8.52,8.52,0,0,0,.55,1.37A23.66,23.66,0,0,0,80.14,52.76c.5.28,1,.5,1.6.78a17.74,17.74,0,0,0,1.71.66,32.12,32.12,0,0,0,3.75.94c2.6.49,5.35.82,8.22,1.43a22.59,22.59,0,0,1,8.33,3.2A12.88,12.88,0,0,1,107,63a9.84,9.84,0,0,1,1.81,4,13.77,13.77,0,0,1,0,4.25c-.17,1.38-.44,2.7-.5,4a8.71,8.71,0,0,0,.5,3.75,5.18,5.18,0,0,0,.88,1.55A7,7,0,0,0,111,81.7a15.84,15.84,0,0,0,3.09,1.38A13.31,13.31,0,0,1,117,84.46a7.59,7.59,0,0,1,3,4.46,7.77,7.77,0,0,1-.28,4,8,8,0,0,1-1.32,2.21A2.86,2.86,0,0,0,117.6,95.69Z"/><path class="cls-2" d="M128.19,94.15v-.22l.28-.61a10.11,10.11,0,0,0,.66-2.54,13,13,0,0,0-2-9.21A11.06,11.06,0,0,0,125,79.2c-.82-.72-1.76-1.43-2.75-2.15a16.61,16.61,0,0,1-2.76-2.54,8.49,8.49,0,0,1-1.64-3.58c-.61-2.71-.28-5.58-.61-8.5a9.47,9.47,0,0,0-1.39-4.19,8.85,8.85,0,0,0-3.47-2.92A15,15,0,0,0,108,54c-1.49-.28-3-.44-4.47-.67a43.21,43.21,0,0,1-8.33-2,51,51,0,0,1-7.11-3,48,48,0,0,1-5.74-3.59,47.33,47.33,0,0,1-7.28-6.51c-.39-.44-.72-.83-1-1.16l-.72-.88-.44-.55c-.06-.06-.11-.11-.11-.17l.16.17.44.49.72.89c.28.33.66.71,1,1.1a50.94,50.94,0,0,0,7.28,6.4A54.94,54.94,0,0,0,88.2,48a45.62,45.62,0,0,0,7.06,3,52.18,52.18,0,0,0,8.27,2c1.44.22,3,.39,4.47.67a16.32,16.32,0,0,1,4.47,1.43,9,9,0,0,1,3.58,3,9.52,9.52,0,0,1,1.44,4.36c.33,3,0,5.85.6,8.5a8.77,8.77,0,0,0,1.66,3.53A19.45,19.45,0,0,0,122.51,77c.93.72,1.93,1.44,2.75,2.16a12.74,12.74,0,0,1,2.16,2.42,12.5,12.5,0,0,1,2,5.19,12,12,0,0,1,0,4.19,13.9,13.9,0,0,1-.72,2.54l-.28.6C128.3,94,128.24,94.09,128.19,94.15Z"/></g></g></g></svg>