<svg xmlns="http://www.w3.org/2000/svg" viewBox="0 0 178 184"><defs><style>.cls-1{fill:#d4dee1;}.cls-2{fill:#263238;}.cls-3{fill:#94b7bd;}</style></defs><g id="Calque_2" data-name="Calque 2"><g id="Calque_1-2" data-name="Calque 1"><path id="bulle_fond" data-name="bulle fond" class="cls-1" d="M0,83.28C0,26.73,24.75,0,77.12,0H99c55.23,0,79,26.73,79,83.28v17.44C178,157.26,153.26,184,99,184H77.12C25.71,184,0,157.26,0,100.72Z"/><g id="freepik--Icon--inject-750"><path class="cls-2" d="M97.52,131.42a8.84,8.84,0,1,1-8.81-8.87h0a8.84,8.84,0,0,1,8.81,8.87Z"/><path class="cls-2" d="M71,120.07a24.45,24.45,0,0,1,34.56-1.3h0c.29.26.57.54.84.82,4.51,4.54,11.58-2.45,7-7a34.54,34.54,0,0,0-48.83-.26L64,113c-4.41,4.63,2.57,11.7,7,7Z"/><path class="cls-2" d="M41,79C54.45,67.32,70.49,60,88.45,60a70.4,70.4,0,0,1,48.37,18.51c4.65,4.37,11.73-2.61,7-7A80.62,80.62,0,0,0,88.48,50c-20.67,0-39,8.46-54.46,21.84-4.85,4.23,2.17,11.28,7,7Z"/><path class="cls-2" d="M52.87,101.74A48.58,48.58,0,0,1,121.47,98l0,0a37.92,37.92,0,0,1,2.8,2.72c4.47,4.59,11.52-2.4,7-7A58.53,58.53,0,0,0,48.6,91.86h0a38,38,0,0,0-2.74,2.8c-4.33,4.68,2.65,11.76,7,7Z"/><path class="cls-3" d="M97.7,125.17a8.84,8.84,0,1,1-8.81-8.87h0A8.84,8.84,0,0,1,97.7,125.17Z"/><path class="cls-3" d="M71.21,113.75a24.49,24.49,0,0,1,34.59-1.31l0,0,.83.8c4.51,4.55,11.57-2.44,7-7a34.53,34.53,0,0,0-48.83-.34l-.05,0-.65.65c-4.41,4.62,2.57,11.7,7,7Z"/><path class="cls-3" d="M41.19,72.62C54.63,61,70.68,53.7,88.64,53.62A70.33,70.33,0,0,1,137,72.17c4.66,4.37,11.73-2.61,7-7a80.58,80.58,0,0,0-55.33-21.4c-20.67,0-39,8.46-54.48,21.84-4.84,4.23,2.17,11.28,7,7Z"/><path class="cls-3" d="M53,95.41a48.62,48.62,0,0,1,68.65-3.72c1,.87,1.88,1.77,2.77,2.7,4.47,4.6,11.53-2.41,7-7A58.53,58.53,0,0,0,48.82,85.5c-1,.91-1.86,1.84-2.74,2.8-4.33,4.68,2.65,11.76,7.05,7Z"/></g></g></g></svg>