<svg xmlns="http://www.w3.org/2000/svg" viewBox="0 0 178 184"><defs><style>.cls-1{fill:#d4dee1;}.cls-2{fill:#94b7bd;}.cls-3{opacity:0.1;}.cls-12,.cls-13,.cls-15,.cls-17,.cls-19,.cls-20,.cls-3,.cls-4,.cls-5,.cls-8,.cls-9{isolation:isolate;}.cls-11,.cls-4,.cls-5,.cls-8,.cls-9{fill:#fff;}.cls-4{opacity:0.65;}.cls-5{opacity:0.5;}.cls-6{fill:#455a64;}.cls-7{fill:#37474f;}.cls-17,.cls-8{opacity:0.15;}.cls-9{opacity:0.85;}.cls-10{opacity:0.75;}.cls-12,.cls-16{opacity:0.2;}.cls-13{opacity:0.4;}.cls-14{fill:#263238;}.cls-15{opacity:0.35;}.cls-18{fill:#dde7e9;}.cls-19,.cls-20{fill:#1c5a68;}.cls-19{opacity:0.3;}.cls-20{opacity:0.3;}</style></defs><g id="Calque_2" data-name="Calque 2"><g id="Calque_1-2" data-name="Calque 1"><path id="bulle_fond" data-name="bulle fond" class="cls-1" d="M0,83.28C0,26.73,24.75,0,77.12,0H99c55.23,0,79,26.73,79,83.28v17.44C178,157.26,153.26,184,99,184H77.12C25.71,184,0,157.26,0,100.72Z"/><g id="freepik--Server--inject-2"><g id="freepik--server--inject-2-2" data-name="freepik--server--inject-2"><polygon class="cls-2" points="81.41 106.68 54.66 122.13 27.91 106.68 54.66 91.24 81.41 106.68"/><polygon class="cls-3" points="81.41 106.68 54.66 122.13 27.91 106.68 54.66 91.24 81.41 106.68"/><polygon class="cls-3" points="54.66 122.13 54.66 120.2 29.58 105.72 27.91 106.68 54.66 122.13"/><path class="cls-2" d="M54.66,122.13V132.7a3.69,3.69,0,0,0,1.78-.43h0L68,125.6l12.3-7.11a2.35,2.35,0,0,0,1.08-1.86v-9.95Z"/><path class="cls-4" d="M54.66,122.13V132.7a3.69,3.69,0,0,0,1.78-.43h0L68,125.6l12.3-7.11a2.35,2.35,0,0,0,1.08-1.86v-9.95Z"/><path class="cls-2" d="M27.91,106.68v9.94A2.36,2.36,0,0,0,29,118.47l10.63,6.14,13.27,7.66a3.69,3.69,0,0,0,1.78.43V122.13Z"/><path class="cls-5" d="M27.91,106.68v9.94A2.36,2.36,0,0,0,29,118.47l10.63,6.14,13.27,7.66a3.69,3.69,0,0,0,1.78.43V122.13Z"/><polygon class="cls-2" points="81.41 95.1 54.66 110.54 27.91 95.1 54.66 79.66 81.41 95.1"/><polygon class="cls-3" points="81.41 95.1 54.66 110.54 27.91 95.1 54.66 79.66 81.41 95.1"/><polygon class="cls-3" points="54.66 110.54 54.66 108.61 29.58 94.13 27.91 95.1 54.66 110.54"/><polygon class="cls-2" points="81.41 102.82 54.66 118.26 54.66 110.54 81.41 95.1 81.41 102.82"/><polygon class="cls-4" points="81.41 102.82 54.66 118.26 54.66 110.54 81.41 95.1 81.41 102.82"/><polygon class="cls-2" points="54.66 118.26 27.91 102.82 27.91 95.1 54.66 110.54 54.66 118.26"/><polygon class="cls-5" points="54.66 118.26 27.91 102.82 27.91 95.1 54.66 110.54 54.66 118.26"/><polygon class="cls-6" points="78.06 106.68 78.06 104.75 54.66 118.26 54.66 120.2 78.06 106.68"/><polygon class="cls-2" points="29.58 103.79 29.58 105.72 54.66 120.2 54.66 118.26 29.58 103.79"/><polygon class="cls-7" points="29.58 103.79 29.58 105.72 54.66 120.2 54.66 118.26 29.58 103.79"/><polygon class="cls-2" points="81.41 83.52 54.66 98.96 27.91 83.52 54.66 68.07 81.41 83.52"/><polygon class="cls-3" points="81.41 83.52 54.66 98.96 27.91 83.52 54.66 68.07 81.41 83.52"/><polygon class="cls-3" points="54.66 98.96 54.66 97.03 29.58 82.55 27.91 83.52 54.66 98.96"/><polygon class="cls-2" points="81.41 91.24 54.66 106.68 54.66 98.96 81.41 83.52 81.41 91.24"/><polygon class="cls-4" points="81.41 91.24 54.66 106.68 54.66 98.96 81.41 83.52 81.41 91.24"/><polygon class="cls-2" points="54.66 106.68 27.91 91.24 27.91 83.52 54.66 98.96 54.66 106.68"/><polygon class="cls-5" points="54.66 106.68 27.91 91.24 27.91 83.52 54.66 98.96 54.66 106.68"/><polygon class="cls-6" points="78.06 95.1 78.06 93.17 54.66 106.68 54.66 108.61 78.06 95.1"/><polygon class="cls-7" points="29.58 92.2 29.58 94.13 54.66 108.61 54.66 106.68 29.58 92.2"/><polygon class="cls-6" points="78.06 83.52 78.06 81.58 54.66 95.1 54.66 97.03 78.06 83.52"/><polygon class="cls-7" points="29.58 80.62 29.58 82.55 54.66 97.03 54.66 95.1 29.58 80.62"/><polygon class="cls-2" points="81.41 71.93 54.66 87.38 27.91 71.93 54.66 56.49 81.41 71.93"/><polygon class="cls-8" points="81.41 71.93 54.66 87.38 27.91 71.93 54.66 56.49 81.41 71.93"/><polygon class="cls-3" points="81.41 71.93 54.66 87.38 27.91 71.93 54.66 56.49 81.41 71.93"/><polygon class="cls-3" points="54.66 85.45 54.66 87.38 27.91 71.93 29.58 70.97 54.66 85.45"/><polygon class="cls-2" points="81.41 79.66 54.66 95.1 54.66 87.38 81.41 71.93 81.41 79.66"/><polygon class="cls-4" points="81.41 79.66 54.66 95.1 54.66 87.38 81.41 71.93 81.41 79.66"/><polygon class="cls-2" points="54.66 95.1 27.91 79.66 27.91 71.93 54.66 87.38 54.66 95.1"/><polygon class="cls-5" points="54.66 95.1 27.91 79.66 27.91 71.93 54.66 87.38 54.66 95.1"/><polygon class="cls-6" points="78.06 71.94 78.06 70 54.66 83.52 54.66 85.45 78.06 71.94"/><polygon class="cls-7" points="29.58 69.04 29.58 70.97 54.66 85.45 54.66 83.52 29.58 69.04"/><polygon class="cls-2" points="81.41 60.33 54.66 75.77 27.91 60.33 54.66 44.88 81.41 60.33"/><polygon class="cls-8" points="81.41 60.33 54.66 75.77 27.91 60.33 54.66 44.88 81.41 60.33"/><polygon class="cls-3" points="81.41 60.33 54.66 75.77 27.91 60.33 54.66 44.88 81.41 60.33"/><polygon class="cls-3" points="54.66 73.84 54.66 75.77 27.91 60.33 29.58 59.37 54.66 73.84"/><polygon class="cls-2" points="81.41 68.05 54.66 83.5 54.66 75.77 81.41 60.33 81.41 68.05"/><polygon class="cls-4" points="81.41 68.05 54.66 83.5 54.66 75.77 81.41 60.33 81.41 68.05"/><polygon class="cls-2" points="54.66 83.5 27.91 68.05 27.91 60.33 54.66 75.77 54.66 83.5"/><polygon class="cls-5" points="54.66 83.5 27.91 68.05 27.91 60.33 54.66 75.77 54.66 83.5"/><path class="cls-2" d="M29,48.13,53.6,33.92a2.37,2.37,0,0,1,2.14,0l24.6,14.21A2.37,2.37,0,0,1,81.41,50v6.49L54.64,71.92h0L27.91,56.48V50A2.36,2.36,0,0,1,29,48.13Z"/><path class="cls-5" d="M29,48.13,53.6,33.92a2.37,2.37,0,0,1,2.14,0l24.6,14.21A2.37,2.37,0,0,1,81.41,50v6.49L54.64,71.92h0L27.91,56.48V50A2.36,2.36,0,0,1,29,48.13Z"/><path class="cls-2" d="M54.64,63.83v8.09L81.41,56.48V50a2.38,2.38,0,0,0-.88-1.71c.37.34.33.8-.19,1.11L55.71,63.59A2.21,2.21,0,0,1,54.64,63.83Z"/><path class="cls-4" d="M54.64,63.83v8.09L81.41,56.48V50a2.38,2.38,0,0,0-.88-1.71c.37.34.33.8-.19,1.11L55.71,63.59A2.21,2.21,0,0,1,54.64,63.83Z"/><path class="cls-2" d="M80.34,49.37,55.71,63.58a2.37,2.37,0,0,1-2.14,0L29,49.37a.65.65,0,0,1,0-1.24L53.6,33.92a2.37,2.37,0,0,1,2.14,0l24.6,14.21A.66.66,0,0,1,80.34,49.37Z"/><path class="cls-9" d="M80.34,49.37,55.71,63.58a2.37,2.37,0,0,1-2.14,0L29,49.37a.65.65,0,0,1,0-1.24L53.6,33.92a2.37,2.37,0,0,1,2.14,0l24.6,14.21A.66.66,0,0,1,80.34,49.37Z"/><polygon class="cls-6" points="78.06 60.33 78.06 58.4 54.66 71.92 54.66 73.84 78.06 60.33"/><polygon class="cls-7" points="29.58 57.44 29.58 59.37 54.66 73.84 54.66 71.92 29.58 57.44"/><path class="cls-6" d="M33.73,119a.84.84,0,0,1,.37.65.23.23,0,0,1-.37.21.84.84,0,0,1-.38-.64C33.35,119,33.52,118.88,33.73,119Z"/><path class="cls-6" d="M36.84,120.78a.82.82,0,0,1,.37.64c0,.24-.17.33-.37.22a.83.83,0,0,1-.37-.65C36.47,120.76,36.62,120.66,36.84,120.78Z"/><path class="cls-6" d="M39.86,122.54a.8.8,0,0,1,.37.63c0,.24-.16.33-.37.22a.8.8,0,0,1-.37-.64C39.49,122.5,39.66,122.42,39.86,122.54Z"/><path class="cls-6" d="M42.93,124.31a.82.82,0,0,1,.37.63c0,.24-.17.33-.37.22a.8.8,0,0,1-.37-.64C42.56,124.29,42.72,124.19,42.93,124.31Z"/><g class="cls-10"><path class="cls-11" d="M30.12,109.89l3.14,1.81a1.93,1.93,0,0,1,.89,1.54V115c0,.57-.39.8-.89.51l-3.14-1.8a2,2,0,0,1-.89-1.54V110.4C29.23,109.82,29.63,109.59,30.12,109.89Z"/></g><path class="cls-2" d="M31,111.91l.4-.24h0a.55.55,0,0,1,.55.06,1.68,1.68,0,0,1,.77,1.34.53.53,0,0,1-.22.5h0l-.37.22-.07-.11a.85.85,0,0,1-.22-.09,1.72,1.72,0,0,1-.78-1.34.64.64,0,0,1,0-.2Z"/><path class="cls-12" d="M31,111.91l.4-.24h0a.55.55,0,0,1,.55.06,1.68,1.68,0,0,1,.77,1.34.53.53,0,0,1-.22.5h0l-.37.22-.07-.11a.85.85,0,0,1-.22-.09,1.72,1.72,0,0,1-.78-1.34.64.64,0,0,1,0-.2Z"/><path class="cls-2" d="M31.53,112a1.75,1.75,0,0,1,.78,1.34c0,.5-.35.7-.78.45a1.73,1.73,0,0,1-.78-1.34C30.75,111.91,31.1,111.71,31.53,112Z"/><g class="cls-10"><path class="cls-11" d="M30.12,98.29l3.14,1.8a2,2,0,0,1,.89,1.54v1.81c0,.57-.39.8-.89.51l-3.14-1.81a1.92,1.92,0,0,1-.89-1.52V98.8C29.23,98.23,29.63,98,30.12,98.29Z"/></g><path class="cls-2" d="M31,100.32l.4-.24h0a.55.55,0,0,1,.55.06,1.68,1.68,0,0,1,.77,1.34.55.55,0,0,1-.22.5h0l-.37.21L32,102.1a.92.92,0,0,1-.23-.09,1.68,1.68,0,0,1-.77-1.34.62.62,0,0,1,0-.19Z"/><path class="cls-12" d="M31,100.32l.4-.24h0a.55.55,0,0,1,.55.06,1.68,1.68,0,0,1,.77,1.34.55.55,0,0,1-.22.5h0l-.37.21L32,102.1a.92.92,0,0,1-.23-.09,1.68,1.68,0,0,1-.77-1.34.62.62,0,0,1,0-.19Z"/><path class="cls-2" d="M31.53,100.36a1.75,1.75,0,0,1,.78,1.34c0,.5-.35.7-.78.45a1.75,1.75,0,0,1-.78-1.34C30.75,100.32,31.1,100.12,31.53,100.36Z"/><g class="cls-10"><path class="cls-11" d="M30.12,86.7l3.14,1.81a1.93,1.93,0,0,1,.89,1.54v1.8c0,.57-.39.8-.89.52l-3.14-1.81A1.93,1.93,0,0,1,29.23,89v-1.8C29.23,86.65,29.63,86.42,30.12,86.7Z"/></g><path class="cls-2" d="M31,88.75l.4-.24h0a.55.55,0,0,1,.55.06,1.71,1.71,0,0,1,.77,1.34.53.53,0,0,1-.22.5h0l-.37.22L32,90.52a.85.85,0,0,1-.22-.09A1.72,1.72,0,0,1,31,89.09a.69.69,0,0,1,0-.2Z"/><path class="cls-12" d="M31,88.75l.4-.24h0a.55.55,0,0,1,.55.06,1.71,1.71,0,0,1,.77,1.34.53.53,0,0,1-.22.5h0l-.37.22L32,90.52a.85.85,0,0,1-.22-.09A1.72,1.72,0,0,1,31,89.09a.69.69,0,0,1,0-.2Z"/><path class="cls-2" d="M31.53,88.78a1.73,1.73,0,0,1,.78,1.34c0,.49-.35.69-.78.45a1.75,1.75,0,0,1-.78-1.34C30.75,88.75,31.1,88.53,31.53,88.78Z"/><g class="cls-10"><path class="cls-11" d="M30.12,75.13l3.14,1.81a1.93,1.93,0,0,1,.89,1.54v1.8c0,.57-.39.8-.89.52L30.12,79a1.93,1.93,0,0,1-.89-1.54v-1.8C29.23,75.08,29.63,74.85,30.12,75.13Z"/></g><path class="cls-2" d="M31,77.16l.4-.23h0a.57.57,0,0,1,.55,0,1.71,1.71,0,0,1,.77,1.34.56.56,0,0,1-.22.51h0L32.1,79,32,78.93a.85.85,0,0,1-.22-.09A1.7,1.7,0,0,1,31,77.5a.69.69,0,0,1,0-.2Z"/><path class="cls-12" d="M31,77.16l.4-.23h0a.57.57,0,0,1,.55,0,1.71,1.71,0,0,1,.77,1.34.56.56,0,0,1-.22.51h0L32.1,79,32,78.93a.85.85,0,0,1-.22-.09A1.7,1.7,0,0,1,31,77.5a.69.69,0,0,1,0-.2Z"/><path class="cls-2" d="M31.53,77.21a1.7,1.7,0,0,1,.78,1.34c0,.49-.35.69-.78.45a1.72,1.72,0,0,1-.78-1.35C30.75,77.16,31.1,77,31.53,77.21Z"/><g class="cls-10"><path class="cls-11" d="M30.12,63.53l3.14,1.8a2,2,0,0,1,.89,1.54v1.81c0,.56-.39.8-.89.51l-3.14-1.8a2,2,0,0,1-.89-1.55V64C29.23,63.47,29.63,63.24,30.12,63.53Z"/></g><path class="cls-2" d="M31,65.56l.4-.24h0a.57.57,0,0,1,.55.06,1.71,1.71,0,0,1,.77,1.34.53.53,0,0,1-.22.5h0l-.37.22L32,67.33a.85.85,0,0,1-.22-.09A1.72,1.72,0,0,1,31,65.9a.69.69,0,0,1,0-.2Z"/><path class="cls-12" d="M31,65.56l.4-.24h0a.57.57,0,0,1,.55.06,1.71,1.71,0,0,1,.77,1.34.53.53,0,0,1-.22.5h0l-.37.22L32,67.33a.85.85,0,0,1-.22-.09A1.72,1.72,0,0,1,31,65.9a.69.69,0,0,1,0-.2Z"/><path class="cls-2" d="M31.53,65.6a1.75,1.75,0,0,1,.78,1.34c0,.5-.35.7-.78.45a1.7,1.7,0,0,1-.78-1.34C30.75,65.56,31.1,65.36,31.53,65.6Z"/><g class="cls-10"><path class="cls-11" d="M30.12,51.93l3.14,1.81a2,2,0,0,1,.89,1.54v1.81c0,.56-.39.79-.89.51l-3.14-1.8a2,2,0,0,1-.89-1.55v-1.8C29.23,51.88,29.63,51.66,30.12,51.93Z"/></g><path class="cls-2" d="M31,54l.4-.24h0a.57.57,0,0,1,.55.05,1.69,1.69,0,0,1,.77,1.35.55.55,0,0,1-.22.5h0l-.37.21-.08-.1a.92.92,0,0,1-.23-.09A1.71,1.71,0,0,1,31,54.31a.65.65,0,0,1,0-.2Z"/><path class="cls-12" d="M31,54l.4-.24h0a.57.57,0,0,1,.55.05,1.69,1.69,0,0,1,.77,1.35.55.55,0,0,1-.22.5h0l-.37.21-.08-.1a.92.92,0,0,1-.23-.09A1.71,1.71,0,0,1,31,54.31a.65.65,0,0,1,0-.2Z"/><path class="cls-2" d="M31.53,54a1.74,1.74,0,0,1,.78,1.36c0,.49-.35.69-.78.44a1.73,1.73,0,0,1-.78-1.34C30.75,54,31.1,53.76,31.53,54Z"/><path class="cls-6" d="M78.84,110.1l-13.26,7.65a2,2,0,0,0-.89,1.55v1.8c0,.57.4.8.89.51L78.84,114a2,2,0,0,0,.9-1.54v-1.81C79.74,110,79.34,109.81,78.84,110.1Z"/><path class="cls-2" d="M78.79,111.62v.87a.36.36,0,0,1-.17.3l-.2.12a.11.11,0,0,1-.18-.1v-.88a.4.4,0,0,1,.18-.31l.2-.11C78.72,111.46,78.79,111.51,78.79,111.62Z"/><path class="cls-2" d="M77.89,112.14V113a.36.36,0,0,1-.17.3l-.2.12a.11.11,0,0,1-.18-.1v-.88a.35.35,0,0,1,.18-.3l.2-.12C77.82,112,77.89,112,77.89,112.14Z"/><path class="cls-2" d="M77,112.66v.87a.42.42,0,0,1-.18.31l-.21.12c-.09.06-.17,0-.17-.1V113a.39.39,0,0,1,.17-.31l.21-.11C76.91,112.49,77,112.55,77,112.66Z"/><path class="cls-7" d="M76.09,113.18v.87a.38.38,0,0,1-.17.31l-.2.12a.11.11,0,0,1-.18-.1v-.88a.38.38,0,0,1,.18-.31l.2-.11C76,113,76.09,113.07,76.09,113.18Z"/><path class="cls-7" d="M75.19,113.7v.87a.38.38,0,0,1-.17.31l-.2.12c-.11.06-.18,0-.18-.1V114a.37.37,0,0,1,.18-.31l.2-.11C75.11,113.54,75.19,113.6,75.19,113.7Z"/><path class="cls-2" d="M74.3,114.22v.86a.37.37,0,0,1-.18.31l-.2.12a.11.11,0,0,1-.18-.11v-.87a.39.39,0,0,1,.18-.31l.2-.11A.12.12,0,0,1,74.3,114.22Z"/><path class="cls-2" d="M73.39,114.74v.87a.37.37,0,0,1-.18.31L73,116a.1.1,0,0,1-.15,0,.16.16,0,0,1,0-.09v-.87a.42.42,0,0,1,.18-.31l.2-.11C73.31,114.58,73.39,114.63,73.39,114.74Z"/><path class="cls-2" d="M72.49,115.26v.87a.37.37,0,0,1-.18.31l-.2.12a.1.1,0,0,1-.15,0,.16.16,0,0,1,0-.09v-.87a.42.42,0,0,1,.18-.31l.2-.11C72.41,115.08,72.49,115.14,72.49,115.26Z"/><path class="cls-2" d="M71.59,115.78v.87a.39.39,0,0,1-.18.31l-.2.12a.12.12,0,0,1-.16,0,.29.29,0,0,1,0-.09v-.87a.39.39,0,0,1,.18-.31l.2-.12C71.51,115.62,71.59,115.66,71.59,115.78Z"/><path class="cls-2" d="M70.69,116.29v.88a.4.4,0,0,1-.18.31l-.2.12a.11.11,0,0,1-.18-.11v-.87a.37.37,0,0,1,.18-.31l.2-.12A.11.11,0,0,1,70.69,116.29Z"/><path class="cls-2" d="M69.79,116.81v.87a.4.4,0,0,1-.18.31l-.2.11a.11.11,0,0,1-.18-.1v-.87a.37.37,0,0,1,.18-.31l.2-.12A.11.11,0,0,1,69.79,116.81Z"/><path class="cls-2" d="M68.89,117.33v.88a.4.4,0,0,1-.18.31l-.2.11a.11.11,0,0,1-.18-.1v-.87a.35.35,0,0,1,.18-.31l.2-.12C68.81,117.17,68.89,117.22,68.89,117.33Z"/><path class="cls-7" d="M68,117.85v.88a.39.39,0,0,1-.17.31l-.2.12a.1.1,0,0,1-.15,0,.08.08,0,0,1,0-.08v-.88a.39.39,0,0,1,.17-.31l.2-.11C67.91,117.68,68,117.74,68,117.85Z"/><path class="cls-2" d="M67.09,118.37v.88a.37.37,0,0,1-.18.3l-.2.12a.11.11,0,0,1-.18-.1v-.88a.37.37,0,0,1,.18-.3l.2-.12C67,118.21,67.09,118.26,67.09,118.37Z"/><path class="cls-2" d="M66.19,118.89v.88a.4.4,0,0,1-.18.3l-.2.12a.11.11,0,0,1-.18-.1v-.88a.35.35,0,0,1,.18-.3l.2-.12a.11.11,0,0,1,.16,0A.19.19,0,0,1,66.19,118.89Z"/><path class="cls-6" d="M78.84,98.52l-13.26,7.66a2,2,0,0,0-.89,1.54v1.8c0,.57.4.8.89.51l13.26-7.66a2,2,0,0,0,.9-1.54V99C79.74,98.46,79.34,98.23,78.84,98.52Z"/><path class="cls-2" d="M78.79,100v.88a.36.36,0,0,1-.17.3l-.2.12a.11.11,0,0,1-.18-.1v-.88a.37.37,0,0,1,.18-.3l.2-.12C78.72,99.87,78.79,99.93,78.79,100Z"/><path class="cls-7" d="M77.89,100.56v.88a.36.36,0,0,1-.17.3l-.2.12a.11.11,0,0,1-.18-.1v-.88a.35.35,0,0,1,.18-.3l.2-.12C77.82,100.4,77.89,100.45,77.89,100.56Z"/><path class="cls-2" d="M77,101.08V102a.42.42,0,0,1-.18.3l-.21.12c-.09.06-.17,0-.17-.1v-.88a.39.39,0,0,1,.17-.31l.21-.11a.1.1,0,0,1,.15,0A.11.11,0,0,1,77,101.08Z"/><path class="cls-7" d="M76.09,101.6v.87a.38.38,0,0,1-.17.31l-.2.11a.11.11,0,0,1-.18-.1v-.87a.37.37,0,0,1,.18-.31l.2-.12a.1.1,0,0,1,.15,0A.1.1,0,0,1,76.09,101.6Z"/><path class="cls-7" d="M75.19,102.12V103a.38.38,0,0,1-.17.31l-.2.12c-.11.06-.18,0-.18-.1v-.88a.37.37,0,0,1,.18-.31L75,102C75.11,102,75.19,102,75.19,102.12Z"/><path class="cls-2" d="M74.3,102.64v.87a.35.35,0,0,1-.18.31l-.19.13a.11.11,0,0,1-.18-.1V103a.37.37,0,0,1,.18-.31l.2-.12C74.21,102.47,74.3,102.52,74.3,102.64Z"/><path class="cls-2" d="M73.39,103.16V104a.37.37,0,0,1-.18.31l-.2.11a.11.11,0,0,1-.18-.1v-.87a.42.42,0,0,1,.18-.31l.2-.12C73.31,103,73.39,103,73.39,103.16Z"/><path class="cls-2" d="M72.49,103.68v.87a.37.37,0,0,1-.18.31l-.2.11a.11.11,0,0,1-.18-.1V104a.42.42,0,0,1,.18-.31l.2-.12C72.41,103.52,72.49,103.56,72.49,103.68Z"/><path class="cls-7" d="M71.59,104.2v.87a.37.37,0,0,1-.18.3l-.2.12a.11.11,0,0,1-.18-.1v-.88a.37.37,0,0,1,.18-.3l.2-.12C71.51,104,71.59,104.08,71.59,104.2Z"/><path class="cls-2" d="M70.69,104.71v.88a.39.39,0,0,1-.18.31l-.2.11a.11.11,0,0,1-.18-.1V105a.39.39,0,0,1,.18-.31l.2-.12C70.61,104.56,70.69,104.6,70.69,104.71Z"/><path class="cls-7" d="M69.79,105.23v.88a.4.4,0,0,1-.18.31l-.2.11a.11.11,0,0,1-.18-.1v-.87a.37.37,0,0,1,.18-.31l.2-.12C69.71,105.07,69.79,105.12,69.79,105.23Z"/><path class="cls-2" d="M68.89,105.75v.88a.4.4,0,0,1-.18.31l-.2.11a.11.11,0,0,1-.18-.1v-.87a.35.35,0,0,1,.18-.31l.2-.12C68.81,105.59,68.89,105.64,68.89,105.75Z"/><path class="cls-7" d="M68,106.27v.88a.39.39,0,0,1-.17.31l-.2.11a.11.11,0,0,1-.18-.1v-.87a.41.41,0,0,1,.18-.32l.2-.11C67.91,106.11,68,106.16,68,106.27Z"/><path class="cls-2" d="M67.09,106.79v.87a.42.42,0,0,1-.18.31l-.2.12a.11.11,0,0,1-.18-.1v-.88a.39.39,0,0,1,.18-.31l.2-.12A.11.11,0,0,1,67.09,106.79Z"/><path class="cls-2" d="M66.19,107.31v.88a.42.42,0,0,1-.18.3l-.2.12a.11.11,0,0,1-.18-.1v-.88a.4.4,0,0,1,.18-.31l.2-.11C66.11,107.15,66.19,107.2,66.19,107.31Z"/><path class="cls-6" d="M78.84,86.92,65.58,94.58a2,2,0,0,0-.89,1.54v1.81c0,.56.4.79.89.51l13.26-7.66a2,2,0,0,0,.9-1.54V87.43C79.74,86.87,79.34,86.64,78.84,86.92Z"/><path class="cls-2" d="M78.79,88.45v.87a.38.38,0,0,1-.17.31l-.2.12a.11.11,0,0,1-.18-.11v-.87a.39.39,0,0,1,.18-.31l.2-.11C78.72,88.29,78.79,88.34,78.79,88.45Z"/><path class="cls-2" d="M77.89,89v.89a.38.38,0,0,1-.17.31l-.2.12a.11.11,0,0,1-.18-.11v-.87a.37.37,0,0,1,.18-.31l.2-.12C77.82,88.81,77.89,88.85,77.89,89Z"/><path class="cls-2" d="M77,89.49v.87a.42.42,0,0,1-.18.31l-.21.12a.1.1,0,0,1-.15,0,.08.08,0,0,1,0-.08v-.88a.39.39,0,0,1,.17-.31l.21-.11C76.91,89.33,77,89.37,77,89.49Z"/><path class="cls-2" d="M76.09,90v.88a.39.39,0,0,1-.17.31l-.2.12a.11.11,0,0,1-.18-.11v-.87a.35.35,0,0,1,.18-.31l.2-.12C76,89.86,76.09,89.89,76.09,90Z"/><path class="cls-7" d="M75.19,90.52v.88a.39.39,0,0,1-.17.31l-.2.12c-.11,0-.18,0-.18-.11v-.87a.35.35,0,0,1,.18-.31l.2-.12C75.11,90.36,75.19,90.41,75.19,90.52Z"/><path class="cls-7" d="M74.3,91v.88a.38.38,0,0,1-.18.31l-.2.11a.11.11,0,0,1-.18-.1v-.87a.37.37,0,0,1,.18-.31l.2-.12A.11.11,0,0,1,74.3,91Z"/><path class="cls-2" d="M73.39,91.56v.9a.35.35,0,0,1-.18.3l-.2.12a.1.1,0,0,1-.15,0,.11.11,0,0,1,0-.08V91.9a.4.4,0,0,1,.18-.3l.2-.12C73.31,91.4,73.39,91.45,73.39,91.56Z"/><path class="cls-2" d="M72.49,92.09V93a.37.37,0,0,1-.18.31l-.2.12a.11.11,0,0,1-.15,0,.16.16,0,0,1,0-.09v-.87a.42.42,0,0,1,.18-.31l.2-.12C72.41,91.92,72.49,92,72.49,92.09Z"/><path class="cls-2" d="M71.59,92.6v.88a.37.37,0,0,1-.18.3l-.2.12a.11.11,0,0,1-.16,0,.19.19,0,0,1,0-.08v-.88a.37.37,0,0,1,.18-.3l.2-.12C71.51,92.46,71.59,92.49,71.59,92.6Z"/><path class="cls-7" d="M70.69,93.12V94a.39.39,0,0,1-.18.3l-.2.12a.11.11,0,0,1-.18-.1v-.88a.4.4,0,0,1,.18-.31l.2-.11C70.61,93,70.69,93,70.69,93.12Z"/><path class="cls-2" d="M69.79,93.64v.87a.39.39,0,0,1-.18.31l-.2.12a.11.11,0,0,1-.18-.1V94a.4.4,0,0,1,.18-.31l.2-.11a.11.11,0,0,1,.16,0A.11.11,0,0,1,69.79,93.64Z"/><path class="cls-2" d="M68.89,94.16v.89a.39.39,0,0,1-.18.31l-.2.12c-.1,0-.18,0-.18-.1V94.5a.37.37,0,0,1,.18-.31l.2-.12C68.81,94,68.89,94.05,68.89,94.16Z"/><path class="cls-7" d="M68,94.68v.88a.36.36,0,0,1-.17.3l-.2.12a.11.11,0,0,1-.18-.1V95a.38.38,0,0,1,.18-.32l.2-.12C67.91,94.52,68,94.57,68,94.68Z"/><path class="cls-2" d="M67.09,95.2v.87a.39.39,0,0,1-.18.31l-.2.12c-.1,0-.18,0-.18-.1v-.88a.39.39,0,0,1,.18-.31l.2-.12C67,95.05,67.09,95.09,67.09,95.2Z"/><path class="cls-7" d="M66.19,95.72v.87a.42.42,0,0,1-.18.31l-.2.11a.11.11,0,0,1-.18-.1V96a.37.37,0,0,1,.18-.31l.2-.12a.11.11,0,0,1,.16,0A.29.29,0,0,1,66.19,95.72Z"/><path class="cls-6" d="M78.84,75.35,65.58,83a1.93,1.93,0,0,0-.89,1.54v1.8c0,.57.4.8.89.52l13.26-7.66a2,2,0,0,0,.9-1.55v-1.8C79.74,75.29,79.34,75.06,78.84,75.35Z"/><path class="cls-2" d="M78.79,76.88v.87a.38.38,0,0,1-.17.31l-.2.12c-.1.06-.18,0-.18-.11V77.2a.39.39,0,0,1,.18-.31l.2-.12C78.72,76.71,78.79,76.76,78.79,76.88Z"/><path class="cls-7" d="M77.89,77.39v.88a.39.39,0,0,1-.17.31l-.2.11a.11.11,0,0,1-.18-.1v-.87a.42.42,0,0,1,.18-.32l.2-.11C77.82,77.25,77.89,77.28,77.89,77.39Z"/><path class="cls-2" d="M77,77.91v.88a.44.44,0,0,1-.18.31l-.21.11c-.09.06-.17,0-.17-.1v-.87a.4.4,0,0,1,.17-.32l.21-.11A.11.11,0,0,1,77,77.91Z"/><path class="cls-2" d="M76.09,78.43v.88a.39.39,0,0,1-.17.31l-.2.11a.11.11,0,0,1-.18-.1v-.88a.38.38,0,0,1,.18-.31l.2-.11C76,78.27,76.09,78.32,76.09,78.43Z"/><path class="cls-2" d="M75.19,79v.9a.38.38,0,0,1-.17.3l-.2.12c-.11,0-.18,0-.18-.11v-.87a.38.38,0,0,1,.18-.31l.2-.11C75.11,78.79,75.19,78.84,75.19,79Z"/><path class="cls-7" d="M74.3,79.47v.88a.4.4,0,0,1-.18.31l-.2.11a.11.11,0,0,1-.18-.1V79.8a.44.44,0,0,1,.19-.33l.2-.11C74.21,79.31,74.3,79.36,74.3,79.47Z"/><path class="cls-7" d="M73.39,80v.88a.37.37,0,0,1-.18.3l-.2.12a.12.12,0,0,1-.18-.11v-.87A.44.44,0,0,1,73,80l.2-.11C73.31,79.85,73.39,79.87,73.39,80Z"/><path class="cls-2" d="M72.49,80.51v.87a.39.39,0,0,1-.18.31l-.2.12a.11.11,0,0,1-.18-.11v-.87a.44.44,0,0,1,.18-.31l.2-.11C72.41,80.35,72.49,80.39,72.49,80.51Z"/><path class="cls-7" d="M71.59,81v.87a.39.39,0,0,1-.18.31l-.2.12a.11.11,0,0,1-.18-.11v-.87a.44.44,0,0,1,.18-.31l.2-.12C71.51,80.87,71.59,80.91,71.59,81Z"/><path class="cls-2" d="M70.69,81.55v.89a.39.39,0,0,1-.18.31l-.2.11a.11.11,0,0,1-.18-.1v-.87a.42.42,0,0,1,.18-.31l.2-.12C70.61,81.39,70.69,81.43,70.69,81.55Z"/><path class="cls-2" d="M69.79,82.07V83a.39.39,0,0,1-.18.3l-.2.12a.11.11,0,0,1-.18-.11v-.87a.42.42,0,0,1,.18-.31l.2-.11C69.71,81.91,69.79,82,69.79,82.07Z"/><path class="cls-2" d="M68.89,82.59v.87a.42.42,0,0,1-.18.31l-.2.11a.11.11,0,0,1-.18-.1v-.87a.42.42,0,0,1,.18-.31l.2-.12C68.81,82.44,68.89,82.47,68.89,82.59Z"/><path class="cls-7" d="M68,83.11V84a.38.38,0,0,1-.17.31l-.2.11a.11.11,0,0,1-.18-.1v-.88a.39.39,0,0,1,.18-.3l.2-.12C67.91,83,68,83,68,83.11Z"/><path class="cls-2" d="M67.09,83.62v.88a.44.44,0,0,1-.18.31l-.2.11a.11.11,0,0,1-.18-.1v-.88a.39.39,0,0,1,.18-.3l.2-.12C67,83.47,67.09,83.51,67.09,83.62Z"/><path class="cls-2" d="M66.19,84.14V85a.44.44,0,0,1-.18.31l-.2.11a.11.11,0,0,1-.18-.1v-.88a.4.4,0,0,1,.18-.31l.2-.11C66.11,84,66.19,84,66.19,84.14Z"/><path class="cls-6" d="M78.84,63.74,65.58,71.4a2,2,0,0,0-.89,1.54v1.81c0,.57.4.8.89.51l13.26-7.65a2,2,0,0,0,.9-1.55V64.27C79.74,63.69,79.34,63.46,78.84,63.74Z"/><path class="cls-2" d="M78.79,65.27v.87a.37.37,0,0,1-.17.31l-.2.12a.11.11,0,0,1-.16,0,.08.08,0,0,1,0-.08v-.88a.4.4,0,0,1,.18-.31l.2-.11C78.72,65.11,78.79,65.16,78.79,65.27Z"/><path class="cls-7" d="M77.89,65.79v.87a.37.37,0,0,1-.17.31l-.2.12a.11.11,0,0,1-.16,0,.08.08,0,0,1,0-.08v-.87a.38.38,0,0,1,.18-.31l.2-.11C77.82,65.63,77.89,65.68,77.89,65.79Z"/><path class="cls-2" d="M77,66.31v.87a.42.42,0,0,1-.18.31l-.21.12a.11.11,0,0,1-.17-.11v-.87a.38.38,0,0,1,.17-.31l.21-.11A.11.11,0,0,1,77,66.31Z"/><path class="cls-2" d="M76.09,66.83v.87a.38.38,0,0,1-.17.31l-.2.11a.11.11,0,0,1-.18-.1v-.87a.37.37,0,0,1,.18-.31l.2-.11C76,66.67,76.09,66.71,76.09,66.83Z"/><path class="cls-2" d="M75.19,67.35v.87a.38.38,0,0,1-.17.31l-.2.11c-.11.06-.18,0-.18-.1v-.87a.37.37,0,0,1,.18-.31l.2-.12a.11.11,0,0,1,.17.11Z"/><path class="cls-7" d="M74.3,67.86v.88a.37.37,0,0,1-.18.31l-.2.11a.11.11,0,0,1-.18-.1v-.87a.39.39,0,0,1,.18-.31l.2-.12C74.21,67.71,74.3,67.75,74.3,67.86Z"/><path class="cls-7" d="M73.39,68.38v.88a.37.37,0,0,1-.18.31l-.2.11a.11.11,0,0,1-.18-.1v-.86a.42.42,0,0,1,.18-.31l.2-.12C73.31,68.22,73.39,68.27,73.39,68.38Z"/><path class="cls-2" d="M72.49,68.9v.88a.38.38,0,0,1-.18.31l-.2.11a.11.11,0,0,1-.18-.1v-.87a.42.42,0,0,1,.18-.31l.2-.12C72.41,68.74,72.49,68.79,72.49,68.9Z"/><path class="cls-7" d="M71.59,69.42v.88a.4.4,0,0,1-.18.31l-.2.11a.11.11,0,0,1-.18-.1v-.87a.39.39,0,0,1,.18-.31l.2-.12a.11.11,0,0,1,.16,0A.08.08,0,0,1,71.59,69.42Z"/><path class="cls-2" d="M70.69,69.94v.88a.4.4,0,0,1-.18.31l-.2.11a.11.11,0,0,1-.18-.1v-.88a.37.37,0,0,1,.18-.3l.2-.12a.11.11,0,0,1,.16,0A.11.11,0,0,1,70.69,69.94Z"/><path class="cls-2" d="M69.79,70.46v.88a.37.37,0,0,1-.18.3l-.2.12a.11.11,0,0,1-.18-.1v-.88a.37.37,0,0,1,.18-.3l.2-.12C69.71,70.3,69.79,70.35,69.79,70.46Z"/><path class="cls-2" d="M68.89,71v.88a.37.37,0,0,1-.18.3l-.2.12a.11.11,0,0,1-.18-.1v-.87a.35.35,0,0,1,.18-.3l.2-.12C68.81,70.82,68.89,70.87,68.89,71Z"/><path class="cls-7" d="M68,71.5v.87a.37.37,0,0,1-.17.31l-.2.12c-.09.06-.17,0-.17-.1v-.88a.39.39,0,0,1,.17-.31l.2-.11C67.91,71.34,68,71.38,68,71.5Z"/><path class="cls-2" d="M67.09,72v.87a.37.37,0,0,1-.18.31l-.2.12a.11.11,0,0,1-.18-.1v-.88a.4.4,0,0,1,.18-.31l.2-.11C67,71.86,67.09,71.9,67.09,72Z"/><path class="cls-2" d="M66.19,72.54v.87a.42.42,0,0,1-.18.31l-.2.12a.11.11,0,0,1-.18-.1v-.88a.38.38,0,0,1,.18-.31l.2-.12A.11.11,0,0,1,66.19,72.54Z"/><path class="cls-6" d="M78.84,52.16,65.58,59.82a1.93,1.93,0,0,0-.89,1.54v1.79c0,.58.4.81.89.52L78.84,56a2,2,0,0,0,.9-1.54V52.66C79.74,52.1,79.34,51.87,78.84,52.16Z"/><path class="cls-7" d="M78.79,53.68v.88a.38.38,0,0,1-.17.31l-.2.11a.11.11,0,0,1-.18-.1V54a.39.39,0,0,1,.18-.31l.2-.12C78.72,53.51,78.79,53.57,78.79,53.68Z"/><path class="cls-2" d="M77.89,54.2v.88a.38.38,0,0,1-.17.31l-.2.11a.11.11,0,0,1-.18-.1v-.87a.37.37,0,0,1,.18-.31l.2-.12C77.82,54,77.89,54.09,77.89,54.2Z"/><path class="cls-7" d="M77,54.72v.88a.44.44,0,0,1-.18.31l-.21.11c-.09.06-.17,0-.17-.1v-.87a.38.38,0,0,1,.17-.31l.21-.12a.1.1,0,0,1,.15,0A.11.11,0,0,1,77,54.72Z"/><path class="cls-7" d="M76.09,55.24v.87a.36.36,0,0,1-.17.3l-.2.12a.11.11,0,0,1-.18-.1v-.88a.35.35,0,0,1,.18-.3l.2-.12C76,55.08,76.09,55.13,76.09,55.24Z"/><path class="cls-7" d="M75.19,55.76v.88A.39.39,0,0,1,75,57l-.2.11c-.11.06-.18,0-.18-.1v-.88a.35.35,0,0,1,.18-.3l.2-.12C75.11,55.6,75.19,55.65,75.19,55.76Z"/><path class="cls-2" d="M74.3,56.28v.88a.35.35,0,0,1-.18.3l-.19.13a.11.11,0,0,1-.18-.1v-.87a.35.35,0,0,1,.18-.31l.2-.12C74.21,56.11,74.3,56.17,74.3,56.28Z"/><path class="cls-2" d="M73.39,56.8v.88a.35.35,0,0,1-.18.3l-.2.12a.11.11,0,0,1-.18-.1v-.88a.4.4,0,0,1,.18-.3l.2-.12C73.31,56.64,73.39,56.69,73.39,56.8Z"/><path class="cls-7" d="M72.49,57.32v.88a.35.35,0,0,1-.18.3l-.2.12a.11.11,0,0,1-.18-.1v-.88a.44.44,0,0,1,.18-.31l.2-.11A.11.11,0,0,1,72.49,57.32Z"/><path class="cls-2" d="M71.59,57.84v.86a.39.39,0,0,1-.18.31l-.2.12A.11.11,0,0,1,71,59v-.88a.4.4,0,0,1,.18-.31l.2-.12C71.51,57.68,71.59,57.72,71.59,57.84Z"/><path class="cls-7" d="M70.69,58.36v.87a.39.39,0,0,1-.18.31l-.2.12a.11.11,0,0,1-.18-.1v-.88a.39.39,0,0,1,.18-.31l.2-.12C70.61,58.2,70.69,58.24,70.69,58.36Z"/><path class="cls-7" d="M69.79,58.88v.87a.39.39,0,0,1-.18.31l-.2.12a.11.11,0,0,1-.18-.1V59.2a.42.42,0,0,1,.18-.31l.2-.12C69.71,58.7,69.79,58.76,69.79,58.88Z"/><path class="cls-7" d="M68.89,59.4v.87a.39.39,0,0,1-.18.31l-.2.12a.11.11,0,0,1-.18-.11v-.87a.39.39,0,0,1,.18-.31l.2-.12C68.81,59.24,68.89,59.28,68.89,59.4Z"/><path class="cls-2" d="M68,59.92v.87a.38.38,0,0,1-.17.31l-.2.11a.11.11,0,0,1-.18-.1v-.87a.39.39,0,0,1,.18-.31l.2-.12C67.91,59.76,68,59.82,68,59.92Z"/><path class="cls-7" d="M67.09,60.44v.86a.44.44,0,0,1-.18.31l-.2.11a.11.11,0,0,1-.18-.1v-.87a.39.39,0,0,1,.18-.31l.2-.12C67,60.28,67.09,60.32,67.09,60.44Z"/><path class="cls-7" d="M66.19,61v.88a.44.44,0,0,1-.18.31l-.2.11a.11.11,0,0,1-.18-.1v-.87a.39.39,0,0,1,.18-.31l.2-.12C66.11,60.8,66.19,60.84,66.19,61Z"/><path class="cls-2" d="M62.32,121.05l-.41-.23h0a.55.55,0,0,0-.54.05,1.72,1.72,0,0,0-.78,1.34.54.54,0,0,0,.23.5h0l.37.22.07-.11a.85.85,0,0,0,.22-.09,1.7,1.7,0,0,0,.78-1.34.69.69,0,0,0,0-.2Z"/><path class="cls-13" d="M62.32,121.05l-.41-.23h0a.55.55,0,0,0-.54.05,1.72,1.72,0,0,0-.78,1.34.54.54,0,0,0,.23.5h0l.37.22.07-.11a.85.85,0,0,0,.22-.09,1.7,1.7,0,0,0,.78-1.34.69.69,0,0,0,0-.2Z"/><path class="cls-2" d="M61.75,121.1a1.74,1.74,0,0,0-.77,1.34c0,.49.35.69.77.45a1.72,1.72,0,0,0,.78-1.35C62.53,121.05,62.18,120.85,61.75,121.1Z"/><path class="cls-12" d="M61.75,121.1a1.74,1.74,0,0,0-.77,1.34c0,.49.35.69.77.45a1.72,1.72,0,0,0,.78-1.35C62.53,121.05,62.18,120.85,61.75,121.1Z"/><path class="cls-2" d="M59,123l-.4-.23h0a.57.57,0,0,0-.55,0,1.71,1.71,0,0,0-.77,1.35.55.55,0,0,0,.22.5h0l.37.22.07-.12a.83.83,0,0,0,.22-.08,1.72,1.72,0,0,0,.78-1.35,1.23,1.23,0,0,0,0-.19Z"/><path class="cls-13" d="M59,123l-.4-.23h0a.57.57,0,0,0-.55,0,1.71,1.71,0,0,0-.77,1.35.55.55,0,0,0,.22.5h0l.37.22.07-.12a.83.83,0,0,0,.22-.08,1.72,1.72,0,0,0,.78-1.35,1.23,1.23,0,0,0,0-.19Z"/><path class="cls-2" d="M58.39,123a1.71,1.71,0,0,0-.77,1.34c0,.49.34.69.77.45a1.72,1.72,0,0,0,.78-1.34C59.17,123,58.82,122.79,58.39,123Z"/><path class="cls-12" d="M58.39,123a1.71,1.71,0,0,0-.77,1.34c0,.49.34.69.77.45a1.72,1.72,0,0,0,.78-1.34C59.17,123,58.82,122.79,58.39,123Z"/><path class="cls-2" d="M62.32,109.47l-.41-.23h0a.55.55,0,0,0-.54.05,1.69,1.69,0,0,0-.79,1.34.53.53,0,0,0,.22.5h0l.37.22.07-.11a.92.92,0,0,0,.23-.09,1.74,1.74,0,0,0,.77-1.34,1.23,1.23,0,0,0,0-.2Z"/><path class="cls-13" d="M62.32,109.47l-.41-.23h0a.55.55,0,0,0-.54.05,1.69,1.69,0,0,0-.79,1.34.53.53,0,0,0,.22.5h0l.37.22.07-.11a.92.92,0,0,0,.23-.09,1.74,1.74,0,0,0,.77-1.34,1.23,1.23,0,0,0,0-.2Z"/><path class="cls-2" d="M61.75,109.52a1.74,1.74,0,0,0-.77,1.34c0,.49.35.69.77.45a1.72,1.72,0,0,0,.78-1.34C62.53,109.47,62.18,109.27,61.75,109.52Z"/><path class="cls-12" d="M61.75,109.52a1.74,1.74,0,0,0-.77,1.34c0,.49.35.69.77.45a1.72,1.72,0,0,0,.78-1.34C62.53,109.47,62.18,109.27,61.75,109.52Z"/><path class="cls-2" d="M59,111.41l-.4-.23h0a.57.57,0,0,0-.55,0,1.71,1.71,0,0,0-.77,1.34.53.53,0,0,0,.22.5h0l.37.22.07-.11a.85.85,0,0,0,.22-.09,1.69,1.69,0,0,0,.78-1.34,1.36,1.36,0,0,0,0-.2Z"/><path class="cls-13" d="M59,111.41l-.4-.23h0a.57.57,0,0,0-.55,0,1.71,1.71,0,0,0-.77,1.34.53.53,0,0,0,.22.5h0l.37.22.07-.11a.85.85,0,0,0,.22-.09,1.69,1.69,0,0,0,.78-1.34,1.36,1.36,0,0,0,0-.2Z"/><path class="cls-2" d="M58.39,111.45a1.71,1.71,0,0,0-.77,1.35c0,.49.34.69.77.45a1.72,1.72,0,0,0,.78-1.35C59.17,111.41,58.82,111.21,58.39,111.45Z"/><path class="cls-12" d="M58.39,111.45a1.71,1.71,0,0,0-.77,1.35c0,.49.34.69.77.45a1.72,1.72,0,0,0,.78-1.35C59.17,111.41,58.82,111.21,58.39,111.45Z"/><path class="cls-2" d="M62.32,97.89l-.41-.24h0a.52.52,0,0,0-.54.06,1.72,1.72,0,0,0-.78,1.34.54.54,0,0,0,.23.5h0l.37.22.07-.11a.85.85,0,0,0,.22-.09,1.72,1.72,0,0,0,.78-1.34.64.64,0,0,0,0-.2Z"/><path class="cls-13" d="M62.32,97.89l-.41-.24h0a.52.52,0,0,0-.54.06,1.72,1.72,0,0,0-.78,1.34.54.54,0,0,0,.23.5h0l.37.22.07-.11a.85.85,0,0,0,.22-.09,1.72,1.72,0,0,0,.78-1.34.64.64,0,0,0,0-.2Z"/><path class="cls-2" d="M61.75,97.93A1.74,1.74,0,0,0,61,99.27c0,.5.35.7.77.45a1.7,1.7,0,0,0,.78-1.34C62.53,97.89,62.18,97.69,61.75,97.93Z"/><path class="cls-12" d="M61.75,97.93A1.74,1.74,0,0,0,61,99.27c0,.5.35.7.77.45a1.7,1.7,0,0,0,.78-1.34C62.53,97.89,62.18,97.69,61.75,97.93Z"/><path class="cls-2" d="M59,99.83l-.4-.24h0a.55.55,0,0,0-.55.06,1.71,1.71,0,0,0-.76,1.34.55.55,0,0,0,.22.5h0l.37.22.07-.12a.53.53,0,0,0,.22-.08,1.72,1.72,0,0,0,.78-1.35,1.23,1.23,0,0,0,0-.19Z"/><path class="cls-13" d="M59,99.83l-.4-.24h0a.55.55,0,0,0-.55.06,1.71,1.71,0,0,0-.76,1.34.55.55,0,0,0,.22.5h0l.37.22.07-.12a.53.53,0,0,0,.22-.08,1.72,1.72,0,0,0,.78-1.35,1.23,1.23,0,0,0,0-.19Z"/><path class="cls-2" d="M58.39,99.87a1.71,1.71,0,0,0-.77,1.35c0,.49.34.69.77.45a1.72,1.72,0,0,0,.78-1.35C59.17,99.83,58.82,99.63,58.39,99.87Z"/><path class="cls-12" d="M58.39,99.87a1.71,1.71,0,0,0-.77,1.35c0,.49.34.69.77.45a1.72,1.72,0,0,0,.78-1.35C59.17,99.83,58.82,99.63,58.39,99.87Z"/><path class="cls-2" d="M62.32,86.31l-.41-.24h0a.55.55,0,0,0-.54.05,1.72,1.72,0,0,0-.78,1.34.54.54,0,0,0,.23.5h0l.37.22.07-.11a.85.85,0,0,0,.22-.09,1.7,1.7,0,0,0,.78-1.34.69.69,0,0,0,0-.2Z"/><path class="cls-13" d="M62.32,86.31l-.41-.24h0a.55.55,0,0,0-.54.05,1.72,1.72,0,0,0-.78,1.34.54.54,0,0,0,.23.5h0l.37.22.07-.11a.85.85,0,0,0,.22-.09,1.7,1.7,0,0,0,.78-1.34.69.69,0,0,0,0-.2Z"/><path class="cls-2" d="M61.75,86.35A1.74,1.74,0,0,0,61,87.69c0,.49.35.69.77.45a1.72,1.72,0,0,0,.78-1.34C62.53,86.3,62.18,86.1,61.75,86.35Z"/><path class="cls-12" d="M61.75,86.35A1.74,1.74,0,0,0,61,87.69c0,.49.35.69.77.45a1.72,1.72,0,0,0,.78-1.34C62.53,86.3,62.18,86.1,61.75,86.35Z"/><path class="cls-2" d="M59,88.25l-.4-.24h0a.57.57,0,0,0-.55,0,1.71,1.71,0,0,0-.77,1.34.53.53,0,0,0,.22.5h0l.37.22.07-.12a.58.58,0,0,0,.22-.08,1.72,1.72,0,0,0,.78-1.34,1.23,1.23,0,0,0,0-.2Z"/><path class="cls-13" d="M59,88.25l-.4-.24h0a.57.57,0,0,0-.55,0,1.71,1.71,0,0,0-.77,1.34.53.53,0,0,0,.22.5h0l.37.22.07-.12a.58.58,0,0,0,.22-.08,1.72,1.72,0,0,0,.78-1.34,1.23,1.23,0,0,0,0-.2Z"/><path class="cls-2" d="M58.39,88.29a1.71,1.71,0,0,0-.77,1.34c0,.49.34.69.77.45a1.76,1.76,0,0,0,.78-1.33C59.17,88.24,58.82,88,58.39,88.29Z"/><path class="cls-12" d="M58.39,88.29a1.71,1.71,0,0,0-.77,1.34c0,.49.34.69.77.45a1.76,1.76,0,0,0,.78-1.33C59.17,88.24,58.82,88,58.39,88.29Z"/><path class="cls-2" d="M62.32,74.7l-.41-.24h0a.55.55,0,0,0-.54.06,1.72,1.72,0,0,0-.78,1.34.54.54,0,0,0,.23.5h0l.37.22.07-.11a.85.85,0,0,0,.22-.09A1.72,1.72,0,0,0,62.26,75a.64.64,0,0,0,0-.2Z"/><path class="cls-13" d="M62.32,74.7l-.41-.24h0a.55.55,0,0,0-.54.06,1.72,1.72,0,0,0-.78,1.34.54.54,0,0,0,.23.5h0l.37.22.07-.11a.85.85,0,0,0,.22-.09A1.72,1.72,0,0,0,62.26,75a.64.64,0,0,0,0-.2Z"/><path class="cls-2" d="M61.75,74.75A1.7,1.7,0,0,0,61,76.08c0,.5.35.7.77.45a1.7,1.7,0,0,0,.78-1.34C62.53,74.7,62.18,74.5,61.75,74.75Z"/><path class="cls-12" d="M61.75,74.75A1.7,1.7,0,0,0,61,76.08c0,.5.35.7.77.45a1.7,1.7,0,0,0,.78-1.34C62.53,74.7,62.18,74.5,61.75,74.75Z"/><path class="cls-2" d="M59,76.64l-.4-.24h0a.55.55,0,0,0-.55.06,1.71,1.71,0,0,0-.77,1.34.53.53,0,0,0,.22.5h0l.37.22.07-.11a.85.85,0,0,0,.22-.09A1.72,1.72,0,0,0,58.89,77a1.23,1.23,0,0,0,0-.2Z"/><path class="cls-13" d="M59,76.64l-.4-.24h0a.55.55,0,0,0-.55.06,1.71,1.71,0,0,0-.77,1.34.53.53,0,0,0,.22.5h0l.37.22.07-.11a.85.85,0,0,0,.22-.09A1.72,1.72,0,0,0,58.89,77a1.23,1.23,0,0,0,0-.2Z"/><path class="cls-2" d="M58.39,76.68A1.72,1.72,0,0,0,57.61,78c0,.49.35.69.77.44a1.7,1.7,0,0,0,.78-1.34C59.17,76.64,58.82,76.44,58.39,76.68Z"/><path class="cls-12" d="M58.39,76.68A1.72,1.72,0,0,0,57.61,78c0,.49.35.69.77.44a1.7,1.7,0,0,0,.78-1.34C59.17,76.64,58.82,76.44,58.39,76.68Z"/><path class="cls-2" d="M62.32,63.12l-.41-.24h0a.55.55,0,0,0-.54.06,1.68,1.68,0,0,0-.79,1.33.55.55,0,0,0,.22.5h0l.37.22.07-.12a.92.92,0,0,0,.23-.09,1.71,1.71,0,0,0,.77-1.34,1.5,1.5,0,0,0,0-.2Z"/><path class="cls-13" d="M62.32,63.12l-.41-.24h0a.55.55,0,0,0-.54.06,1.68,1.68,0,0,0-.79,1.33.55.55,0,0,0,.22.5h0l.37.22.07-.12a.92.92,0,0,0,.23-.09,1.71,1.71,0,0,0,.77-1.34,1.5,1.5,0,0,0,0-.2Z"/><path class="cls-2" d="M61.75,63.15A1.74,1.74,0,0,0,61,64.49c0,.5.35.7.77.45a1.7,1.7,0,0,0,.78-1.34C62.53,63.12,62.18,62.92,61.75,63.15Z"/><path class="cls-12" d="M61.75,63.15A1.74,1.74,0,0,0,61,64.49c0,.5.35.7.77.45a1.7,1.7,0,0,0,.78-1.34C62.53,63.12,62.18,62.92,61.75,63.15Z"/><path class="cls-2" d="M59,65.06l-.4-.24h0a.55.55,0,0,0-.55.06,1.71,1.71,0,0,0-.77,1.34.53.53,0,0,0,.22.5h0l.37.22.07-.11a.85.85,0,0,0,.22-.09,1.72,1.72,0,0,0,.78-1.34,1.23,1.23,0,0,0,0-.2Z"/><path class="cls-13" d="M59,65.06l-.4-.24h0a.55.55,0,0,0-.55.06,1.71,1.71,0,0,0-.77,1.34.53.53,0,0,0,.22.5h0l.37.22.07-.11a.85.85,0,0,0,.22-.09,1.72,1.72,0,0,0,.78-1.34,1.23,1.23,0,0,0,0-.2Z"/><path class="cls-2" d="M58.39,65.11a1.68,1.68,0,0,0-.77,1.34c0,.49.34.69.77.44a1.69,1.69,0,0,0,.78-1.34C59.17,65.06,58.82,64.86,58.39,65.11Z"/><path class="cls-12" d="M58.39,65.11a1.68,1.68,0,0,0-.77,1.34c0,.49.34.69.77.44a1.69,1.69,0,0,0,.78-1.34C59.17,65.06,58.82,64.86,58.39,65.11Z"/><path class="cls-6" d="M36.68,89.78l15.24,8.8a1.07,1.07,0,0,1,.49.85v4.21c0,.31-.22.44-.49.28L36.68,95.13a1.09,1.09,0,0,1-.5-.85V90.07C36.18,89.75,36.4,89.63,36.68,89.78Z"/><path class="cls-2" d="M37.11,91.64a1.08,1.08,0,0,0,.5.82L51,100.18c.28.15.5,0,.5-.25a1.06,1.06,0,0,0-.5-.82L37.61,91.39C37.33,91.23,37.11,91.34,37.11,91.64Z"/><path class="cls-14" d="M37.11,93.78a1.08,1.08,0,0,0,.5.82L51,102.32c.28.16.5.05.5-.25a1.06,1.06,0,0,0-.5-.82L37.61,93.53C37.33,93.37,37.11,93.48,37.11,93.78Z"/><path class="cls-2" d="M37.61,93.53,45,97.79v1.07L37.6,94.6a1.07,1.07,0,0,1-.49-.82C37.11,93.48,37.33,93.37,37.61,93.53Z"/><path class="cls-6" d="M36.68,101.39l15.24,8.8a1.07,1.07,0,0,1,.49.85v4.21c0,.31-.22.44-.49.28l-15.24-8.79a1.11,1.11,0,0,1-.5-.85v-4.21C36.18,101.36,36.4,101.24,36.68,101.39Z"/><path class="cls-2" d="M37.11,103.25a1.08,1.08,0,0,0,.5.82L51,111.79c.28.16.5,0,.5-.25a1.06,1.06,0,0,0-.5-.82L37.61,103C37.33,102.84,37.11,103,37.11,103.25Z"/><path class="cls-14" d="M37.11,105.39a1.08,1.08,0,0,0,.5.82L51,113.93c.28.16.5,0,.5-.25a1.06,1.06,0,0,0-.5-.82l-13.38-7.72C37.33,105,37.11,105.09,37.11,105.39Z"/><path class="cls-2" d="M37.61,105.14l9.24,5.33v1.07l-9.24-5.33a1.08,1.08,0,0,1-.5-.82C37.11,105.09,37.33,105,37.61,105.14Z"/><path class="cls-6" d="M36.68,112.92l15.24,8.79a1.1,1.1,0,0,1,.49.85v4.21c0,.32-.22.44-.49.29l-15.24-8.8a1.08,1.08,0,0,1-.5-.85V113.2C36.18,112.89,36.4,112.76,36.68,112.92Z"/><path class="cls-2" d="M37.11,114.77a1.06,1.06,0,0,0,.5.82L51,123.31c.28.16.5,0,.5-.25a1.08,1.08,0,0,0-.5-.82l-13.38-7.72C37.33,114.36,37.11,114.47,37.11,114.77Z"/><path class="cls-14" d="M37.11,116.91a1.06,1.06,0,0,0,.5.82L51,125.47c.28.16.5,0,.5-.25a1.06,1.06,0,0,0-.5-.82l-13.38-7.74C37.33,116.5,37.11,116.61,37.11,116.91Z"/><path class="cls-2" d="M37.61,116.66l11.1,6.4v1.07l-11.1-6.4a1.06,1.06,0,0,1-.5-.82C37.11,116.61,37.33,116.5,37.61,116.66Z"/><path class="cls-6" d="M36.68,78.29l15.24,8.79a1.1,1.1,0,0,1,.49.85v4.21c0,.32-.22.45-.49.29L36.68,83.64a1.11,1.11,0,0,1-.5-.86V78.57C36.18,78.26,36.4,78.13,36.68,78.29Z"/><path class="cls-2" d="M37.11,80.14a1.06,1.06,0,0,0,.5.82L51,88.68c.28.16.5,0,.5-.25a1.06,1.06,0,0,0-.5-.82L37.61,79.89C37.33,79.73,37.11,79.85,37.11,80.14Z"/><path class="cls-14" d="M37.11,82.28a1.06,1.06,0,0,0,.5.82L51,90.82c.28.16.5.05.5-.24a1.08,1.08,0,0,0-.5-.83L37.61,82C37.33,81.87,37.11,82,37.11,82.28Z"/><path class="cls-2" d="M37.61,82l12,6.94V90l-12-6.94a1.06,1.06,0,0,1-.5-.82C37.11,82,37.33,81.87,37.61,82Z"/><path class="cls-6" d="M36.68,55.09,51.92,63.9a1.07,1.07,0,0,1,.49.85V69c0,.31-.22.44-.49.28l-15.24-8.8a1.09,1.09,0,0,1-.5-.85V55.37C36.18,55.06,36.4,54.94,36.68,55.09Z"/><path class="cls-2" d="M37.11,57a1.06,1.06,0,0,0,.5.82L51,65.49c.28.16.5.05.5-.25a1.08,1.08,0,0,0-.5-.82L37.61,56.7C37.33,56.54,37.11,56.65,37.11,57Z"/><path class="cls-14" d="M37.11,59.07a1,1,0,0,0,.5.82L51,67.62c.28.16.5,0,.5-.25a1.06,1.06,0,0,0-.5-.82L37.61,58.84C37.33,58.68,37.11,58.79,37.11,59.07Z"/><path class="cls-2" d="M37.61,58.84l9.24,5.33v1.07l-9.24-5.33a1,1,0,0,1-.5-.84C37.11,58.79,37.33,58.68,37.61,58.84Z"/><path class="cls-6" d="M36.68,66.68l15.24,8.8a1.07,1.07,0,0,1,.49.85v4.21c0,.31-.22.44-.49.28L36.68,72a1.11,1.11,0,0,1-.5-.85V67C36.18,66.65,36.4,66.53,36.68,66.68Z"/><path class="cls-2" d="M37.11,68.54a1.08,1.08,0,0,0,.5.82L51,77.08c.28.16.5,0,.5-.25A1.06,1.06,0,0,0,51,76L37.61,68.29C37.33,68.13,37.11,68.24,37.11,68.54Z"/><path class="cls-14" d="M37.11,70.68a1.08,1.08,0,0,0,.5.82L51,79.22c.28.16.5,0,.5-.25a1.06,1.06,0,0,0-.5-.82L37.61,70.43C37.33,70.27,37.11,70.38,37.11,70.68Z"/><path class="cls-2" d="M37.61,70.43l12,6.93v1.08l-12-6.94a1.08,1.08,0,0,1-.5-.82C37.11,70.38,37.33,70.27,37.61,70.43Z"/><path class="cls-2" d="M55.29,59.17l17.9-10.33a1,1,0,0,0,.46-.81v-.6a1,1,0,0,0-.46-.8L55.28,36.29a1,1,0,0,0-.93,0L36.47,46.63a1,1,0,0,0-.47.8V48a1,1,0,0,0,.47.81L54.38,59.17A1,1,0,0,0,55.29,59.17Z"/><path class="cls-15" d="M55.29,59.17l17.9-10.33a1,1,0,0,0,.46-.81v-.6a1,1,0,0,0-.46-.8L55.28,36.29a1,1,0,0,0-.93,0L36.47,46.63a1,1,0,0,0-.47.8V48a1,1,0,0,0,.47.81L54.38,59.17A1,1,0,0,0,55.29,59.17Z"/><path class="cls-2" d="M73.19,47.16,55.28,57.5a1,1,0,0,1-.93,0L36.47,47.16a.28.28,0,0,1-.18-.36.3.3,0,0,1,.18-.17L54.38,36.29a1,1,0,0,1,.93,0L73.19,46.63a.28.28,0,0,1,.17.35A.26.26,0,0,1,73.19,47.16Z"/><path class="cls-2" d="M54.82,57.61v1.68a1,1,0,0,0,.47-.12l17.9-10.34a1,1,0,0,0,.46-.8v-.6a1,1,0,0,0-.37-.74c.17.14.14.34-.09.47L55.29,57.5A.88.88,0,0,1,54.82,57.61Z"/><path class="cls-12" d="M54.82,57.61v1.68a1,1,0,0,0,.47-.12l17.9-10.34a1,1,0,0,0,.46-.8v-.6a1,1,0,0,0-.37-.74c.17.14.14.34-.09.47L55.29,57.5A.88.88,0,0,1,54.82,57.61Z"/><path class="cls-14" d="M55.29,54.16l12.11-7a1,1,0,0,0,.46-.8v-.6A1,1,0,0,0,67.4,45l-7.77-4.48a3.06,3.06,0,0,1-.78-.7l-3.71-5a.61.61,0,0,0-.78-.16l-12.11,7a1,1,0,0,0-.47.8v4a1,1,0,0,0,.47.8l12.11,7A1.08,1.08,0,0,0,55.29,54.16Z"/><path class="cls-6" d="M54.36,52.48,46.59,48a3.06,3.06,0,0,1-.78-.7l-3.71-5a.47.47,0,0,1,.08-.66l.07,0,12.11-7a.61.61,0,0,1,.78.16l3.71,5a2.82,2.82,0,0,0,.72.74L67.4,45a.29.29,0,0,1,.17.36.26.26,0,0,1-.17.18l-12.11,7A1,1,0,0,1,54.36,52.48Z"/><path class="cls-7" d="M42.25,41.61l12.11-7a.61.61,0,0,1,.78.16l3.71,5a2.34,2.34,0,0,0,.37.4l-13,7.53a2.34,2.34,0,0,1-.37-.4l-3.71-5a.47.47,0,0,1,.08-.66Z"/><path class="cls-2" d="M64.46,45.08a1.23,1.23,0,0,0-1.09,0,.33.33,0,0,0-.21.41.34.34,0,0,0,.21.21,1.17,1.17,0,0,0,1.09,0,.32.32,0,0,0,.21-.41A.32.32,0,0,0,64.46,45.08Z"/><path class="cls-2" d="M62.29,46.33a1.23,1.23,0,0,0-1.09,0,.34.34,0,0,0-.21.42.32.32,0,0,0,.21.21,1.23,1.23,0,0,0,1.09,0,.34.34,0,0,0,.21-.42A.39.39,0,0,0,62.29,46.33Z"/><path class="cls-14" d="M60.11,47.58a1.15,1.15,0,0,0-1.08,0,.33.33,0,0,0,0,.62,1.15,1.15,0,0,0,1.08,0,.33.33,0,0,0,0-.62Z"/><path class="cls-14" d="M57.94,48.84a1.23,1.23,0,0,0-1.09,0,.33.33,0,0,0-.21.42.34.34,0,0,0,.21.21,1.23,1.23,0,0,0,1.09,0,.34.34,0,0,0,.21-.42A.32.32,0,0,0,57.94,48.84Z"/><path class="cls-2" d="M62.83,44.14a1.17,1.17,0,0,0-1.09,0,.33.33,0,0,0-.21.41.36.36,0,0,0,.21.21,1.17,1.17,0,0,0,1.09,0,.32.32,0,0,0,.21-.41A.32.32,0,0,0,62.83,44.14Z"/><path class="cls-14" d="M60.66,45.39a1.23,1.23,0,0,0-1.09,0,.34.34,0,0,0-.21.42.32.32,0,0,0,.21.21,1.23,1.23,0,0,0,1.09,0,.34.34,0,0,0,.21-.42A.34.34,0,0,0,60.66,45.39Z"/><ellipse class="cls-2" cx="57.94" cy="46.96" rx="0.77" ry="0.45"/><path class="cls-14" d="M56.31,47.9a1.23,1.23,0,0,0-1.09,0,.33.33,0,0,0-.2.42.32.32,0,0,0,.2.21,1.23,1.23,0,0,0,1.09,0,.33.33,0,0,0,0-.63Z"/><path class="cls-14" d="M61.2,43.2a1.17,1.17,0,0,0-1.09,0,.33.33,0,0,0-.21.41.34.34,0,0,0,.21.21,1.17,1.17,0,0,0,1.09,0,.32.32,0,0,0,.21-.41A.32.32,0,0,0,61.2,43.2Z"/><path class="cls-2" d="M59,44.45a1.17,1.17,0,0,0-1.09,0,.33.33,0,0,0-.21.42.34.34,0,0,0,.21.21,1.23,1.23,0,0,0,1.09,0,.34.34,0,0,0,.21-.42A.36.36,0,0,0,59,44.45Z"/><path class="cls-14" d="M56.87,45.72a1.23,1.23,0,0,0-1.09,0,.33.33,0,0,0,0,.63,1.23,1.23,0,0,0,1.09,0,.33.33,0,0,0,.2-.42A.32.32,0,0,0,56.87,45.72Z"/><path class="cls-2" d="M55.75,50.07a1.21,1.21,0,0,0-1.08,0,.33.33,0,0,0-.21.42.32.32,0,0,0,.21.21,1.21,1.21,0,0,0,1.08,0,.32.32,0,0,0,.21-.42A.32.32,0,0,0,55.75,50.07Z"/><path class="cls-14" d="M54.13,49.13a1.23,1.23,0,0,0-1.09,0,.33.33,0,0,0-.21.42.34.34,0,0,0,.21.21,1.23,1.23,0,0,0,1.09,0,.34.34,0,0,0,.21-.42A.36.36,0,0,0,54.13,49.13Z"/><path class="cls-14" d="M54.68,47a1.23,1.23,0,0,0-1.09,0,.34.34,0,0,0-.2.43.39.39,0,0,0,.2.2,1.23,1.23,0,0,0,1.09,0,.34.34,0,0,0,.21-.42A.32.32,0,0,0,54.68,47Z"/><path class="cls-2" d="M59.57,42.25a1.23,1.23,0,0,0-1.09,0,.34.34,0,0,0-.2.43.33.33,0,0,0,.2.2,1.23,1.23,0,0,0,1.09,0,.34.34,0,0,0,.21-.42A.36.36,0,0,0,59.57,42.25Z"/><path class="cls-14" d="M57.4,43.5a1.17,1.17,0,0,0-1.09,0,.32.32,0,0,0-.21.41.32.32,0,0,0,.21.21,1.17,1.17,0,0,0,1.09,0,.33.33,0,0,0,.21-.41A.34.34,0,0,0,57.4,43.5Z"/><path class="cls-2" d="M55.22,44.76a1.21,1.21,0,0,0-1.08,0,.33.33,0,0,0-.21.42.32.32,0,0,0,.21.21,1.15,1.15,0,0,0,1.08,0,.32.32,0,0,0,.21-.42A.36.36,0,0,0,55.22,44.76Z"/><ellipse class="cls-14" cx="52.51" cy="46.33" rx="0.77" ry="0.45"/><path class="cls-2" d="M52.49,48.19a1.21,1.21,0,0,0-1.08,0,.33.33,0,0,0-.21.42.34.34,0,0,0,.21.21,1.21,1.21,0,0,0,1.08,0,.33.33,0,0,0,.21-.43A.32.32,0,0,0,52.49,48.19Z"/><path class="cls-14" d="M50.87,47.25a1.23,1.23,0,0,0-1.09,0,.33.33,0,0,0-.21.42.34.34,0,0,0,.21.21,1.23,1.23,0,0,0,1.09,0,.34.34,0,0,0,.21-.42A.36.36,0,0,0,50.87,47.25Z"/><path class="cls-7" d="M54.8,52.59v1.66a.93.93,0,0,0,.49-.11l12.11-7a1,1,0,0,0,.46-.8v-.61a1,1,0,0,0-.37-.74c.17.15.14.35-.09.48l-12.11,7A.85.85,0,0,1,54.8,52.59Z"/><path class="cls-14" d="M57.24,39.56h0a.42.42,0,0,0-.53-.1L46.17,45.54a.31.31,0,0,0-.12.42l0,0h0a.41.41,0,0,0,.52.1L57.14,40a.31.31,0,0,0,.12-.43Z"/><path class="cls-2" d="M57.24,39.56h0a.42.42,0,0,0-.53-.1L48.88,44l.44.59L57.15,40a.31.31,0,0,0,.13-.42Z"/><path class="cls-14" d="M56.38,38.4h0a.42.42,0,0,0-.53-.11L45.31,44.37a.31.31,0,0,0-.12.42l0,.05h0a.41.41,0,0,0,.52.11l10.54-6.09a.3.3,0,0,0,.12-.42A.05.05,0,0,0,56.38,38.4Z"/><path class="cls-2" d="M56.38,38.4h0a.43.43,0,0,0-.53-.12l-2.63,1.51.44.58,2.62-1.51a.31.31,0,0,0,.13-.42Z"/><path class="cls-14" d="M55.51,37.22h0a.42.42,0,0,0-.52-.1L44.45,43.2a.3.3,0,0,0-.13.42l0,.05h0a.4.4,0,0,0,.52.1l10.54-6.08a.31.31,0,0,0,.12-.43A.05.05,0,0,1,55.51,37.22Z"/><path class="cls-2" d="M55.51,37.22h0a.43.43,0,0,0-.53-.1l-5.49,3.16.44.58,5.49-3.15a.31.31,0,0,0,.12-.43Z"/><path class="cls-14" d="M54.64,36.06h0a.4.4,0,0,0-.52-.11L43.56,42a.32.32,0,0,0-.13.42l0,0h0a.41.41,0,0,0,.52.1L54.53,36.5a.32.32,0,0,0,.12-.43Z"/><path class="cls-2" d="M54.64,36.06h0a.4.4,0,0,0-.52-.11l-9.57,5.52.44.59,9.57-5.53a.31.31,0,0,0,.12-.42A.1.1,0,0,0,54.64,36.06Z"/></g></g><g id="freepik--Cables--inject-2"><g id="freepik--Cable--inject-2"><path class="cls-2" d="M99.78,131a.19.19,0,0,1-.25.08h0L85,122.72a1.68,1.68,0,0,0-1.45,0l-29,16.77a1.87,1.87,0,0,1-.9.22,2,2,0,0,1-.92-.22L36,129.81a.68.68,0,0,1,0-1.27l6.89-4a.06.06,0,0,1,.08,0,.3.3,0,0,1,.14.23.1.1,0,0,1,0,.07l0,0h0l-6.85,4a.39.39,0,0,0-.24.3c0,.11.08.22.24.31l16.76,9.68a1.59,1.59,0,0,0,1.44,0l29-16.76a2,2,0,0,1,1.83,0l14.51,8.38A.18.18,0,0,1,99.78,131Z"/><path class="cls-2" d="M96.71,132.81a.18.18,0,0,1-.25.07L85,126.27a1.68,1.68,0,0,0-1.45,0L54.53,143a1.77,1.77,0,0,1-.9.22,1.84,1.84,0,0,1-.92-.22L29.82,129.81a.68.68,0,0,1,0-1.27l9.94-5.74h0a.09.09,0,0,1,.1,0A.32.32,0,0,1,40,123a.09.09,0,0,1,0,.08h0L30,128.87a.42.42,0,0,0-.25.3c0,.11.09.22.25.31L52.9,142.7a1.59,1.59,0,0,0,1.44,0l29-16.76a2,2,0,0,1,1.83,0l11.45,6.61a.18.18,0,0,1,.07.25Z"/><path class="cls-2" d="M93.65,134.58a.2.2,0,0,1-.26.07L85,129.81a1.61,1.61,0,0,0-1.45,0l-29,16.76a1.77,1.77,0,0,1-.9.22,1.84,1.84,0,0,1-.92-.22l-29-16.76a.76.76,0,0,1-.44-.63.77.77,0,0,1,.44-.64l13-7.48,0,0a.11.11,0,0,1,.08,0,.28.28,0,0,1,.13.24.08.08,0,0,1,0,.08h0l-13,7.51c-.15.09-.24.2-.24.3s.09.22.24.31l29,16.76a1.65,1.65,0,0,0,1.44,0l29-16.76a2,2,0,0,1,1.83,0l8.38,4.82a.2.2,0,0,1,.08.26Z"/><path class="cls-2" d="M90.58,136.35a.18.18,0,0,1-.25.07L85,133.35a1.68,1.68,0,0,0-1.45,0l-29,16.76a1.79,1.79,0,0,1-.9.22,1.84,1.84,0,0,1-.92-.22l-35.16-20.3a.69.69,0,0,1-.38-.89.68.68,0,0,1,.38-.38l16.06-9.27s0,0,0,0a.08.08,0,0,1,.09,0,.26.26,0,0,1,.13.23.08.08,0,0,1,0,.07h0l-16,9.27a.39.39,0,0,0-.24.3c0,.11.08.22.24.32l35.16,20.3a1.65,1.65,0,0,0,1.44,0l29-16.77a2,2,0,0,1,1.82,0l5.32,3.08a.18.18,0,0,1,.07.25A.1.1,0,0,1,90.58,136.35Z"/><g class="cls-16"><path d="M99.78,131a.19.19,0,0,1-.25.08h0L85,122.72a1.68,1.68,0,0,0-1.45,0l-29,16.77a1.87,1.87,0,0,1-.9.22,2,2,0,0,1-.92-.22L36,129.81a.68.68,0,0,1,0-1.27l6.89-4a.06.06,0,0,1,.08,0,.3.3,0,0,1,.14.23.1.1,0,0,1,0,.07l0,0h0l-6.85,4a.39.39,0,0,0-.24.3c0,.11.08.22.24.31l16.76,9.68a1.59,1.59,0,0,0,1.44,0l29-16.76a2,2,0,0,1,1.83,0l14.51,8.38A.18.18,0,0,1,99.78,131Z"/><path d="M96.71,132.81a.18.18,0,0,1-.25.07L85,126.27a1.68,1.68,0,0,0-1.45,0L54.53,143a1.77,1.77,0,0,1-.9.22,1.84,1.84,0,0,1-.92-.22L29.82,129.81a.68.68,0,0,1,0-1.27l9.94-5.74h0a.09.09,0,0,1,.1,0A.32.32,0,0,1,40,123a.09.09,0,0,1,0,.08h0L30,128.87a.42.42,0,0,0-.25.3c0,.11.09.22.25.31L52.9,142.7a1.59,1.59,0,0,0,1.44,0l29-16.76a2,2,0,0,1,1.83,0l11.45,6.61a.18.18,0,0,1,.07.25Z"/><path d="M93.65,134.58a.2.2,0,0,1-.26.07L85,129.81a1.61,1.61,0,0,0-1.45,0l-29,16.76a1.77,1.77,0,0,1-.9.22,1.84,1.84,0,0,1-.92-.22l-29-16.76a.76.76,0,0,1-.44-.63.77.77,0,0,1,.44-.64l13-7.48,0,0a.11.11,0,0,1,.08,0,.28.28,0,0,1,.13.24.08.08,0,0,1,0,.08h0l-13,7.51c-.15.09-.24.2-.24.3s.09.22.24.31l29,16.76a1.65,1.65,0,0,0,1.44,0l29-16.76a2,2,0,0,1,1.83,0l8.38,4.82a.2.2,0,0,1,.08.26Z"/><path d="M90.58,136.35a.18.18,0,0,1-.25.07L85,133.35a1.68,1.68,0,0,0-1.45,0l-29,16.76a1.79,1.79,0,0,1-.9.22,1.84,1.84,0,0,1-.92-.22l-35.16-20.3a.69.69,0,0,1-.38-.89.68.68,0,0,1,.38-.38l16.06-9.27s0,0,0,0a.08.08,0,0,1,.09,0,.26.26,0,0,1,.13.23.08.08,0,0,1,0,.07h0l-16,9.27a.39.39,0,0,0-.24.3c0,.11.08.22.24.32l35.16,20.3a1.65,1.65,0,0,0,1.44,0l29-16.77a2,2,0,0,1,1.82,0l5.32,3.08a.18.18,0,0,1,.07.25A.1.1,0,0,1,90.58,136.35Z"/></g></g></g><g id="freepik--Device--inject-2"><g id="freepik--device--inject-2-2" data-name="freepik--device--inject-2"><g id="freepik--Monitor--inject-2"><path class="cls-14" d="M133.54,140.44l9.75-5.64a2.56,2.56,0,0,0,1.5-2.1v-1.36l-9.17-5.19a2.16,2.16,0,0,1-1-1.68v-12l-17,9.84v12a2.09,2.09,0,0,0,1,1.68l7.66,4.46A8,8,0,0,0,133.54,140.44Z"/><path class="cls-7" d="M118.81,133.63a2.16,2.16,0,0,0,1,1.68l6.49,3.78a8,8,0,0,0,7.27,0l9.76-5.64c2-1.16,2-3,0-4.2l-6.5-3.78a2.17,2.17,0,0,1-1-1.68v-9.4l-17,9.83Z"/><path class="cls-17" d="M138.77,126.6h0l-2-1.13a2.17,2.17,0,0,1-1-1.68v-9.4l-17,9.83v9.41a2.16,2.16,0,0,0,1,1.68l1.94,1.11Z"/><path class="cls-17" d="M144.8,131.34v1.36a2.57,2.57,0,0,1-1.51,2.1l-9.75,5.63a7.26,7.26,0,0,1-3.47.87v-1.37a7.25,7.25,0,0,0,3.47-.86l9.75-5.62A2.55,2.55,0,0,0,144.8,131.34Z"/><path class="cls-6" d="M91.46,146.58a2.56,2.56,0,0,0,2.35,0c8.37-4.82,57.49-33.19,65.85-38a2.68,2.68,0,0,0,1.22-2.1V48.78a2.29,2.29,0,0,0-2.2-2.36,2.24,2.24,0,0,0-1.29.35l-65.85,38a2.7,2.7,0,0,0-1.22,2.1v57.64A2.59,2.59,0,0,0,91.46,146.58Z"/><path class="cls-2" d="M93.81,146.54l65.85-38a2.7,2.7,0,0,0,1.22-2.1V48.78c0-.77-.55-1.09-1.22-.7l-65.85,38a2.71,2.71,0,0,0-1.21,2.1v57.64C92.6,146.61,93.14,146.93,93.81,146.54Z"/><path class="cls-7" d="M93.81,146.54l65.85-38a2.7,2.7,0,0,0,1.22-2.1V48.78c0-.77-.55-1.09-1.22-.7l-65.85,38a2.71,2.71,0,0,0-1.21,2.1v57.64C92.6,146.61,93.14,146.93,93.81,146.54Z"/><path d="M93.64,146.78a2.28,2.28,0,0,1-3.32-2.11v-6.48l2.28,1.32V146C92.6,146.69,93.05,147,93.64,146.78Z"/><path class="cls-14" d="M92.6,143.81V146c0,.77.54,1.09,1.21.7l65.85-38a2.66,2.66,0,0,0,1.21-2.1v-2.18Z"/><path class="cls-2" d="M94.87,138.94V89a1.61,1.61,0,0,1,.75-1.26l62.26-35.95c.4-.23.75,0,.75.42v50a1.61,1.61,0,0,1-.75,1.26l-62.28,36C95.2,139.59,94.87,139.4,94.87,138.94Z"/><path class="cls-2" d="M126.74,125.22a1.36,1.36,0,0,0-.62,1.07c0,.4.27.56.62.38a1.41,1.41,0,0,0,.62-1.08C127.36,125.18,127.08,125,126.74,125.22Z"/><path class="cls-14" d="M93,87a2.52,2.52,0,0,0-.37,1.2v55.61l-2.28-1.31V86.89a2.59,2.59,0,0,1,.37-1.2Z"/></g></g><g id="freepik--WiFi--inject-4"><g id="freepik--wifi--inject-4-2" data-name="freepik--wifi--inject-4"><path class="cls-18" d="M131.45,97.84a1.59,1.59,0,0,0-1.59-.11c-1.48.65-2.78,3-2.87,5.22a3.18,3.18,0,0,0,.94,2.77l1.63,1.17a1.55,1.55,0,0,0,1.57.1c1.49-.65,2.79-3,2.89-5.22a3.19,3.19,0,0,0-.94-2.75Z"/><path class="cls-19" d="M131.45,97.84a1.59,1.59,0,0,0-1.59-.11c-1.48.65-2.78,3-2.87,5.22a3.18,3.18,0,0,0,.94,2.77l1.63,1.17a1.55,1.55,0,0,0,1.57.1c1.49-.65,2.79-3,2.89-5.22a3.19,3.19,0,0,0-.94-2.75Z"/><path class="cls-18" d="M133.44,92a4,4,0,0,0-4.15-.27c-2.72,1.18-5.19,4.49-6.53,8.37a1.78,1.78,0,0,0,.2,1.88h0c.45.34,1.23.86,1.62,1.16h0c.49.37,1.25-.17,1.59-1.17.94-2.74,2.69-5.08,4.6-5.9a3.12,3.12,0,0,1,2-.23,5.13,5.13,0,0,1,.59,1.14.86.86,0,0,0,.26.37l1.63,1.17c.35.25.88,0,1.28-.59h0a2.65,2.65,0,0,0,.38-2.12,5.52,5.52,0,0,0-1.86-2.64Z"/><path class="cls-20" d="M133.44,92a4,4,0,0,0-4.15-.27c-2.72,1.18-5.19,4.49-6.53,8.37a1.78,1.78,0,0,0,.2,1.88h0c.45.34,1.23.86,1.62,1.16h0c.49.37,1.25-.17,1.59-1.17.94-2.74,2.69-5.08,4.6-5.9a3.12,3.12,0,0,1,2-.23,5.13,5.13,0,0,1,.59,1.14.86.86,0,0,0,.26.37l1.63,1.17c.35.25.88,0,1.28-.59h0a2.65,2.65,0,0,0,.38-2.12,5.52,5.52,0,0,0-1.86-2.64Z"/><path class="cls-18" d="M139.75,89.71a8.39,8.39,0,0,0-2.6-3.3l-1.65-1.18a7.94,7.94,0,0,0-7.42-.55c-4.52,2-7.47,4.83-10.2,11.65a1.81,1.81,0,0,0,.22,2l.33.26c.47.37,1.21.84,1.62,1.16h0c.47.37,1.2-.14,1.57-1.08a17.6,17.6,0,0,1,8.66-9.56,5.54,5.54,0,0,1,4.6-.14,7.58,7.58,0,0,1,1.37,2,.8.8,0,0,0,.25.32c.24.17,1.52,1.12,1.62,1.17.35.25.88,0,1.28-.58A2.44,2.44,0,0,0,139.75,89.71Z"/><path class="cls-20" d="M139.75,89.71a8.39,8.39,0,0,0-2.6-3.3l-1.65-1.18a7.94,7.94,0,0,0-7.42-.55c-4.52,2-7.47,4.83-10.2,11.65a1.81,1.81,0,0,0,.22,2l.33.26c.47.37,1.21.84,1.62,1.16h0c.47.37,1.2-.14,1.57-1.08a17.6,17.6,0,0,1,8.66-9.56,5.54,5.54,0,0,1,4.6-.14,7.58,7.58,0,0,1,1.37,2,.8.8,0,0,0,.25.32c.24.17,1.52,1.12,1.62,1.17.35.25.88,0,1.28-.58A2.44,2.44,0,0,0,139.75,89.71Z"/><path class="cls-18" d="M134,101.77c-.1,2.23-1.39,4.57-2.89,5.22s-2.62-.64-2.52-2.87,1.4-4.57,2.88-5.22S134.11,99.54,134,101.77Z"/><path class="cls-18" d="M130.91,92.86c-2.72,1.18-5.19,4.49-6.53,8.36a1.78,1.78,0,0,0,.2,1.88h0c.49.37,1.25-.17,1.59-1.16,1-2.75,2.69-5.08,4.6-5.91s3.52.06,4.25,2.07c.27.75,1,.63,1.56-.19h0a2.65,2.65,0,0,0,.37-2.12C135.91,92.94,133.64,91.68,130.91,92.86Z"/><path class="cls-18" d="M130.07,86a15.37,15.37,0,0,0-6.73,4.86,22.82,22.82,0,0,0-3.62,6.64c-.31.84-.47,1.73.35,2.31h0c.47.37,1.19-.14,1.56-1.08a17.63,17.63,0,0,1,8.66-9.56c3.31-1.43,6.12-.11,7.6,3.08.3.65,1,.54,1.53-.26h0a2.5,2.5,0,0,0,.32-2.22A7.27,7.27,0,0,0,130.07,86Z"/></g></g></g></g></g></svg>