<svg xmlns="http://www.w3.org/2000/svg" viewBox="0 0 178 184"><defs><style>.cls-1{fill:#d4dee1;}.cls-14,.cls-17,.cls-2,.cls-3{fill:none;}.cls-10,.cls-12,.cls-13,.cls-14,.cls-15,.cls-16,.cls-17,.cls-2,.cls-3,.cls-4,.cls-5,.cls-6,.cls-7,.cls-8{stroke:#1c5a68;}.cls-10,.cls-13,.cls-16,.cls-2,.cls-3,.cls-4,.cls-5,.cls-6,.cls-8{stroke-miterlimit:10;}.cls-10,.cls-2,.cls-3,.cls-5,.cls-6,.cls-7,.cls-8{stroke-width:0.45px;}.cls-2{stroke-dasharray:0.9 0.9;}.cls-3{stroke-dasharray:0.9 0.9;}.cls-12,.cls-15,.cls-4,.cls-5,.cls-9{fill:#94b7bd;}.cls-4{stroke-width:0.36px;}.cls-11,.cls-6{fill:#1c5a68;}.cls-7,.cls-8{fill:#dde7e9;}.cls-12,.cls-14,.cls-15,.cls-17,.cls-7{stroke-linecap:round;stroke-linejoin:round;}.cls-10,.cls-13,.cls-16{fill:#fff;}.cls-12,.cls-13{stroke-width:0.29px;}.cls-14{stroke-width:0.14px;}.cls-15,.cls-16{stroke-width:0.3px;}.cls-17{stroke-width:0.15px;}</style></defs><g id="Calque_2" data-name="Calque 2"><g id="Calque_1-2" data-name="Calque 1"><path id="bulle_fond" data-name="bulle fond" class="cls-1" d="M0,83.28C0,26.73,24.75,0,77.12,0H99c55.23,0,79,26.73,79,83.28v17.44C178,157.26,153.26,184,99,184H77.12C25.71,184,0,157.26,0,100.72Z"/><path class="cls-2" d="M102.2,108.29c-.48-3.1-1.29-10.84,1.75-14.3,3.85-4.37,8.47-.63,21.35,0s19.5-1.25,19.63-12.29-7.42-11.77-7.42-11.77h-4.77"/><path class="cls-3" d="M79,144.11l-5-6.59a9.82,9.82,0,0,0-3.12-2.79c-4.9-3.55-19.81,8.42-24.49-2.09S58,112,51.64,102.71s-16-8.56-19.49-12.91.08-7.62.08-7.62l12.86-9.71"/><path class="cls-4" d="M135.24,90.85a4.42,4.42,0,0,0-2.19.6,6.05,6.05,0,0,0-11.91-2.16,5.34,5.34,0,1,0-1.89,10.36h16a4.4,4.4,0,0,0,0-8.8Z"/><path class="cls-5" d="M61.13,108.77a5.86,5.86,0,0,0-2.94.79,8.1,8.1,0,0,0-15.94-2.88,7.16,7.16,0,0,0-5,13.43,7.38,7.38,0,0,0,2.46.45H61.13a5.89,5.89,0,0,0,0-11.78h0Z"/><rect class="cls-6" x="81.21" y="110.31" width="39.89" height="27.33"/><polygon class="cls-7" points="127.09 149.72 75.23 149.72 81.22 137.64 121.11 137.64 127.09 149.72"/><rect class="cls-8" x="83.63" y="112.47" width="35.06" height="23.01"/><polygon class="cls-9" points="106.42 121.77 101.17 115.57 95.93 121.77 98.12 121.77 98.12 131.48 104.22 131.48 104.22 121.77 106.42 121.77"/><polygon class="cls-10" points="99.5 141.47 99.56 140 97.46 140 97.32 141.47 99.5 141.47"/><polygon class="cls-10" points="103.85 141.47 103.78 140 101.67 140 101.68 141.47 103.85 141.47"/><polygon class="cls-10" points="115.2 143.04 117.45 143.04 116.92 141.47 114.75 141.47 115.2 143.04"/><polygon class="cls-10" points="97.32 141.47 97.46 140 95.35 140 95.14 141.47 97.32 141.47"/><polygon class="cls-10" points="92.96 141.47 93.24 140 91.14 140 90.79 141.47 92.96 141.47"/><polygon class="cls-10" points="112.57 141.47 112.21 140 110.1 140 110.39 141.47 112.57 141.47"/><polygon class="cls-10" points="114.75 141.47 114.32 140 112.21 140 112.57 141.47 114.75 141.47"/><polygon class="cls-10" points="90.79 141.47 91.14 140 89.03 140 88.61 141.47 90.79 141.47"/><polygon class="cls-10" points="106.03 141.47 105.89 140 103.78 140 103.85 141.47 106.03 141.47"/><polygon class="cls-10" points="116.92 141.47 116.43 140 114.32 140 114.75 141.47 116.92 141.47"/><polygon class="cls-10" points="110.39 141.47 110.1 140 108 140 108.21 141.47 110.39 141.47"/><polygon class="cls-10" points="108.21 141.47 108 140 105.89 140 106.03 141.47 108.21 141.47"/><polygon class="cls-10" points="101.68 141.47 101.67 140 99.56 140 99.5 141.47 101.68 141.47"/><polygon class="cls-10" points="86.43 141.47 84.25 141.47 83.65 143.04 85.9 143.04 86.43 141.47"/><polygon class="cls-10" points="86.92 140 84.81 140 84.25 141.47 86.43 141.47 86.92 140"/><polygon class="cls-10" points="88.61 141.47 89.03 140 86.92 140 86.43 141.47 88.61 141.47"/><polygon class="cls-10" points="83.01 144.73 82.31 146.54 84.73 146.54 85.34 144.73 83.01 144.73"/><polygon class="cls-10" points="85.9 143.04 83.65 143.04 83.01 144.73 85.34 144.73 85.9 143.04"/><polygon class="cls-10" points="85.34 144.73 84.73 146.54 87.16 146.54 87.67 144.73 85.34 144.73"/><polygon class="cls-10" points="95.14 141.47 95.35 140 93.24 140 92.96 141.47 95.14 141.47"/><polygon class="cls-10" points="94.92 143.04 95.14 141.47 92.96 141.47 92.66 143.04 94.92 143.04"/><polygon class="cls-10" points="92.66 143.04 92.96 141.47 90.79 141.47 90.41 143.04 92.66 143.04"/><polygon class="cls-10" points="97.17 143.04 97.32 141.47 95.14 141.47 94.92 143.04 97.17 143.04"/><polygon class="cls-10" points="88.61 141.47 86.43 141.47 85.9 143.04 88.16 143.04 88.61 141.47"/><polygon class="cls-10" points="115.69 144.73 118.02 144.73 117.45 143.04 115.2 143.04 115.69 144.73"/><polygon class="cls-10" points="90.41 143.04 90.79 141.47 88.61 141.47 88.16 143.04 90.41 143.04"/><polygon class="cls-10" points="85.9 143.04 85.34 144.73 87.67 144.73 88.16 143.04 85.9 143.04"/><polygon class="cls-10" points="110.69 143.04 110.39 141.47 108.21 141.47 108.44 143.04 110.69 143.04"/><polygon class="cls-10" points="108.44 143.04 108.21 141.47 106.03 141.47 106.19 143.04 108.44 143.04"/><polygon class="cls-10" points="115.2 143.04 114.75 141.47 112.57 141.47 112.95 143.04 115.2 143.04"/><polygon class="cls-10" points="101.68 143.04 101.68 141.47 99.5 141.47 99.42 143.04 101.68 143.04"/><polygon class="cls-10" points="106.19 143.04 106.03 141.47 103.85 141.47 103.93 143.04 106.19 143.04"/><polygon class="cls-10" points="103.93 143.04 103.85 141.47 101.68 141.47 101.68 143.04 103.93 143.04"/><polygon class="cls-10" points="99.42 143.04 99.5 141.47 97.32 141.47 97.17 143.04 99.42 143.04"/><polygon class="cls-10" points="106.19 143.04 106.35 144.73 108.69 144.73 108.44 143.04 106.19 143.04"/><polygon class="cls-10" points="108.44 143.04 108.69 144.73 111.02 144.73 110.69 143.04 108.44 143.04"/><polygon class="cls-10" points="88.16 143.04 87.67 144.73 90.01 144.73 90.41 143.04 88.16 143.04"/><polygon class="cls-10" points="110.69 143.04 111.02 144.73 113.35 144.73 112.95 143.04 110.69 143.04"/><polygon class="cls-10" points="101.68 143.04 101.68 144.73 104.02 144.73 103.93 143.04 101.68 143.04"/><polygon class="cls-10" points="112.95 143.04 113.35 144.73 115.69 144.73 115.2 143.04 112.95 143.04"/><polygon class="cls-10" points="103.93 143.04 104.02 144.73 106.35 144.73 106.19 143.04 103.93 143.04"/><polygon class="cls-10" points="92.66 143.04 92.34 144.73 94.68 144.73 94.92 143.04 92.66 143.04"/><polygon class="cls-10" points="90.41 143.04 90.01 144.73 92.34 144.73 92.66 143.04 90.41 143.04"/><polygon class="cls-10" points="99.42 143.04 99.35 144.73 101.68 144.73 101.68 143.04 99.42 143.04"/><polygon class="cls-10" points="97.17 143.04 97.01 144.73 99.35 144.73 99.42 143.04 97.17 143.04"/><polygon class="cls-10" points="94.92 143.04 94.68 144.73 97.01 144.73 97.17 143.04 94.92 143.04"/><polygon class="cls-10" points="112.95 143.04 112.57 141.47 110.39 141.47 110.69 143.04 112.95 143.04"/><polygon class="cls-10" points="86.92 140 87.42 138.49 85.39 138.49 84.81 140 86.92 140"/><polygon class="cls-10" points="84.81 140 82.87 140 82.24 141.47 84.25 141.47 84.81 140"/><polygon class="cls-10" points="85.39 138.49 83.51 138.49 82.87 140 84.81 140 85.39 138.49"/><polygon class="cls-10" points="84.25 141.47 82.24 141.47 81.57 143.04 83.65 143.04 84.25 141.47"/><polygon class="cls-10" points="83.65 143.04 81.57 143.04 80.85 144.73 83.01 144.73 83.65 143.04"/><polygon class="cls-10" points="83.01 144.73 80.85 144.73 80.08 146.54 82.31 146.54 83.01 144.73"/><polygon class="cls-10" points="119.1 141.47 119.71 143.04 121.7 143.04 121.03 141.47 119.1 141.47"/><polygon class="cls-10" points="120.36 144.73 122.42 144.73 121.7 143.04 119.71 143.04 120.36 144.73"/><polygon class="cls-10" points="121.05 146.54 123.19 146.54 122.42 144.73 120.36 144.73 121.05 146.54"/><polygon class="cls-10" points="103.78 140 103.71 138.49 101.67 138.49 101.67 140 103.78 140"/><polygon class="cls-10" points="119.1 141.47 121.03 141.47 120.4 140 118.54 140 119.1 141.47"/><polygon class="cls-10" points="118.02 144.73 120.36 144.73 119.71 143.04 117.45 143.04 118.02 144.73"/><polygon class="cls-10" points="89.03 140 89.46 138.49 87.42 138.49 86.92 140 89.03 140"/><polygon class="cls-10" points="116.43 140 116.92 141.47 119.1 141.47 118.54 140 116.43 140"/><polygon class="cls-10" points="120.4 140 119.76 138.49 117.96 138.49 118.54 140 120.4 140"/><polygon class="cls-10" points="118.54 140 117.96 138.49 115.92 138.49 116.43 140 118.54 140"/><polygon class="cls-10" points="111.02 144.73 111.37 146.54 113.79 146.54 113.35 144.73 111.02 144.73"/><polygon class="cls-10" points="118.63 146.54 121.05 146.54 120.36 144.73 118.02 144.73 118.63 146.54"/><polygon class="cls-10" points="116.43 140 115.92 138.49 113.89 138.49 114.32 140 116.43 140"/><polygon class="cls-10" points="115.69 144.73 116.21 146.54 118.63 146.54 118.02 144.73 115.69 144.73"/><polygon class="cls-10" points="113.35 144.73 113.79 146.54 116.21 146.54 115.69 144.73 113.35 144.73"/><polygon class="cls-10" points="117.45 143.04 119.71 143.04 119.1 141.47 116.92 141.47 117.45 143.04"/><polygon class="cls-10" points="97.46 140 97.6 138.49 95.57 138.49 95.35 140 97.46 140"/><polygon class="cls-10" points="114.32 140 113.89 138.49 111.85 138.49 112.21 140 114.32 140"/><polygon class="cls-10" points="95.35 140 95.57 138.49 93.53 138.49 93.24 140 95.35 140"/><polygon class="cls-10" points="101.67 140 101.67 138.49 99.64 138.49 99.56 140 101.67 140"/><polygon class="cls-10" points="93.24 140 93.53 138.49 91.49 138.49 91.14 140 93.24 140"/><polygon class="cls-10" points="91.14 140 91.49 138.49 89.46 138.49 89.03 140 91.14 140"/><polygon class="cls-10" points="99.56 140 99.64 138.49 97.6 138.49 97.46 140 99.56 140"/><polygon class="cls-10" points="112.21 140 111.85 138.49 109.82 138.49 110.1 140 112.21 140"/><polygon class="cls-10" points="110.1 140 109.82 138.49 107.78 138.49 108 140 110.1 140"/><polygon class="cls-10" points="105.89 140 105.74 138.49 103.71 138.49 103.78 140 105.89 140"/><polygon class="cls-10" points="111.02 144.73 108.69 144.73 106.35 144.73 104.02 144.73 101.68 144.73 99.35 144.73 97.01 144.73 94.68 144.73 92.34 144.73 90.01 144.73 87.67 144.73 87.16 146.54 89.58 146.54 92 146.54 94.42 146.54 96.84 146.54 99.26 146.54 101.68 146.54 104.1 146.54 106.52 146.54 108.94 146.54 111.37 146.54 111.02 144.73"/><polygon class="cls-10" points="108 140 107.78 138.49 105.74 138.49 105.89 140 108 140"/><rect class="cls-6" x="75.23" y="149.73" width="51.88" height="0.73"/><rect class="cls-6" x="116.39" y="33.54" width="39.89" height="27.33"/><polygon class="cls-7" points="162.26 72.95 110.41 72.95 116.39 60.87 156.28 60.87 162.26 72.95"/><rect class="cls-8" x="118.8" y="35.7" width="35.06" height="23.01"/><polygon class="cls-10" points="134.67 64.7 134.74 63.23 132.63 63.23 132.49 64.7 134.67 64.7"/><polygon class="cls-10" points="139.03 64.7 138.96 63.23 136.85 63.23 136.85 64.7 139.03 64.7"/><polygon class="cls-10" points="150.37 66.27 152.63 66.27 152.09 64.7 149.92 64.7 150.37 66.27"/><polygon class="cls-10" points="132.49 64.7 132.63 63.23 130.53 63.23 130.31 64.7 132.49 64.7"/><polygon class="cls-10" points="128.13 64.7 128.42 63.23 126.31 63.23 125.96 64.7 128.13 64.7"/><polygon class="cls-10" points="147.74 64.7 147.38 63.23 145.28 63.23 145.56 64.7 147.74 64.7"/><polygon class="cls-10" points="149.92 64.7 149.49 63.23 147.38 63.23 147.74 64.7 149.92 64.7"/><polygon class="cls-10" points="125.96 64.7 126.31 63.23 124.2 63.23 123.78 64.7 125.96 64.7"/><polygon class="cls-10" points="141.21 64.7 141.06 63.23 138.96 63.23 139.03 64.7 141.21 64.7"/><polygon class="cls-10" points="152.09 64.7 151.6 63.23 149.49 63.23 149.92 64.7 152.09 64.7"/><polygon class="cls-10" points="145.56 64.7 145.28 63.23 143.17 63.23 143.38 64.7 145.56 64.7"/><polygon class="cls-10" points="143.38 64.7 143.17 63.23 141.06 63.23 141.21 64.7 143.38 64.7"/><polygon class="cls-10" points="136.85 64.7 136.85 63.23 134.74 63.23 134.67 64.7 136.85 64.7"/><polygon class="cls-10" points="121.6 64.7 119.42 64.7 118.82 66.27 121.07 66.27 121.6 64.7"/><polygon class="cls-10" points="122.09 63.23 119.99 63.23 119.42 64.7 121.6 64.7 122.09 63.23"/><polygon class="cls-10" points="123.78 64.7 124.2 63.23 122.09 63.23 121.6 64.7 123.78 64.7"/><polygon class="cls-10" points="118.18 67.96 117.48 69.77 119.91 69.77 120.51 67.96 118.18 67.96"/><polygon class="cls-10" points="121.07 66.27 118.82 66.27 118.18 67.96 120.51 67.96 121.07 66.27"/><polygon class="cls-10" points="120.51 67.96 119.91 69.77 122.33 69.77 122.85 67.96 120.51 67.96"/><polygon class="cls-10" points="130.31 64.7 130.53 63.23 128.42 63.23 128.13 64.7 130.31 64.7"/><polygon class="cls-10" points="130.09 66.27 130.31 64.7 128.13 64.7 127.83 66.27 130.09 66.27"/><polygon class="cls-10" points="127.83 66.27 128.13 64.7 125.96 64.7 125.58 66.27 127.83 66.27"/><polygon class="cls-10" points="132.34 66.27 132.49 64.7 130.31 64.7 130.09 66.27 132.34 66.27"/><polygon class="cls-10" points="123.78 64.7 121.6 64.7 121.07 66.27 123.33 66.27 123.78 64.7"/><polygon class="cls-10" points="150.86 67.96 153.19 67.96 152.63 66.27 150.37 66.27 150.86 67.96"/><polygon class="cls-10" points="125.58 66.27 125.96 64.7 123.78 64.7 123.33 66.27 125.58 66.27"/><polygon class="cls-10" points="121.07 66.27 120.51 67.96 122.85 67.96 123.33 66.27 121.07 66.27"/><polygon class="cls-10" points="145.86 66.27 145.56 64.7 143.38 64.7 143.61 66.27 145.86 66.27"/><polygon class="cls-10" points="143.61 66.27 143.38 64.7 141.21 64.7 141.36 66.27 143.61 66.27"/><polygon class="cls-10" points="150.37 66.27 149.92 64.7 147.74 64.7 148.12 66.27 150.37 66.27"/><polygon class="cls-10" points="136.85 66.27 136.85 64.7 134.67 64.7 134.59 66.27 136.85 66.27"/><polygon class="cls-10" points="141.36 66.27 141.21 64.7 139.03 64.7 139.1 66.27 141.36 66.27"/><polygon class="cls-10" points="139.1 66.27 139.03 64.7 136.85 64.7 136.85 66.27 139.1 66.27"/><polygon class="cls-10" points="134.59 66.27 134.67 64.7 132.49 64.7 132.34 66.27 134.59 66.27"/><polygon class="cls-10" points="141.36 66.27 141.52 67.96 143.86 67.96 143.61 66.27 141.36 66.27"/><polygon class="cls-10" points="143.61 66.27 143.86 67.96 146.19 67.96 145.86 66.27 143.61 66.27"/><polygon class="cls-10" points="123.33 66.27 122.85 67.96 125.18 67.96 125.58 66.27 123.33 66.27"/><polygon class="cls-10" points="145.86 66.27 146.19 67.96 148.52 67.96 148.12 66.27 145.86 66.27"/><polygon class="cls-10" points="136.85 66.27 136.85 67.96 139.19 67.96 139.1 66.27 136.85 66.27"/><polygon class="cls-10" points="148.12 66.27 148.52 67.96 150.86 67.96 150.37 66.27 148.12 66.27"/><polygon class="cls-10" points="139.1 66.27 139.19 67.96 141.52 67.96 141.36 66.27 139.1 66.27"/><polygon class="cls-10" points="127.83 66.27 127.51 67.96 129.85 67.96 130.09 66.27 127.83 66.27"/><polygon class="cls-10" points="125.58 66.27 125.18 67.96 127.51 67.96 127.83 66.27 125.58 66.27"/><polygon class="cls-10" points="134.59 66.27 134.52 67.96 136.85 67.96 136.85 66.27 134.59 66.27"/><polygon class="cls-10" points="132.34 66.27 132.18 67.96 134.52 67.96 134.59 66.27 132.34 66.27"/><polygon class="cls-10" points="130.09 66.27 129.85 67.96 132.18 67.96 132.34 66.27 130.09 66.27"/><polygon class="cls-10" points="148.12 66.27 147.74 64.7 145.56 64.7 145.86 66.27 148.12 66.27"/><polygon class="cls-10" points="122.09 63.23 122.6 61.72 120.56 61.72 119.99 63.23 122.09 63.23"/><polygon class="cls-10" points="119.99 63.23 118.04 63.23 117.41 64.7 119.42 64.7 119.99 63.23"/><polygon class="cls-10" points="120.56 61.72 118.68 61.72 118.04 63.23 119.99 63.23 120.56 61.72"/><polygon class="cls-10" points="119.42 64.7 117.41 64.7 116.74 66.27 118.82 66.27 119.42 64.7"/><polygon class="cls-10" points="118.82 66.27 116.74 66.27 116.02 67.96 118.18 67.96 118.82 66.27"/><polygon class="cls-10" points="118.18 67.96 116.02 67.96 115.25 69.77 117.48 69.77 118.18 67.96"/><polygon class="cls-10" points="154.27 64.7 154.88 66.27 156.87 66.27 156.2 64.7 154.27 64.7"/><polygon class="cls-10" points="155.53 67.96 157.59 67.96 156.87 66.27 154.88 66.27 155.53 67.96"/><polygon class="cls-10" points="156.22 69.77 158.36 69.77 157.59 67.96 155.53 67.96 156.22 69.77"/><polygon class="cls-10" points="138.96 63.23 138.88 61.72 136.85 61.72 136.85 63.23 138.96 63.23"/><polygon class="cls-10" points="154.27 64.7 156.2 64.7 155.57 63.23 153.71 63.23 154.27 64.7"/><polygon class="cls-10" points="153.19 67.96 155.53 67.96 154.88 66.27 152.63 66.27 153.19 67.96"/><polygon class="cls-10" points="124.2 63.23 124.63 61.72 122.6 61.72 122.09 63.23 124.2 63.23"/><polygon class="cls-10" points="151.6 63.23 152.09 64.7 154.27 64.7 153.71 63.23 151.6 63.23"/><polygon class="cls-10" points="155.57 63.23 154.93 61.72 153.13 61.72 153.71 63.23 155.57 63.23"/><polygon class="cls-10" points="153.71 63.23 153.13 61.72 151.1 61.72 151.6 63.23 153.71 63.23"/><polygon class="cls-10" points="146.19 67.96 146.54 69.77 148.96 69.77 148.52 67.96 146.19 67.96"/><polygon class="cls-10" points="153.8 69.77 156.22 69.77 155.53 67.96 153.19 67.96 153.8 69.77"/><polygon class="cls-10" points="151.6 63.23 151.1 61.72 149.06 61.72 149.49 63.23 151.6 63.23"/><polygon class="cls-10" points="150.86 67.96 151.38 69.77 153.8 69.77 153.19 67.96 150.86 67.96"/><polygon class="cls-10" points="148.52 67.96 148.96 69.77 151.38 69.77 150.86 67.96 148.52 67.96"/><polygon class="cls-10" points="152.63 66.27 154.88 66.27 154.27 64.7 152.09 64.7 152.63 66.27"/><polygon class="cls-10" points="132.63 63.23 132.78 61.72 130.74 61.72 130.53 63.23 132.63 63.23"/><polygon class="cls-10" points="149.49 63.23 149.06 61.72 147.02 61.72 147.38 63.23 149.49 63.23"/><polygon class="cls-10" points="130.53 63.23 130.74 61.72 128.7 61.72 128.42 63.23 130.53 63.23"/><polygon class="cls-10" points="136.85 63.23 136.85 61.72 134.81 61.72 134.74 63.23 136.85 63.23"/><polygon class="cls-10" points="128.42 63.23 128.7 61.72 126.67 61.72 126.31 63.23 128.42 63.23"/><polygon class="cls-10" points="126.31 63.23 126.67 61.72 124.63 61.72 124.2 63.23 126.31 63.23"/><polygon class="cls-10" points="134.74 63.23 134.81 61.72 132.78 61.72 132.63 63.23 134.74 63.23"/><polygon class="cls-10" points="147.38 63.23 147.02 61.72 144.99 61.72 145.28 63.23 147.38 63.23"/><polygon class="cls-10" points="145.28 63.23 144.99 61.72 142.95 61.72 143.17 63.23 145.28 63.23"/><polygon class="cls-10" points="141.06 63.23 140.92 61.72 138.88 61.72 138.96 63.23 141.06 63.23"/><polygon class="cls-10" points="146.19 67.96 143.86 67.96 141.52 67.96 139.19 67.96 136.85 67.96 134.52 67.96 132.18 67.96 129.85 67.96 127.51 67.96 125.18 67.96 122.85 67.96 122.33 69.77 124.75 69.77 127.17 69.77 129.59 69.77 132.01 69.77 134.43 69.77 136.85 69.77 139.27 69.77 141.69 69.77 144.12 69.77 146.54 69.77 146.19 67.96"/><polygon class="cls-10" points="143.17 63.23 142.95 61.72 140.92 61.72 141.06 63.23 143.17 63.23"/><rect class="cls-6" x="110.41" y="72.95" width="51.88" height="0.73"/><rect class="cls-6" x="21.69" y="52.88" width="39.89" height="27.33"/><polygon class="cls-7" points="67.57 92.29 15.71 92.29 21.69 80.21 61.59 80.21 67.57 92.29"/><rect class="cls-8" x="24.11" y="55.04" width="35.06" height="23.01"/><polygon class="cls-10" points="39.98 84.04 40.04 82.57 37.94 82.57 37.8 84.04 39.98 84.04"/><polygon class="cls-10" points="44.33 84.04 44.26 82.57 42.15 82.57 42.16 84.04 44.33 84.04"/><polygon class="cls-10" points="55.68 85.61 57.93 85.61 57.4 84.04 55.23 84.04 55.68 85.61"/><polygon class="cls-10" points="37.8 84.04 37.94 82.57 35.83 82.57 35.62 84.04 37.8 84.04"/><polygon class="cls-10" points="33.44 84.04 33.72 82.57 31.61 82.57 31.27 84.04 33.44 84.04"/><polygon class="cls-10" points="53.04 84.04 52.69 82.57 50.58 82.57 50.87 84.04 53.04 84.04"/><polygon class="cls-10" points="55.23 84.04 54.8 82.57 52.69 82.57 53.04 84.04 55.23 84.04"/><polygon class="cls-10" points="31.27 84.04 31.61 82.57 29.5 82.57 29.08 84.04 31.27 84.04"/><polygon class="cls-10" points="46.51 84.04 46.37 82.57 44.26 82.57 44.33 84.04 46.51 84.04"/><polygon class="cls-10" points="57.4 84.04 56.91 82.57 54.8 82.57 55.23 84.04 57.4 84.04"/><polygon class="cls-10" points="50.87 84.04 50.58 82.57 48.48 82.57 48.69 84.04 50.87 84.04"/><polygon class="cls-10" points="48.69 84.04 48.48 82.57 46.37 82.57 46.51 84.04 48.69 84.04"/><polygon class="cls-10" points="42.16 84.04 42.15 82.57 40.04 82.57 39.98 84.04 42.16 84.04"/><polygon class="cls-10" points="26.91 84.04 24.73 84.04 24.13 85.61 26.38 85.61 26.91 84.04"/><polygon class="cls-10" points="27.4 82.57 25.29 82.57 24.73 84.04 26.91 84.04 27.4 82.57"/><polygon class="cls-10" points="29.08 84.04 29.5 82.57 27.4 82.57 26.91 84.04 29.08 84.04"/><polygon class="cls-10" points="23.48 87.3 22.79 89.11 25.21 89.11 25.82 87.3 23.48 87.3"/><polygon class="cls-10" points="26.38 85.61 24.13 85.61 23.48 87.3 25.82 87.3 26.38 85.61"/><polygon class="cls-10" points="25.82 87.3 25.21 89.11 27.63 89.11 28.15 87.3 25.82 87.3"/><polygon class="cls-10" points="35.62 84.04 35.83 82.57 33.72 82.57 33.44 84.04 35.62 84.04"/><polygon class="cls-10" points="35.4 85.61 35.62 84.04 33.44 84.04 33.14 85.61 35.4 85.61"/><polygon class="cls-10" points="33.14 85.61 33.44 84.04 31.27 84.04 30.89 85.61 33.14 85.61"/><polygon class="cls-10" points="37.65 85.61 37.8 84.04 35.62 84.04 35.4 85.61 37.65 85.61"/><polygon class="cls-10" points="29.08 84.04 26.91 84.04 26.38 85.61 28.64 85.61 29.08 84.04"/><polygon class="cls-10" points="56.16 87.3 58.5 87.3 57.93 85.61 55.68 85.61 56.16 87.3"/><polygon class="cls-10" points="30.89 85.61 31.27 84.04 29.08 84.04 28.64 85.61 30.89 85.61"/><polygon class="cls-10" points="26.38 85.61 25.82 87.3 28.15 87.3 28.64 85.61 26.38 85.61"/><polygon class="cls-10" points="51.17 85.61 50.87 84.04 48.69 84.04 48.92 85.61 51.17 85.61"/><polygon class="cls-10" points="48.92 85.61 48.69 84.04 46.51 84.04 46.66 85.61 48.92 85.61"/><polygon class="cls-10" points="55.68 85.61 55.23 84.04 53.04 84.04 53.42 85.61 55.68 85.61"/><polygon class="cls-10" points="42.16 85.61 42.16 84.04 39.98 84.04 39.9 85.61 42.16 85.61"/><polygon class="cls-10" points="46.66 85.61 46.51 84.04 44.33 84.04 44.41 85.61 46.66 85.61"/><polygon class="cls-10" points="44.41 85.61 44.33 84.04 42.16 84.04 42.16 85.61 44.41 85.61"/><polygon class="cls-10" points="39.9 85.61 39.98 84.04 37.8 84.04 37.65 85.61 39.9 85.61"/><polygon class="cls-10" points="46.66 85.61 46.83 87.3 49.16 87.3 48.92 85.61 46.66 85.61"/><polygon class="cls-10" points="48.92 85.61 49.16 87.3 51.49 87.3 51.17 85.61 48.92 85.61"/><polygon class="cls-10" points="28.64 85.61 28.15 87.3 30.49 87.3 30.89 85.61 28.64 85.61"/><polygon class="cls-10" points="51.17 85.61 51.49 87.3 53.83 87.3 53.42 85.61 51.17 85.61"/><polygon class="cls-10" points="42.16 85.61 42.16 87.3 44.49 87.3 44.41 85.61 42.16 85.61"/><polygon class="cls-10" points="53.42 85.61 53.83 87.3 56.16 87.3 55.68 85.61 53.42 85.61"/><polygon class="cls-10" points="44.41 85.61 44.49 87.3 46.83 87.3 46.66 85.61 44.41 85.61"/><polygon class="cls-10" points="33.14 85.61 32.82 87.3 35.16 87.3 35.4 85.61 33.14 85.61"/><polygon class="cls-10" points="30.89 85.61 30.49 87.3 32.82 87.3 33.14 85.61 30.89 85.61"/><polygon class="cls-10" points="39.9 85.61 39.82 87.3 42.16 87.3 42.16 85.61 39.9 85.61"/><polygon class="cls-10" points="37.65 85.61 37.49 87.3 39.82 87.3 39.9 85.61 37.65 85.61"/><polygon class="cls-10" points="35.4 85.61 35.16 87.3 37.49 87.3 37.65 85.61 35.4 85.61"/><polygon class="cls-10" points="53.42 85.61 53.04 84.04 50.87 84.04 51.17 85.61 53.42 85.61"/><polygon class="cls-10" points="27.4 82.57 27.9 81.06 25.87 81.06 25.29 82.57 27.4 82.57"/><polygon class="cls-10" points="25.29 82.57 23.34 82.57 22.72 84.04 24.73 84.04 25.29 82.57"/><polygon class="cls-10" points="25.87 81.06 23.99 81.06 23.34 82.57 25.29 82.57 25.87 81.06"/><polygon class="cls-10" points="24.73 84.04 22.72 84.04 22.05 85.61 24.13 85.61 24.73 84.04"/><polygon class="cls-10" points="24.13 85.61 22.05 85.61 21.33 87.3 23.48 87.3 24.13 85.61"/><polygon class="cls-10" points="23.48 87.3 21.33 87.3 20.56 89.11 22.79 89.11 23.48 87.3"/><polygon class="cls-10" points="59.58 84.04 60.19 85.61 62.18 85.61 61.51 84.04 59.58 84.04"/><polygon class="cls-10" points="60.83 87.3 62.9 87.3 62.18 85.61 60.19 85.61 60.83 87.3"/><polygon class="cls-10" points="61.53 89.11 63.67 89.11 62.9 87.3 60.83 87.3 61.53 89.11"/><polygon class="cls-10" points="44.26 82.57 44.19 81.06 42.15 81.06 42.15 82.57 44.26 82.57"/><polygon class="cls-10" points="59.58 84.04 61.51 84.04 60.88 82.57 59.02 82.57 59.58 84.04"/><polygon class="cls-10" points="58.5 87.3 60.83 87.3 60.19 85.61 57.93 85.61 58.5 87.3"/><polygon class="cls-10" points="29.5 82.57 29.94 81.06 27.9 81.06 27.4 82.57 29.5 82.57"/><polygon class="cls-10" points="56.91 82.57 57.4 84.04 59.58 84.04 59.02 82.57 56.91 82.57"/><polygon class="cls-10" points="60.88 82.57 60.24 81.06 58.43 81.06 59.02 82.57 60.88 82.57"/><polygon class="cls-10" points="59.02 82.57 58.43 81.06 56.4 81.06 56.91 82.57 59.02 82.57"/><polygon class="cls-10" points="51.49 87.3 51.84 89.11 54.27 89.11 53.83 87.3 51.49 87.3"/><polygon class="cls-10" points="59.11 89.11 61.53 89.11 60.83 87.3 58.5 87.3 59.11 89.11"/><polygon class="cls-10" points="56.91 82.57 56.4 81.06 54.37 81.06 54.8 82.57 56.91 82.57"/><polygon class="cls-10" points="56.16 87.3 56.68 89.11 59.11 89.11 58.5 87.3 56.16 87.3"/><polygon class="cls-10" points="53.83 87.3 54.27 89.11 56.68 89.11 56.16 87.3 53.83 87.3"/><polygon class="cls-10" points="57.93 85.61 60.19 85.61 59.58 84.04 57.4 84.04 57.93 85.61"/><polygon class="cls-10" points="37.94 82.57 38.08 81.06 36.05 81.06 35.83 82.57 37.94 82.57"/><polygon class="cls-10" points="54.8 82.57 54.37 81.06 52.33 81.06 52.69 82.57 54.8 82.57"/><polygon class="cls-10" points="35.83 82.57 36.05 81.06 34.01 81.06 33.72 82.57 35.83 82.57"/><polygon class="cls-10" points="42.15 82.57 42.15 81.06 40.12 81.06 40.04 82.57 42.15 82.57"/><polygon class="cls-10" points="33.72 82.57 34.01 81.06 31.97 81.06 31.61 82.57 33.72 82.57"/><polygon class="cls-10" points="31.61 82.57 31.97 81.06 29.94 81.06 29.5 82.57 31.61 82.57"/><polygon class="cls-10" points="40.04 82.57 40.12 81.06 38.08 81.06 37.94 82.57 40.04 82.57"/><polygon class="cls-10" points="52.69 82.57 52.33 81.06 50.3 81.06 50.58 82.57 52.69 82.57"/><polygon class="cls-10" points="50.58 82.57 50.3 81.06 48.26 81.06 48.48 82.57 50.58 82.57"/><polygon class="cls-10" points="46.37 82.57 46.22 81.06 44.19 81.06 44.26 82.57 46.37 82.57"/><polygon class="cls-10" points="51.49 87.3 49.16 87.3 46.83 87.3 44.49 87.3 42.16 87.3 39.82 87.3 37.49 87.3 35.16 87.3 32.82 87.3 30.49 87.3 28.15 87.3 27.63 89.11 30.06 89.11 32.47 89.11 34.9 89.11 37.32 89.11 39.74 89.11 42.16 89.11 44.58 89.11 47 89.11 49.42 89.11 51.84 89.11 51.49 87.3"/><polygon class="cls-10" points="48.48 82.57 48.26 81.06 46.22 81.06 46.37 82.57 48.48 82.57"/><rect class="cls-6" x="15.71" y="92.29" width="51.88" height="0.73"/><path class="cls-11" d="M130.71,47.59l-2-4a.23.23,0,0,0-.29-.1.22.22,0,0,0-.1.29l1.93,4a.29.29,0,0,0-.06.31l2,3.84a.31.31,0,0,0,.4.05c.16-.08.25-.23.2-.34l-1.8-4A.31.31,0,0,0,130.71,47.59Z"/><path class="cls-11" d="M141.91,47.59l2-4a.22.22,0,0,1,.28-.12.23.23,0,0,1,.13.29l0,0-1.93,4a.31.31,0,0,1,.06.32L140.41,52c0,.11-.23.13-.39.06s-.25-.24-.2-.35l1.79-4A.31.31,0,0,1,141.91,47.59Z"/><polygon class="cls-12" points="142.69 52.15 129.98 52.15 130.93 50.53 141.73 50.53 142.69 52.15"/><rect class="cls-12" x="129.98" y="52.15" width="12.71" height="1.62"/><rect class="cls-13" x="130.87" y="52.6" width="5.6" height="0.71" rx="0.36"/><circle class="cls-13" cx="139.07" cy="52.92" r="0.31"/><path class="cls-13" d="M140.67,52.92a.3.3,0,0,0-.31-.32.33.33,0,0,0-.32.31.32.32,0,0,0,.32.32h0A.31.31,0,0,0,140.67,52.92Z"/><circle class="cls-13" cx="141.65" cy="52.92" r="0.31"/><path class="cls-14" d="M145.68,41.05a3,3,0,0,1,1.51,2.6v.07"/><path class="cls-14" d="M142.54,41.14a3,3,0,0,1,1.64-.49,3,3,0,0,1,1,.16"/><path class="cls-14" d="M143.79,41.46a2.11,2.11,0,0,0-.86.36"/><path class="cls-14" d="M146.42,43.71v-.06a2.22,2.22,0,0,0-2-2.21"/><path class="cls-14" d="M145.27,42.61a1.47,1.47,0,0,0-1.08-.46,1.49,1.49,0,0,0-.91.31"/><path class="cls-14" d="M145.68,43.69v0a1.62,1.62,0,0,0-.11-.58"/><path class="cls-14" d="M144,42.84a.85.85,0,0,0-.37.21"/><path class="cls-14" d="M145,43.67v0a.83.83,0,0,0-.61-.81"/><path class="cls-14" d="M125.52,43.15a2.74,2.74,0,0,0,0,.5v.07"/><path class="cls-14" d="M127.3,40.89a3,3,0,0,0-1.63,1.69"/><path class="cls-14" d="M130.13,41.14a3,3,0,0,0-1.65-.49,3.05,3.05,0,0,0-.6.06"/><path class="cls-14" d="M126.8,42.19a2.22,2.22,0,0,1,3-.37"/><path class="cls-14" d="M126.26,43.71v-.06a2.23,2.23,0,0,1,.21-.95"/><path class="cls-14" d="M127.41,42.6a1.5,1.5,0,0,1,2-.14"/><path class="cls-14" d="M127,43.69v0a1.47,1.47,0,0,1,.15-.65"/><path class="cls-14" d="M127.94,43a.84.84,0,0,1,1.12,0"/><path class="cls-14" d="M127.66,43.67v0a.86.86,0,0,1,.09-.39"/><path class="cls-11" d="M35.31,66.61,33.2,62.42a.24.24,0,0,0-.3-.12.23.23,0,0,0-.13.3s0,0,0,0l2,4.22a.33.33,0,0,0-.07.33l2.14,4c.05.11.24.14.41,0s.26-.24.2-.35l-1.87-4.14A.31.31,0,0,0,35.31,66.61Z"/><path class="cls-11" d="M47,66.61l2.12-4.19a.22.22,0,0,1,.3-.1.23.23,0,0,1,.1.3l-2,4.23a.3.3,0,0,1,.08.33l-2.14,4c-.05.11-.24.14-.41,0s-.26-.24-.21-.35l1.88-4.14A.31.31,0,0,1,47,66.61Z"/><polygon class="cls-15" points="47.82 71.37 34.55 71.37 35.54 69.68 46.83 69.68 47.82 71.37"/><rect class="cls-15" x="34.54" y="71.37" width="13.27" height="1.69"/><path class="cls-16" d="M41,72.59h-5.1a.37.37,0,0,1-.37-.37h0a.37.37,0,0,1,.37-.38H41a.38.38,0,0,1,.37.38h0A.38.38,0,0,1,41,72.59Z"/><circle class="cls-16" cx="44.04" cy="72.17" r="0.33"/><circle class="cls-16" cx="45.39" cy="72.17" r="0.33"/><path class="cls-16" d="M47.07,72.17a.33.33,0,1,0-.33.33h0a.33.33,0,0,0,.33-.33Z"/><path class="cls-17" d="M52.35,61.46a3.32,3.32,0,0,1,.17,1v.08"/><path class="cls-17" d="M50,59.41a3.17,3.17,0,0,1,2.22,1.74"/><path class="cls-17" d="M47.66,59.87a3.07,3.07,0,0,1,1.4-.5"/><path class="cls-17" d="M51.13,61a2.32,2.32,0,0,0-3.07-.38"/><path class="cls-17" d="M51.71,62.55v-.06a2.35,2.35,0,0,0-.26-1.07"/><path class="cls-17" d="M49.06,61a1.67,1.67,0,0,0-.63.3"/><path class="cls-17" d="M51,62.53v0A1.57,1.57,0,0,0,49.72,61"/><path class="cls-17" d="M50.06,62a.85.85,0,0,0-1.2-.15l-.08.06"/><path class="cls-17" d="M50.25,62.51v0a.73.73,0,0,0,0-.25"/><path class="cls-17" d="M34.7,59.87a3.13,3.13,0,0,0-1.51-.51"/><path class="cls-17" d="M33.5,60.24a2.41,2.41,0,0,1,.81.34"/><path class="cls-17" d="M30.66,62.55v-.06A2.32,2.32,0,0,1,33,60.17h0"/><path class="cls-17" d="M31.77,61.5a1.55,1.55,0,0,1,2.16-.25"/><path class="cls-17" d="M33.14,61.64a.82.82,0,0,1,.44.23"/><path class="cls-17" d="M32.12,62.51v0a.87.87,0,0,1,.72-.85"/></g></g></svg>