<svg xmlns="http://www.w3.org/2000/svg" viewBox="0 0 178 184"><defs><style>.cls-1{fill:#d4dee1;}.cls-2,.cls-3,.cls-5{fill:none;stroke-miterlimit:10;}.cls-2{stroke:#f5f5f6;stroke-width:2.23px;}.cls-3,.cls-5{stroke:#1c5a68;}.cls-3{stroke-width:5.05px;}.cls-4{fill:#1c5a68;}.cls-5{stroke-width:5.2px;}.cls-6{fill:#f5f5f6;}.cls-7{fill:#ccc;}</style></defs><g id="Calque_2" data-name="Calque 2"><g id="Calque_1-2" data-name="Calque 1"><path id="bulle_fond" data-name="bulle fond" class="cls-1" d="M0,83.28C0,26.73,24.75,0,77.12,0H99c55.23,0,79,26.73,79,83.28v17.44C178,157.26,153.26,184,99,184H77.12C25.71,184,0,157.26,0,100.72Z"/><path class="cls-2" d="M78,43.26H92.32a9.28,9.28,0,0,1,9.14,10.91L92.11,95.22a20.06,20.06,0,0,1-19.75,17h-.58A20,20,0,0,1,52,95.22l-9.35-41a9.3,9.3,0,0,1,9.14-11H65.44"/><path class="cls-3" d="M95.87,78.6,92.09,95c-2.79,10.31-9.89,16.79-19.75,16.79h-.56C61.93,111.83,55,104.56,52,95L48.27,78.55"/><path class="cls-4" d="M65.59,47.09h-5.2a1.92,1.92,0,0,1-1.93-1.93v-3.1a1.92,1.92,0,0,1,1.93-1.93h5.2a1.93,1.93,0,0,1,1.94,1.93v3.1A1.93,1.93,0,0,1,65.59,47.09Z"/><path class="cls-4" d="M82.35,47.09h-5.2a1.92,1.92,0,0,1-1.93-1.93v-3.1a1.92,1.92,0,0,1,1.93-1.93h5.2a1.92,1.92,0,0,1,1.93,1.93v3.1A1.94,1.94,0,0,1,82.35,47.09Z"/><path class="cls-5" d="M71.72,111.84v7A25.06,25.06,0,0,0,96.8,143.87h0A25.11,25.11,0,0,0,122,118.81V93"/><ellipse class="cls-6" cx="121.9" cy="81.6" rx="13.58" ry="13.54"/><ellipse class="cls-4" cx="121.9" cy="81.6" rx="8.5" ry="8.48"/><ellipse class="cls-7" cx="121.9" cy="81.6" rx="5.4" ry="5.38"/></g></g></svg>