<svg xmlns="http://www.w3.org/2000/svg" viewBox="0 0 178 184"><defs><style>.cls-1{fill:#d4dee1;}.cls-2{fill:#ebebeb;}.cls-3{fill:#263238;}.cls-4{fill:#94b7bd;}.cls-5{opacity:0.2;}</style></defs><g id="Calque_2" data-name="Calque 2"><g id="Calque_1-2" data-name="Calque 1"><path id="bulle_fond" data-name="bulle fond" class="cls-1" d="M0,83.28C0,26.73,24.75,0,77.12,0H99c55.23,0,79,26.73,79,83.28v17.44C178,157.26,153.26,184,99,184H77.12C25.71,184,0,157.26,0,100.72Z"/><g id="freepik--Photos--inject-490"><rect class="cls-2" x="34.5" y="83.02" width="43.63" height="54.57" transform="matrix(0.13, -0.99, 0.99, 0.13, -60.52, 151.4)"/><path class="cls-3" d="M86.28,92.32H86l-.75-.09-3-.38L71.18,90.4l-39-5.22.17-.12c-1.74,12.87-3.72,27.62-5.81,43.24h0l-.14-.18,54.08,7.36-.16.11c1.79-13,3.27-23.81,4.31-31.36.51-3.76.93-6.73,1.21-8.76.14-1,.25-1.77.32-2.31l.12-.79a4,4,0,0,1-.1.77c-.08.52-.15,1.29-.27,2.29-.27,2-.66,5-1.16,8.74-1,7.58-2.43,18.4-4.19,31.5v.14h-.13l-54.11-7.36h-.16v-.17h0C28.26,112.67,30.26,97.91,32,85V84.9h.14l39.14,5.34,11,1.53,2.91.41.74.1Z"/><rect class="cls-4" x="37.22" y="84.93" width="38.14" height="50.74" transform="translate(-60.54 151.37) rotate(-82.33)"/><polygon class="cls-4" points="28.59 125.81 49.31 104.69 58.23 120.84 66.66 113.98 78.88 132.59 28.59 125.81"/><path class="cls-4" d="M65.21,103.88a4,4,0,1,1-3.45-4.49h.08A4,4,0,0,1,65.21,103.88Z"/><g class="cls-5"><polygon points="28.59 125.81 49.31 104.69 58.23 120.84 66.66 113.98 78.88 132.59 28.59 125.81"/></g><g class="cls-5"><path d="M65.21,103.88a4,4,0,1,1-3.45-4.49h.08A4,4,0,0,1,65.21,103.88Z"/></g><rect class="cls-2" x="73.19" y="45.84" width="65.93" height="82.46" transform="translate(4.37 179.21) rotate(-81.51)"/><path class="cls-3" d="M151.84,60.57h-.4l-1.14-.16-4.46-.69-16.71-2.44L70.22,48.63l.24-.19c-2.88,19.42-6.2,41.67-9.71,65.21h0l-.2-.26L142.1,125.6l-.22.17c3-19.63,5.44-35.89,7.16-47.25.87-5.7,1.56-10.16,2-13.21.24-1.52.42-2.68.54-3.49s.2-1.2.2-1.2a8.91,8.91,0,0,1-.14,1.17c-.15.77-.29,2-.5,3.45-.45,3.05-1,7.5-1.92,13.18l-7,47.43v.2H142L60.55,113.83h-.24v-.23h0c3.53-23.54,6.86-45.79,9.76-65.2v-.21h.21l59,8.92,16.64,2.55,4.39.68,1.11.18Z"/><rect class="cls-4" x="77.31" y="48.72" width="57.63" height="76.68" transform="matrix(0.15, -0.99, 0.99, 0.15, 4.35, 179.17)"/><polygon class="cls-4" points="63.97 109.91 95.75 78.44 108.83 103.06 121.73 92.86 139.79 121.23 63.97 109.91"/><path class="cls-4" d="M119.75,77.58a5.75,5.75,0,1,1,0-.1A.36.36,0,0,1,119.75,77.58Z"/><g class="cls-5"><polygon points="63.97 109.91 95.75 78.44 108.83 103.06 121.73 92.86 139.79 121.23 63.97 109.91"/></g><g class="cls-5"><path d="M119.75,77.58a5.75,5.75,0,1,1,0-.1A.36.36,0,0,1,119.75,77.58Z"/></g></g></g></g></svg>